<svg xmlns="http://www.w3.org/2000/svg" xmlns:xlink="http://www.w3.org/1999/xlink" width="2364" zoomAndPan="magnify" viewBox="0 0 1772.88 1689.749932" height="2253" preserveAspectRatio="xMidYMid meet" version="1.0"><defs><g/><clipPath id="631eb0e802"><path d="M 0.0703125 0 L 1772.6875 0 L 1772.6875 1689.5 L 0.0703125 1689.5 Z M 0.0703125 0 " clip-rule="nonzero"/></clipPath><clipPath id="01265a1761"><path d="M 0.0703125 0 L 1772.179688 0 L 1772.179688 1689 L 0.0703125 1689 Z M 0.0703125 0 " clip-rule="nonzero"/></clipPath><clipPath id="fecfcadade"><path d="M 105.449219 230.527344 L 1666.800781 230.527344 L 1666.800781 1546 L 105.449219 1546 Z M 105.449219 230.527344 " clip-rule="nonzero"/></clipPath><clipPath id="0361701919"><path d="M 127.945312 230.527344 L 1644.304688 230.527344 C 1650.269531 230.527344 1655.992188 232.898438 1660.210938 237.117188 C 1664.429688 241.335938 1666.800781 247.058594 1666.800781 253.023438 L 1666.800781 1523.546875 C 1666.800781 1529.511719 1664.429688 1535.234375 1660.210938 1539.453125 C 1655.992188 1543.671875 1650.269531 1546.042969 1644.304688 1546.042969 L 127.945312 1546.042969 C 121.980469 1546.042969 116.257812 1543.671875 112.039062 1539.453125 C 107.820312 1535.234375 105.449219 1529.511719 105.449219 1523.546875 L 105.449219 253.023438 C 105.449219 247.058594 107.820312 241.335938 112.039062 237.117188 C 116.257812 232.898438 121.980469 230.527344 127.945312 230.527344 Z M 127.945312 230.527344 " clip-rule="nonzero"/></clipPath><clipPath id="35edbe7917"><path d="M 105.457031 230.527344 L 1666.71875 230.527344 L 1666.71875 1545.832031 L 105.457031 1545.832031 Z M 105.457031 230.527344 " clip-rule="nonzero"/></clipPath><clipPath id="ec245283c0"><path d="M 127.953125 230.527344 L 1644.300781 230.527344 C 1650.265625 230.527344 1655.988281 232.898438 1660.207031 237.117188 C 1664.425781 241.335938 1666.796875 247.058594 1666.796875 253.023438 L 1666.796875 1523.535156 C 1666.796875 1529.503906 1664.425781 1535.226562 1660.207031 1539.445312 C 1655.988281 1543.664062 1650.265625 1546.03125 1644.300781 1546.03125 L 127.953125 1546.03125 C 121.984375 1546.03125 116.261719 1543.664062 112.042969 1539.445312 C 107.824219 1535.226562 105.457031 1529.503906 105.457031 1523.535156 L 105.457031 253.023438 C 105.457031 247.058594 107.824219 241.335938 112.042969 237.117188 C 116.261719 232.898438 121.984375 230.527344 127.953125 230.527344 Z M 127.953125 230.527344 " clip-rule="nonzero"/></clipPath><clipPath id="44cc84a7e3"><path d="M 663.707031 645.167969 L 1108.546875 645.167969 L 1108.546875 822.726562 L 663.707031 822.726562 Z M 663.707031 645.167969 " clip-rule="nonzero"/></clipPath><clipPath id="d91b70df8b"><path d="M 204.28125 645.09375 L 532.417969 645.09375 L 532.417969 822.652344 L 204.28125 822.652344 Z M 204.28125 645.09375 " clip-rule="nonzero"/></clipPath><clipPath id="821aca1852"><path d="M 722.058594 1275.90625 L 1050.195312 1275.90625 L 1050.195312 1453.464844 L 722.058594 1453.464844 Z M 722.058594 1275.90625 " clip-rule="nonzero"/></clipPath><clipPath id="2e19290f86"><path d="M 204.28125 957.371094 L 532.417969 957.371094 L 532.417969 1134.925781 L 204.28125 1134.925781 Z M 204.28125 957.371094 " clip-rule="nonzero"/></clipPath><clipPath id="c61f367af5"><path d="M 716.464844 957.371094 L 1044.597656 957.371094 L 1044.597656 1134.925781 L 716.464844 1134.925781 Z M 716.464844 957.371094 " clip-rule="nonzero"/></clipPath><clipPath id="f208a76a13"><path d="M 1251.527344 957.371094 L 1579.664062 957.371094 L 1579.664062 1134.925781 L 1251.527344 1134.925781 Z M 1251.527344 957.371094 " clip-rule="nonzero"/></clipPath><clipPath id="8895f9c1e3"><path d="M 1251.527344 645.09375 L 1579.664062 645.09375 L 1579.664062 822.652344 L 1251.527344 822.652344 Z M 1251.527344 645.09375 " clip-rule="nonzero"/></clipPath><clipPath id="12a321c9be"><path d="M 722.058594 326.542969 L 1050.195312 326.542969 L 1050.195312 504.097656 L 722.058594 504.097656 Z M 722.058594 326.542969 " clip-rule="nonzero"/></clipPath></defs><g clip-path="url(#631eb0e802)"><path fill="#ffffff" d="M 0.0703125 0 L 1772.808594 0 L 1772.808594 1689.5 L 0.0703125 1689.5 Z M 0.0703125 0 " fill-opacity="1" fill-rule="nonzero"/></g><g clip-path="url(#01265a1761)"><path fill="#4f1964" d="M 0.0703125 0 L 1772.179688 0 L 1772.179688 1688.902344 L 0.0703125 1688.902344 Z M 0.0703125 0 " fill-opacity="1" fill-rule="nonzero"/></g><g clip-path="url(#fecfcadade)"><g clip-path="url(#0361701919)"><path fill="#f7f4f6" d="M 105.449219 230.527344 L 1666.800781 230.527344 L 1666.800781 1545.351562 L 105.449219 1545.351562 Z M 105.449219 230.527344 " fill-opacity="1" fill-rule="nonzero"/></g></g><g clip-path="url(#35edbe7917)"><g clip-path="url(#ec245283c0)"><path stroke-linecap="butt" transform="matrix(0.749889, 0, 0, 0.749889, 105.455534, 230.528136)" fill="none" stroke-linejoin="miter" d="M 30.001226 -0.00105641 L 2052.097264 -0.00105641 C 2060.051565 -0.00105641 2067.682903 3.16087 2073.308735 8.786702 C 2078.934567 14.412534 2082.096494 22.043872 2082.096494 29.998174 L 2082.096494 1724.264459 C 2082.096494 1732.22397 2078.934567 1739.855308 2073.308735 1745.48114 C 2067.682903 1751.106972 2060.051565 1754.263689 2052.097264 1754.263689 L 30.001226 1754.263689 C 22.041715 1754.263689 14.410378 1751.106972 8.784546 1745.48114 C 3.158713 1739.855308 0.00199643 1732.22397 0.00199643 1724.264459 L 0.00199643 29.998174 C 0.00199643 22.043872 3.158713 14.412534 8.784546 8.786702 C 14.410378 3.16087 22.041715 -0.00105641 30.001226 -0.00105641 Z M 30.001226 -0.00105641 " stroke="#f7f4f6" stroke-width="4" stroke-opacity="1" stroke-miterlimit="4"/></g></g><g fill="#f7f4f6" fill-opacity="1"><g transform="translate(1391.439564, 753.520141)"><g><path d="M 7.625 -26.625 L 16.328125 -4.90625 L 25.03125 -26.625 L 29.59375 -26.625 L 29.59375 0 L 26.078125 0 L 26.078125 -10.375 L 26.40625 -21.5625 L 17.671875 0 L 14.984375 0 L 6.25 -21.5 L 6.609375 -10.375 L 6.609375 0 L 3.09375 0 L 3.09375 -26.625 Z M 7.625 -26.625 "/></g></g><g transform="translate(1424.137278, 753.520141)"><g><path d="M 10.765625 0.359375 C 8.085938 0.359375 5.90625 -0.519531 4.21875 -2.28125 C 2.539062 -4.039062 1.703125 -6.394531 1.703125 -9.34375 L 1.703125 -9.96875 C 1.703125 -11.925781 2.078125 -13.675781 2.828125 -15.21875 C 3.578125 -16.757812 4.625 -17.96875 5.96875 -18.84375 C 7.3125 -19.71875 8.769531 -20.15625 10.34375 -20.15625 C 12.914062 -20.15625 14.914062 -19.304688 16.34375 -17.609375 C 17.769531 -15.910156 18.484375 -13.484375 18.484375 -10.328125 L 18.484375 -8.921875 L 5.078125 -8.921875 C 5.128906 -6.972656 5.703125 -5.394531 6.796875 -4.1875 C 7.890625 -2.988281 9.273438 -2.390625 10.953125 -2.390625 C 12.148438 -2.390625 13.160156 -2.632812 13.984375 -3.125 C 14.816406 -3.613281 15.546875 -4.257812 16.171875 -5.0625 L 18.234375 -3.453125 C 16.578125 -0.910156 14.085938 0.359375 10.765625 0.359375 Z M 10.34375 -17.375 C 8.976562 -17.375 7.832031 -16.875 6.90625 -15.875 C 5.976562 -14.882812 5.40625 -13.492188 5.1875 -11.703125 L 15.109375 -11.703125 L 15.109375 -11.953125 C 15.003906 -13.671875 14.535156 -15.003906 13.703125 -15.953125 C 12.878906 -16.898438 11.757812 -17.375 10.34375 -17.375 Z M 10.34375 -17.375 "/></g></g><g transform="translate(1443.979012, 753.520141)"><g><path d="M 5.75 -19.78125 L 5.828125 -17.59375 C 7.285156 -19.300781 9.242188 -20.15625 11.703125 -20.15625 C 14.472656 -20.15625 16.359375 -19.09375 17.359375 -16.96875 C 18.015625 -17.914062 18.867188 -18.679688 19.921875 -19.265625 C 20.972656 -19.859375 22.222656 -20.15625 23.671875 -20.15625 C 28.003906 -20.15625 30.207031 -17.859375 30.28125 -13.265625 L 30.28125 0 L 26.90625 0 L 26.90625 -13.0625 C 26.90625 -14.46875 26.582031 -15.519531 25.9375 -16.21875 C 25.289062 -16.925781 24.203125 -17.28125 22.671875 -17.28125 C 21.421875 -17.28125 20.378906 -16.90625 19.546875 -16.15625 C 18.722656 -15.40625 18.242188 -14.394531 18.109375 -13.125 L 18.109375 0 L 14.703125 0 L 14.703125 -12.96875 C 14.703125 -15.84375 13.296875 -17.28125 10.484375 -17.28125 C 8.265625 -17.28125 6.742188 -16.335938 5.921875 -14.453125 L 5.921875 0 L 2.546875 0 L 2.546875 -19.78125 Z M 5.75 -19.78125 "/></g></g><g transform="translate(1476.804737, 753.520141)"><g><path d="M 1.671875 -10.078125 C 1.671875 -12.015625 2.050781 -13.753906 2.8125 -15.296875 C 3.570312 -16.847656 4.628906 -18.046875 5.984375 -18.890625 C 7.347656 -19.734375 8.898438 -20.15625 10.640625 -20.15625 C 13.335938 -20.15625 15.515625 -19.222656 17.171875 -17.359375 C 18.835938 -15.492188 19.671875 -13.007812 19.671875 -9.90625 L 19.671875 -9.671875 C 19.671875 -7.742188 19.300781 -6.015625 18.5625 -4.484375 C 17.832031 -2.953125 16.78125 -1.757812 15.40625 -0.90625 C 14.03125 -0.0625 12.457031 0.359375 10.6875 0.359375 C 8 0.359375 5.820312 -0.570312 4.15625 -2.4375 C 2.5 -4.300781 1.671875 -6.769531 1.671875 -9.84375 Z M 5.0625 -9.671875 C 5.0625 -7.472656 5.570312 -5.707031 6.59375 -4.375 C 7.613281 -3.050781 8.976562 -2.390625 10.6875 -2.390625 C 12.40625 -2.390625 13.769531 -3.0625 14.78125 -4.40625 C 15.789062 -5.757812 16.296875 -7.648438 16.296875 -10.078125 C 16.296875 -12.242188 15.78125 -14 14.75 -15.34375 C 13.71875 -16.695312 12.347656 -17.375 10.640625 -17.375 C 8.972656 -17.375 7.625 -16.707031 6.59375 -15.375 C 5.570312 -14.050781 5.0625 -12.148438 5.0625 -9.671875 Z M 5.0625 -9.671875 "/></g></g><g transform="translate(1498.164318, 753.520141)"><g><path d="M 12.125 -16.75 C 11.613281 -16.832031 11.054688 -16.875 10.453125 -16.875 C 8.234375 -16.875 6.726562 -15.929688 5.9375 -14.046875 L 5.9375 0 L 2.5625 0 L 2.5625 -19.78125 L 5.859375 -19.78125 L 5.90625 -17.5 C 7.019531 -19.269531 8.59375 -20.15625 10.625 -20.15625 C 11.28125 -20.15625 11.78125 -20.066406 12.125 -19.890625 Z M 12.125 -16.75 "/></g></g><g transform="translate(1510.837426, 753.520141)"><g><path d="M 9.03125 -4.953125 L 13.640625 -19.78125 L 17.265625 -19.78125 L 9.3125 3.046875 C 8.082031 6.335938 6.125 7.984375 3.4375 7.984375 L 2.796875 7.9375 L 1.53125 7.703125 L 1.53125 4.953125 L 2.453125 5.03125 C 3.597656 5.03125 4.488281 4.796875 5.125 4.328125 C 5.769531 3.867188 6.300781 3.023438 6.71875 1.796875 L 7.46875 -0.21875 L 0.40625 -19.78125 L 4.09375 -19.78125 Z M 9.03125 -4.953125 "/></g></g></g><g fill="#f7f4f6" fill-opacity="1"><g transform="translate(713.021073, 168.833381)"><g><path d="M 38.53125 -38.125 L 24.515625 -38.125 L 24.515625 0 L 15.078125 0 L 15.078125 -38.125 L 1.25 -38.125 L 1.25 -45.75 L 38.53125 -45.75 Z M 38.53125 -38.125 "/></g></g><g transform="translate(752.83287, 168.833381)"><g><path d="M 22.59375 -25.484375 C 21.351562 -25.648438 20.265625 -25.734375 19.328125 -25.734375 C 15.890625 -25.734375 13.632812 -24.570312 12.5625 -22.25 L 12.5625 0 L 3.484375 0 L 3.484375 -34 L 12.0625 -34 L 12.3125 -29.953125 C 14.132812 -33.066406 16.660156 -34.625 19.890625 -34.625 C 20.898438 -34.625 21.84375 -34.488281 22.71875 -34.21875 Z M 22.59375 -25.484375 "/></g></g><g transform="translate(776.305177, 168.833381)"><g><path d="M 23.1875 0 C 22.769531 -0.8125 22.46875 -1.828125 22.28125 -3.046875 C 20.082031 -0.597656 17.222656 0.625 13.703125 0.625 C 10.367188 0.625 7.609375 -0.335938 5.421875 -2.265625 C 3.234375 -4.191406 2.140625 -6.617188 2.140625 -9.546875 C 2.140625 -13.148438 3.472656 -15.914062 6.140625 -17.84375 C 8.816406 -19.769531 12.675781 -20.742188 17.71875 -20.765625 L 21.90625 -20.765625 L 21.90625 -22.71875 C 21.90625 -24.289062 21.5 -25.546875 20.6875 -26.484375 C 19.882812 -27.429688 18.613281 -27.90625 16.875 -27.90625 C 15.34375 -27.90625 14.140625 -27.535156 13.265625 -26.796875 C 12.398438 -26.066406 11.96875 -25.066406 11.96875 -23.796875 L 2.890625 -23.796875 C 2.890625 -25.765625 3.492188 -27.582031 4.703125 -29.25 C 5.921875 -30.925781 7.640625 -32.238281 9.859375 -33.1875 C 12.085938 -34.144531 14.582031 -34.625 17.34375 -34.625 C 21.53125 -34.625 24.851562 -33.570312 27.3125 -31.46875 C 29.78125 -29.363281 31.015625 -26.40625 31.015625 -22.59375 L 31.015625 -7.859375 C 31.035156 -4.628906 31.488281 -2.1875 32.375 -0.53125 L 32.375 0 Z M 15.6875 -6.3125 C 17.019531 -6.3125 18.253906 -6.609375 19.390625 -7.203125 C 20.523438 -7.804688 21.363281 -8.609375 21.90625 -9.609375 L 21.90625 -15.46875 L 18.515625 -15.46875 C 13.960938 -15.46875 11.539062 -13.894531 11.25 -10.75 L 11.21875 -10.21875 C 11.21875 -9.082031 11.613281 -8.144531 12.40625 -7.40625 C 13.207031 -6.675781 14.300781 -6.3125 15.6875 -6.3125 Z M 15.6875 -6.3125 "/></g></g><g transform="translate(810.806641, 168.833381)"><g><path d="M 11.84375 -34 L 12.125 -30.078125 C 14.5625 -33.109375 17.820312 -34.625 21.90625 -34.625 C 25.507812 -34.625 28.191406 -33.566406 29.953125 -31.453125 C 31.710938 -29.335938 32.613281 -26.175781 32.65625 -21.96875 L 32.65625 0 L 23.5625 0 L 23.5625 -21.75 C 23.5625 -23.675781 23.144531 -25.070312 22.3125 -25.9375 C 21.476562 -26.8125 20.082031 -27.25 18.125 -27.25 C 15.570312 -27.25 13.65625 -26.160156 12.375 -23.984375 L 12.375 0 L 3.296875 0 L 3.296875 -34 Z M 11.84375 -34 "/></g></g><g transform="translate(846.847787, 168.833381)"><g><path d="M 21.90625 -9.390625 C 21.90625 -10.503906 21.351562 -11.378906 20.25 -12.015625 C 19.15625 -12.660156 17.390625 -13.234375 14.953125 -13.734375 C 6.867188 -15.429688 2.828125 -18.867188 2.828125 -24.046875 C 2.828125 -27.054688 4.078125 -29.570312 6.578125 -31.59375 C 9.085938 -33.613281 12.363281 -34.625 16.40625 -34.625 C 20.71875 -34.625 24.164062 -33.609375 26.75 -31.578125 C 29.34375 -29.546875 30.640625 -26.90625 30.640625 -23.65625 L 21.5625 -23.65625 C 21.5625 -24.957031 21.140625 -26.03125 20.296875 -26.875 C 19.460938 -27.726562 18.15625 -28.15625 16.375 -28.15625 C 14.84375 -28.15625 13.65625 -27.804688 12.8125 -27.109375 C 11.976562 -26.421875 11.5625 -25.546875 11.5625 -24.484375 C 11.5625 -23.472656 12.035156 -22.660156 12.984375 -22.046875 C 13.941406 -21.429688 15.550781 -20.894531 17.8125 -20.4375 C 20.082031 -19.988281 21.988281 -19.484375 23.53125 -18.921875 C 28.332031 -17.160156 30.734375 -14.109375 30.734375 -9.765625 C 30.734375 -6.671875 29.398438 -4.164062 26.734375 -2.25 C 24.078125 -0.332031 20.644531 0.625 16.4375 0.625 C 13.582031 0.625 11.050781 0.117188 8.84375 -0.890625 C 6.632812 -1.910156 4.898438 -3.304688 3.640625 -5.078125 C 2.390625 -6.847656 1.765625 -8.757812 1.765625 -10.8125 L 10.375 -10.8125 C 10.457031 -9.195312 11.050781 -7.957031 12.15625 -7.09375 C 13.269531 -6.238281 14.757812 -5.8125 16.625 -5.8125 C 18.363281 -5.8125 19.675781 -6.140625 20.5625 -6.796875 C 21.457031 -7.460938 21.90625 -8.328125 21.90625 -9.390625 Z M 21.90625 -9.390625 "/></g></g><g transform="translate(879.935256, 168.833381)"><g><path d="M 23.1875 0 C 22.769531 -0.8125 22.46875 -1.828125 22.28125 -3.046875 C 20.082031 -0.597656 17.222656 0.625 13.703125 0.625 C 10.367188 0.625 7.609375 -0.335938 5.421875 -2.265625 C 3.234375 -4.191406 2.140625 -6.617188 2.140625 -9.546875 C 2.140625 -13.148438 3.472656 -15.914062 6.140625 -17.84375 C 8.816406 -19.769531 12.675781 -20.742188 17.71875 -20.765625 L 21.90625 -20.765625 L 21.90625 -22.71875 C 21.90625 -24.289062 21.5 -25.546875 20.6875 -26.484375 C 19.882812 -27.429688 18.613281 -27.90625 16.875 -27.90625 C 15.34375 -27.90625 14.140625 -27.535156 13.265625 -26.796875 C 12.398438 -26.066406 11.96875 -25.066406 11.96875 -23.796875 L 2.890625 -23.796875 C 2.890625 -25.765625 3.492188 -27.582031 4.703125 -29.25 C 5.921875 -30.925781 7.640625 -32.238281 9.859375 -33.1875 C 12.085938 -34.144531 14.582031 -34.625 17.34375 -34.625 C 21.53125 -34.625 24.851562 -33.570312 27.3125 -31.46875 C 29.78125 -29.363281 31.015625 -26.40625 31.015625 -22.59375 L 31.015625 -7.859375 C 31.035156 -4.628906 31.488281 -2.1875 32.375 -0.53125 L 32.375 0 Z M 15.6875 -6.3125 C 17.019531 -6.3125 18.253906 -6.609375 19.390625 -7.203125 C 20.523438 -7.804688 21.363281 -8.609375 21.90625 -9.609375 L 21.90625 -15.46875 L 18.515625 -15.46875 C 13.960938 -15.46875 11.539062 -13.894531 11.25 -10.75 L 11.21875 -10.21875 C 11.21875 -9.082031 11.613281 -8.144531 12.40625 -7.40625 C 13.207031 -6.675781 14.300781 -6.3125 15.6875 -6.3125 Z M 15.6875 -6.3125 "/></g></g><g transform="translate(914.43672, 168.833381)"><g><path d="M 17.625 -6.6875 C 19.300781 -6.6875 20.660156 -7.144531 21.703125 -8.0625 C 22.753906 -8.988281 23.300781 -10.21875 23.34375 -11.75 L 31.859375 -11.75 C 31.835938 -9.445312 31.207031 -7.335938 29.96875 -5.421875 C 28.738281 -3.503906 27.050781 -2.015625 24.90625 -0.953125 C 22.757812 0.0976562 20.382812 0.625 17.78125 0.625 C 12.925781 0.625 9.09375 -0.914062 6.28125 -4 C 3.476562 -7.09375 2.078125 -11.363281 2.078125 -16.8125 L 2.078125 -17.40625 C 2.078125 -22.644531 3.46875 -26.820312 6.25 -29.9375 C 9.039062 -33.0625 12.863281 -34.625 17.71875 -34.625 C 21.976562 -34.625 25.390625 -33.414062 27.953125 -31 C 30.515625 -28.582031 31.816406 -25.363281 31.859375 -21.34375 L 23.34375 -21.34375 C 23.300781 -23.101562 22.753906 -24.53125 21.703125 -25.625 C 20.660156 -26.726562 19.28125 -27.28125 17.5625 -27.28125 C 15.445312 -27.28125 13.847656 -26.507812 12.765625 -24.96875 C 11.691406 -23.425781 11.15625 -20.925781 11.15625 -17.46875 L 11.15625 -16.53125 C 11.15625 -13.03125 11.6875 -10.515625 12.75 -8.984375 C 13.820312 -7.453125 15.445312 -6.6875 17.625 -6.6875 Z M 17.625 -6.6875 "/></g></g><g transform="translate(947.995521, 168.833381)"><g><path d="M 14.359375 -42.359375 L 14.359375 -34 L 20.171875 -34 L 20.171875 -27.34375 L 14.359375 -27.34375 L 14.359375 -10.375 C 14.359375 -9.113281 14.597656 -8.207031 15.078125 -7.65625 C 15.566406 -7.113281 16.488281 -6.84375 17.84375 -6.84375 C 18.851562 -6.84375 19.742188 -6.921875 20.515625 -7.078125 L 20.515625 -0.1875 C 18.734375 0.351562 16.898438 0.625 15.015625 0.625 C 8.648438 0.625 5.40625 -2.585938 5.28125 -9.015625 L 5.28125 -27.34375 L 0.3125 -27.34375 L 0.3125 -34 L 5.28125 -34 L 5.28125 -42.359375 Z M 14.359375 -42.359375 "/></g></g><g transform="translate(969.739613, 168.833381)"><g><path d="M 13.078125 0 L 3.953125 0 L 3.953125 -34 L 13.078125 -34 Z M 3.421875 -42.796875 C 3.421875 -44.160156 3.875 -45.28125 4.78125 -46.15625 C 5.695312 -47.039062 6.941406 -47.484375 8.515625 -47.484375 C 10.066406 -47.484375 11.300781 -47.039062 12.21875 -46.15625 C 13.144531 -45.28125 13.609375 -44.160156 13.609375 -42.796875 C 13.609375 -41.421875 13.140625 -40.289062 12.203125 -39.40625 C 11.273438 -38.53125 10.046875 -38.09375 8.515625 -38.09375 C 6.984375 -38.09375 5.75 -38.53125 4.8125 -39.40625 C 3.882812 -40.289062 3.421875 -41.421875 3.421875 -42.796875 Z M 3.421875 -42.796875 "/></g></g><g transform="translate(986.801812, 168.833381)"><g><path d="M 2.078125 -17.3125 C 2.078125 -20.6875 2.722656 -23.691406 4.015625 -26.328125 C 5.316406 -28.972656 7.1875 -31.015625 9.625 -32.453125 C 12.070312 -33.898438 14.90625 -34.625 18.125 -34.625 C 22.71875 -34.625 26.460938 -33.21875 29.359375 -30.40625 C 32.265625 -27.601562 33.882812 -23.796875 34.21875 -18.984375 L 34.28125 -16.65625 C 34.28125 -11.4375 32.820312 -7.25 29.90625 -4.09375 C 27 -0.945312 23.09375 0.625 18.1875 0.625 C 13.289062 0.625 9.378906 -0.941406 6.453125 -4.078125 C 3.535156 -7.222656 2.078125 -11.5 2.078125 -16.90625 Z M 11.15625 -16.65625 C 11.15625 -13.425781 11.757812 -10.957031 12.96875 -9.25 C 14.1875 -7.539062 15.929688 -6.6875 18.203125 -6.6875 C 20.398438 -6.6875 22.113281 -7.53125 23.34375 -9.21875 C 24.582031 -10.90625 25.203125 -13.601562 25.203125 -17.3125 C 25.203125 -20.476562 24.582031 -22.929688 23.34375 -24.671875 C 22.113281 -26.410156 20.375 -27.28125 18.125 -27.28125 C 15.90625 -27.28125 14.1875 -26.414062 12.96875 -24.6875 C 11.757812 -22.957031 11.15625 -20.28125 11.15625 -16.65625 Z M 11.15625 -16.65625 "/></g></g><g transform="translate(1023.188602, 168.833381)"><g><path d="M 11.84375 -34 L 12.125 -30.078125 C 14.5625 -33.109375 17.820312 -34.625 21.90625 -34.625 C 25.507812 -34.625 28.191406 -33.566406 29.953125 -31.453125 C 31.710938 -29.335938 32.613281 -26.175781 32.65625 -21.96875 L 32.65625 0 L 23.5625 0 L 23.5625 -21.75 C 23.5625 -23.675781 23.144531 -25.070312 22.3125 -25.9375 C 21.476562 -26.8125 20.082031 -27.25 18.125 -27.25 C 15.570312 -27.25 13.65625 -26.160156 12.375 -23.984375 L 12.375 0 L 3.296875 0 L 3.296875 -34 Z M 11.84375 -34 "/></g></g></g><g clip-path="url(#44cc84a7e3)"><path fill="#731f91" d="M 663.707031 645.167969 L 1108.546875 645.167969 L 1108.546875 822.722656 L 663.707031 822.722656 Z M 663.707031 645.167969 " fill-opacity="1" fill-rule="nonzero"/></g><g fill="#f7f4f6" fill-opacity="1"><g transform="translate(700.520641, 745.592118)"><g><path d="M 6.828125 -19.359375 L 7 -17.1875 C 8.363281 -18.875 10.21875 -19.71875 12.5625 -19.71875 C 15.050781 -19.71875 16.757812 -18.734375 17.6875 -16.765625 C 19.050781 -18.734375 20.992188 -19.71875 23.515625 -19.71875 C 25.609375 -19.71875 27.164062 -19.101562 28.1875 -17.875 C 29.21875 -16.65625 29.734375 -14.816406 29.734375 -12.359375 L 29.734375 0 L 24.546875 0 L 24.546875 -12.34375 C 24.546875 -13.4375 24.332031 -14.238281 23.90625 -14.75 C 23.476562 -15.257812 22.71875 -15.515625 21.625 -15.515625 C 20.070312 -15.515625 19 -14.773438 18.40625 -13.296875 L 18.421875 0 L 13.25 0 L 13.25 -12.328125 C 13.25 -13.453125 13.03125 -14.265625 12.59375 -14.765625 C 12.15625 -15.265625 11.40625 -15.515625 10.34375 -15.515625 C 8.875 -15.515625 7.8125 -14.90625 7.15625 -13.6875 L 7.15625 0 L 1.984375 0 L 1.984375 -19.359375 Z M 6.828125 -19.359375 "/></g></g></g><g fill="#f7f4f6" fill-opacity="1"><g transform="translate(732.238184, 745.592118)"><g><path d="M 13.203125 0 C 12.960938 -0.46875 12.789062 -1.046875 12.6875 -1.734375 C 11.4375 -0.335938 9.804688 0.359375 7.796875 0.359375 C 5.898438 0.359375 4.328125 -0.1875 3.078125 -1.28125 C 1.835938 -2.382812 1.21875 -3.769531 1.21875 -5.4375 C 1.21875 -7.488281 1.976562 -9.0625 3.5 -10.15625 C 5.019531 -11.257812 7.21875 -11.816406 10.09375 -11.828125 L 12.46875 -11.828125 L 12.46875 -12.9375 C 12.46875 -13.832031 12.238281 -14.546875 11.78125 -15.078125 C 11.320312 -15.617188 10.597656 -15.890625 9.609375 -15.890625 C 8.734375 -15.890625 8.046875 -15.679688 7.546875 -15.265625 C 7.054688 -14.847656 6.8125 -14.273438 6.8125 -13.546875 L 1.640625 -13.546875 C 1.640625 -14.660156 1.984375 -15.695312 2.671875 -16.65625 C 3.367188 -17.613281 4.347656 -18.363281 5.609375 -18.90625 C 6.878906 -19.445312 8.300781 -19.71875 9.875 -19.71875 C 12.257812 -19.71875 14.148438 -19.117188 15.546875 -17.921875 C 16.953125 -16.722656 17.65625 -15.035156 17.65625 -12.859375 L 17.65625 -4.46875 C 17.664062 -2.632812 17.921875 -1.242188 18.421875 -0.296875 L 18.421875 0 Z M 8.921875 -3.59375 C 9.691406 -3.59375 10.394531 -3.757812 11.03125 -4.09375 C 11.675781 -4.4375 12.15625 -4.894531 12.46875 -5.46875 L 12.46875 -8.796875 L 10.53125 -8.796875 C 7.945312 -8.796875 6.570312 -7.90625 6.40625 -6.125 L 6.390625 -5.8125 C 6.390625 -5.164062 6.613281 -4.632812 7.0625 -4.21875 C 7.519531 -3.800781 8.140625 -3.59375 8.921875 -3.59375 Z M 8.921875 -3.59375 "/></g></g></g><g fill="#f7f4f6" fill-opacity="1"><g transform="translate(751.880517, 745.592118)"><g><path d="M 9.359375 -13.578125 L 12.609375 -19.359375 L 18.140625 -19.359375 L 12.625 -9.875 L 18.375 0 L 12.828125 0 L 9.375 -6.078125 L 5.9375 0 L 0.375 0 L 6.125 -9.875 L 0.625 -19.359375 L 6.171875 -19.359375 Z M 9.359375 -13.578125 "/></g></g></g><g fill="#f7f4f6" fill-opacity="1"><g transform="translate(770.521056, 745.592118)"><g><path d="M 7.6875 -9.171875 L 7.6875 0 L 2.328125 0 L 2.328125 -26.046875 L 12.484375 -26.046875 C 14.441406 -26.046875 16.160156 -25.6875 17.640625 -24.96875 C 19.128906 -24.257812 20.273438 -23.242188 21.078125 -21.921875 C 21.878906 -20.609375 22.28125 -19.109375 22.28125 -17.421875 C 22.28125 -14.867188 21.40625 -12.851562 19.65625 -11.375 C 17.90625 -9.90625 15.484375 -9.171875 12.390625 -9.171875 Z M 7.6875 -13.53125 L 12.484375 -13.53125 C 13.898438 -13.53125 14.984375 -13.863281 15.734375 -14.53125 C 16.484375 -15.195312 16.859375 -16.148438 16.859375 -17.390625 C 16.859375 -18.660156 16.476562 -19.691406 15.71875 -20.484375 C 14.96875 -21.273438 13.929688 -21.679688 12.609375 -21.703125 L 7.6875 -21.703125 Z M 7.6875 -13.53125 "/></g></g></g><g fill="#f7f4f6" fill-opacity="1"><g transform="translate(794.152684, 745.592118)"><g><path d="M 12.859375 -14.515625 C 12.160156 -14.609375 11.539062 -14.65625 11 -14.65625 C 9.039062 -14.65625 7.757812 -13.992188 7.15625 -12.671875 L 7.15625 0 L 1.984375 0 L 1.984375 -19.359375 L 6.875 -19.359375 L 7.015625 -17.046875 C 8.046875 -18.828125 9.484375 -19.71875 11.328125 -19.71875 C 11.898438 -19.71875 12.4375 -19.640625 12.9375 -19.484375 Z M 12.859375 -14.515625 "/></g></g></g><g fill="#f7f4f6" fill-opacity="1"><g transform="translate(807.515916, 745.592118)"><g><path d="M 7.4375 0 L 2.25 0 L 2.25 -19.359375 L 7.4375 -19.359375 Z M 1.953125 -24.375 C 1.953125 -25.144531 2.207031 -25.78125 2.71875 -26.28125 C 3.238281 -26.78125 3.945312 -27.03125 4.84375 -27.03125 C 5.726562 -27.03125 6.429688 -26.78125 6.953125 -26.28125 C 7.484375 -25.78125 7.75 -25.144531 7.75 -24.375 C 7.75 -23.582031 7.484375 -22.9375 6.953125 -22.4375 C 6.421875 -21.9375 5.71875 -21.6875 4.84375 -21.6875 C 3.976562 -21.6875 3.28125 -21.9375 2.75 -22.4375 C 2.21875 -22.9375 1.953125 -23.582031 1.953125 -24.375 Z M 1.953125 -24.375 "/></g></g></g><g fill="#f7f4f6" fill-opacity="1"><g transform="translate(817.229753, 745.592118)"><g><path d="M 1.1875 -9.859375 C 1.1875 -11.773438 1.554688 -13.484375 2.296875 -14.984375 C 3.035156 -16.492188 4.097656 -17.660156 5.484375 -18.484375 C 6.867188 -19.304688 8.484375 -19.71875 10.328125 -19.71875 C 12.929688 -19.71875 15.0625 -18.914062 16.71875 -17.3125 C 18.375 -15.71875 19.296875 -13.550781 19.484375 -10.8125 L 19.515625 -9.484375 C 19.515625 -6.515625 18.6875 -4.128906 17.03125 -2.328125 C 15.375 -0.535156 13.148438 0.359375 10.359375 0.359375 C 7.566406 0.359375 5.335938 -0.535156 3.671875 -2.328125 C 2.015625 -4.117188 1.1875 -6.550781 1.1875 -9.625 Z M 6.34375 -9.484375 C 6.34375 -7.648438 6.6875 -6.242188 7.375 -5.265625 C 8.070312 -4.296875 9.066406 -3.8125 10.359375 -3.8125 C 11.609375 -3.8125 12.582031 -4.289062 13.28125 -5.25 C 13.988281 -6.207031 14.34375 -7.742188 14.34375 -9.859375 C 14.34375 -11.660156 13.988281 -13.054688 13.28125 -14.046875 C 12.582031 -15.035156 11.597656 -15.53125 10.328125 -15.53125 C 9.054688 -15.53125 8.070312 -15.035156 7.375 -14.046875 C 6.6875 -13.066406 6.34375 -11.546875 6.34375 -9.484375 Z M 6.34375 -9.484375 "/></g></g></g><g fill="#f7f4f6" fill-opacity="1"><g transform="translate(837.945437, 745.592118)"><g><path d="M 12.859375 -14.515625 C 12.160156 -14.609375 11.539062 -14.65625 11 -14.65625 C 9.039062 -14.65625 7.757812 -13.992188 7.15625 -12.671875 L 7.15625 0 L 1.984375 0 L 1.984375 -19.359375 L 6.875 -19.359375 L 7.015625 -17.046875 C 8.046875 -18.828125 9.484375 -19.71875 11.328125 -19.71875 C 11.898438 -19.71875 12.4375 -19.640625 12.9375 -19.484375 Z M 12.859375 -14.515625 "/></g></g></g><g fill="#f7f4f6" fill-opacity="1"><g transform="translate(851.308669, 745.592118)"><g><path d="M 7.4375 0 L 2.25 0 L 2.25 -19.359375 L 7.4375 -19.359375 Z M 1.953125 -24.375 C 1.953125 -25.144531 2.207031 -25.78125 2.71875 -26.28125 C 3.238281 -26.78125 3.945312 -27.03125 4.84375 -27.03125 C 5.726562 -27.03125 6.429688 -26.78125 6.953125 -26.28125 C 7.484375 -25.78125 7.75 -25.144531 7.75 -24.375 C 7.75 -23.582031 7.484375 -22.9375 6.953125 -22.4375 C 6.421875 -21.9375 5.71875 -21.6875 4.84375 -21.6875 C 3.976562 -21.6875 3.28125 -21.9375 2.75 -22.4375 C 2.21875 -22.9375 1.953125 -23.582031 1.953125 -24.375 Z M 1.953125 -24.375 "/></g></g></g><g fill="#f7f4f6" fill-opacity="1"><g transform="translate(861.022505, 745.592118)"><g><path d="M 8.171875 -24.109375 L 8.171875 -19.359375 L 11.484375 -19.359375 L 11.484375 -15.5625 L 8.171875 -15.5625 L 8.171875 -5.90625 C 8.171875 -5.1875 8.304688 -4.671875 8.578125 -4.359375 C 8.859375 -4.054688 9.382812 -3.90625 10.15625 -3.90625 C 10.726562 -3.90625 11.238281 -3.945312 11.6875 -4.03125 L 11.6875 -0.109375 C 10.664062 0.203125 9.617188 0.359375 8.546875 0.359375 C 4.921875 0.359375 3.070312 -1.472656 3 -5.140625 L 3 -15.5625 L 0.171875 -15.5625 L 0.171875 -19.359375 L 3 -19.359375 L 3 -24.109375 Z M 8.171875 -24.109375 "/></g></g></g><g fill="#f7f4f6" fill-opacity="1"><g transform="translate(873.401827, 745.592118)"><g><path d="M 9.21875 -7.3125 L 12.796875 -19.359375 L 18.34375 -19.359375 L 10.5625 3 L 10.125 4.03125 C 8.96875 6.550781 7.0625 7.8125 4.40625 7.8125 C 3.65625 7.8125 2.890625 7.703125 2.109375 7.484375 L 2.109375 3.5625 L 2.890625 3.578125 C 3.867188 3.578125 4.597656 3.425781 5.078125 3.125 C 5.566406 2.832031 5.945312 2.335938 6.21875 1.640625 L 6.828125 0.046875 L 0.046875 -19.359375 L 5.625 -19.359375 Z M 9.21875 -7.3125 "/></g></g></g><g fill="#f7f4f6" fill-opacity="1"><g transform="translate(891.791905, 745.592118)"><g><path d="M 18 -10.640625 L 7.6875 -10.640625 L 7.6875 0 L 2.328125 0 L 2.328125 -26.046875 L 19.28125 -26.046875 L 19.28125 -21.703125 L 7.6875 -21.703125 L 7.6875 -14.96875 L 18 -14.96875 Z M 18 -10.640625 "/></g></g></g><g fill="#f7f4f6" fill-opacity="1"><g transform="translate(911.863567, 745.592118)"><g><path d="M 10.890625 0.359375 C 8.054688 0.359375 5.742188 -0.507812 3.953125 -2.25 C 2.171875 -3.988281 1.28125 -6.3125 1.28125 -9.21875 L 1.28125 -9.71875 C 1.28125 -11.65625 1.65625 -13.390625 2.40625 -14.921875 C 3.164062 -16.460938 4.234375 -17.644531 5.609375 -18.46875 C 6.984375 -19.300781 8.554688 -19.71875 10.328125 -19.71875 C 12.972656 -19.71875 15.054688 -18.878906 16.578125 -17.203125 C 18.097656 -15.535156 18.859375 -13.171875 18.859375 -10.109375 L 18.859375 -8 L 6.53125 -8 C 6.695312 -6.726562 7.195312 -5.710938 8.03125 -4.953125 C 8.875 -4.191406 9.941406 -3.8125 11.234375 -3.8125 C 13.222656 -3.8125 14.78125 -4.53125 15.90625 -5.96875 L 18.453125 -3.125 C 17.671875 -2.03125 16.617188 -1.175781 15.296875 -0.5625 C 13.972656 0.0507812 12.503906 0.359375 10.890625 0.359375 Z M 10.3125 -15.53125 C 9.28125 -15.53125 8.445312 -15.179688 7.8125 -14.484375 C 7.175781 -13.796875 6.765625 -12.804688 6.578125 -11.515625 L 13.78125 -11.515625 L 13.78125 -11.9375 C 13.75 -13.082031 13.4375 -13.96875 12.84375 -14.59375 C 12.25 -15.21875 11.40625 -15.53125 10.3125 -15.53125 Z M 10.3125 -15.53125 "/></g></g></g><g fill="#f7f4f6" fill-opacity="1"><g transform="translate(931.666909, 745.592118)"><g><path d="M 10.890625 0.359375 C 8.054688 0.359375 5.742188 -0.507812 3.953125 -2.25 C 2.171875 -3.988281 1.28125 -6.3125 1.28125 -9.21875 L 1.28125 -9.71875 C 1.28125 -11.65625 1.65625 -13.390625 2.40625 -14.921875 C 3.164062 -16.460938 4.234375 -17.644531 5.609375 -18.46875 C 6.984375 -19.300781 8.554688 -19.71875 10.328125 -19.71875 C 12.972656 -19.71875 15.054688 -18.878906 16.578125 -17.203125 C 18.097656 -15.535156 18.859375 -13.171875 18.859375 -10.109375 L 18.859375 -8 L 6.53125 -8 C 6.695312 -6.726562 7.195312 -5.710938 8.03125 -4.953125 C 8.875 -4.191406 9.941406 -3.8125 11.234375 -3.8125 C 13.222656 -3.8125 14.78125 -4.53125 15.90625 -5.96875 L 18.453125 -3.125 C 17.671875 -2.03125 16.617188 -1.175781 15.296875 -0.5625 C 13.972656 0.0507812 12.503906 0.359375 10.890625 0.359375 Z M 10.3125 -15.53125 C 9.28125 -15.53125 8.445312 -15.179688 7.8125 -14.484375 C 7.175781 -13.796875 6.765625 -12.804688 6.578125 -11.515625 L 13.78125 -11.515625 L 13.78125 -11.9375 C 13.75 -13.082031 13.4375 -13.96875 12.84375 -14.59375 C 12.25 -15.21875 11.40625 -15.53125 10.3125 -15.53125 Z M 10.3125 -15.53125 "/></g></g></g><g fill="#f7f4f6" fill-opacity="1"><g transform="translate(951.47025, 745.592118)"><g><path d="M 7.6875 -9.171875 L 7.6875 0 L 2.328125 0 L 2.328125 -26.046875 L 12.484375 -26.046875 C 14.441406 -26.046875 16.160156 -25.6875 17.640625 -24.96875 C 19.128906 -24.257812 20.273438 -23.242188 21.078125 -21.921875 C 21.878906 -20.609375 22.28125 -19.109375 22.28125 -17.421875 C 22.28125 -14.867188 21.40625 -12.851562 19.65625 -11.375 C 17.90625 -9.90625 15.484375 -9.171875 12.390625 -9.171875 Z M 7.6875 -13.53125 L 12.484375 -13.53125 C 13.898438 -13.53125 14.984375 -13.863281 15.734375 -14.53125 C 16.484375 -15.195312 16.859375 -16.148438 16.859375 -17.390625 C 16.859375 -18.660156 16.476562 -19.691406 15.71875 -20.484375 C 14.96875 -21.273438 13.929688 -21.679688 12.609375 -21.703125 L 7.6875 -21.703125 Z M 7.6875 -13.53125 "/></g></g></g><g fill="#f7f4f6" fill-opacity="1"><g transform="translate(975.101867, 745.592118)"><g><path d="M 10.890625 0.359375 C 8.054688 0.359375 5.742188 -0.507812 3.953125 -2.25 C 2.171875 -3.988281 1.28125 -6.3125 1.28125 -9.21875 L 1.28125 -9.71875 C 1.28125 -11.65625 1.65625 -13.390625 2.40625 -14.921875 C 3.164062 -16.460938 4.234375 -17.644531 5.609375 -18.46875 C 6.984375 -19.300781 8.554688 -19.71875 10.328125 -19.71875 C 12.972656 -19.71875 15.054688 -18.878906 16.578125 -17.203125 C 18.097656 -15.535156 18.859375 -13.171875 18.859375 -10.109375 L 18.859375 -8 L 6.53125 -8 C 6.695312 -6.726562 7.195312 -5.710938 8.03125 -4.953125 C 8.875 -4.191406 9.941406 -3.8125 11.234375 -3.8125 C 13.222656 -3.8125 14.78125 -4.53125 15.90625 -5.96875 L 18.453125 -3.125 C 17.671875 -2.03125 16.617188 -1.175781 15.296875 -0.5625 C 13.972656 0.0507812 12.503906 0.359375 10.890625 0.359375 Z M 10.3125 -15.53125 C 9.28125 -15.53125 8.445312 -15.179688 7.8125 -14.484375 C 7.175781 -13.796875 6.765625 -12.804688 6.578125 -11.515625 L 13.78125 -11.515625 L 13.78125 -11.9375 C 13.75 -13.082031 13.4375 -13.96875 12.84375 -14.59375 C 12.25 -15.21875 11.40625 -15.53125 10.3125 -15.53125 Z M 10.3125 -15.53125 "/></g></g></g><g fill="#f7f4f6" fill-opacity="1"><g transform="translate(994.905208, 745.592118)"><g><path d="M 12.859375 -14.515625 C 12.160156 -14.609375 11.539062 -14.65625 11 -14.65625 C 9.039062 -14.65625 7.757812 -13.992188 7.15625 -12.671875 L 7.15625 0 L 1.984375 0 L 1.984375 -19.359375 L 6.875 -19.359375 L 7.015625 -17.046875 C 8.046875 -18.828125 9.484375 -19.71875 11.328125 -19.71875 C 11.898438 -19.71875 12.4375 -19.640625 12.9375 -19.484375 Z M 12.859375 -14.515625 "/></g></g></g><g fill="#f7f4f6" fill-opacity="1"><g transform="translate(1008.26844, 745.592118)"><g><path d="M 22.9375 -3.296875 C 21.96875 -2.140625 20.597656 -1.238281 18.828125 -0.59375 C 17.066406 0.0390625 15.113281 0.359375 12.96875 0.359375 C 10.71875 0.359375 8.738281 -0.128906 7.03125 -1.109375 C 5.332031 -2.097656 4.019531 -3.53125 3.09375 -5.40625 C 2.175781 -7.28125 1.707031 -9.476562 1.6875 -12 L 1.6875 -13.78125 C 1.6875 -16.375 2.125 -18.625 3 -20.53125 C 3.875 -22.4375 5.132812 -23.890625 6.78125 -24.890625 C 8.4375 -25.898438 10.375 -26.40625 12.59375 -26.40625 C 15.6875 -26.40625 18.101562 -25.664062 19.84375 -24.1875 C 21.582031 -22.71875 22.613281 -20.578125 22.9375 -17.765625 L 17.71875 -17.765625 C 17.476562 -19.253906 16.945312 -20.34375 16.125 -21.03125 C 15.3125 -21.726562 14.1875 -22.078125 12.75 -22.078125 C 10.925781 -22.078125 9.535156 -21.390625 8.578125 -20.015625 C 7.628906 -18.648438 7.148438 -16.613281 7.140625 -13.90625 L 7.140625 -12.234375 C 7.140625 -9.503906 7.65625 -7.441406 8.6875 -6.046875 C 9.726562 -4.648438 11.25 -3.953125 13.25 -3.953125 C 15.269531 -3.953125 16.707031 -4.378906 17.5625 -5.234375 L 17.5625 -9.734375 L 12.6875 -9.734375 L 12.6875 -13.6875 L 22.9375 -13.6875 Z M 22.9375 -3.296875 "/></g></g></g><g fill="#f7f4f6" fill-opacity="1"><g transform="translate(1033.223869, 745.592118)"><g><path d="M 13.203125 0 C 12.960938 -0.46875 12.789062 -1.046875 12.6875 -1.734375 C 11.4375 -0.335938 9.804688 0.359375 7.796875 0.359375 C 5.898438 0.359375 4.328125 -0.1875 3.078125 -1.28125 C 1.835938 -2.382812 1.21875 -3.769531 1.21875 -5.4375 C 1.21875 -7.488281 1.976562 -9.0625 3.5 -10.15625 C 5.019531 -11.257812 7.21875 -11.816406 10.09375 -11.828125 L 12.46875 -11.828125 L 12.46875 -12.9375 C 12.46875 -13.832031 12.238281 -14.546875 11.78125 -15.078125 C 11.320312 -15.617188 10.597656 -15.890625 9.609375 -15.890625 C 8.734375 -15.890625 8.046875 -15.679688 7.546875 -15.265625 C 7.054688 -14.847656 6.8125 -14.273438 6.8125 -13.546875 L 1.640625 -13.546875 C 1.640625 -14.660156 1.984375 -15.695312 2.671875 -16.65625 C 3.367188 -17.613281 4.347656 -18.363281 5.609375 -18.90625 C 6.878906 -19.445312 8.300781 -19.71875 9.875 -19.71875 C 12.257812 -19.71875 14.148438 -19.117188 15.546875 -17.921875 C 16.953125 -16.722656 17.65625 -15.035156 17.65625 -12.859375 L 17.65625 -4.46875 C 17.664062 -2.632812 17.921875 -1.242188 18.421875 -0.296875 L 18.421875 0 Z M 8.921875 -3.59375 C 9.691406 -3.59375 10.394531 -3.757812 11.03125 -4.09375 C 11.675781 -4.4375 12.15625 -4.894531 12.46875 -5.46875 L 12.46875 -8.796875 L 10.53125 -8.796875 C 7.945312 -8.796875 6.570312 -7.90625 6.40625 -6.125 L 6.390625 -5.8125 C 6.390625 -5.164062 6.613281 -4.632812 7.0625 -4.21875 C 7.519531 -3.800781 8.140625 -3.59375 8.921875 -3.59375 Z M 8.921875 -3.59375 "/></g></g></g><g fill="#f7f4f6" fill-opacity="1"><g transform="translate(1052.866213, 745.592118)"><g><path d="M 12.46875 -5.34375 C 12.46875 -5.976562 12.15625 -6.476562 11.53125 -6.84375 C 10.90625 -7.207031 9.898438 -7.53125 8.515625 -7.8125 C 3.910156 -8.78125 1.609375 -10.738281 1.609375 -13.6875 C 1.609375 -15.40625 2.320312 -16.835938 3.75 -17.984375 C 5.175781 -19.140625 7.039062 -19.71875 9.34375 -19.71875 C 11.800781 -19.71875 13.765625 -19.140625 15.234375 -17.984375 C 16.703125 -16.828125 17.4375 -15.320312 17.4375 -13.46875 L 12.265625 -13.46875 C 12.265625 -14.207031 12.023438 -14.816406 11.546875 -15.296875 C 11.078125 -15.785156 10.335938 -16.03125 9.328125 -16.03125 C 8.453125 -16.03125 7.773438 -15.832031 7.296875 -15.4375 C 6.816406 -15.039062 6.578125 -14.539062 6.578125 -13.9375 C 6.578125 -13.363281 6.847656 -12.898438 7.390625 -12.546875 C 7.941406 -12.191406 8.859375 -11.882812 10.140625 -11.625 C 11.429688 -11.375 12.519531 -11.085938 13.40625 -10.765625 C 16.132812 -9.765625 17.5 -8.03125 17.5 -5.5625 C 17.5 -3.800781 16.738281 -2.375 15.21875 -1.28125 C 13.707031 -0.1875 11.753906 0.359375 9.359375 0.359375 C 7.734375 0.359375 6.289062 0.0703125 5.03125 -0.5 C 3.78125 -1.082031 2.796875 -1.878906 2.078125 -2.890625 C 1.359375 -3.898438 1 -4.988281 1 -6.15625 L 5.90625 -6.15625 C 5.945312 -5.238281 6.285156 -4.535156 6.921875 -4.046875 C 7.554688 -3.554688 8.40625 -3.3125 9.46875 -3.3125 C 10.457031 -3.3125 11.203125 -3.5 11.703125 -3.875 C 12.210938 -4.25 12.46875 -4.738281 12.46875 -5.34375 Z M 12.46875 -5.34375 "/></g></g></g><g clip-path="url(#d91b70df8b)"><path fill="#731f91" d="M 204.28125 645.09375 L 532.417969 645.09375 L 532.417969 822.648438 L 204.28125 822.648438 Z M 204.28125 645.09375 " fill-opacity="1" fill-rule="nonzero"/></g><g fill="#f7f4f6" fill-opacity="1"><g transform="translate(243.383098, 745.592118)"><g><path d="M 6.828125 -19.359375 L 7 -17.1875 C 8.363281 -18.875 10.21875 -19.71875 12.5625 -19.71875 C 15.050781 -19.71875 16.757812 -18.734375 17.6875 -16.765625 C 19.050781 -18.734375 20.992188 -19.71875 23.515625 -19.71875 C 25.609375 -19.71875 27.164062 -19.101562 28.1875 -17.875 C 29.21875 -16.65625 29.734375 -14.816406 29.734375 -12.359375 L 29.734375 0 L 24.546875 0 L 24.546875 -12.34375 C 24.546875 -13.4375 24.332031 -14.238281 23.90625 -14.75 C 23.476562 -15.257812 22.71875 -15.515625 21.625 -15.515625 C 20.070312 -15.515625 19 -14.773438 18.40625 -13.296875 L 18.421875 0 L 13.25 0 L 13.25 -12.328125 C 13.25 -13.453125 13.03125 -14.265625 12.59375 -14.765625 C 12.15625 -15.265625 11.40625 -15.515625 10.34375 -15.515625 C 8.875 -15.515625 7.8125 -14.90625 7.15625 -13.6875 L 7.15625 0 L 1.984375 0 L 1.984375 -19.359375 Z M 6.828125 -19.359375 "/></g></g></g><g fill="#f7f4f6" fill-opacity="1"><g transform="translate(275.100641, 745.592118)"><g><path d="M 13.203125 0 C 12.960938 -0.46875 12.789062 -1.046875 12.6875 -1.734375 C 11.4375 -0.335938 9.804688 0.359375 7.796875 0.359375 C 5.898438 0.359375 4.328125 -0.1875 3.078125 -1.28125 C 1.835938 -2.382812 1.21875 -3.769531 1.21875 -5.4375 C 1.21875 -7.488281 1.976562 -9.0625 3.5 -10.15625 C 5.019531 -11.257812 7.21875 -11.816406 10.09375 -11.828125 L 12.46875 -11.828125 L 12.46875 -12.9375 C 12.46875 -13.832031 12.238281 -14.546875 11.78125 -15.078125 C 11.320312 -15.617188 10.597656 -15.890625 9.609375 -15.890625 C 8.734375 -15.890625 8.046875 -15.679688 7.546875 -15.265625 C 7.054688 -14.847656 6.8125 -14.273438 6.8125 -13.546875 L 1.640625 -13.546875 C 1.640625 -14.660156 1.984375 -15.695312 2.671875 -16.65625 C 3.367188 -17.613281 4.347656 -18.363281 5.609375 -18.90625 C 6.878906 -19.445312 8.300781 -19.71875 9.875 -19.71875 C 12.257812 -19.71875 14.148438 -19.117188 15.546875 -17.921875 C 16.953125 -16.722656 17.65625 -15.035156 17.65625 -12.859375 L 17.65625 -4.46875 C 17.664062 -2.632812 17.921875 -1.242188 18.421875 -0.296875 L 18.421875 0 Z M 8.921875 -3.59375 C 9.691406 -3.59375 10.394531 -3.757812 11.03125 -4.09375 C 11.675781 -4.4375 12.15625 -4.894531 12.46875 -5.46875 L 12.46875 -8.796875 L 10.53125 -8.796875 C 7.945312 -8.796875 6.570312 -7.90625 6.40625 -6.125 L 6.390625 -5.8125 C 6.390625 -5.164062 6.613281 -4.632812 7.0625 -4.21875 C 7.519531 -3.800781 8.140625 -3.59375 8.921875 -3.59375 Z M 8.921875 -3.59375 "/></g></g></g><g fill="#f7f4f6" fill-opacity="1"><g transform="translate(294.742974, 745.592118)"><g><path d="M 9.359375 -13.578125 L 12.609375 -19.359375 L 18.140625 -19.359375 L 12.625 -9.875 L 18.375 0 L 12.828125 0 L 9.375 -6.078125 L 5.9375 0 L 0.375 0 L 6.125 -9.875 L 0.625 -19.359375 L 6.171875 -19.359375 Z M 9.359375 -13.578125 "/></g></g></g><g fill="#f7f4f6" fill-opacity="1"><g transform="translate(313.383512, 745.592118)"><g><path d="M 18 -10.640625 L 7.6875 -10.640625 L 7.6875 0 L 2.328125 0 L 2.328125 -26.046875 L 19.28125 -26.046875 L 19.28125 -21.703125 L 7.6875 -21.703125 L 7.6875 -14.96875 L 18 -14.96875 Z M 18 -10.640625 "/></g></g></g><g fill="#f7f4f6" fill-opacity="1"><g transform="translate(333.455185, 745.592118)"><g><path d="M 10.890625 0.359375 C 8.054688 0.359375 5.742188 -0.507812 3.953125 -2.25 C 2.171875 -3.988281 1.28125 -6.3125 1.28125 -9.21875 L 1.28125 -9.71875 C 1.28125 -11.65625 1.65625 -13.390625 2.40625 -14.921875 C 3.164062 -16.460938 4.234375 -17.644531 5.609375 -18.46875 C 6.984375 -19.300781 8.554688 -19.71875 10.328125 -19.71875 C 12.972656 -19.71875 15.054688 -18.878906 16.578125 -17.203125 C 18.097656 -15.535156 18.859375 -13.171875 18.859375 -10.109375 L 18.859375 -8 L 6.53125 -8 C 6.695312 -6.726562 7.195312 -5.710938 8.03125 -4.953125 C 8.875 -4.191406 9.941406 -3.8125 11.234375 -3.8125 C 13.222656 -3.8125 14.78125 -4.53125 15.90625 -5.96875 L 18.453125 -3.125 C 17.671875 -2.03125 16.617188 -1.175781 15.296875 -0.5625 C 13.972656 0.0507812 12.503906 0.359375 10.890625 0.359375 Z M 10.3125 -15.53125 C 9.28125 -15.53125 8.445312 -15.179688 7.8125 -14.484375 C 7.175781 -13.796875 6.765625 -12.804688 6.578125 -11.515625 L 13.78125 -11.515625 L 13.78125 -11.9375 C 13.75 -13.082031 13.4375 -13.96875 12.84375 -14.59375 C 12.25 -15.21875 11.40625 -15.53125 10.3125 -15.53125 Z M 10.3125 -15.53125 "/></g></g></g><g fill="#f7f4f6" fill-opacity="1"><g transform="translate(353.258527, 745.592118)"><g><path d="M 10.890625 0.359375 C 8.054688 0.359375 5.742188 -0.507812 3.953125 -2.25 C 2.171875 -3.988281 1.28125 -6.3125 1.28125 -9.21875 L 1.28125 -9.71875 C 1.28125 -11.65625 1.65625 -13.390625 2.40625 -14.921875 C 3.164062 -16.460938 4.234375 -17.644531 5.609375 -18.46875 C 6.984375 -19.300781 8.554688 -19.71875 10.328125 -19.71875 C 12.972656 -19.71875 15.054688 -18.878906 16.578125 -17.203125 C 18.097656 -15.535156 18.859375 -13.171875 18.859375 -10.109375 L 18.859375 -8 L 6.53125 -8 C 6.695312 -6.726562 7.195312 -5.710938 8.03125 -4.953125 C 8.875 -4.191406 9.941406 -3.8125 11.234375 -3.8125 C 13.222656 -3.8125 14.78125 -4.53125 15.90625 -5.96875 L 18.453125 -3.125 C 17.671875 -2.03125 16.617188 -1.175781 15.296875 -0.5625 C 13.972656 0.0507812 12.503906 0.359375 10.890625 0.359375 Z M 10.3125 -15.53125 C 9.28125 -15.53125 8.445312 -15.179688 7.8125 -14.484375 C 7.175781 -13.796875 6.765625 -12.804688 6.578125 -11.515625 L 13.78125 -11.515625 L 13.78125 -11.9375 C 13.75 -13.082031 13.4375 -13.96875 12.84375 -14.59375 C 12.25 -15.21875 11.40625 -15.53125 10.3125 -15.53125 Z M 10.3125 -15.53125 "/></g></g></g><g fill="#f7f4f6" fill-opacity="1"><g transform="translate(373.061868, 745.592118)"><g><path d="M 7.6875 -9.171875 L 7.6875 0 L 2.328125 0 L 2.328125 -26.046875 L 12.484375 -26.046875 C 14.441406 -26.046875 16.160156 -25.6875 17.640625 -24.96875 C 19.128906 -24.257812 20.273438 -23.242188 21.078125 -21.921875 C 21.878906 -20.609375 22.28125 -19.109375 22.28125 -17.421875 C 22.28125 -14.867188 21.40625 -12.851562 19.65625 -11.375 C 17.90625 -9.90625 15.484375 -9.171875 12.390625 -9.171875 Z M 7.6875 -13.53125 L 12.484375 -13.53125 C 13.898438 -13.53125 14.984375 -13.863281 15.734375 -14.53125 C 16.484375 -15.195312 16.859375 -16.148438 16.859375 -17.390625 C 16.859375 -18.660156 16.476562 -19.691406 15.71875 -20.484375 C 14.96875 -21.273438 13.929688 -21.679688 12.609375 -21.703125 L 7.6875 -21.703125 Z M 7.6875 -13.53125 "/></g></g></g><g fill="#f7f4f6" fill-opacity="1"><g transform="translate(396.693497, 745.592118)"><g><path d="M 10.890625 0.359375 C 8.054688 0.359375 5.742188 -0.507812 3.953125 -2.25 C 2.171875 -3.988281 1.28125 -6.3125 1.28125 -9.21875 L 1.28125 -9.71875 C 1.28125 -11.65625 1.65625 -13.390625 2.40625 -14.921875 C 3.164062 -16.460938 4.234375 -17.644531 5.609375 -18.46875 C 6.984375 -19.300781 8.554688 -19.71875 10.328125 -19.71875 C 12.972656 -19.71875 15.054688 -18.878906 16.578125 -17.203125 C 18.097656 -15.535156 18.859375 -13.171875 18.859375 -10.109375 L 18.859375 -8 L 6.53125 -8 C 6.695312 -6.726562 7.195312 -5.710938 8.03125 -4.953125 C 8.875 -4.191406 9.941406 -3.8125 11.234375 -3.8125 C 13.222656 -3.8125 14.78125 -4.53125 15.90625 -5.96875 L 18.453125 -3.125 C 17.671875 -2.03125 16.617188 -1.175781 15.296875 -0.5625 C 13.972656 0.0507812 12.503906 0.359375 10.890625 0.359375 Z M 10.3125 -15.53125 C 9.28125 -15.53125 8.445312 -15.179688 7.8125 -14.484375 C 7.175781 -13.796875 6.765625 -12.804688 6.578125 -11.515625 L 13.78125 -11.515625 L 13.78125 -11.9375 C 13.75 -13.082031 13.4375 -13.96875 12.84375 -14.59375 C 12.25 -15.21875 11.40625 -15.53125 10.3125 -15.53125 Z M 10.3125 -15.53125 "/></g></g></g><g fill="#f7f4f6" fill-opacity="1"><g transform="translate(416.496839, 745.592118)"><g><path d="M 12.859375 -14.515625 C 12.160156 -14.609375 11.539062 -14.65625 11 -14.65625 C 9.039062 -14.65625 7.757812 -13.992188 7.15625 -12.671875 L 7.15625 0 L 1.984375 0 L 1.984375 -19.359375 L 6.875 -19.359375 L 7.015625 -17.046875 C 8.046875 -18.828125 9.484375 -19.71875 11.328125 -19.71875 C 11.898438 -19.71875 12.4375 -19.640625 12.9375 -19.484375 Z M 12.859375 -14.515625 "/></g></g></g><g fill="#f7f4f6" fill-opacity="1"><g transform="translate(429.86007, 745.592118)"><g><path d="M 22.9375 -3.296875 C 21.96875 -2.140625 20.597656 -1.238281 18.828125 -0.59375 C 17.066406 0.0390625 15.113281 0.359375 12.96875 0.359375 C 10.71875 0.359375 8.738281 -0.128906 7.03125 -1.109375 C 5.332031 -2.097656 4.019531 -3.53125 3.09375 -5.40625 C 2.175781 -7.28125 1.707031 -9.476562 1.6875 -12 L 1.6875 -13.78125 C 1.6875 -16.375 2.125 -18.625 3 -20.53125 C 3.875 -22.4375 5.132812 -23.890625 6.78125 -24.890625 C 8.4375 -25.898438 10.375 -26.40625 12.59375 -26.40625 C 15.6875 -26.40625 18.101562 -25.664062 19.84375 -24.1875 C 21.582031 -22.71875 22.613281 -20.578125 22.9375 -17.765625 L 17.71875 -17.765625 C 17.476562 -19.253906 16.945312 -20.34375 16.125 -21.03125 C 15.3125 -21.726562 14.1875 -22.078125 12.75 -22.078125 C 10.925781 -22.078125 9.535156 -21.390625 8.578125 -20.015625 C 7.628906 -18.648438 7.148438 -16.613281 7.140625 -13.90625 L 7.140625 -12.234375 C 7.140625 -9.503906 7.65625 -7.441406 8.6875 -6.046875 C 9.726562 -4.648438 11.25 -3.953125 13.25 -3.953125 C 15.269531 -3.953125 16.707031 -4.378906 17.5625 -5.234375 L 17.5625 -9.734375 L 12.6875 -9.734375 L 12.6875 -13.6875 L 22.9375 -13.6875 Z M 22.9375 -3.296875 "/></g></g></g><g fill="#f7f4f6" fill-opacity="1"><g transform="translate(454.815488, 745.592118)"><g><path d="M 13.203125 0 C 12.960938 -0.46875 12.789062 -1.046875 12.6875 -1.734375 C 11.4375 -0.335938 9.804688 0.359375 7.796875 0.359375 C 5.898438 0.359375 4.328125 -0.1875 3.078125 -1.28125 C 1.835938 -2.382812 1.21875 -3.769531 1.21875 -5.4375 C 1.21875 -7.488281 1.976562 -9.0625 3.5 -10.15625 C 5.019531 -11.257812 7.21875 -11.816406 10.09375 -11.828125 L 12.46875 -11.828125 L 12.46875 -12.9375 C 12.46875 -13.832031 12.238281 -14.546875 11.78125 -15.078125 C 11.320312 -15.617188 10.597656 -15.890625 9.609375 -15.890625 C 8.734375 -15.890625 8.046875 -15.679688 7.546875 -15.265625 C 7.054688 -14.847656 6.8125 -14.273438 6.8125 -13.546875 L 1.640625 -13.546875 C 1.640625 -14.660156 1.984375 -15.695312 2.671875 -16.65625 C 3.367188 -17.613281 4.347656 -18.363281 5.609375 -18.90625 C 6.878906 -19.445312 8.300781 -19.71875 9.875 -19.71875 C 12.257812 -19.71875 14.148438 -19.117188 15.546875 -17.921875 C 16.953125 -16.722656 17.65625 -15.035156 17.65625 -12.859375 L 17.65625 -4.46875 C 17.664062 -2.632812 17.921875 -1.242188 18.421875 -0.296875 L 18.421875 0 Z M 8.921875 -3.59375 C 9.691406 -3.59375 10.394531 -3.757812 11.03125 -4.09375 C 11.675781 -4.4375 12.15625 -4.894531 12.46875 -5.46875 L 12.46875 -8.796875 L 10.53125 -8.796875 C 7.945312 -8.796875 6.570312 -7.90625 6.40625 -6.125 L 6.390625 -5.8125 C 6.390625 -5.164062 6.613281 -4.632812 7.0625 -4.21875 C 7.519531 -3.800781 8.140625 -3.59375 8.921875 -3.59375 Z M 8.921875 -3.59375 "/></g></g></g><g fill="#f7f4f6" fill-opacity="1"><g transform="translate(474.457809, 745.592118)"><g><path d="M 12.46875 -5.34375 C 12.46875 -5.976562 12.15625 -6.476562 11.53125 -6.84375 C 10.90625 -7.207031 9.898438 -7.53125 8.515625 -7.8125 C 3.910156 -8.78125 1.609375 -10.738281 1.609375 -13.6875 C 1.609375 -15.40625 2.320312 -16.835938 3.75 -17.984375 C 5.175781 -19.140625 7.039062 -19.71875 9.34375 -19.71875 C 11.800781 -19.71875 13.765625 -19.140625 15.234375 -17.984375 C 16.703125 -16.828125 17.4375 -15.320312 17.4375 -13.46875 L 12.265625 -13.46875 C 12.265625 -14.207031 12.023438 -14.816406 11.546875 -15.296875 C 11.078125 -15.785156 10.335938 -16.03125 9.328125 -16.03125 C 8.453125 -16.03125 7.773438 -15.832031 7.296875 -15.4375 C 6.816406 -15.039062 6.578125 -14.539062 6.578125 -13.9375 C 6.578125 -13.363281 6.847656 -12.898438 7.390625 -12.546875 C 7.941406 -12.191406 8.859375 -11.882812 10.140625 -11.625 C 11.429688 -11.375 12.519531 -11.085938 13.40625 -10.765625 C 16.132812 -9.765625 17.5 -8.03125 17.5 -5.5625 C 17.5 -3.800781 16.738281 -2.375 15.21875 -1.28125 C 13.707031 -0.1875 11.753906 0.359375 9.359375 0.359375 C 7.734375 0.359375 6.289062 0.0703125 5.03125 -0.5 C 3.78125 -1.082031 2.796875 -1.878906 2.078125 -2.890625 C 1.359375 -3.898438 1 -4.988281 1 -6.15625 L 5.90625 -6.15625 C 5.945312 -5.238281 6.285156 -4.535156 6.921875 -4.046875 C 7.554688 -3.554688 8.40625 -3.3125 9.46875 -3.3125 C 10.457031 -3.3125 11.203125 -3.5 11.703125 -3.875 C 12.210938 -4.25 12.46875 -4.738281 12.46875 -5.34375 Z M 12.46875 -5.34375 "/></g></g></g><g clip-path="url(#821aca1852)"><path fill="#731f91" d="M 722.058594 1275.90625 L 1050.195312 1275.90625 L 1050.195312 1453.460938 L 722.058594 1453.460938 Z M 722.058594 1275.90625 " fill-opacity="1" fill-rule="nonzero"/></g><g fill="#f7f4f6" fill-opacity="1"><g transform="translate(808.28039, 1376.405361)"><g><path d="M 12.46875 -5.34375 C 12.46875 -5.976562 12.15625 -6.476562 11.53125 -6.84375 C 10.90625 -7.207031 9.898438 -7.53125 8.515625 -7.8125 C 3.910156 -8.78125 1.609375 -10.738281 1.609375 -13.6875 C 1.609375 -15.40625 2.320312 -16.835938 3.75 -17.984375 C 5.175781 -19.140625 7.039062 -19.71875 9.34375 -19.71875 C 11.800781 -19.71875 13.765625 -19.140625 15.234375 -17.984375 C 16.703125 -16.828125 17.4375 -15.320312 17.4375 -13.46875 L 12.265625 -13.46875 C 12.265625 -14.207031 12.023438 -14.816406 11.546875 -15.296875 C 11.078125 -15.785156 10.335938 -16.03125 9.328125 -16.03125 C 8.453125 -16.03125 7.773438 -15.832031 7.296875 -15.4375 C 6.816406 -15.039062 6.578125 -14.539062 6.578125 -13.9375 C 6.578125 -13.363281 6.847656 -12.898438 7.390625 -12.546875 C 7.941406 -12.191406 8.859375 -11.882812 10.140625 -11.625 C 11.429688 -11.375 12.519531 -11.085938 13.40625 -10.765625 C 16.132812 -9.765625 17.5 -8.03125 17.5 -5.5625 C 17.5 -3.800781 16.738281 -2.375 15.21875 -1.28125 C 13.707031 -0.1875 11.753906 0.359375 9.359375 0.359375 C 7.734375 0.359375 6.289062 0.0703125 5.03125 -0.5 C 3.78125 -1.082031 2.796875 -1.878906 2.078125 -2.890625 C 1.359375 -3.898438 1 -4.988281 1 -6.15625 L 5.90625 -6.15625 C 5.945312 -5.238281 6.285156 -4.535156 6.921875 -4.046875 C 7.554688 -3.554688 8.40625 -3.3125 9.46875 -3.3125 C 10.457031 -3.3125 11.203125 -3.5 11.703125 -3.875 C 12.210938 -4.25 12.46875 -4.738281 12.46875 -5.34375 Z M 12.46875 -5.34375 "/></g></g></g><g fill="#f7f4f6" fill-opacity="1"><g transform="translate(827.117714, 1376.405361)"><g><path d="M 7.4375 0 L 2.25 0 L 2.25 -19.359375 L 7.4375 -19.359375 Z M 1.953125 -24.375 C 1.953125 -25.144531 2.207031 -25.78125 2.71875 -26.28125 C 3.238281 -26.78125 3.945312 -27.03125 4.84375 -27.03125 C 5.726562 -27.03125 6.429688 -26.78125 6.953125 -26.28125 C 7.484375 -25.78125 7.75 -25.144531 7.75 -24.375 C 7.75 -23.582031 7.484375 -22.9375 6.953125 -22.4375 C 6.421875 -21.9375 5.71875 -21.6875 4.84375 -21.6875 C 3.976562 -21.6875 3.28125 -21.9375 2.75 -22.4375 C 2.21875 -22.9375 1.953125 -23.582031 1.953125 -24.375 Z M 1.953125 -24.375 "/></g></g></g><g fill="#f7f4f6" fill-opacity="1"><g transform="translate(836.831551, 1376.405361)"><g><path d="M 1.234375 -9.828125 C 1.234375 -12.796875 1.9375 -15.1875 3.34375 -17 C 4.757812 -18.8125 6.671875 -19.71875 9.078125 -19.71875 C 11.191406 -19.71875 12.84375 -18.988281 14.03125 -17.53125 L 14.234375 -19.359375 L 18.921875 -19.359375 L 18.921875 -0.640625 C 18.921875 1.046875 18.535156 2.515625 17.765625 3.765625 C 17.003906 5.023438 15.925781 5.984375 14.53125 6.640625 C 13.132812 7.296875 11.5 7.625 9.625 7.625 C 8.207031 7.625 6.820312 7.335938 5.46875 6.765625 C 4.125 6.203125 3.109375 5.472656 2.421875 4.578125 L 4.703125 1.4375 C 5.992188 2.875 7.554688 3.59375 9.390625 3.59375 C 10.765625 3.59375 11.832031 3.222656 12.59375 2.484375 C 13.351562 1.753906 13.734375 0.71875 13.734375 -0.625 L 13.734375 -1.65625 C 12.546875 -0.3125 10.976562 0.359375 9.03125 0.359375 C 6.707031 0.359375 4.828125 -0.546875 3.390625 -2.359375 C 1.953125 -4.179688 1.234375 -6.597656 1.234375 -9.609375 Z M 6.40625 -9.453125 C 6.40625 -7.691406 6.753906 -6.3125 7.453125 -5.3125 C 8.160156 -4.320312 9.128906 -3.828125 10.359375 -3.828125 C 11.929688 -3.828125 13.054688 -4.414062 13.734375 -5.59375 L 13.734375 -13.734375 C 13.046875 -14.921875 11.929688 -15.515625 10.390625 -15.515625 C 9.148438 -15.515625 8.175781 -15.003906 7.46875 -13.984375 C 6.757812 -12.972656 6.40625 -11.460938 6.40625 -9.453125 Z M 6.40625 -9.453125 "/></g></g></g><g fill="#f7f4f6" fill-opacity="1"><g transform="translate(857.744022, 1376.405361)"><g><path d="M 6.75 -19.359375 L 6.90625 -17.125 C 8.289062 -18.851562 10.144531 -19.71875 12.46875 -19.71875 C 14.519531 -19.71875 16.046875 -19.113281 17.046875 -17.90625 C 18.046875 -16.707031 18.5625 -14.90625 18.59375 -12.5 L 18.59375 0 L 13.421875 0 L 13.421875 -12.375 C 13.421875 -13.476562 13.179688 -14.273438 12.703125 -14.765625 C 12.222656 -15.265625 11.429688 -15.515625 10.328125 -15.515625 C 8.867188 -15.515625 7.773438 -14.894531 7.046875 -13.65625 L 7.046875 0 L 1.875 0 L 1.875 -19.359375 Z M 6.75 -19.359375 "/></g></g></g><g fill="#f7f4f6" fill-opacity="1"><g transform="translate(878.262931, 1376.405361)"><g><path d="M 13.203125 0 C 12.960938 -0.46875 12.789062 -1.046875 12.6875 -1.734375 C 11.4375 -0.335938 9.804688 0.359375 7.796875 0.359375 C 5.898438 0.359375 4.328125 -0.1875 3.078125 -1.28125 C 1.835938 -2.382812 1.21875 -3.769531 1.21875 -5.4375 C 1.21875 -7.488281 1.976562 -9.0625 3.5 -10.15625 C 5.019531 -11.257812 7.21875 -11.816406 10.09375 -11.828125 L 12.46875 -11.828125 L 12.46875 -12.9375 C 12.46875 -13.832031 12.238281 -14.546875 11.78125 -15.078125 C 11.320312 -15.617188 10.597656 -15.890625 9.609375 -15.890625 C 8.734375 -15.890625 8.046875 -15.679688 7.546875 -15.265625 C 7.054688 -14.847656 6.8125 -14.273438 6.8125 -13.546875 L 1.640625 -13.546875 C 1.640625 -14.660156 1.984375 -15.695312 2.671875 -16.65625 C 3.367188 -17.613281 4.347656 -18.363281 5.609375 -18.90625 C 6.878906 -19.445312 8.300781 -19.71875 9.875 -19.71875 C 12.257812 -19.71875 14.148438 -19.117188 15.546875 -17.921875 C 16.953125 -16.722656 17.65625 -15.035156 17.65625 -12.859375 L 17.65625 -4.46875 C 17.664062 -2.632812 17.921875 -1.242188 18.421875 -0.296875 L 18.421875 0 Z M 8.921875 -3.59375 C 9.691406 -3.59375 10.394531 -3.757812 11.03125 -4.09375 C 11.675781 -4.4375 12.15625 -4.894531 12.46875 -5.46875 L 12.46875 -8.796875 L 10.53125 -8.796875 C 7.945312 -8.796875 6.570312 -7.90625 6.40625 -6.125 L 6.390625 -5.8125 C 6.390625 -5.164062 6.613281 -4.632812 7.0625 -4.21875 C 7.519531 -3.800781 8.140625 -3.59375 8.921875 -3.59375 Z M 8.921875 -3.59375 "/></g></g></g><g fill="#f7f4f6" fill-opacity="1"><g transform="translate(897.905264, 1376.405361)"><g><path d="M 8.171875 -24.109375 L 8.171875 -19.359375 L 11.484375 -19.359375 L 11.484375 -15.5625 L 8.171875 -15.5625 L 8.171875 -5.90625 C 8.171875 -5.1875 8.304688 -4.671875 8.578125 -4.359375 C 8.859375 -4.054688 9.382812 -3.90625 10.15625 -3.90625 C 10.726562 -3.90625 11.238281 -3.945312 11.6875 -4.03125 L 11.6875 -0.109375 C 10.664062 0.203125 9.617188 0.359375 8.546875 0.359375 C 4.921875 0.359375 3.070312 -1.472656 3 -5.140625 L 3 -15.5625 L 0.171875 -15.5625 L 0.171875 -19.359375 L 3 -19.359375 L 3 -24.109375 Z M 8.171875 -24.109375 "/></g></g></g><g fill="#f7f4f6" fill-opacity="1"><g transform="translate(910.284585, 1376.405361)"><g><path d="M 13.578125 -1.96875 C 12.304688 -0.414062 10.539062 0.359375 8.28125 0.359375 C 6.207031 0.359375 4.625 -0.234375 3.53125 -1.421875 C 2.4375 -2.617188 1.878906 -4.367188 1.859375 -6.671875 L 1.859375 -19.359375 L 7.03125 -19.359375 L 7.03125 -6.859375 C 7.03125 -4.835938 7.945312 -3.828125 9.78125 -3.828125 C 11.539062 -3.828125 12.75 -4.4375 13.40625 -5.65625 L 13.40625 -19.359375 L 18.59375 -19.359375 L 18.59375 0 L 13.71875 0 Z M 13.578125 -1.96875 "/></g></g></g><g fill="#f7f4f6" fill-opacity="1"><g transform="translate(930.785599, 1376.405361)"><g><path d="M 12.859375 -14.515625 C 12.160156 -14.609375 11.539062 -14.65625 11 -14.65625 C 9.039062 -14.65625 7.757812 -13.992188 7.15625 -12.671875 L 7.15625 0 L 1.984375 0 L 1.984375 -19.359375 L 6.875 -19.359375 L 7.015625 -17.046875 C 8.046875 -18.828125 9.484375 -19.71875 11.328125 -19.71875 C 11.898438 -19.71875 12.4375 -19.640625 12.9375 -19.484375 Z M 12.859375 -14.515625 "/></g></g></g><g fill="#f7f4f6" fill-opacity="1"><g transform="translate(944.148831, 1376.405361)"><g><path d="M 10.890625 0.359375 C 8.054688 0.359375 5.742188 -0.507812 3.953125 -2.25 C 2.171875 -3.988281 1.28125 -6.3125 1.28125 -9.21875 L 1.28125 -9.71875 C 1.28125 -11.65625 1.65625 -13.390625 2.40625 -14.921875 C 3.164062 -16.460938 4.234375 -17.644531 5.609375 -18.46875 C 6.984375 -19.300781 8.554688 -19.71875 10.328125 -19.71875 C 12.972656 -19.71875 15.054688 -18.878906 16.578125 -17.203125 C 18.097656 -15.535156 18.859375 -13.171875 18.859375 -10.109375 L 18.859375 -8 L 6.53125 -8 C 6.695312 -6.726562 7.195312 -5.710938 8.03125 -4.953125 C 8.875 -4.191406 9.941406 -3.8125 11.234375 -3.8125 C 13.222656 -3.8125 14.78125 -4.53125 15.90625 -5.96875 L 18.453125 -3.125 C 17.671875 -2.03125 16.617188 -1.175781 15.296875 -0.5625 C 13.972656 0.0507812 12.503906 0.359375 10.890625 0.359375 Z M 10.3125 -15.53125 C 9.28125 -15.53125 8.445312 -15.179688 7.8125 -14.484375 C 7.175781 -13.796875 6.765625 -12.804688 6.578125 -11.515625 L 13.78125 -11.515625 L 13.78125 -11.9375 C 13.75 -13.082031 13.4375 -13.96875 12.84375 -14.59375 C 12.25 -15.21875 11.40625 -15.53125 10.3125 -15.53125 Z M 10.3125 -15.53125 "/></g></g></g><g clip-path="url(#2e19290f86)"><path fill="#731f91" d="M 204.28125 957.371094 L 532.417969 957.371094 L 532.417969 1134.925781 L 204.28125 1134.925781 Z M 204.28125 957.371094 " fill-opacity="1" fill-rule="nonzero"/></g><g fill="#f7f4f6" fill-opacity="1"><g transform="translate(351.794933, 1057.868451)"><g><path d="M 8.171875 -24.109375 L 8.171875 -19.359375 L 11.484375 -19.359375 L 11.484375 -15.5625 L 8.171875 -15.5625 L 8.171875 -5.90625 C 8.171875 -5.1875 8.304688 -4.671875 8.578125 -4.359375 C 8.859375 -4.054688 9.382812 -3.90625 10.15625 -3.90625 C 10.726562 -3.90625 11.238281 -3.945312 11.6875 -4.03125 L 11.6875 -0.109375 C 10.664062 0.203125 9.617188 0.359375 8.546875 0.359375 C 4.921875 0.359375 3.070312 -1.472656 3 -5.140625 L 3 -15.5625 L 0.171875 -15.5625 L 0.171875 -19.359375 L 3 -19.359375 L 3 -24.109375 Z M 8.171875 -24.109375 "/></g></g></g><g fill="#f7f4f6" fill-opacity="1"><g transform="translate(364.174254, 1057.868451)"><g><path d="M 1.1875 -9.859375 C 1.1875 -11.773438 1.554688 -13.484375 2.296875 -14.984375 C 3.035156 -16.492188 4.097656 -17.660156 5.484375 -18.484375 C 6.867188 -19.304688 8.484375 -19.71875 10.328125 -19.71875 C 12.929688 -19.71875 15.0625 -18.914062 16.71875 -17.3125 C 18.375 -15.71875 19.296875 -13.550781 19.484375 -10.8125 L 19.515625 -9.484375 C 19.515625 -6.515625 18.6875 -4.128906 17.03125 -2.328125 C 15.375 -0.535156 13.148438 0.359375 10.359375 0.359375 C 7.566406 0.359375 5.335938 -0.535156 3.671875 -2.328125 C 2.015625 -4.117188 1.1875 -6.550781 1.1875 -9.625 Z M 6.34375 -9.484375 C 6.34375 -7.648438 6.6875 -6.242188 7.375 -5.265625 C 8.070312 -4.296875 9.066406 -3.8125 10.359375 -3.8125 C 11.609375 -3.8125 12.582031 -4.289062 13.28125 -5.25 C 13.988281 -6.207031 14.34375 -7.742188 14.34375 -9.859375 C 14.34375 -11.660156 13.988281 -13.054688 13.28125 -14.046875 C 12.582031 -15.035156 11.597656 -15.53125 10.328125 -15.53125 C 9.054688 -15.53125 8.070312 -15.035156 7.375 -14.046875 C 6.6875 -13.066406 6.34375 -11.546875 6.34375 -9.484375 Z M 6.34375 -9.484375 "/></g></g></g><g clip-path="url(#c61f367af5)"><path fill="#731f91" d="M 716.464844 957.371094 L 1044.597656 957.371094 L 1044.597656 1134.925781 L 716.464844 1134.925781 Z M 716.464844 957.371094 " fill-opacity="1" fill-rule="nonzero"/></g><g fill="#f7f4f6" fill-opacity="1"><g transform="translate(836.438056, 1057.868451)"><g><path d="M 9.234375 -6.3125 L 12.828125 -19.359375 L 18.234375 -19.359375 L 11.703125 0 L 6.765625 0 L 0.234375 -19.359375 L 5.640625 -19.359375 Z M 9.234375 -6.3125 "/></g></g></g><g fill="#f7f4f6" fill-opacity="1"><g transform="translate(854.953375, 1057.868451)"><g><path d="M 13.203125 0 C 12.960938 -0.46875 12.789062 -1.046875 12.6875 -1.734375 C 11.4375 -0.335938 9.804688 0.359375 7.796875 0.359375 C 5.898438 0.359375 4.328125 -0.1875 3.078125 -1.28125 C 1.835938 -2.382812 1.21875 -3.769531 1.21875 -5.4375 C 1.21875 -7.488281 1.976562 -9.0625 3.5 -10.15625 C 5.019531 -11.257812 7.21875 -11.816406 10.09375 -11.828125 L 12.46875 -11.828125 L 12.46875 -12.9375 C 12.46875 -13.832031 12.238281 -14.546875 11.78125 -15.078125 C 11.320312 -15.617188 10.597656 -15.890625 9.609375 -15.890625 C 8.734375 -15.890625 8.046875 -15.679688 7.546875 -15.265625 C 7.054688 -14.847656 6.8125 -14.273438 6.8125 -13.546875 L 1.640625 -13.546875 C 1.640625 -14.660156 1.984375 -15.695312 2.671875 -16.65625 C 3.367188 -17.613281 4.347656 -18.363281 5.609375 -18.90625 C 6.878906 -19.445312 8.300781 -19.71875 9.875 -19.71875 C 12.257812 -19.71875 14.148438 -19.117188 15.546875 -17.921875 C 16.953125 -16.722656 17.65625 -15.035156 17.65625 -12.859375 L 17.65625 -4.46875 C 17.664062 -2.632812 17.921875 -1.242188 18.421875 -0.296875 L 18.421875 0 Z M 8.921875 -3.59375 C 9.691406 -3.59375 10.394531 -3.757812 11.03125 -4.09375 C 11.675781 -4.4375 12.15625 -4.894531 12.46875 -5.46875 L 12.46875 -8.796875 L 10.53125 -8.796875 C 7.945312 -8.796875 6.570312 -7.90625 6.40625 -6.125 L 6.390625 -5.8125 C 6.390625 -5.164062 6.613281 -4.632812 7.0625 -4.21875 C 7.519531 -3.800781 8.140625 -3.59375 8.921875 -3.59375 Z M 8.921875 -3.59375 "/></g></g></g><g fill="#f7f4f6" fill-opacity="1"><g transform="translate(874.595708, 1057.868451)"><g><path d="M 7.4375 0 L 2.25 0 L 2.25 -27.484375 L 7.4375 -27.484375 Z M 7.4375 0 "/></g></g></g><g fill="#f7f4f6" fill-opacity="1"><g transform="translate(884.309545, 1057.868451)"><g><path d="M 13.578125 -1.96875 C 12.304688 -0.414062 10.539062 0.359375 8.28125 0.359375 C 6.207031 0.359375 4.625 -0.234375 3.53125 -1.421875 C 2.4375 -2.617188 1.878906 -4.367188 1.859375 -6.671875 L 1.859375 -19.359375 L 7.03125 -19.359375 L 7.03125 -6.859375 C 7.03125 -4.835938 7.945312 -3.828125 9.78125 -3.828125 C 11.539062 -3.828125 12.75 -4.4375 13.40625 -5.65625 L 13.40625 -19.359375 L 18.59375 -19.359375 L 18.59375 0 L 13.71875 0 Z M 13.578125 -1.96875 "/></g></g></g><g fill="#f7f4f6" fill-opacity="1"><g transform="translate(904.810559, 1057.868451)"><g><path d="M 10.890625 0.359375 C 8.054688 0.359375 5.742188 -0.507812 3.953125 -2.25 C 2.171875 -3.988281 1.28125 -6.3125 1.28125 -9.21875 L 1.28125 -9.71875 C 1.28125 -11.65625 1.65625 -13.390625 2.40625 -14.921875 C 3.164062 -16.460938 4.234375 -17.644531 5.609375 -18.46875 C 6.984375 -19.300781 8.554688 -19.71875 10.328125 -19.71875 C 12.972656 -19.71875 15.054688 -18.878906 16.578125 -17.203125 C 18.097656 -15.535156 18.859375 -13.171875 18.859375 -10.109375 L 18.859375 -8 L 6.53125 -8 C 6.695312 -6.726562 7.195312 -5.710938 8.03125 -4.953125 C 8.875 -4.191406 9.941406 -3.8125 11.234375 -3.8125 C 13.222656 -3.8125 14.78125 -4.53125 15.90625 -5.96875 L 18.453125 -3.125 C 17.671875 -2.03125 16.617188 -1.175781 15.296875 -0.5625 C 13.972656 0.0507812 12.503906 0.359375 10.890625 0.359375 Z M 10.3125 -15.53125 C 9.28125 -15.53125 8.445312 -15.179688 7.8125 -14.484375 C 7.175781 -13.796875 6.765625 -12.804688 6.578125 -11.515625 L 13.78125 -11.515625 L 13.78125 -11.9375 C 13.75 -13.082031 13.4375 -13.96875 12.84375 -14.59375 C 12.25 -15.21875 11.40625 -15.53125 10.3125 -15.53125 Z M 10.3125 -15.53125 "/></g></g></g><g clip-path="url(#f208a76a13)"><path fill="#731f91" d="M 1251.527344 957.371094 L 1579.664062 957.371094 L 1579.664062 1134.925781 L 1251.527344 1134.925781 Z M 1251.527344 957.371094 " fill-opacity="1" fill-rule="nonzero"/></g><g fill="#f7f4f6" fill-opacity="1"><g transform="translate(1379.433873, 1057.868451)"><g><path d="M 1.1875 -9.828125 C 1.1875 -12.835938 1.859375 -15.238281 3.203125 -17.03125 C 4.554688 -18.820312 6.410156 -19.71875 8.765625 -19.71875 C 10.648438 -19.71875 12.207031 -19.015625 13.4375 -17.609375 L 13.4375 -27.484375 L 18.625 -27.484375 L 18.625 0 L 13.953125 0 L 13.703125 -2.0625 C 12.410156 -0.445312 10.753906 0.359375 8.734375 0.359375 C 6.453125 0.359375 4.625 -0.535156 3.25 -2.328125 C 1.875 -4.128906 1.1875 -6.628906 1.1875 -9.828125 Z M 6.34375 -9.453125 C 6.34375 -7.640625 6.660156 -6.25 7.296875 -5.28125 C 7.929688 -4.3125 8.851562 -3.828125 10.0625 -3.828125 C 11.65625 -3.828125 12.78125 -4.5 13.4375 -5.84375 L 13.4375 -13.484375 C 12.789062 -14.835938 11.675781 -15.515625 10.09375 -15.515625 C 7.59375 -15.515625 6.34375 -13.492188 6.34375 -9.453125 Z M 6.34375 -9.453125 "/></g></g></g><g fill="#f7f4f6" fill-opacity="1"><g transform="translate(1400.078, 1057.868451)"><g><path d="M 13.203125 0 C 12.960938 -0.46875 12.789062 -1.046875 12.6875 -1.734375 C 11.4375 -0.335938 9.804688 0.359375 7.796875 0.359375 C 5.898438 0.359375 4.328125 -0.1875 3.078125 -1.28125 C 1.835938 -2.382812 1.21875 -3.769531 1.21875 -5.4375 C 1.21875 -7.488281 1.976562 -9.0625 3.5 -10.15625 C 5.019531 -11.257812 7.21875 -11.816406 10.09375 -11.828125 L 12.46875 -11.828125 L 12.46875 -12.9375 C 12.46875 -13.832031 12.238281 -14.546875 11.78125 -15.078125 C 11.320312 -15.617188 10.597656 -15.890625 9.609375 -15.890625 C 8.734375 -15.890625 8.046875 -15.679688 7.546875 -15.265625 C 7.054688 -14.847656 6.8125 -14.273438 6.8125 -13.546875 L 1.640625 -13.546875 C 1.640625 -14.660156 1.984375 -15.695312 2.671875 -16.65625 C 3.367188 -17.613281 4.347656 -18.363281 5.609375 -18.90625 C 6.878906 -19.445312 8.300781 -19.71875 9.875 -19.71875 C 12.257812 -19.71875 14.148438 -19.117188 15.546875 -17.921875 C 16.953125 -16.722656 17.65625 -15.035156 17.65625 -12.859375 L 17.65625 -4.46875 C 17.664062 -2.632812 17.921875 -1.242188 18.421875 -0.296875 L 18.421875 0 Z M 8.921875 -3.59375 C 9.691406 -3.59375 10.394531 -3.757812 11.03125 -4.09375 C 11.675781 -4.4375 12.15625 -4.894531 12.46875 -5.46875 L 12.46875 -8.796875 L 10.53125 -8.796875 C 7.945312 -8.796875 6.570312 -7.90625 6.40625 -6.125 L 6.390625 -5.8125 C 6.390625 -5.164062 6.613281 -4.632812 7.0625 -4.21875 C 7.519531 -3.800781 8.140625 -3.59375 8.921875 -3.59375 Z M 8.921875 -3.59375 "/></g></g></g><g fill="#f7f4f6" fill-opacity="1"><g transform="translate(1419.720333, 1057.868451)"><g><path d="M 8.171875 -24.109375 L 8.171875 -19.359375 L 11.484375 -19.359375 L 11.484375 -15.5625 L 8.171875 -15.5625 L 8.171875 -5.90625 C 8.171875 -5.1875 8.304688 -4.671875 8.578125 -4.359375 C 8.859375 -4.054688 9.382812 -3.90625 10.15625 -3.90625 C 10.726562 -3.90625 11.238281 -3.945312 11.6875 -4.03125 L 11.6875 -0.109375 C 10.664062 0.203125 9.617188 0.359375 8.546875 0.359375 C 4.921875 0.359375 3.070312 -1.472656 3 -5.140625 L 3 -15.5625 L 0.171875 -15.5625 L 0.171875 -19.359375 L 3 -19.359375 L 3 -24.109375 Z M 8.171875 -24.109375 "/></g></g></g><g fill="#f7f4f6" fill-opacity="1"><g transform="translate(1432.099654, 1057.868451)"><g><path d="M 13.203125 0 C 12.960938 -0.46875 12.789062 -1.046875 12.6875 -1.734375 C 11.4375 -0.335938 9.804688 0.359375 7.796875 0.359375 C 5.898438 0.359375 4.328125 -0.1875 3.078125 -1.28125 C 1.835938 -2.382812 1.21875 -3.769531 1.21875 -5.4375 C 1.21875 -7.488281 1.976562 -9.0625 3.5 -10.15625 C 5.019531 -11.257812 7.21875 -11.816406 10.09375 -11.828125 L 12.46875 -11.828125 L 12.46875 -12.9375 C 12.46875 -13.832031 12.238281 -14.546875 11.78125 -15.078125 C 11.320312 -15.617188 10.597656 -15.890625 9.609375 -15.890625 C 8.734375 -15.890625 8.046875 -15.679688 7.546875 -15.265625 C 7.054688 -14.847656 6.8125 -14.273438 6.8125 -13.546875 L 1.640625 -13.546875 C 1.640625 -14.660156 1.984375 -15.695312 2.671875 -16.65625 C 3.367188 -17.613281 4.347656 -18.363281 5.609375 -18.90625 C 6.878906 -19.445312 8.300781 -19.71875 9.875 -19.71875 C 12.257812 -19.71875 14.148438 -19.117188 15.546875 -17.921875 C 16.953125 -16.722656 17.65625 -15.035156 17.65625 -12.859375 L 17.65625 -4.46875 C 17.664062 -2.632812 17.921875 -1.242188 18.421875 -0.296875 L 18.421875 0 Z M 8.921875 -3.59375 C 9.691406 -3.59375 10.394531 -3.757812 11.03125 -4.09375 C 11.675781 -4.4375 12.15625 -4.894531 12.46875 -5.46875 L 12.46875 -8.796875 L 10.53125 -8.796875 C 7.945312 -8.796875 6.570312 -7.90625 6.40625 -6.125 L 6.390625 -5.8125 C 6.390625 -5.164062 6.613281 -4.632812 7.0625 -4.21875 C 7.519531 -3.800781 8.140625 -3.59375 8.921875 -3.59375 Z M 8.921875 -3.59375 "/></g></g></g><g clip-path="url(#8895f9c1e3)"><path fill="#731f91" d="M 1251.527344 645.09375 L 1579.664062 645.09375 L 1579.664062 822.648438 L 1251.527344 822.648438 Z M 1251.527344 645.09375 " fill-opacity="1" fill-rule="nonzero"/></g><g fill="#f7f4f6" fill-opacity="1"><g transform="translate(1344.204605, 745.592118)"><g><path d="M 1.234375 -9.828125 C 1.234375 -12.796875 1.9375 -15.1875 3.34375 -17 C 4.757812 -18.8125 6.671875 -19.71875 9.078125 -19.71875 C 11.191406 -19.71875 12.84375 -18.988281 14.03125 -17.53125 L 14.234375 -19.359375 L 18.921875 -19.359375 L 18.921875 -0.640625 C 18.921875 1.046875 18.535156 2.515625 17.765625 3.765625 C 17.003906 5.023438 15.925781 5.984375 14.53125 6.640625 C 13.132812 7.296875 11.5 7.625 9.625 7.625 C 8.207031 7.625 6.820312 7.335938 5.46875 6.765625 C 4.125 6.203125 3.109375 5.472656 2.421875 4.578125 L 4.703125 1.4375 C 5.992188 2.875 7.554688 3.59375 9.390625 3.59375 C 10.765625 3.59375 11.832031 3.222656 12.59375 2.484375 C 13.351562 1.753906 13.734375 0.71875 13.734375 -0.625 L 13.734375 -1.65625 C 12.546875 -0.3125 10.976562 0.359375 9.03125 0.359375 C 6.707031 0.359375 4.828125 -0.546875 3.390625 -2.359375 C 1.953125 -4.179688 1.234375 -6.597656 1.234375 -9.609375 Z M 6.40625 -9.453125 C 6.40625 -7.691406 6.753906 -6.3125 7.453125 -5.3125 C 8.160156 -4.320312 9.128906 -3.828125 10.359375 -3.828125 C 11.929688 -3.828125 13.054688 -4.414062 13.734375 -5.59375 L 13.734375 -13.734375 C 13.046875 -14.921875 11.929688 -15.515625 10.390625 -15.515625 C 9.148438 -15.515625 8.175781 -15.003906 7.46875 -13.984375 C 6.757812 -12.972656 6.40625 -11.460938 6.40625 -9.453125 Z M 6.40625 -9.453125 "/></g></g></g><g fill="#f7f4f6" fill-opacity="1"><g transform="translate(1365.117075, 745.592118)"><g><path d="M 13.203125 0 C 12.960938 -0.46875 12.789062 -1.046875 12.6875 -1.734375 C 11.4375 -0.335938 9.804688 0.359375 7.796875 0.359375 C 5.898438 0.359375 4.328125 -0.1875 3.078125 -1.28125 C 1.835938 -2.382812 1.21875 -3.769531 1.21875 -5.4375 C 1.21875 -7.488281 1.976562 -9.0625 3.5 -10.15625 C 5.019531 -11.257812 7.21875 -11.816406 10.09375 -11.828125 L 12.46875 -11.828125 L 12.46875 -12.9375 C 12.46875 -13.832031 12.238281 -14.546875 11.78125 -15.078125 C 11.320312 -15.617188 10.597656 -15.890625 9.609375 -15.890625 C 8.734375 -15.890625 8.046875 -15.679688 7.546875 -15.265625 C 7.054688 -14.847656 6.8125 -14.273438 6.8125 -13.546875 L 1.640625 -13.546875 C 1.640625 -14.660156 1.984375 -15.695312 2.671875 -16.65625 C 3.367188 -17.613281 4.347656 -18.363281 5.609375 -18.90625 C 6.878906 -19.445312 8.300781 -19.71875 9.875 -19.71875 C 12.257812 -19.71875 14.148438 -19.117188 15.546875 -17.921875 C 16.953125 -16.722656 17.65625 -15.035156 17.65625 -12.859375 L 17.65625 -4.46875 C 17.664062 -2.632812 17.921875 -1.242188 18.421875 -0.296875 L 18.421875 0 Z M 8.921875 -3.59375 C 9.691406 -3.59375 10.394531 -3.757812 11.03125 -4.09375 C 11.675781 -4.4375 12.15625 -4.894531 12.46875 -5.46875 L 12.46875 -8.796875 L 10.53125 -8.796875 C 7.945312 -8.796875 6.570312 -7.90625 6.40625 -6.125 L 6.390625 -5.8125 C 6.390625 -5.164062 6.613281 -4.632812 7.0625 -4.21875 C 7.519531 -3.800781 8.140625 -3.59375 8.921875 -3.59375 Z M 8.921875 -3.59375 "/></g></g></g><g fill="#f7f4f6" fill-opacity="1"><g transform="translate(1384.759409, 745.592118)"><g><path d="M 12.46875 -5.34375 C 12.46875 -5.976562 12.15625 -6.476562 11.53125 -6.84375 C 10.90625 -7.207031 9.898438 -7.53125 8.515625 -7.8125 C 3.910156 -8.78125 1.609375 -10.738281 1.609375 -13.6875 C 1.609375 -15.40625 2.320312 -16.835938 3.75 -17.984375 C 5.175781 -19.140625 7.039062 -19.71875 9.34375 -19.71875 C 11.800781 -19.71875 13.765625 -19.140625 15.234375 -17.984375 C 16.703125 -16.828125 17.4375 -15.320312 17.4375 -13.46875 L 12.265625 -13.46875 C 12.265625 -14.207031 12.023438 -14.816406 11.546875 -15.296875 C 11.078125 -15.785156 10.335938 -16.03125 9.328125 -16.03125 C 8.453125 -16.03125 7.773438 -15.832031 7.296875 -15.4375 C 6.816406 -15.039062 6.578125 -14.539062 6.578125 -13.9375 C 6.578125 -13.363281 6.847656 -12.898438 7.390625 -12.546875 C 7.941406 -12.191406 8.859375 -11.882812 10.140625 -11.625 C 11.429688 -11.375 12.519531 -11.085938 13.40625 -10.765625 C 16.132812 -9.765625 17.5 -8.03125 17.5 -5.5625 C 17.5 -3.800781 16.738281 -2.375 15.21875 -1.28125 C 13.707031 -0.1875 11.753906 0.359375 9.359375 0.359375 C 7.734375 0.359375 6.289062 0.0703125 5.03125 -0.5 C 3.78125 -1.082031 2.796875 -1.878906 2.078125 -2.890625 C 1.359375 -3.898438 1 -4.988281 1 -6.15625 L 5.90625 -6.15625 C 5.945312 -5.238281 6.285156 -4.535156 6.921875 -4.046875 C 7.554688 -3.554688 8.40625 -3.3125 9.46875 -3.3125 C 10.457031 -3.3125 11.203125 -3.5 11.703125 -3.875 C 12.210938 -4.25 12.46875 -4.738281 12.46875 -5.34375 Z M 12.46875 -5.34375 "/></g></g></g><g fill="#f7f4f6" fill-opacity="1"><g transform="translate(1403.596733, 745.592118)"><g><path d="M 7.6875 -4.3125 L 19.09375 -4.3125 L 19.09375 0 L 2.328125 0 L 2.328125 -26.046875 L 7.6875 -26.046875 Z M 7.6875 -4.3125 "/></g></g></g><g fill="#f7f4f6" fill-opacity="1"><g transform="translate(1423.435853, 745.592118)"><g><path d="M 7.4375 0 L 2.25 0 L 2.25 -19.359375 L 7.4375 -19.359375 Z M 1.953125 -24.375 C 1.953125 -25.144531 2.207031 -25.78125 2.71875 -26.28125 C 3.238281 -26.78125 3.945312 -27.03125 4.84375 -27.03125 C 5.726562 -27.03125 6.429688 -26.78125 6.953125 -26.28125 C 7.484375 -25.78125 7.75 -25.144531 7.75 -24.375 C 7.75 -23.582031 7.484375 -22.9375 6.953125 -22.4375 C 6.421875 -21.9375 5.71875 -21.6875 4.84375 -21.6875 C 3.976562 -21.6875 3.28125 -21.9375 2.75 -22.4375 C 2.21875 -22.9375 1.953125 -23.582031 1.953125 -24.375 Z M 1.953125 -24.375 "/></g></g></g><g fill="#f7f4f6" fill-opacity="1"><g transform="translate(1433.14969, 745.592118)"><g><path d="M 6.828125 -19.359375 L 7 -17.1875 C 8.363281 -18.875 10.21875 -19.71875 12.5625 -19.71875 C 15.050781 -19.71875 16.757812 -18.734375 17.6875 -16.765625 C 19.050781 -18.734375 20.992188 -19.71875 23.515625 -19.71875 C 25.609375 -19.71875 27.164062 -19.101562 28.1875 -17.875 C 29.21875 -16.65625 29.734375 -14.816406 29.734375 -12.359375 L 29.734375 0 L 24.546875 0 L 24.546875 -12.34375 C 24.546875 -13.4375 24.332031 -14.238281 23.90625 -14.75 C 23.476562 -15.257812 22.71875 -15.515625 21.625 -15.515625 C 20.070312 -15.515625 19 -14.773438 18.40625 -13.296875 L 18.421875 0 L 13.25 0 L 13.25 -12.328125 C 13.25 -13.453125 13.03125 -14.265625 12.59375 -14.765625 C 12.15625 -15.265625 11.40625 -15.515625 10.34375 -15.515625 C 8.875 -15.515625 7.8125 -14.90625 7.15625 -13.6875 L 7.15625 0 L 1.984375 0 L 1.984375 -19.359375 Z M 6.828125 -19.359375 "/></g></g></g><g fill="#f7f4f6" fill-opacity="1"><g transform="translate(1464.867232, 745.592118)"><g><path d="M 7.4375 0 L 2.25 0 L 2.25 -19.359375 L 7.4375 -19.359375 Z M 1.953125 -24.375 C 1.953125 -25.144531 2.207031 -25.78125 2.71875 -26.28125 C 3.238281 -26.78125 3.945312 -27.03125 4.84375 -27.03125 C 5.726562 -27.03125 6.429688 -26.78125 6.953125 -26.28125 C 7.484375 -25.78125 7.75 -25.144531 7.75 -24.375 C 7.75 -23.582031 7.484375 -22.9375 6.953125 -22.4375 C 6.421875 -21.9375 5.71875 -21.6875 4.84375 -21.6875 C 3.976562 -21.6875 3.28125 -21.9375 2.75 -22.4375 C 2.21875 -22.9375 1.953125 -23.582031 1.953125 -24.375 Z M 1.953125 -24.375 "/></g></g></g><g fill="#f7f4f6" fill-opacity="1"><g transform="translate(1474.581069, 745.592118)"><g><path d="M 8.171875 -24.109375 L 8.171875 -19.359375 L 11.484375 -19.359375 L 11.484375 -15.5625 L 8.171875 -15.5625 L 8.171875 -5.90625 C 8.171875 -5.1875 8.304688 -4.671875 8.578125 -4.359375 C 8.859375 -4.054688 9.382812 -3.90625 10.15625 -3.90625 C 10.726562 -3.90625 11.238281 -3.945312 11.6875 -4.03125 L 11.6875 -0.109375 C 10.664062 0.203125 9.617188 0.359375 8.546875 0.359375 C 4.921875 0.359375 3.070312 -1.472656 3 -5.140625 L 3 -15.5625 L 0.171875 -15.5625 L 0.171875 -19.359375 L 3 -19.359375 L 3 -24.109375 Z M 8.171875 -24.109375 "/></g></g></g><g clip-path="url(#12a321c9be)"><path fill="#731f91" d="M 722.058594 326.542969 L 1050.195312 326.542969 L 1050.195312 504.097656 L 722.058594 504.097656 Z M 722.058594 326.542969 " fill-opacity="1" fill-rule="nonzero"/></g><g fill="#f7f4f6" fill-opacity="1"><g transform="translate(835.783941, 427.040766)"><g><path d="M 6.75 -19.359375 L 6.90625 -17.125 C 8.289062 -18.851562 10.144531 -19.71875 12.46875 -19.71875 C 14.519531 -19.71875 16.046875 -19.113281 17.046875 -17.90625 C 18.046875 -16.707031 18.5625 -14.90625 18.59375 -12.5 L 18.59375 0 L 13.421875 0 L 13.421875 -12.375 C 13.421875 -13.476562 13.179688 -14.273438 12.703125 -14.765625 C 12.222656 -15.265625 11.429688 -15.515625 10.328125 -15.515625 C 8.867188 -15.515625 7.773438 -14.894531 7.046875 -13.65625 L 7.046875 0 L 1.875 0 L 1.875 -19.359375 Z M 6.75 -19.359375 "/></g></g></g><g fill="#f7f4f6" fill-opacity="1"><g transform="translate(856.30285, 427.040766)"><g><path d="M 1.1875 -9.859375 C 1.1875 -11.773438 1.554688 -13.484375 2.296875 -14.984375 C 3.035156 -16.492188 4.097656 -17.660156 5.484375 -18.484375 C 6.867188 -19.304688 8.484375 -19.71875 10.328125 -19.71875 C 12.929688 -19.71875 15.0625 -18.914062 16.71875 -17.3125 C 18.375 -15.71875 19.296875 -13.550781 19.484375 -10.8125 L 19.515625 -9.484375 C 19.515625 -6.515625 18.6875 -4.128906 17.03125 -2.328125 C 15.375 -0.535156 13.148438 0.359375 10.359375 0.359375 C 7.566406 0.359375 5.335938 -0.535156 3.671875 -2.328125 C 2.015625 -4.117188 1.1875 -6.550781 1.1875 -9.625 Z M 6.34375 -9.484375 C 6.34375 -7.648438 6.6875 -6.242188 7.375 -5.265625 C 8.070312 -4.296875 9.066406 -3.8125 10.359375 -3.8125 C 11.609375 -3.8125 12.582031 -4.289062 13.28125 -5.25 C 13.988281 -6.207031 14.34375 -7.742188 14.34375 -9.859375 C 14.34375 -11.660156 13.988281 -13.054688 13.28125 -14.046875 C 12.582031 -15.035156 11.597656 -15.53125 10.328125 -15.53125 C 9.054688 -15.53125 8.070312 -15.035156 7.375 -14.046875 C 6.6875 -13.066406 6.34375 -11.546875 6.34375 -9.484375 Z M 6.34375 -9.484375 "/></g></g></g><g fill="#f7f4f6" fill-opacity="1"><g transform="translate(877.018534, 427.040766)"><g><path d="M 6.75 -19.359375 L 6.90625 -17.125 C 8.289062 -18.851562 10.144531 -19.71875 12.46875 -19.71875 C 14.519531 -19.71875 16.046875 -19.113281 17.046875 -17.90625 C 18.046875 -16.707031 18.5625 -14.90625 18.59375 -12.5 L 18.59375 0 L 13.421875 0 L 13.421875 -12.375 C 13.421875 -13.476562 13.179688 -14.273438 12.703125 -14.765625 C 12.222656 -15.265625 11.429688 -15.515625 10.328125 -15.515625 C 8.867188 -15.515625 7.773438 -14.894531 7.046875 -13.65625 L 7.046875 0 L 1.875 0 L 1.875 -19.359375 Z M 6.75 -19.359375 "/></g></g></g><g fill="#f7f4f6" fill-opacity="1"><g transform="translate(897.537443, 427.040766)"><g><path d="M 10.03125 -3.8125 C 10.988281 -3.8125 11.765625 -4.070312 12.359375 -4.59375 C 12.953125 -5.125 13.265625 -5.820312 13.296875 -6.6875 L 18.140625 -6.6875 C 18.128906 -5.375 17.769531 -4.171875 17.0625 -3.078125 C 16.363281 -1.992188 15.398438 -1.148438 14.171875 -0.546875 C 12.953125 0.0546875 11.601562 0.359375 10.125 0.359375 C 7.351562 0.359375 5.171875 -0.519531 3.578125 -2.28125 C 1.984375 -4.039062 1.1875 -6.472656 1.1875 -9.578125 L 1.1875 -9.90625 C 1.1875 -12.894531 1.976562 -15.273438 3.5625 -17.046875 C 5.144531 -18.828125 7.320312 -19.71875 10.09375 -19.71875 C 12.507812 -19.71875 14.445312 -19.023438 15.90625 -17.640625 C 17.375 -16.265625 18.117188 -14.429688 18.140625 -12.140625 L 13.296875 -12.140625 C 13.265625 -13.148438 12.953125 -13.96875 12.359375 -14.59375 C 11.765625 -15.21875 10.976562 -15.53125 10 -15.53125 C 8.789062 -15.53125 7.878906 -15.09375 7.265625 -14.21875 C 6.648438 -13.34375 6.34375 -11.921875 6.34375 -9.953125 L 6.34375 -9.40625 C 6.34375 -7.414062 6.644531 -5.984375 7.25 -5.109375 C 7.863281 -4.242188 8.789062 -3.8125 10.03125 -3.8125 Z M 10.03125 -3.8125 "/></g></g></g><g fill="#f7f4f6" fill-opacity="1"><g transform="translate(916.6431, 427.040766)"><g><path d="M 10.890625 0.359375 C 8.054688 0.359375 5.742188 -0.507812 3.953125 -2.25 C 2.171875 -3.988281 1.28125 -6.3125 1.28125 -9.21875 L 1.28125 -9.71875 C 1.28125 -11.65625 1.65625 -13.390625 2.40625 -14.921875 C 3.164062 -16.460938 4.234375 -17.644531 5.609375 -18.46875 C 6.984375 -19.300781 8.554688 -19.71875 10.328125 -19.71875 C 12.972656 -19.71875 15.054688 -18.878906 16.578125 -17.203125 C 18.097656 -15.535156 18.859375 -13.171875 18.859375 -10.109375 L 18.859375 -8 L 6.53125 -8 C 6.695312 -6.726562 7.195312 -5.710938 8.03125 -4.953125 C 8.875 -4.191406 9.941406 -3.8125 11.234375 -3.8125 C 13.222656 -3.8125 14.78125 -4.53125 15.90625 -5.96875 L 18.453125 -3.125 C 17.671875 -2.03125 16.617188 -1.175781 15.296875 -0.5625 C 13.972656 0.0507812 12.503906 0.359375 10.890625 0.359375 Z M 10.3125 -15.53125 C 9.28125 -15.53125 8.445312 -15.179688 7.8125 -14.484375 C 7.175781 -13.796875 6.765625 -12.804688 6.578125 -11.515625 L 13.78125 -11.515625 L 13.78125 -11.9375 C 13.75 -13.082031 13.4375 -13.96875 12.84375 -14.59375 C 12.25 -15.21875 11.40625 -15.53125 10.3125 -15.53125 Z M 10.3125 -15.53125 "/></g></g></g></svg>