<svg xmlns="http://www.w3.org/2000/svg" xmlns:xlink="http://www.w3.org/1999/xlink" width="2001" zoomAndPan="magnify" viewBox="0 0 1500.75 695.249979" height="927" preserveAspectRatio="xMidYMid meet" version="1.0"><defs><g/><clipPath id="11c55c56de"><path d="M 0.683594 0 L 1499.816406 0 L 1499.816406 694.5 L 0.683594 694.5 Z M 0.683594 0 " clip-rule="nonzero"/></clipPath><clipPath id="825af8d313"><path d="M 627.007812 0 L 873.589844 0 L 873.589844 81.660156 L 627.007812 81.660156 Z M 627.007812 0 " clip-rule="nonzero"/></clipPath><clipPath id="6903db447c"><path d="M 750.25 0 C 682.183594 0 627.007812 18.28125 627.007812 40.832031 C 627.007812 63.382812 682.183594 81.660156 750.25 81.660156 C 818.316406 81.660156 873.492188 63.382812 873.492188 40.832031 C 873.492188 18.28125 818.316406 0 750.25 0 Z M 750.25 0 " clip-rule="nonzero"/></clipPath><clipPath id="499e64f1b2"><path d="M 627.007812 0 L 873.492188 0 L 873.492188 81.660156 L 627.007812 81.660156 Z M 627.007812 0 " clip-rule="nonzero"/></clipPath><clipPath id="c7fb832ee5"><path d="M 750.25 0 C 682.183594 0 627.007812 18.28125 627.007812 40.832031 C 627.007812 63.382812 682.183594 81.660156 750.25 81.660156 C 818.316406 81.660156 873.492188 63.382812 873.492188 40.832031 C 873.492188 18.28125 818.316406 0 750.25 0 Z M 750.25 0 " clip-rule="nonzero"/></clipPath><clipPath id="d082a83de8"><path d="M 627.007812 292.183594 L 873.589844 292.183594 L 873.589844 373.847656 L 627.007812 373.847656 Z M 627.007812 292.183594 " clip-rule="nonzero"/></clipPath><clipPath id="3efd686c04"><path d="M 750.25 292.183594 C 682.183594 292.183594 627.007812 310.464844 627.007812 333.015625 C 627.007812 355.566406 682.183594 373.847656 750.25 373.847656 C 818.316406 373.847656 873.492188 355.566406 873.492188 333.015625 C 873.492188 310.464844 818.316406 292.183594 750.25 292.183594 Z M 750.25 292.183594 " clip-rule="nonzero"/></clipPath><clipPath id="61e786094b"><path d="M 627.007812 292.183594 L 873.492188 292.183594 L 873.492188 373.847656 L 627.007812 373.847656 Z M 627.007812 292.183594 " clip-rule="nonzero"/></clipPath><clipPath id="179a6acb1f"><path d="M 750.25 292.183594 C 682.183594 292.183594 627.007812 310.464844 627.007812 333.015625 C 627.007812 355.566406 682.183594 373.847656 750.25 373.847656 C 818.316406 373.847656 873.492188 355.566406 873.492188 333.015625 C 873.492188 310.464844 818.316406 292.183594 750.25 292.183594 Z M 750.25 292.183594 " clip-rule="nonzero"/></clipPath><clipPath id="12d9411bc1"><path d="M 1253.332031 292.183594 L 1499.816406 292.183594 L 1499.816406 373.847656 L 1253.332031 373.847656 Z M 1253.332031 292.183594 " clip-rule="nonzero"/></clipPath><clipPath id="6233506914"><path d="M 1376.574219 292.183594 C 1308.507812 292.183594 1253.332031 310.464844 1253.332031 333.015625 C 1253.332031 355.566406 1308.507812 373.847656 1376.574219 373.847656 C 1444.640625 373.847656 1499.816406 355.566406 1499.816406 333.015625 C 1499.816406 310.464844 1444.640625 292.183594 1376.574219 292.183594 Z M 1376.574219 292.183594 " clip-rule="nonzero"/></clipPath><clipPath id="60c38628ad"><path d="M 313.847656 292.183594 L 560.425781 292.183594 L 560.425781 373.847656 L 313.847656 373.847656 Z M 313.847656 292.183594 " clip-rule="nonzero"/></clipPath><clipPath id="add38b873f"><path d="M 437.089844 292.183594 C 369.023438 292.183594 313.847656 310.464844 313.847656 333.015625 C 313.847656 355.566406 369.023438 373.847656 437.089844 373.847656 C 505.152344 373.847656 560.328125 355.566406 560.328125 333.015625 C 560.328125 310.464844 505.152344 292.183594 437.089844 292.183594 Z M 437.089844 292.183594 " clip-rule="nonzero"/></clipPath><clipPath id="2a99e36c0a"><path d="M 313.847656 292.183594 L 560.328125 292.183594 L 560.328125 373.847656 L 313.847656 373.847656 Z M 313.847656 292.183594 " clip-rule="nonzero"/></clipPath><clipPath id="125d7cb814"><path d="M 437.089844 292.183594 C 369.023438 292.183594 313.847656 310.464844 313.847656 333.015625 C 313.847656 355.566406 369.023438 373.847656 437.089844 373.847656 C 505.152344 373.847656 560.328125 355.566406 560.328125 333.015625 C 560.328125 310.464844 505.152344 292.183594 437.089844 292.183594 Z M 437.089844 292.183594 " clip-rule="nonzero"/></clipPath><clipPath id="37c0c5754d"><path d="M 0.683594 292.183594 L 247.265625 292.183594 L 247.265625 373.847656 L 0.683594 373.847656 Z M 0.683594 292.183594 " clip-rule="nonzero"/></clipPath><clipPath id="4fb4824f19"><path d="M 123.925781 292.183594 C 55.859375 292.183594 0.683594 310.464844 0.683594 333.015625 C 0.683594 355.566406 55.859375 373.847656 123.925781 373.847656 C 191.992188 373.847656 247.167969 355.566406 247.167969 333.015625 C 247.167969 310.464844 191.992188 292.183594 123.925781 292.183594 Z M 123.925781 292.183594 " clip-rule="nonzero"/></clipPath><clipPath id="971ab27749"><path d="M 0.683594 292.183594 L 247.167969 292.183594 L 247.167969 373.847656 L 0.683594 373.847656 Z M 0.683594 292.183594 " clip-rule="nonzero"/></clipPath><clipPath id="0c2fcbfcf7"><path d="M 123.925781 292.183594 C 55.859375 292.183594 0.683594 310.464844 0.683594 333.015625 C 0.683594 355.566406 55.859375 373.847656 123.925781 373.847656 C 191.992188 373.847656 247.167969 355.566406 247.167969 333.015625 C 247.167969 310.464844 191.992188 292.183594 123.925781 292.183594 Z M 123.925781 292.183594 " clip-rule="nonzero"/></clipPath><clipPath id="36b302e5e8"><path d="M 1253.332031 449.890625 L 1499.816406 449.890625 L 1499.816406 531.550781 L 1253.332031 531.550781 Z M 1253.332031 449.890625 " clip-rule="nonzero"/></clipPath><clipPath id="c8b594edaf"><path d="M 1376.574219 449.890625 C 1308.507812 449.890625 1253.332031 468.171875 1253.332031 490.71875 C 1253.332031 513.269531 1308.507812 531.550781 1376.574219 531.550781 C 1444.640625 531.550781 1499.816406 513.269531 1499.816406 490.71875 C 1499.816406 468.171875 1444.640625 449.890625 1376.574219 449.890625 Z M 1376.574219 449.890625 " clip-rule="nonzero"/></clipPath><clipPath id="1dee8421ae"><path d="M 940.171875 292.183594 L 1186.75 292.183594 L 1186.75 373.847656 L 940.171875 373.847656 Z M 940.171875 292.183594 " clip-rule="nonzero"/></clipPath><clipPath id="abdd5047e6"><path d="M 1063.414062 292.183594 C 995.347656 292.183594 940.171875 310.464844 940.171875 333.015625 C 940.171875 355.566406 995.347656 373.847656 1063.414062 373.847656 C 1131.476562 373.847656 1186.65625 355.566406 1186.65625 333.015625 C 1186.65625 310.464844 1131.476562 292.183594 1063.414062 292.183594 Z M 1063.414062 292.183594 " clip-rule="nonzero"/></clipPath><clipPath id="47e5941302"><path d="M 940.171875 292.183594 L 1186.65625 292.183594 L 1186.65625 373.847656 L 940.171875 373.847656 Z M 940.171875 292.183594 " clip-rule="nonzero"/></clipPath><clipPath id="7fb1558d36"><path d="M 1063.414062 292.183594 C 995.347656 292.183594 940.171875 310.464844 940.171875 333.015625 C 940.171875 355.566406 995.347656 373.847656 1063.414062 373.847656 C 1131.476562 373.847656 1186.65625 355.566406 1186.65625 333.015625 C 1186.65625 310.464844 1131.476562 292.183594 1063.414062 292.183594 Z M 1063.414062 292.183594 " clip-rule="nonzero"/></clipPath><clipPath id="26f616bdbd"><path d="M 628.148438 612.695312 L 874.730469 612.695312 L 874.730469 694.359375 L 628.148438 694.359375 Z M 628.148438 612.695312 " clip-rule="nonzero"/></clipPath><clipPath id="35fe480e1b"><path d="M 751.390625 612.695312 C 683.324219 612.695312 628.148438 630.976562 628.148438 653.527344 C 628.148438 676.078125 683.324219 694.359375 751.390625 694.359375 C 819.457031 694.359375 874.632812 676.078125 874.632812 653.527344 C 874.632812 630.976562 819.457031 612.695312 751.390625 612.695312 Z M 751.390625 612.695312 " clip-rule="nonzero"/></clipPath><clipPath id="d1b899603d"><path d="M 628.148438 612.695312 L 874.632812 612.695312 L 874.632812 694.359375 L 628.148438 694.359375 Z M 628.148438 612.695312 " clip-rule="nonzero"/></clipPath><clipPath id="f6711aff07"><path d="M 751.390625 612.695312 C 683.324219 612.695312 628.148438 630.976562 628.148438 653.527344 C 628.148438 676.078125 683.324219 694.359375 751.390625 694.359375 C 819.457031 694.359375 874.632812 676.078125 874.632812 653.527344 C 874.632812 630.976562 819.457031 612.695312 751.390625 612.695312 Z M 751.390625 612.695312 " clip-rule="nonzero"/></clipPath></defs><g clip-path="url(#11c55c56de)"><path fill="#ffffff" d="M 0.683594 0 L 1499.816406 0 L 1499.816406 694.5 L 0.683594 694.5 Z M 0.683594 0 " fill-opacity="1" fill-rule="nonzero"/></g><g clip-path="url(#825af8d313)"><g clip-path="url(#6903db447c)"><path fill="#731f91" d="M 627.007812 0 L 873.589844 0 L 873.589844 81.660156 L 627.007812 81.660156 Z M 627.007812 0 " fill-opacity="1" fill-rule="nonzero"/></g></g><g clip-path="url(#499e64f1b2)"><g clip-path="url(#c7fb832ee5)"><path stroke-linecap="butt" transform="matrix(0.749192, 0, 0, 0.749192, 627.00806, 0.000000482115)" fill="none" stroke-linejoin="miter" d="M 164.499872 -0.000000643513 C 73.64675 -0.000000643513 -0.000329818 24.401297 -0.000329818 54.501445 C -0.000329818 84.601593 73.64675 108.997677 164.499872 108.997677 C 255.352995 108.997677 329.000075 84.601593 329.000075 54.501445 C 329.000075 24.401297 255.352995 -0.000000643513 164.499872 -0.000000643513 Z M 164.499872 -0.000000643513 " stroke="#731f91" stroke-width="6" stroke-opacity="1" stroke-miterlimit="4"/></g></g><g clip-path="url(#d082a83de8)"><g clip-path="url(#3efd686c04)"><path fill="#731f91" d="M 627.007812 292.183594 L 873.589844 292.183594 L 873.589844 373.847656 L 627.007812 373.847656 Z M 627.007812 292.183594 " fill-opacity="1" fill-rule="nonzero"/></g></g><g clip-path="url(#61e786094b)"><g clip-path="url(#179a6acb1f)"><path stroke-linecap="butt" transform="matrix(0.749192, 0, 0, 0.749192, 627.00806, 292.184785)" fill="none" stroke-linejoin="miter" d="M 164.499872 -0.00158987 C 73.64675 -0.00158987 -0.000329818 24.399708 -0.000329818 54.499856 C -0.000329818 84.600004 73.64675 109.001302 164.499872 109.001302 C 255.352995 109.001302 329.000075 84.600004 329.000075 54.499856 C 329.000075 24.399708 255.352995 -0.00158987 164.499872 -0.00158987 Z M 164.499872 -0.00158987 " stroke="#731f91" stroke-width="6" stroke-opacity="1" stroke-miterlimit="4"/></g></g><g clip-path="url(#12d9411bc1)"><g clip-path="url(#6233506914)"><path fill="#731f91" d="M 1253.332031 292.183594 L 1499.914062 292.183594 L 1499.914062 373.847656 L 1253.332031 373.847656 Z M 1253.332031 292.183594 " fill-opacity="1" fill-rule="nonzero"/><path stroke-linecap="butt" transform="matrix(0.749192, 0, 0, 0.749192, 1253.332368, 292.184785)" fill="none" stroke-linejoin="miter" d="M 164.499753 -0.00158987 C 73.64663 -0.00158987 -0.000449044 24.399708 -0.000449044 54.499856 C -0.000449044 84.600004 73.64663 109.001302 164.499753 109.001302 C 255.352876 109.001302 328.999955 84.600004 328.999955 54.499856 C 328.999955 24.399708 255.352876 -0.00158987 164.499753 -0.00158987 Z M 164.499753 -0.00158987 " stroke="#731f91" stroke-width="6" stroke-opacity="1" stroke-miterlimit="4"/></g></g><g clip-path="url(#60c38628ad)"><g clip-path="url(#add38b873f)"><path fill="#731f91" d="M 313.847656 292.183594 L 560.425781 292.183594 L 560.425781 373.847656 L 313.847656 373.847656 Z M 313.847656 292.183594 " fill-opacity="1" fill-rule="nonzero"/></g></g><g clip-path="url(#2a99e36c0a)"><g clip-path="url(#125d7cb814)"><path stroke-linecap="butt" transform="matrix(0.749192, 0, 0, 0.749192, 313.845906, 292.184785)" fill="none" stroke-linejoin="miter" d="M 164.502539 -0.00158987 C 73.649416 -0.00158987 0.00233677 24.399708 0.00233677 54.499856 C 0.00233677 84.600004 73.649416 109.001302 164.502539 109.001302 C 255.350448 109.001302 328.997527 84.600004 328.997527 54.499856 C 328.997527 24.399708 255.350448 -0.00158987 164.502539 -0.00158987 Z M 164.502539 -0.00158987 " stroke="#731f91" stroke-width="6" stroke-opacity="1" stroke-miterlimit="4"/></g></g><g clip-path="url(#37c0c5754d)"><g clip-path="url(#4fb4824f19)"><path fill="#731f91" d="M 0.683594 292.183594 L 247.265625 292.183594 L 247.265625 373.847656 L 0.683594 373.847656 Z M 0.683594 292.183594 " fill-opacity="1" fill-rule="nonzero"/></g></g><g clip-path="url(#971ab27749)"><g clip-path="url(#0c2fcbfcf7)"><path stroke-linecap="butt" transform="matrix(0.749192, 0, 0, 0.749192, 0.683752, 292.184785)" fill="none" stroke-linejoin="miter" d="M 164.499992 -0.00158987 C 73.646869 -0.00158987 -0.000210592 24.399708 -0.000210592 54.499856 C -0.000210592 84.600004 73.646869 109.001302 164.499992 109.001302 C 255.353114 109.001302 329.000194 84.600004 329.000194 54.499856 C 329.000194 24.399708 255.353114 -0.00158987 164.499992 -0.00158987 Z M 164.499992 -0.00158987 " stroke="#731f91" stroke-width="6" stroke-opacity="1" stroke-miterlimit="4"/></g></g><g clip-path="url(#36b302e5e8)"><g clip-path="url(#c8b594edaf)"><path fill="#731f91" d="M 1253.332031 449.890625 L 1499.914062 449.890625 L 1499.914062 531.550781 L 1253.332031 531.550781 Z M 1253.332031 449.890625 " fill-opacity="1" fill-rule="nonzero"/><path stroke-linecap="butt" transform="matrix(0.749192, 0, 0, 0.749192, 1253.332368, 449.88965)" fill="none" stroke-linejoin="miter" d="M 164.499753 0.00130204 C 73.64663 0.00130204 -0.000449044 24.4026 -0.000449044 54.497534 C -0.000449044 84.597682 73.64663 108.99898 164.499753 108.99898 C 255.352876 108.99898 328.999955 84.597682 328.999955 54.497534 C 328.999955 24.4026 255.352876 0.00130204 164.499753 0.00130204 Z M 164.499753 0.00130204 " stroke="#731f91" stroke-width="6" stroke-opacity="1" stroke-miterlimit="4"/></g></g><g clip-path="url(#1dee8421ae)"><g clip-path="url(#abdd5047e6)"><path fill="#731f91" d="M 940.171875 292.183594 L 1186.75 292.183594 L 1186.75 373.847656 L 940.171875 373.847656 Z M 940.171875 292.183594 " fill-opacity="1" fill-rule="nonzero"/></g></g><g clip-path="url(#47e5941302)"><g clip-path="url(#7fb1558d36)"><path stroke-linecap="butt" transform="matrix(0.749192, 0, 0, 0.749192, 940.170214, 292.184785)" fill="none" stroke-linejoin="miter" d="M 164.50242 -0.00158987 C 73.649297 -0.00158987 0.00221755 24.399708 0.00221755 54.499856 C 0.00221755 84.600004 73.649297 109.001302 164.50242 109.001302 C 255.350329 109.001302 328.997408 84.600004 328.997408 54.499856 C 328.997408 24.399708 255.350329 -0.00158987 164.50242 -0.00158987 Z M 164.50242 -0.00158987 " stroke="#731f91" stroke-width="6" stroke-opacity="1" stroke-miterlimit="4"/></g></g><g fill="#ffe3b3" fill-opacity="1"><g transform="translate(1006.016905, 342.327802)"><g><path d="M 5.265625 -2.28125 L 15.3125 -2.28125 L 15.3125 0 L 2.453125 0 L 2.453125 -21.1875 L 5.265625 -21.1875 Z M 5.265625 -2.28125 "/></g></g><g transform="translate(1022.051143, 342.327802)"><g><path d="M 11.75 0 C 11.59375 -0.3125 11.46875 -0.863281 11.375 -1.65625 C 10.125 -0.351562 8.628906 0.296875 6.890625 0.296875 C 5.335938 0.296875 4.0625 -0.140625 3.0625 -1.015625 C 2.070312 -1.898438 1.578125 -3.015625 1.578125 -4.359375 C 1.578125 -6.003906 2.203125 -7.28125 3.453125 -8.1875 C 4.703125 -9.09375 6.457031 -9.546875 8.71875 -9.546875 L 11.328125 -9.546875 L 11.328125 -10.78125 C 11.328125 -11.71875 11.046875 -12.460938 10.484375 -13.015625 C 9.921875 -13.578125 9.09375 -13.859375 8 -13.859375 C 7.039062 -13.859375 6.234375 -13.613281 5.578125 -13.125 C 4.929688 -12.644531 4.609375 -12.0625 4.609375 -11.375 L 1.90625 -11.375 C 1.90625 -12.164062 2.179688 -12.925781 2.734375 -13.65625 C 3.296875 -14.382812 4.054688 -14.960938 5.015625 -15.390625 C 5.972656 -15.816406 7.019531 -16.03125 8.15625 -16.03125 C 9.976562 -16.03125 11.398438 -15.578125 12.421875 -14.671875 C 13.453125 -13.765625 13.988281 -12.515625 14.03125 -10.921875 L 14.03125 -3.6875 C 14.03125 -2.238281 14.210938 -1.085938 14.578125 -0.234375 L 14.578125 0 Z M 7.296875 -2.046875 C 8.140625 -2.046875 8.9375 -2.265625 9.6875 -2.703125 C 10.445312 -3.140625 10.992188 -3.707031 11.328125 -4.40625 L 11.328125 -7.640625 L 9.21875 -7.640625 C 5.925781 -7.640625 4.28125 -6.675781 4.28125 -4.75 C 4.28125 -3.90625 4.5625 -3.242188 5.125 -2.765625 C 5.6875 -2.285156 6.410156 -2.046875 7.296875 -2.046875 Z M 7.296875 -2.046875 "/></g></g><g transform="translate(1038.259982, 342.327802)"><g><path d="M 11.203125 -4.171875 C 11.203125 -4.898438 10.925781 -5.460938 10.375 -5.859375 C 9.832031 -6.265625 8.878906 -6.613281 7.515625 -6.90625 C 6.148438 -7.195312 5.066406 -7.546875 4.265625 -7.953125 C 3.460938 -8.359375 2.867188 -8.84375 2.484375 -9.40625 C 2.109375 -9.96875 1.921875 -10.640625 1.921875 -11.421875 C 1.921875 -12.710938 2.460938 -13.800781 3.546875 -14.6875 C 4.640625 -15.582031 6.035156 -16.03125 7.734375 -16.03125 C 9.523438 -16.03125 10.972656 -15.566406 12.078125 -14.640625 C 13.191406 -13.722656 13.75 -12.546875 13.75 -11.109375 L 11.046875 -11.109375 C 11.046875 -11.847656 10.734375 -12.484375 10.109375 -13.015625 C 9.484375 -13.554688 8.691406 -13.828125 7.734375 -13.828125 C 6.753906 -13.828125 5.988281 -13.613281 5.4375 -13.1875 C 4.882812 -12.757812 4.609375 -12.203125 4.609375 -11.515625 C 4.609375 -10.859375 4.863281 -10.363281 5.375 -10.03125 C 5.894531 -9.707031 6.828125 -9.394531 8.171875 -9.09375 C 9.515625 -8.789062 10.601562 -8.429688 11.4375 -8.015625 C 12.269531 -7.597656 12.882812 -7.09375 13.28125 -6.5 C 13.6875 -5.914062 13.890625 -5.203125 13.890625 -4.359375 C 13.890625 -2.953125 13.328125 -1.820312 12.203125 -0.96875 C 11.078125 -0.125 9.617188 0.296875 7.828125 0.296875 C 6.566406 0.296875 5.453125 0.0703125 4.484375 -0.375 C 3.515625 -0.820312 2.753906 -1.445312 2.203125 -2.25 C 1.648438 -3.050781 1.375 -3.914062 1.375 -4.84375 L 4.078125 -4.84375 C 4.117188 -3.9375 4.476562 -3.21875 5.15625 -2.6875 C 5.832031 -2.164062 6.722656 -1.90625 7.828125 -1.90625 C 8.847656 -1.90625 9.664062 -2.109375 10.28125 -2.515625 C 10.894531 -2.929688 11.203125 -3.484375 11.203125 -4.171875 Z M 11.203125 -4.171875 "/></g></g><g transform="translate(1053.624914, 342.327802)"><g><path d="M 5.6875 -19.546875 L 5.6875 -15.75 L 8.625 -15.75 L 8.625 -13.65625 L 5.6875 -13.65625 L 5.6875 -3.90625 C 5.6875 -3.269531 5.816406 -2.789062 6.078125 -2.46875 C 6.335938 -2.15625 6.785156 -2 7.421875 -2 C 7.734375 -2 8.160156 -2.0625 8.703125 -2.1875 L 8.703125 0 C 7.992188 0.195312 7.304688 0.296875 6.640625 0.296875 C 5.429688 0.296875 4.519531 -0.0664062 3.90625 -0.796875 C 3.300781 -1.523438 3 -2.5625 3 -3.90625 L 3 -13.65625 L 0.125 -13.65625 L 0.125 -15.75 L 3 -15.75 L 3 -19.546875 Z M 5.6875 -19.546875 "/></g></g><g transform="translate(1063.358947, 342.327802)"><g/></g><g transform="translate(1070.73586, 342.327802)"><g><path d="M 18.046875 -6.71875 C 17.773438 -4.476562 16.941406 -2.75 15.546875 -1.53125 C 14.160156 -0.3125 12.316406 0.296875 10.015625 0.296875 C 7.503906 0.296875 5.492188 -0.597656 3.984375 -2.390625 C 2.484375 -4.191406 1.734375 -6.597656 1.734375 -9.609375 L 1.734375 -11.640625 C 1.734375 -13.609375 2.082031 -15.335938 2.78125 -16.828125 C 3.488281 -18.328125 4.488281 -19.472656 5.78125 -20.265625 C 7.070312 -21.066406 8.5625 -21.46875 10.25 -21.46875 C 12.5 -21.46875 14.300781 -20.835938 15.65625 -19.578125 C 17.019531 -18.328125 17.816406 -16.59375 18.046875 -14.375 L 15.234375 -14.375 C 14.992188 -16.0625 14.46875 -17.28125 13.65625 -18.03125 C 12.84375 -18.789062 11.707031 -19.171875 10.25 -19.171875 C 8.46875 -19.171875 7.070312 -18.507812 6.0625 -17.1875 C 5.050781 -15.875 4.546875 -14 4.546875 -11.5625 L 4.546875 -9.515625 C 4.546875 -7.210938 5.023438 -5.382812 5.984375 -4.03125 C 6.941406 -2.675781 8.285156 -2 10.015625 -2 C 11.566406 -2 12.753906 -2.347656 13.578125 -3.046875 C 14.410156 -3.753906 14.960938 -4.976562 15.234375 -6.71875 Z M 18.046875 -6.71875 "/></g></g><g transform="translate(1090.131177, 342.327802)"><g><path d="M 11.75 0 C 11.59375 -0.3125 11.46875 -0.863281 11.375 -1.65625 C 10.125 -0.351562 8.628906 0.296875 6.890625 0.296875 C 5.335938 0.296875 4.0625 -0.140625 3.0625 -1.015625 C 2.070312 -1.898438 1.578125 -3.015625 1.578125 -4.359375 C 1.578125 -6.003906 2.203125 -7.28125 3.453125 -8.1875 C 4.703125 -9.09375 6.457031 -9.546875 8.71875 -9.546875 L 11.328125 -9.546875 L 11.328125 -10.78125 C 11.328125 -11.71875 11.046875 -12.460938 10.484375 -13.015625 C 9.921875 -13.578125 9.09375 -13.859375 8 -13.859375 C 7.039062 -13.859375 6.234375 -13.613281 5.578125 -13.125 C 4.929688 -12.644531 4.609375 -12.0625 4.609375 -11.375 L 1.90625 -11.375 C 1.90625 -12.164062 2.179688 -12.925781 2.734375 -13.65625 C 3.296875 -14.382812 4.054688 -14.960938 5.015625 -15.390625 C 5.972656 -15.816406 7.019531 -16.03125 8.15625 -16.03125 C 9.976562 -16.03125 11.398438 -15.578125 12.421875 -14.671875 C 13.453125 -13.765625 13.988281 -12.515625 14.03125 -10.921875 L 14.03125 -3.6875 C 14.03125 -2.238281 14.210938 -1.085938 14.578125 -0.234375 L 14.578125 0 Z M 7.296875 -2.046875 C 8.140625 -2.046875 8.9375 -2.265625 9.6875 -2.703125 C 10.445312 -3.140625 10.992188 -3.707031 11.328125 -4.40625 L 11.328125 -7.640625 L 9.21875 -7.640625 C 5.925781 -7.640625 4.28125 -6.675781 4.28125 -4.75 C 4.28125 -3.90625 4.5625 -3.242188 5.125 -2.765625 C 5.6875 -2.285156 6.410156 -2.046875 7.296875 -2.046875 Z M 7.296875 -2.046875 "/></g></g><g transform="translate(1106.340016, 342.327802)"><g><path d="M 4.96875 0 L 2.265625 0 L 2.265625 -22.34375 L 4.96875 -22.34375 Z M 4.96875 0 "/></g></g><g transform="translate(1113.571428, 342.327802)"><g><path d="M 4.96875 0 L 2.265625 0 L 2.265625 -22.34375 L 4.96875 -22.34375 Z M 4.96875 0 "/></g></g></g><g clip-path="url(#26f616bdbd)"><g clip-path="url(#35fe480e1b)"><path fill="#731f91" d="M 628.148438 612.695312 L 874.730469 612.695312 L 874.730469 694.359375 L 628.148438 694.359375 Z M 628.148438 612.695312 " fill-opacity="1" fill-rule="nonzero"/></g></g><g clip-path="url(#d1b899603d)"><g clip-path="url(#f6711aff07)"><path stroke-linecap="butt" transform="matrix(0.749192, 0, 0, 0.749192, 628.148773, 612.696522)" fill="none" stroke-linejoin="miter" d="M 164.499754 -0.00161443 C 73.646632 -0.00161443 -0.000447778 24.399683 -0.000447778 54.499831 C -0.000447778 84.599979 73.646632 109.001277 164.499754 109.001277 C 255.352877 109.001277 328.999957 84.599979 328.999957 54.499831 C 328.999957 24.399683 255.352877 -0.00161443 164.499754 -0.00161443 Z M 164.499754 -0.00161443 " stroke="#731f91" stroke-width="6" stroke-opacity="1" stroke-miterlimit="4"/></g></g><path stroke-linecap="butt" transform="matrix(0, -0.749192, 0.749192, 0, 748.75172, 292.184785)" fill="none" stroke-linejoin="miter" d="M 0.00158987 1.999862 L 263.999631 1.999862 " stroke="#c957bc" stroke-width="4" stroke-opacity="1" stroke-miterlimit="4"/><path stroke-linecap="round" transform="matrix(0, -0.749192, 0.749192, 0, 748.75172, 292.184785)" fill-opacity="1" fill="#c957bc" fill-rule="nonzero" stroke-linejoin="round" d="M 265.00071 -4.001397 L 272.998913 1.999862 L 265.00071 8.001121 Z M 265.00071 -4.001397 " stroke="#c957bc" stroke-width="4" stroke-opacity="1" stroke-miterlimit="4"/><path stroke-linecap="butt" transform="matrix(0.749192, 0, 0, 0.749192, 247.167839, 331.517352)" fill="none" stroke-linejoin="miter" d="M 0.000172826 1.999852 L 78.000898 1.999852 " stroke="#c957bc" stroke-width="4" stroke-opacity="1" stroke-miterlimit="4"/><path stroke-linecap="round" transform="matrix(0.749192, 0, 0, 0.749192, 247.167839, 331.517352)" fill-opacity="1" fill="#c957bc" fill-rule="nonzero" stroke-linejoin="round" d="M 79.001976 -4.001407 L 87.000179 1.999852 L 79.001976 8.001111 Z M 79.001976 -4.001407 " stroke="#c957bc" stroke-width="4" stroke-opacity="1" stroke-miterlimit="4"/><path stroke-linecap="butt" transform="matrix(0.749192, 0, 0, 0.749192, 560.329993, 332.266544)" fill="none" stroke-linejoin="miter" d="M -0.00249376 2.000931 L 77.998231 2.000931 " stroke="#c957bc" stroke-width="4" stroke-opacity="1" stroke-miterlimit="4"/><path stroke-linecap="round" transform="matrix(0.749192, 0, 0, 0.749192, 560.329993, 332.266544)" fill-opacity="1" fill="#c957bc" fill-rule="nonzero" stroke-linejoin="round" d="M 78.99931 -4.000328 L 86.997513 2.000931 L 78.99931 8.00219 Z M 78.99931 -4.000328 " stroke="#c957bc" stroke-width="4" stroke-opacity="1" stroke-miterlimit="4"/><path stroke-linecap="butt" transform="matrix(0.749192, 0, 0, 0.749192, 1186.654301, 333.015736)" fill="none" stroke-linejoin="miter" d="M 0.00260096 2.00201 L 77.998112 2.00201 " stroke="#c957bc" stroke-width="4" stroke-opacity="1" stroke-miterlimit="4"/><path stroke-linecap="round" transform="matrix(0.749192, 0, 0, 0.749192, 1186.654301, 333.015736)" fill-opacity="1" fill="#c957bc" fill-rule="nonzero" stroke-linejoin="round" d="M 78.999191 -3.999249 L 86.997393 2.00201 L 78.999191 7.998055 Z M 78.999191 -3.999249 " stroke="#c957bc" stroke-width="4" stroke-opacity="1" stroke-miterlimit="4"/><path stroke-linecap="butt" transform="matrix(0.638742, 0.391532, -0.391532, 0.638742, 1064.536165, 373.236974)" fill="none" stroke-linejoin="miter" d="M 0.0017303 2.000767 L 285.798918 2.000389 " stroke="#c957bc" stroke-width="4" stroke-opacity="1" stroke-miterlimit="4"/><path stroke-linecap="round" transform="matrix(0.638742, 0.391532, -0.391532, 0.638742, 1064.536165, 373.236974)" fill-opacity="1" fill="#c957bc" fill-rule="nonzero" stroke-linejoin="round" d="M 286.798976 -4.000408 L 294.800181 1.999069 L 286.797437 7.99922 Z M 286.798976 -4.000408 " stroke="#c957bc" stroke-width="4" stroke-opacity="1" stroke-miterlimit="4"/><path stroke-linecap="butt" transform="matrix(0.727942, 0.177168, -0.177168, 0.727942, 773.479267, 372.391322)" fill="none" stroke-linejoin="miter" d="M 0.000231457 2.000562 L 648.677397 2.001733 " stroke="#c957bc" stroke-width="4" stroke-opacity="1" stroke-miterlimit="4"/><path stroke-linecap="round" transform="matrix(0.727942, 0.177168, -0.177168, 0.727942, 773.479267, 372.391322)" fill-opacity="1" fill="#c957bc" fill-rule="nonzero" stroke-linejoin="round" d="M 649.679723 -4.000099 L 657.676251 2.000964 L 649.675683 7.999606 Z M 649.679723 -4.000099 " stroke="#c957bc" stroke-width="4" stroke-opacity="1" stroke-miterlimit="4"/><path stroke-linecap="butt" transform="matrix(0.741882, 0.1044, -0.1044, 0.741882, 437.473142, 374.397458)" fill="none" stroke-linejoin="miter" d="M 0.00199251 2.001863 L 1088.997611 2.001774 " stroke="#c957bc" stroke-width="4" stroke-opacity="1" stroke-miterlimit="4"/><path stroke-linecap="round" transform="matrix(0.741882, 0.1044, -0.1044, 0.741882, 437.473142, 374.397458)" fill-opacity="1" fill="#c957bc" fill-rule="nonzero" stroke-linejoin="round" d="M 1089.996019 -3.999033 L 1097.995691 1.99921 L 1089.999681 8.000128 Z M 1089.996019 -3.999033 " stroke="#c957bc" stroke-width="4" stroke-opacity="1" stroke-miterlimit="4"/><path stroke-linecap="butt" transform="matrix(0.749144, 0.00841735, -0.00841735, 0.749144, 873.509001, 330.768278)" fill="none" stroke-linejoin="miter" d="M 2.002338 2.002316 L 87.005541 2.001437 " stroke="#c957bc" stroke-width="4" stroke-opacity="1" stroke-miterlimit="4"/><path stroke-linecap="round" transform="matrix(0.749144, 0.00841735, -0.00841735, 0.749144, 873.509001, 330.768278)" fill="none" stroke-linejoin="round" d="M 10.001383 -4.000556 L 2.002338 2.002316 L 10.000622 7.997514 " stroke="#c957bc" stroke-width="4" stroke-opacity="1" stroke-miterlimit="4"/><path stroke-linecap="round" transform="matrix(0.749144, 0.00841735, -0.00841735, 0.749144, 873.509001, 330.768278)" fill="none" stroke-linejoin="round" d="M 79.007199 -3.998974 L 87.005541 2.001437 L 79.006437 7.999096 " stroke="#c957bc" stroke-width="4" stroke-opacity="1" stroke-miterlimit="4"/><path stroke-linecap="butt" transform="matrix(0.00368821, -0.749183, 0.749183, 0.00368821, 748.748915, 607.584205)" fill="none" stroke-linejoin="miter" d="M 1.999283 1.999002 L 307.290308 1.997695 " stroke="#c957bc" stroke-width="4" stroke-opacity="1" stroke-miterlimit="4"/><path stroke-linecap="round" transform="matrix(0.00368821, -0.749183, 0.749183, 0.00368821, 748.748915, 607.584205)" fill="none" stroke-linejoin="round" d="M 9.999334 -4.000002 L 1.999283 1.999002 L 10.001043 7.997439 " stroke="#c957bc" stroke-width="4" stroke-opacity="1" stroke-miterlimit="4"/><path stroke-linecap="round" transform="matrix(0.00368821, -0.749183, 0.749183, 0.00368821, 748.748915, 607.584205)" fill="none" stroke-linejoin="round" d="M 299.288548 -4.000742 L 307.290308 1.997695 L 299.290283 8.001913 " stroke="#c957bc" stroke-width="4" stroke-opacity="1" stroke-miterlimit="4"/><path stroke-linecap="butt" transform="matrix(0.570526, -0.485581, 0.485581, 0.570526, 767.516396, 606.45042)" fill="none" stroke-linejoin="miter" d="M 1.999624 2.001054 L 478.355075 2.001941 " stroke="#c957bc" stroke-width="4" stroke-opacity="1" stroke-miterlimit="4"/><path stroke-linecap="round" transform="matrix(0.570526, -0.485581, 0.485581, 0.570526, 767.516396, 606.45042)" fill="none" stroke-linejoin="round" d="M 10.00196 -3.998347 L 1.999624 2.001054 L 9.997997 8.000642 " stroke="#c957bc" stroke-width="4" stroke-opacity="1" stroke-miterlimit="4"/><path stroke-linecap="round" transform="matrix(0.570526, -0.485581, 0.485581, 0.570526, 767.516396, 606.45042)" fill="none" stroke-linejoin="round" d="M 470.356702 -3.997648 L 478.355075 2.001941 L 470.356118 7.997371 " stroke="#c957bc" stroke-width="4" stroke-opacity="1" stroke-miterlimit="4"/><path stroke-linecap="butt" transform="matrix(0.606849, 0.439343, -0.439343, 0.606849, 414.38262, 373.130008)" fill="none" stroke-linejoin="miter" d="M 2.001413 1.999411 L 528.908695 1.998242 " stroke="#c957bc" stroke-width="4" stroke-opacity="1" stroke-miterlimit="4"/><path stroke-linecap="round" transform="matrix(0.606849, 0.439343, -0.439343, 0.606849, 414.38262, 373.130008)" fill="none" stroke-linejoin="round" d="M 9.999694 -3.997112 L 2.001413 1.999411 L 10.001747 7.999847 " stroke="#c957bc" stroke-width="4" stroke-opacity="1" stroke-miterlimit="4"/><path stroke-linecap="round" transform="matrix(0.606849, 0.439343, -0.439343, 0.606849, 414.38262, 373.130008)" fill="none" stroke-linejoin="round" d="M 520.911419 -3.997971 L 528.908695 1.998242 L 520.909249 8.002046 " stroke="#c957bc" stroke-width="4" stroke-opacity="1" stroke-miterlimit="4"/><g fill="#ffe3b3" fill-opacity="1"><g transform="translate(711.197554, 50.143031)"><g><path d="M 5.265625 -2.28125 L 15.3125 -2.28125 L 15.3125 0 L 2.453125 0 L 2.453125 -21.1875 L 5.265625 -21.1875 Z M 5.265625 -2.28125 "/></g></g><g transform="translate(727.231792, 50.143031)"><g><path d="M 4.96875 0 L 2.265625 0 L 2.265625 -15.75 L 4.96875 -15.75 Z M 2.046875 -19.921875 C 2.046875 -20.359375 2.179688 -20.722656 2.453125 -21.015625 C 2.722656 -21.316406 3.117188 -21.46875 3.640625 -21.46875 C 4.160156 -21.46875 4.554688 -21.316406 4.828125 -21.015625 C 5.097656 -20.722656 5.234375 -20.359375 5.234375 -19.921875 C 5.234375 -19.484375 5.097656 -19.117188 4.828125 -18.828125 C 4.554688 -18.535156 4.160156 -18.390625 3.640625 -18.390625 C 3.117188 -18.390625 2.722656 -18.535156 2.453125 -18.828125 C 2.179688 -19.117188 2.046875 -19.484375 2.046875 -19.921875 Z M 2.046875 -19.921875 "/></g></g><g transform="translate(734.463204, 50.143031)"><g><path d="M 7.234375 -3.65625 L 11.125 -15.75 L 13.875 -15.75 L 8.234375 0 L 6.1875 0 L 0.484375 -15.75 L 3.234375 -15.75 Z M 7.234375 -3.65625 "/></g></g><g transform="translate(748.896928, 50.143031)"><g><path d="M 4.96875 0 L 2.265625 0 L 2.265625 -15.75 L 4.96875 -15.75 Z M 2.046875 -19.921875 C 2.046875 -20.359375 2.179688 -20.722656 2.453125 -21.015625 C 2.722656 -21.316406 3.117188 -21.46875 3.640625 -21.46875 C 4.160156 -21.46875 4.554688 -21.316406 4.828125 -21.015625 C 5.097656 -20.722656 5.234375 -20.359375 5.234375 -19.921875 C 5.234375 -19.484375 5.097656 -19.117188 4.828125 -18.828125 C 4.554688 -18.535156 4.160156 -18.390625 3.640625 -18.390625 C 3.117188 -18.390625 2.722656 -18.535156 2.453125 -18.828125 C 2.179688 -19.117188 2.046875 -19.484375 2.046875 -19.921875 Z M 2.046875 -19.921875 "/></g></g><g transform="translate(756.12834, 50.143031)"><g><path d="M 4.578125 -15.75 L 4.671875 -13.765625 C 5.867188 -15.273438 7.441406 -16.03125 9.390625 -16.03125 C 12.710938 -16.03125 14.390625 -14.15625 14.421875 -10.40625 L 14.421875 0 L 11.734375 0 L 11.734375 -10.421875 C 11.722656 -11.554688 11.460938 -12.394531 10.953125 -12.9375 C 10.441406 -13.476562 9.644531 -13.75 8.5625 -13.75 C 7.695312 -13.75 6.929688 -13.515625 6.265625 -13.046875 C 5.609375 -12.585938 5.097656 -11.976562 4.734375 -11.21875 L 4.734375 0 L 2.03125 0 L 2.03125 -15.75 Z M 4.578125 -15.75 "/></g></g><g transform="translate(772.569981, 50.143031)"><g><path d="M 1.390625 -8 C 1.390625 -10.457031 1.957031 -12.410156 3.09375 -13.859375 C 4.226562 -15.304688 5.734375 -16.03125 7.609375 -16.03125 C 9.523438 -16.03125 11.023438 -15.351562 12.109375 -14 L 12.234375 -15.75 L 14.6875 -15.75 L 14.6875 -0.375 C 14.6875 1.65625 14.082031 3.257812 12.875 4.4375 C 11.675781 5.613281 10.054688 6.203125 8.015625 6.203125 C 6.878906 6.203125 5.769531 5.957031 4.6875 5.46875 C 3.601562 4.988281 2.773438 4.328125 2.203125 3.484375 L 3.59375 1.859375 C 4.75 3.285156 6.160156 4 7.828125 4 C 9.140625 4 10.160156 3.628906 10.890625 2.890625 C 11.617188 2.160156 11.984375 1.125 11.984375 -0.21875 L 11.984375 -1.578125 C 10.910156 -0.328125 9.441406 0.296875 7.578125 0.296875 C 5.734375 0.296875 4.238281 -0.441406 3.09375 -1.921875 C 1.957031 -3.410156 1.390625 -5.4375 1.390625 -8 Z M 4.109375 -7.703125 C 4.109375 -5.921875 4.46875 -4.523438 5.1875 -3.515625 C 5.914062 -2.503906 6.9375 -2 8.25 -2 C 9.945312 -2 11.191406 -2.769531 11.984375 -4.3125 L 11.984375 -11.5 C 11.160156 -13 9.925781 -13.75 8.28125 -13.75 C 6.96875 -13.75 5.941406 -13.238281 5.203125 -12.21875 C 4.472656 -11.195312 4.109375 -9.691406 4.109375 -7.703125 Z M 4.109375 -7.703125 "/></g></g></g><g fill="#ffe3b3" fill-opacity="1"><g transform="translate(95.465748, 342.327802)"><g><path d="M 5.453125 0 L 2.65625 0 L 2.65625 -21.1875 L 5.453125 -21.1875 Z M 5.453125 0 "/></g></g><g transform="translate(103.570168, 342.327802)"><g><path d="M 1.375 -8 C 1.375 -10.414062 1.945312 -12.359375 3.09375 -13.828125 C 4.238281 -15.296875 5.738281 -16.03125 7.59375 -16.03125 C 9.4375 -16.03125 10.894531 -15.398438 11.96875 -14.140625 L 11.96875 -22.34375 L 14.671875 -22.34375 L 14.671875 0 L 12.1875 0 L 12.0625 -1.6875 C 10.988281 -0.363281 9.488281 0.296875 7.5625 0.296875 C 5.738281 0.296875 4.25 -0.445312 3.09375 -1.9375 C 1.945312 -3.4375 1.375 -5.390625 1.375 -7.796875 Z M 4.078125 -7.703125 C 4.078125 -5.910156 4.441406 -4.507812 5.171875 -3.5 C 5.910156 -2.5 6.929688 -2 8.234375 -2 C 9.941406 -2 11.1875 -2.765625 11.96875 -4.296875 L 11.96875 -11.515625 C 11.164062 -13.003906 9.929688 -13.75 8.265625 -13.75 C 6.941406 -13.75 5.910156 -13.238281 5.171875 -12.21875 C 4.441406 -11.195312 4.078125 -9.691406 4.078125 -7.703125 Z M 4.078125 -7.703125 "/></g></g><g transform="translate(120.375562, 342.327802)"><g><path d="M 8.5625 0.296875 C 6.4375 0.296875 4.703125 -0.398438 3.359375 -1.796875 C 2.023438 -3.203125 1.359375 -5.082031 1.359375 -7.4375 L 1.359375 -7.921875 C 1.359375 -9.484375 1.65625 -10.878906 2.25 -12.109375 C 2.84375 -13.335938 3.675781 -14.296875 4.75 -14.984375 C 5.820312 -15.679688 6.984375 -16.03125 8.234375 -16.03125 C 10.285156 -16.03125 11.875 -15.351562 13 -14 C 14.132812 -12.65625 14.703125 -10.726562 14.703125 -8.21875 L 14.703125 -7.09375 L 4.046875 -7.09375 C 4.085938 -5.539062 4.539062 -4.285156 5.40625 -3.328125 C 6.269531 -2.378906 7.375 -1.90625 8.71875 -1.90625 C 9.664062 -1.90625 10.46875 -2.097656 11.125 -2.484375 C 11.789062 -2.867188 12.367188 -3.382812 12.859375 -4.03125 L 14.5 -2.75 C 13.1875 -0.71875 11.207031 0.296875 8.5625 0.296875 Z M 8.234375 -13.828125 C 7.148438 -13.828125 6.238281 -13.429688 5.5 -12.640625 C 4.757812 -11.847656 4.300781 -10.738281 4.125 -9.3125 L 12.015625 -9.3125 L 12.015625 -9.515625 C 11.941406 -10.878906 11.570312 -11.9375 10.90625 -12.6875 C 10.25 -13.445312 9.359375 -13.828125 8.234375 -13.828125 Z M 8.234375 -13.828125 "/></g></g><g transform="translate(136.162448, 342.327802)"><g><path d="M 11.75 0 C 11.59375 -0.3125 11.46875 -0.863281 11.375 -1.65625 C 10.125 -0.351562 8.628906 0.296875 6.890625 0.296875 C 5.335938 0.296875 4.0625 -0.140625 3.0625 -1.015625 C 2.070312 -1.898438 1.578125 -3.015625 1.578125 -4.359375 C 1.578125 -6.003906 2.203125 -7.28125 3.453125 -8.1875 C 4.703125 -9.09375 6.457031 -9.546875 8.71875 -9.546875 L 11.328125 -9.546875 L 11.328125 -10.78125 C 11.328125 -11.71875 11.046875 -12.460938 10.484375 -13.015625 C 9.921875 -13.578125 9.09375 -13.859375 8 -13.859375 C 7.039062 -13.859375 6.234375 -13.613281 5.578125 -13.125 C 4.929688 -12.644531 4.609375 -12.0625 4.609375 -11.375 L 1.90625 -11.375 C 1.90625 -12.164062 2.179688 -12.925781 2.734375 -13.65625 C 3.296875 -14.382812 4.054688 -14.960938 5.015625 -15.390625 C 5.972656 -15.816406 7.019531 -16.03125 8.15625 -16.03125 C 9.976562 -16.03125 11.398438 -15.578125 12.421875 -14.671875 C 13.453125 -13.765625 13.988281 -12.515625 14.03125 -10.921875 L 14.03125 -3.6875 C 14.03125 -2.238281 14.210938 -1.085938 14.578125 -0.234375 L 14.578125 0 Z M 7.296875 -2.046875 C 8.140625 -2.046875 8.9375 -2.265625 9.6875 -2.703125 C 10.445312 -3.140625 10.992188 -3.707031 11.328125 -4.40625 L 11.328125 -7.640625 L 9.21875 -7.640625 C 5.925781 -7.640625 4.28125 -6.675781 4.28125 -4.75 C 4.28125 -3.90625 4.5625 -3.242188 5.125 -2.765625 C 5.6875 -2.285156 6.410156 -2.046875 7.296875 -2.046875 Z M 7.296875 -2.046875 "/></g></g></g><g fill="#ffe3b3" fill-opacity="1"><g transform="translate(404.127084, 342.327802)"><g><path d="M 2.453125 0 L 2.453125 -21.1875 L 8.4375 -21.1875 C 10.28125 -21.1875 11.910156 -20.773438 13.328125 -19.953125 C 14.742188 -19.140625 15.835938 -17.984375 16.609375 -16.484375 C 17.378906 -14.984375 17.769531 -13.257812 17.78125 -11.3125 L 17.78125 -9.953125 C 17.78125 -7.953125 17.394531 -6.195312 16.625 -4.6875 C 15.851562 -3.1875 14.75 -2.035156 13.3125 -1.234375 C 11.882812 -0.429688 10.222656 -0.0195312 8.328125 0 Z M 5.25 -18.890625 L 5.25 -2.28125 L 8.1875 -2.28125 C 10.34375 -2.28125 12.019531 -2.945312 13.21875 -4.28125 C 14.414062 -5.625 15.015625 -7.535156 15.015625 -10.015625 L 15.015625 -11.25 C 15.015625 -13.65625 14.445312 -15.523438 13.3125 -16.859375 C 12.1875 -18.191406 10.585938 -18.867188 8.515625 -18.890625 Z M 5.25 -18.890625 "/></g></g><g transform="translate(423.667902, 342.327802)"><g><path d="M 9.640625 -13.328125 C 9.234375 -13.390625 8.796875 -13.421875 8.328125 -13.421875 C 6.554688 -13.421875 5.359375 -12.671875 4.734375 -11.171875 L 4.734375 0 L 2.03125 0 L 2.03125 -15.75 L 4.65625 -15.75 L 4.703125 -13.921875 C 5.578125 -15.328125 6.828125 -16.03125 8.453125 -16.03125 C 8.972656 -16.03125 9.367188 -15.960938 9.640625 -15.828125 Z M 9.640625 -13.328125 "/></g></g><g transform="translate(433.751139, 342.327802)"><g><path d="M 11.75 0 C 11.59375 -0.3125 11.46875 -0.863281 11.375 -1.65625 C 10.125 -0.351562 8.628906 0.296875 6.890625 0.296875 C 5.335938 0.296875 4.0625 -0.140625 3.0625 -1.015625 C 2.070312 -1.898438 1.578125 -3.015625 1.578125 -4.359375 C 1.578125 -6.003906 2.203125 -7.28125 3.453125 -8.1875 C 4.703125 -9.09375 6.457031 -9.546875 8.71875 -9.546875 L 11.328125 -9.546875 L 11.328125 -10.78125 C 11.328125 -11.71875 11.046875 -12.460938 10.484375 -13.015625 C 9.921875 -13.578125 9.09375 -13.859375 8 -13.859375 C 7.039062 -13.859375 6.234375 -13.613281 5.578125 -13.125 C 4.929688 -12.644531 4.609375 -12.0625 4.609375 -11.375 L 1.90625 -11.375 C 1.90625 -12.164062 2.179688 -12.925781 2.734375 -13.65625 C 3.296875 -14.382812 4.054688 -14.960938 5.015625 -15.390625 C 5.972656 -15.816406 7.019531 -16.03125 8.15625 -16.03125 C 9.976562 -16.03125 11.398438 -15.578125 12.421875 -14.671875 C 13.453125 -13.765625 13.988281 -12.515625 14.03125 -10.921875 L 14.03125 -3.6875 C 14.03125 -2.238281 14.210938 -1.085938 14.578125 -0.234375 L 14.578125 0 Z M 7.296875 -2.046875 C 8.140625 -2.046875 8.9375 -2.265625 9.6875 -2.703125 C 10.445312 -3.140625 10.992188 -3.707031 11.328125 -4.40625 L 11.328125 -7.640625 L 9.21875 -7.640625 C 5.925781 -7.640625 4.28125 -6.675781 4.28125 -4.75 C 4.28125 -3.90625 4.5625 -3.242188 5.125 -2.765625 C 5.6875 -2.285156 6.410156 -2.046875 7.296875 -2.046875 Z M 7.296875 -2.046875 "/></g></g><g transform="translate(449.959978, 342.327802)"><g><path d="M 3.359375 0 L 3.359375 -13.65625 L 0.875 -13.65625 L 0.875 -15.75 L 3.359375 -15.75 L 3.359375 -17.359375 C 3.359375 -19.046875 3.804688 -20.347656 4.703125 -21.265625 C 5.609375 -22.191406 6.890625 -22.65625 8.546875 -22.65625 C 9.160156 -22.65625 9.773438 -22.570312 10.390625 -22.40625 L 10.25 -20.21875 C 9.789062 -20.3125 9.300781 -20.359375 8.78125 -20.359375 C 7.914062 -20.359375 7.242188 -20.101562 6.765625 -19.59375 C 6.285156 -19.082031 6.046875 -18.351562 6.046875 -17.40625 L 6.046875 -15.75 L 9.40625 -15.75 L 9.40625 -13.65625 L 6.046875 -13.65625 L 6.046875 0 Z M 3.359375 0 "/></g></g><g transform="translate(460.305117, 342.327802)"><g><path d="M 5.6875 -19.546875 L 5.6875 -15.75 L 8.625 -15.75 L 8.625 -13.65625 L 5.6875 -13.65625 L 5.6875 -3.90625 C 5.6875 -3.269531 5.816406 -2.789062 6.078125 -2.46875 C 6.335938 -2.15625 6.785156 -2 7.421875 -2 C 7.734375 -2 8.160156 -2.0625 8.703125 -2.1875 L 8.703125 0 C 7.992188 0.195312 7.304688 0.296875 6.640625 0.296875 C 5.429688 0.296875 4.519531 -0.0664062 3.90625 -0.796875 C 3.300781 -1.523438 3 -2.5625 3 -3.90625 L 3 -13.65625 L 0.125 -13.65625 L 0.125 -15.75 L 3 -15.75 L 3 -19.546875 Z M 5.6875 -19.546875 "/></g></g></g><g fill="#ffe3b3" fill-opacity="1"><g transform="translate(703.253197, 342.327802)"><g><path d="M 10.234375 -8.5625 L 5.25 -8.5625 L 5.25 0 L 2.4375 0 L 2.4375 -21.1875 L 9.453125 -21.1875 C 11.835938 -21.1875 13.671875 -20.640625 14.953125 -19.546875 C 16.242188 -18.460938 16.890625 -16.882812 16.890625 -14.8125 C 16.890625 -13.488281 16.53125 -12.335938 15.8125 -11.359375 C 15.101562 -10.378906 14.113281 -9.648438 12.84375 -9.171875 L 17.828125 -0.171875 L 17.828125 0 L 14.828125 0 Z M 5.25 -10.859375 L 9.546875 -10.859375 C 10.929688 -10.859375 12.03125 -11.210938 12.84375 -11.921875 C 13.664062 -12.640625 14.078125 -13.601562 14.078125 -14.8125 C 14.078125 -16.125 13.6875 -17.128906 12.90625 -17.828125 C 12.125 -18.523438 11 -18.878906 9.53125 -18.890625 L 5.25 -18.890625 Z M 5.25 -10.859375 "/></g></g><g transform="translate(721.600904, 342.327802)"><g><path d="M 8.5625 0.296875 C 6.4375 0.296875 4.703125 -0.398438 3.359375 -1.796875 C 2.023438 -3.203125 1.359375 -5.082031 1.359375 -7.4375 L 1.359375 -7.921875 C 1.359375 -9.484375 1.65625 -10.878906 2.25 -12.109375 C 2.84375 -13.335938 3.675781 -14.296875 4.75 -14.984375 C 5.820312 -15.679688 6.984375 -16.03125 8.234375 -16.03125 C 10.285156 -16.03125 11.875 -15.351562 13 -14 C 14.132812 -12.65625 14.703125 -10.726562 14.703125 -8.21875 L 14.703125 -7.09375 L 4.046875 -7.09375 C 4.085938 -5.539062 4.539062 -4.285156 5.40625 -3.328125 C 6.269531 -2.378906 7.375 -1.90625 8.71875 -1.90625 C 9.664062 -1.90625 10.46875 -2.097656 11.125 -2.484375 C 11.789062 -2.867188 12.367188 -3.382812 12.859375 -4.03125 L 14.5 -2.75 C 13.1875 -0.71875 11.207031 0.296875 8.5625 0.296875 Z M 8.234375 -13.828125 C 7.148438 -13.828125 6.238281 -13.429688 5.5 -12.640625 C 4.757812 -11.847656 4.300781 -10.738281 4.125 -9.3125 L 12.015625 -9.3125 L 12.015625 -9.515625 C 11.941406 -10.878906 11.570312 -11.9375 10.90625 -12.6875 C 10.25 -13.445312 9.359375 -13.828125 8.234375 -13.828125 Z M 8.234375 -13.828125 "/></g></g><g transform="translate(737.38779, 342.327802)"><g><path d="M 7.234375 -3.65625 L 11.125 -15.75 L 13.875 -15.75 L 8.234375 0 L 6.1875 0 L 0.484375 -15.75 L 3.234375 -15.75 Z M 7.234375 -3.65625 "/></g></g><g transform="translate(751.821514, 342.327802)"><g><path d="M 4.96875 0 L 2.265625 0 L 2.265625 -15.75 L 4.96875 -15.75 Z M 2.046875 -19.921875 C 2.046875 -20.359375 2.179688 -20.722656 2.453125 -21.015625 C 2.722656 -21.316406 3.117188 -21.46875 3.640625 -21.46875 C 4.160156 -21.46875 4.554688 -21.316406 4.828125 -21.015625 C 5.097656 -20.722656 5.234375 -20.359375 5.234375 -19.921875 C 5.234375 -19.484375 5.097656 -19.117188 4.828125 -18.828125 C 4.554688 -18.535156 4.160156 -18.390625 3.640625 -18.390625 C 3.117188 -18.390625 2.722656 -18.535156 2.453125 -18.828125 C 2.179688 -19.117188 2.046875 -19.484375 2.046875 -19.921875 Z M 2.046875 -19.921875 "/></g></g><g transform="translate(759.052926, 342.327802)"><g><path d="M 8.5625 0.296875 C 6.4375 0.296875 4.703125 -0.398438 3.359375 -1.796875 C 2.023438 -3.203125 1.359375 -5.082031 1.359375 -7.4375 L 1.359375 -7.921875 C 1.359375 -9.484375 1.65625 -10.878906 2.25 -12.109375 C 2.84375 -13.335938 3.675781 -14.296875 4.75 -14.984375 C 5.820312 -15.679688 6.984375 -16.03125 8.234375 -16.03125 C 10.285156 -16.03125 11.875 -15.351562 13 -14 C 14.132812 -12.65625 14.703125 -10.726562 14.703125 -8.21875 L 14.703125 -7.09375 L 4.046875 -7.09375 C 4.085938 -5.539062 4.539062 -4.285156 5.40625 -3.328125 C 6.269531 -2.378906 7.375 -1.90625 8.71875 -1.90625 C 9.664062 -1.90625 10.46875 -2.097656 11.125 -2.484375 C 11.789062 -2.867188 12.367188 -3.382812 12.859375 -4.03125 L 14.5 -2.75 C 13.1875 -0.71875 11.207031 0.296875 8.5625 0.296875 Z M 8.234375 -13.828125 C 7.148438 -13.828125 6.238281 -13.429688 5.5 -12.640625 C 4.757812 -11.847656 4.300781 -10.738281 4.125 -9.3125 L 12.015625 -9.3125 L 12.015625 -9.515625 C 11.941406 -10.878906 11.570312 -11.9375 10.90625 -12.6875 C 10.25 -13.445312 9.359375 -13.828125 8.234375 -13.828125 Z M 8.234375 -13.828125 "/></g></g><g transform="translate(774.839812, 342.327802)"><g><path d="M 15.96875 -3.703125 L 19 -15.75 L 21.6875 -15.75 L 17.109375 0 L 14.921875 0 L 11.09375 -11.9375 L 7.375 0 L 5.1875 0 L 0.625 -15.75 L 3.296875 -15.75 L 6.40625 -3.953125 L 10.0625 -15.75 L 12.234375 -15.75 Z M 15.96875 -3.703125 "/></g></g></g><g fill="#ffe3b3" fill-opacity="1"><g transform="translate(1344.777539, 342.327802)"><g><path d="M 14.140625 -9.359375 L 5.25 -9.359375 L 5.25 0 L 2.453125 0 L 2.453125 -21.1875 L 15.578125 -21.1875 L 15.578125 -18.890625 L 5.25 -18.890625 L 5.25 -11.640625 L 14.140625 -11.640625 Z M 14.140625 -9.359375 "/></g></g><g transform="translate(1361.24828, 342.327802)"><g><path d="M 4.96875 0 L 2.265625 0 L 2.265625 -15.75 L 4.96875 -15.75 Z M 2.046875 -19.921875 C 2.046875 -20.359375 2.179688 -20.722656 2.453125 -21.015625 C 2.722656 -21.316406 3.117188 -21.46875 3.640625 -21.46875 C 4.160156 -21.46875 4.554688 -21.316406 4.828125 -21.015625 C 5.097656 -20.722656 5.234375 -20.359375 5.234375 -19.921875 C 5.234375 -19.484375 5.097656 -19.117188 4.828125 -18.828125 C 4.554688 -18.535156 4.160156 -18.390625 3.640625 -18.390625 C 3.117188 -18.390625 2.722656 -18.535156 2.453125 -18.828125 C 2.179688 -19.117188 2.046875 -19.484375 2.046875 -19.921875 Z M 2.046875 -19.921875 "/></g></g><g transform="translate(1368.479692, 342.327802)"><g><path d="M 4.578125 -15.75 L 4.671875 -13.765625 C 5.867188 -15.273438 7.441406 -16.03125 9.390625 -16.03125 C 12.710938 -16.03125 14.390625 -14.15625 14.421875 -10.40625 L 14.421875 0 L 11.734375 0 L 11.734375 -10.421875 C 11.722656 -11.554688 11.460938 -12.394531 10.953125 -12.9375 C 10.441406 -13.476562 9.644531 -13.75 8.5625 -13.75 C 7.695312 -13.75 6.929688 -13.515625 6.265625 -13.046875 C 5.609375 -12.585938 5.097656 -11.976562 4.734375 -11.21875 L 4.734375 0 L 2.03125 0 L 2.03125 -15.75 Z M 4.578125 -15.75 "/></g></g><g transform="translate(1384.921333, 342.327802)"><g><path d="M 11.75 0 C 11.59375 -0.3125 11.46875 -0.863281 11.375 -1.65625 C 10.125 -0.351562 8.628906 0.296875 6.890625 0.296875 C 5.335938 0.296875 4.0625 -0.140625 3.0625 -1.015625 C 2.070312 -1.898438 1.578125 -3.015625 1.578125 -4.359375 C 1.578125 -6.003906 2.203125 -7.28125 3.453125 -8.1875 C 4.703125 -9.09375 6.457031 -9.546875 8.71875 -9.546875 L 11.328125 -9.546875 L 11.328125 -10.78125 C 11.328125 -11.71875 11.046875 -12.460938 10.484375 -13.015625 C 9.921875 -13.578125 9.09375 -13.859375 8 -13.859375 C 7.039062 -13.859375 6.234375 -13.613281 5.578125 -13.125 C 4.929688 -12.644531 4.609375 -12.0625 4.609375 -11.375 L 1.90625 -11.375 C 1.90625 -12.164062 2.179688 -12.925781 2.734375 -13.65625 C 3.296875 -14.382812 4.054688 -14.960938 5.015625 -15.390625 C 5.972656 -15.816406 7.019531 -16.03125 8.15625 -16.03125 C 9.976562 -16.03125 11.398438 -15.578125 12.421875 -14.671875 C 13.453125 -13.765625 13.988281 -12.515625 14.03125 -10.921875 L 14.03125 -3.6875 C 14.03125 -2.238281 14.210938 -1.085938 14.578125 -0.234375 L 14.578125 0 Z M 7.296875 -2.046875 C 8.140625 -2.046875 8.9375 -2.265625 9.6875 -2.703125 C 10.445312 -3.140625 10.992188 -3.707031 11.328125 -4.40625 L 11.328125 -7.640625 L 9.21875 -7.640625 C 5.925781 -7.640625 4.28125 -6.675781 4.28125 -4.75 C 4.28125 -3.90625 4.5625 -3.242188 5.125 -2.765625 C 5.6875 -2.285156 6.410156 -2.046875 7.296875 -2.046875 Z M 7.296875 -2.046875 "/></g></g><g transform="translate(1401.130172, 342.327802)"><g><path d="M 4.96875 0 L 2.265625 0 L 2.265625 -22.34375 L 4.96875 -22.34375 Z M 4.96875 0 "/></g></g></g><g fill="#ffe3b3" fill-opacity="1"><g transform="translate(1305.695837, 500.032661)"><g><path d="M 7.03125 -6.671875 L 7.4375 -3.890625 L 8.03125 -6.40625 L 12.21875 -21.1875 L 14.578125 -21.1875 L 18.671875 -6.40625 L 19.25 -3.84375 L 19.703125 -6.6875 L 22.984375 -21.1875 L 25.796875 -21.1875 L 20.65625 0 L 18.109375 0 L 13.75 -15.4375 L 13.421875 -17.046875 L 13.078125 -15.4375 L 8.5625 0 L 6.015625 0 L 0.890625 -21.1875 L 3.6875 -21.1875 Z M 7.03125 -6.671875 "/></g></g><g transform="translate(1332.133414, 500.032661)"><g><path d="M 4.96875 0 L 2.265625 0 L 2.265625 -15.75 L 4.96875 -15.75 Z M 2.046875 -19.921875 C 2.046875 -20.359375 2.179688 -20.722656 2.453125 -21.015625 C 2.722656 -21.316406 3.117188 -21.46875 3.640625 -21.46875 C 4.160156 -21.46875 4.554688 -21.316406 4.828125 -21.015625 C 5.097656 -20.722656 5.234375 -20.359375 5.234375 -19.921875 C 5.234375 -19.484375 5.097656 -19.117188 4.828125 -18.828125 C 4.554688 -18.535156 4.160156 -18.390625 3.640625 -18.390625 C 3.117188 -18.390625 2.722656 -18.535156 2.453125 -18.828125 C 2.179688 -19.117188 2.046875 -19.484375 2.046875 -19.921875 Z M 2.046875 -19.921875 "/></g></g><g transform="translate(1339.364826, 500.032661)"><g><path d="M 5.6875 -19.546875 L 5.6875 -15.75 L 8.625 -15.75 L 8.625 -13.65625 L 5.6875 -13.65625 L 5.6875 -3.90625 C 5.6875 -3.269531 5.816406 -2.789062 6.078125 -2.46875 C 6.335938 -2.15625 6.785156 -2 7.421875 -2 C 7.734375 -2 8.160156 -2.0625 8.703125 -2.1875 L 8.703125 0 C 7.992188 0.195312 7.304688 0.296875 6.640625 0.296875 C 5.429688 0.296875 4.519531 -0.0664062 3.90625 -0.796875 C 3.300781 -1.523438 3 -2.5625 3 -3.90625 L 3 -13.65625 L 0.125 -13.65625 L 0.125 -15.75 L 3 -15.75 L 3 -19.546875 Z M 5.6875 -19.546875 "/></g></g><g transform="translate(1349.09886, 500.032661)"><g><path d="M 4.734375 -13.84375 C 5.921875 -15.300781 7.472656 -16.03125 9.390625 -16.03125 C 12.710938 -16.03125 14.390625 -14.15625 14.421875 -10.40625 L 14.421875 0 L 11.734375 0 L 11.734375 -10.421875 C 11.722656 -11.554688 11.460938 -12.394531 10.953125 -12.9375 C 10.441406 -13.476562 9.644531 -13.75 8.5625 -13.75 C 7.695312 -13.75 6.929688 -13.515625 6.265625 -13.046875 C 5.609375 -12.585938 5.097656 -11.976562 4.734375 -11.21875 L 4.734375 0 L 2.03125 0 L 2.03125 -22.34375 L 4.734375 -22.34375 Z M 4.734375 -13.84375 "/></g></g><g transform="translate(1365.5114, 500.032661)"><g><path d="M 1.375 -8 C 1.375 -10.414062 1.945312 -12.359375 3.09375 -13.828125 C 4.238281 -15.296875 5.738281 -16.03125 7.59375 -16.03125 C 9.4375 -16.03125 10.894531 -15.398438 11.96875 -14.140625 L 11.96875 -22.34375 L 14.671875 -22.34375 L 14.671875 0 L 12.1875 0 L 12.0625 -1.6875 C 10.988281 -0.363281 9.488281 0.296875 7.5625 0.296875 C 5.738281 0.296875 4.25 -0.445312 3.09375 -1.9375 C 1.945312 -3.4375 1.375 -5.390625 1.375 -7.796875 Z M 4.078125 -7.703125 C 4.078125 -5.910156 4.441406 -4.507812 5.171875 -3.5 C 5.910156 -2.5 6.929688 -2 8.234375 -2 C 9.941406 -2 11.1875 -2.765625 11.96875 -4.296875 L 11.96875 -11.515625 C 11.164062 -13.003906 9.929688 -13.75 8.265625 -13.75 C 6.941406 -13.75 5.910156 -13.238281 5.171875 -12.21875 C 4.441406 -11.195312 4.078125 -9.691406 4.078125 -7.703125 Z M 4.078125 -7.703125 "/></g></g><g transform="translate(1382.316795, 500.032661)"><g><path d="M 9.640625 -13.328125 C 9.234375 -13.390625 8.796875 -13.421875 8.328125 -13.421875 C 6.554688 -13.421875 5.359375 -12.671875 4.734375 -11.171875 L 4.734375 0 L 2.03125 0 L 2.03125 -15.75 L 4.65625 -15.75 L 4.703125 -13.921875 C 5.578125 -15.328125 6.828125 -16.03125 8.453125 -16.03125 C 8.972656 -16.03125 9.367188 -15.960938 9.640625 -15.828125 Z M 9.640625 -13.328125 "/></g></g><g transform="translate(1392.400031, 500.032661)"><g><path d="M 11.75 0 C 11.59375 -0.3125 11.46875 -0.863281 11.375 -1.65625 C 10.125 -0.351562 8.628906 0.296875 6.890625 0.296875 C 5.335938 0.296875 4.0625 -0.140625 3.0625 -1.015625 C 2.070312 -1.898438 1.578125 -3.015625 1.578125 -4.359375 C 1.578125 -6.003906 2.203125 -7.28125 3.453125 -8.1875 C 4.703125 -9.09375 6.457031 -9.546875 8.71875 -9.546875 L 11.328125 -9.546875 L 11.328125 -10.78125 C 11.328125 -11.71875 11.046875 -12.460938 10.484375 -13.015625 C 9.921875 -13.578125 9.09375 -13.859375 8 -13.859375 C 7.039062 -13.859375 6.234375 -13.613281 5.578125 -13.125 C 4.929688 -12.644531 4.609375 -12.0625 4.609375 -11.375 L 1.90625 -11.375 C 1.90625 -12.164062 2.179688 -12.925781 2.734375 -13.65625 C 3.296875 -14.382812 4.054688 -14.960938 5.015625 -15.390625 C 5.972656 -15.816406 7.019531 -16.03125 8.15625 -16.03125 C 9.976562 -16.03125 11.398438 -15.578125 12.421875 -14.671875 C 13.453125 -13.765625 13.988281 -12.515625 14.03125 -10.921875 L 14.03125 -3.6875 C 14.03125 -2.238281 14.210938 -1.085938 14.578125 -0.234375 L 14.578125 0 Z M 7.296875 -2.046875 C 8.140625 -2.046875 8.9375 -2.265625 9.6875 -2.703125 C 10.445312 -3.140625 10.992188 -3.707031 11.328125 -4.40625 L 11.328125 -7.640625 L 9.21875 -7.640625 C 5.925781 -7.640625 4.28125 -6.675781 4.28125 -4.75 C 4.28125 -3.90625 4.5625 -3.242188 5.125 -2.765625 C 5.6875 -2.285156 6.410156 -2.046875 7.296875 -2.046875 Z M 7.296875 -2.046875 "/></g></g><g transform="translate(1408.60887, 500.032661)"><g><path d="M 15.96875 -3.703125 L 19 -15.75 L 21.6875 -15.75 L 17.109375 0 L 14.921875 0 L 11.09375 -11.9375 L 7.375 0 L 5.1875 0 L 0.625 -15.75 L 3.296875 -15.75 L 6.40625 -3.953125 L 10.0625 -15.75 L 12.234375 -15.75 Z M 15.96875 -3.703125 "/></g></g><g transform="translate(1431.001513, 500.032661)"><g><path d="M 4.578125 -15.75 L 4.671875 -13.765625 C 5.867188 -15.273438 7.441406 -16.03125 9.390625 -16.03125 C 12.710938 -16.03125 14.390625 -14.15625 14.421875 -10.40625 L 14.421875 0 L 11.734375 0 L 11.734375 -10.421875 C 11.722656 -11.554688 11.460938 -12.394531 10.953125 -12.9375 C 10.441406 -13.476562 9.644531 -13.75 8.5625 -13.75 C 7.695312 -13.75 6.929688 -13.515625 6.265625 -13.046875 C 5.609375 -12.585938 5.097656 -11.976562 4.734375 -11.21875 L 4.734375 0 L 2.03125 0 L 2.03125 -15.75 Z M 4.578125 -15.75 "/></g></g></g><g fill="#ffe3b3" fill-opacity="1"><g transform="translate(691.803197, 662.839582)"><g><path d="M 8.703125 -9.4375 C 6.304688 -10.125 4.5625 -10.96875 3.46875 -11.96875 C 2.375 -12.976562 1.828125 -14.222656 1.828125 -15.703125 C 1.828125 -17.367188 2.492188 -18.742188 3.828125 -19.828125 C 5.160156 -20.921875 6.894531 -21.46875 9.03125 -21.46875 C 10.488281 -21.46875 11.785156 -21.1875 12.921875 -20.625 C 14.066406 -20.0625 14.953125 -19.285156 15.578125 -18.296875 C 16.203125 -17.304688 16.515625 -16.226562 16.515625 -15.0625 L 13.703125 -15.0625 C 13.703125 -16.34375 13.296875 -17.347656 12.484375 -18.078125 C 11.671875 -18.804688 10.519531 -19.171875 9.03125 -19.171875 C 7.65625 -19.171875 6.582031 -18.867188 5.8125 -18.265625 C 5.039062 -17.660156 4.65625 -16.820312 4.65625 -15.75 C 4.65625 -14.882812 5.019531 -14.148438 5.75 -13.546875 C 6.488281 -12.953125 7.738281 -12.40625 9.5 -11.90625 C 11.257812 -11.414062 12.632812 -10.875 13.625 -10.28125 C 14.613281 -9.6875 15.347656 -8.988281 15.828125 -8.1875 C 16.316406 -7.394531 16.5625 -6.460938 16.5625 -5.390625 C 16.5625 -3.671875 15.890625 -2.289062 14.546875 -1.25 C 13.210938 -0.21875 11.425781 0.296875 9.1875 0.296875 C 7.726562 0.296875 6.367188 0.0195312 5.109375 -0.53125 C 3.847656 -1.09375 2.875 -1.859375 2.1875 -2.828125 C 1.5 -3.804688 1.15625 -4.910156 1.15625 -6.140625 L 3.96875 -6.140625 C 3.96875 -4.859375 4.441406 -3.847656 5.390625 -3.109375 C 6.335938 -2.367188 7.601562 -2 9.1875 -2 C 10.65625 -2 11.78125 -2.296875 12.5625 -2.890625 C 13.351562 -3.492188 13.75 -4.3125 13.75 -5.34375 C 13.75 -6.382812 13.382812 -7.1875 12.65625 -7.75 C 11.925781 -8.320312 10.609375 -8.882812 8.703125 -9.4375 Z M 8.703125 -9.4375 "/></g></g><g transform="translate(709.481599, 662.839582)"><g><path d="M 5.6875 -19.546875 L 5.6875 -15.75 L 8.625 -15.75 L 8.625 -13.65625 L 5.6875 -13.65625 L 5.6875 -3.90625 C 5.6875 -3.269531 5.816406 -2.789062 6.078125 -2.46875 C 6.335938 -2.15625 6.785156 -2 7.421875 -2 C 7.734375 -2 8.160156 -2.0625 8.703125 -2.1875 L 8.703125 0 C 7.992188 0.195312 7.304688 0.296875 6.640625 0.296875 C 5.429688 0.296875 4.519531 -0.0664062 3.90625 -0.796875 C 3.300781 -1.523438 3 -2.5625 3 -3.90625 L 3 -13.65625 L 0.125 -13.65625 L 0.125 -15.75 L 3 -15.75 L 3 -19.546875 Z M 5.6875 -19.546875 "/></g></g><g transform="translate(719.215633, 662.839582)"><g><path d="M 11.75 0 C 11.59375 -0.3125 11.46875 -0.863281 11.375 -1.65625 C 10.125 -0.351562 8.628906 0.296875 6.890625 0.296875 C 5.335938 0.296875 4.0625 -0.140625 3.0625 -1.015625 C 2.070312 -1.898438 1.578125 -3.015625 1.578125 -4.359375 C 1.578125 -6.003906 2.203125 -7.28125 3.453125 -8.1875 C 4.703125 -9.09375 6.457031 -9.546875 8.71875 -9.546875 L 11.328125 -9.546875 L 11.328125 -10.78125 C 11.328125 -11.71875 11.046875 -12.460938 10.484375 -13.015625 C 9.921875 -13.578125 9.09375 -13.859375 8 -13.859375 C 7.039062 -13.859375 6.234375 -13.613281 5.578125 -13.125 C 4.929688 -12.644531 4.609375 -12.0625 4.609375 -11.375 L 1.90625 -11.375 C 1.90625 -12.164062 2.179688 -12.925781 2.734375 -13.65625 C 3.296875 -14.382812 4.054688 -14.960938 5.015625 -15.390625 C 5.972656 -15.816406 7.019531 -16.03125 8.15625 -16.03125 C 9.976562 -16.03125 11.398438 -15.578125 12.421875 -14.671875 C 13.453125 -13.765625 13.988281 -12.515625 14.03125 -10.921875 L 14.03125 -3.6875 C 14.03125 -2.238281 14.210938 -1.085938 14.578125 -0.234375 L 14.578125 0 Z M 7.296875 -2.046875 C 8.140625 -2.046875 8.9375 -2.265625 9.6875 -2.703125 C 10.445312 -3.140625 10.992188 -3.707031 11.328125 -4.40625 L 11.328125 -7.640625 L 9.21875 -7.640625 C 5.925781 -7.640625 4.28125 -6.675781 4.28125 -4.75 C 4.28125 -3.90625 4.5625 -3.242188 5.125 -2.765625 C 5.6875 -2.285156 6.410156 -2.046875 7.296875 -2.046875 Z M 7.296875 -2.046875 "/></g></g><g transform="translate(735.424472, 662.839582)"><g><path d="M 1.390625 -8 C 1.390625 -10.457031 1.957031 -12.410156 3.09375 -13.859375 C 4.226562 -15.304688 5.734375 -16.03125 7.609375 -16.03125 C 9.523438 -16.03125 11.023438 -15.351562 12.109375 -14 L 12.234375 -15.75 L 14.6875 -15.75 L 14.6875 -0.375 C 14.6875 1.65625 14.082031 3.257812 12.875 4.4375 C 11.675781 5.613281 10.054688 6.203125 8.015625 6.203125 C 6.878906 6.203125 5.769531 5.957031 4.6875 5.46875 C 3.601562 4.988281 2.773438 4.328125 2.203125 3.484375 L 3.59375 1.859375 C 4.75 3.285156 6.160156 4 7.828125 4 C 9.140625 4 10.160156 3.628906 10.890625 2.890625 C 11.617188 2.160156 11.984375 1.125 11.984375 -0.21875 L 11.984375 -1.578125 C 10.910156 -0.328125 9.441406 0.296875 7.578125 0.296875 C 5.734375 0.296875 4.238281 -0.441406 3.09375 -1.921875 C 1.957031 -3.410156 1.390625 -5.4375 1.390625 -8 Z M 4.109375 -7.703125 C 4.109375 -5.921875 4.46875 -4.523438 5.1875 -3.515625 C 5.914062 -2.503906 6.9375 -2 8.25 -2 C 9.945312 -2 11.191406 -2.769531 11.984375 -4.3125 L 11.984375 -11.5 C 11.160156 -13 9.925781 -13.75 8.28125 -13.75 C 6.96875 -13.75 5.941406 -13.238281 5.203125 -12.21875 C 4.472656 -11.195312 4.109375 -9.691406 4.109375 -7.703125 Z M 4.109375 -7.703125 "/></g></g><g transform="translate(752.142565, 662.839582)"><g><path d="M 4.578125 -15.75 L 4.671875 -13.765625 C 5.867188 -15.273438 7.441406 -16.03125 9.390625 -16.03125 C 12.710938 -16.03125 14.390625 -14.15625 14.421875 -10.40625 L 14.421875 0 L 11.734375 0 L 11.734375 -10.421875 C 11.722656 -11.554688 11.460938 -12.394531 10.953125 -12.9375 C 10.441406 -13.476562 9.644531 -13.75 8.5625 -13.75 C 7.695312 -13.75 6.929688 -13.515625 6.265625 -13.046875 C 5.609375 -12.585938 5.097656 -11.976562 4.734375 -11.21875 L 4.734375 0 L 2.03125 0 L 2.03125 -15.75 Z M 4.578125 -15.75 "/></g></g><g transform="translate(768.584207, 662.839582)"><g><path d="M 11.75 0 C 11.59375 -0.3125 11.46875 -0.863281 11.375 -1.65625 C 10.125 -0.351562 8.628906 0.296875 6.890625 0.296875 C 5.335938 0.296875 4.0625 -0.140625 3.0625 -1.015625 C 2.070312 -1.898438 1.578125 -3.015625 1.578125 -4.359375 C 1.578125 -6.003906 2.203125 -7.28125 3.453125 -8.1875 C 4.703125 -9.09375 6.457031 -9.546875 8.71875 -9.546875 L 11.328125 -9.546875 L 11.328125 -10.78125 C 11.328125 -11.71875 11.046875 -12.460938 10.484375 -13.015625 C 9.921875 -13.578125 9.09375 -13.859375 8 -13.859375 C 7.039062 -13.859375 6.234375 -13.613281 5.578125 -13.125 C 4.929688 -12.644531 4.609375 -12.0625 4.609375 -11.375 L 1.90625 -11.375 C 1.90625 -12.164062 2.179688 -12.925781 2.734375 -13.65625 C 3.296875 -14.382812 4.054688 -14.960938 5.015625 -15.390625 C 5.972656 -15.816406 7.019531 -16.03125 8.15625 -16.03125 C 9.976562 -16.03125 11.398438 -15.578125 12.421875 -14.671875 C 13.453125 -13.765625 13.988281 -12.515625 14.03125 -10.921875 L 14.03125 -3.6875 C 14.03125 -2.238281 14.210938 -1.085938 14.578125 -0.234375 L 14.578125 0 Z M 7.296875 -2.046875 C 8.140625 -2.046875 8.9375 -2.265625 9.6875 -2.703125 C 10.445312 -3.140625 10.992188 -3.707031 11.328125 -4.40625 L 11.328125 -7.640625 L 9.21875 -7.640625 C 5.925781 -7.640625 4.28125 -6.675781 4.28125 -4.75 C 4.28125 -3.90625 4.5625 -3.242188 5.125 -2.765625 C 5.6875 -2.285156 6.410156 -2.046875 7.296875 -2.046875 Z M 7.296875 -2.046875 "/></g></g><g transform="translate(784.793046, 662.839582)"><g><path d="M 4.578125 -15.75 L 4.671875 -13.765625 C 5.867188 -15.273438 7.441406 -16.03125 9.390625 -16.03125 C 12.710938 -16.03125 14.390625 -14.15625 14.421875 -10.40625 L 14.421875 0 L 11.734375 0 L 11.734375 -10.421875 C 11.722656 -11.554688 11.460938 -12.394531 10.953125 -12.9375 C 10.441406 -13.476562 9.644531 -13.75 8.5625 -13.75 C 7.695312 -13.75 6.929688 -13.515625 6.265625 -13.046875 C 5.609375 -12.585938 5.097656 -11.976562 4.734375 -11.21875 L 4.734375 0 L 2.03125 0 L 2.03125 -15.75 Z M 4.578125 -15.75 "/></g></g><g transform="translate(801.234687, 662.839582)"><g><path d="M 5.6875 -19.546875 L 5.6875 -15.75 L 8.625 -15.75 L 8.625 -13.65625 L 5.6875 -13.65625 L 5.6875 -3.90625 C 5.6875 -3.269531 5.816406 -2.789062 6.078125 -2.46875 C 6.335938 -2.15625 6.785156 -2 7.421875 -2 C 7.734375 -2 8.160156 -2.0625 8.703125 -2.1875 L 8.703125 0 C 7.992188 0.195312 7.304688 0.296875 6.640625 0.296875 C 5.429688 0.296875 4.519531 -0.0664062 3.90625 -0.796875 C 3.300781 -1.523438 3 -2.5625 3 -3.90625 L 3 -13.65625 L 0.125 -13.65625 L 0.125 -15.75 L 3 -15.75 L 3 -19.546875 Z M 5.6875 -19.546875 "/></g></g></g></svg>