<svg xmlns="http://www.w3.org/2000/svg" xmlns:xlink="http://www.w3.org/1999/xlink" width="1026" zoomAndPan="magnify" viewBox="0 0 769.5 692.249983" height="923" preserveAspectRatio="xMidYMid meet" version="1.0"><defs><g/><clipPath id="70ea3ba71d"><path d="M 0.167969 0 L 768.832031 0 L 768.832031 691.5 L 0.167969 691.5 Z M 0.167969 0 " clip-rule="nonzero"/></clipPath><clipPath id="fa2b606f63"><path d="M 557 455.507812 L 703 455.507812 L 703 649.546875 L 557 649.546875 Z M 557 455.507812 " clip-rule="nonzero"/></clipPath><clipPath id="89b3bc9c6f"><path d="M 49 253.789062 L 143 253.789062 L 143 348 L 49 348 Z M 49 253.789062 " clip-rule="nonzero"/></clipPath><clipPath id="712f420dd6"><path d="M 16 347 L 178 347 L 178 447.828125 L 16 447.828125 Z M 16 347 " clip-rule="nonzero"/></clipPath></defs><g clip-path="url(#70ea3ba71d)"><path fill="#ffffff" d="M 0.167969 0 L 768.832031 0 L 768.832031 691.5 L 0.167969 691.5 Z M 0.167969 0 " fill-opacity="1" fill-rule="nonzero"/></g><path fill="#c759b9" d="M 575.605469 193.804688 L 684.621094 193.804688 C 685.21875 193.804688 685.8125 193.777344 686.402344 193.71875 C 686.996094 193.660156 687.582031 193.574219 688.167969 193.457031 C 688.75 193.339844 689.328125 193.195312 689.898438 193.023438 C 690.464844 192.851562 691.027344 192.648438 691.574219 192.421875 C 692.125 192.195312 692.664062 191.941406 693.1875 191.660156 C 693.710938 191.378906 694.222656 191.074219 694.71875 190.742188 C 695.210938 190.414062 695.6875 190.058594 696.148438 189.679688 C 696.609375 189.304688 697.050781 188.90625 697.46875 188.484375 C 697.890625 188.0625 698.289062 187.621094 698.667969 187.164062 C 699.046875 186.703125 699.398438 186.226562 699.730469 185.730469 C 700.058594 185.234375 700.367188 184.726562 700.648438 184.203125 C 700.925781 183.675781 701.179688 183.140625 701.410156 182.589844 C 701.636719 182.039062 701.835938 181.480469 702.007812 180.910156 C 702.183594 180.339844 702.328125 179.765625 702.441406 179.179688 C 702.558594 178.597656 702.644531 178.007812 702.703125 177.417969 C 702.761719 176.824219 702.792969 176.230469 702.792969 175.636719 L 702.792969 56.507812 C 702.792969 54.09375 702.332031 51.769531 701.410156 49.539062 C 700.484375 47.308594 699.171875 45.34375 697.460938 43.636719 L 659.15625 5.328125 C 657.449219 3.621094 655.480469 2.304688 653.25 1.382812 C 651.019531 0.457031 648.699219 0 646.285156 0 L 575.605469 0 C 575.011719 0 574.417969 0.0273438 573.824219 0.0859375 C 573.234375 0.144531 572.644531 0.234375 572.0625 0.347656 C 571.480469 0.464844 570.902344 0.609375 570.332031 0.78125 C 569.761719 0.957031 569.203125 1.15625 568.652344 1.382812 C 568.105469 1.609375 567.566406 1.863281 567.042969 2.144531 C 566.515625 2.425781 566.007812 2.730469 565.511719 3.0625 C 565.019531 3.394531 564.539062 3.746094 564.082031 4.125 C 563.621094 4.5 563.179688 4.902344 562.757812 5.320312 C 562.339844 5.742188 561.9375 6.183594 561.5625 6.644531 C 561.183594 7.101562 560.832031 7.582031 560.5 8.074219 C 560.167969 8.570312 559.863281 9.078125 559.582031 9.605469 C 559.300781 10.128906 559.046875 10.667969 558.820312 11.214844 C 558.59375 11.765625 558.394531 12.324219 558.21875 12.894531 C 558.046875 13.464844 557.902344 14.039062 557.785156 14.625 C 557.671875 15.207031 557.582031 15.796875 557.523438 16.386719 C 557.46875 16.980469 557.4375 17.574219 557.4375 18.167969 L 557.4375 175.636719 C 557.4375 176.230469 557.46875 176.824219 557.523438 177.417969 C 557.582031 178.007812 557.671875 178.597656 557.785156 179.179688 C 557.902344 179.765625 558.046875 180.339844 558.21875 180.910156 C 558.394531 181.480469 558.59375 182.039062 558.820312 182.589844 C 559.046875 183.140625 559.300781 183.675781 559.582031 184.203125 C 559.863281 184.726562 560.167969 185.234375 560.5 185.730469 C 560.832031 186.226562 561.183594 186.703125 561.5625 187.164062 C 561.9375 187.621094 562.339844 188.0625 562.757812 188.484375 C 563.179688 188.90625 563.621094 189.304688 564.082031 189.679688 C 564.539062 190.058594 565.019531 190.414062 565.511719 190.742188 C 566.007812 191.074219 566.515625 191.378906 567.042969 191.660156 C 567.566406 191.941406 568.105469 192.195312 568.652344 192.421875 C 569.203125 192.648438 569.761719 192.851562 570.332031 193.023438 C 570.902344 193.195312 571.480469 193.339844 572.0625 193.457031 C 572.644531 193.574219 573.234375 193.660156 573.824219 193.71875 C 574.417969 193.777344 575.011719 193.804688 575.605469 193.804688 Z M 682.109375 45.421875 L 663.425781 45.421875 C 663.027344 45.421875 662.632812 45.382812 662.242188 45.308594 C 661.855469 45.230469 661.476562 45.113281 661.109375 44.960938 C 660.738281 44.808594 660.390625 44.625 660.058594 44.402344 C 659.730469 44.179688 659.421875 43.929688 659.144531 43.648438 C 658.863281 43.367188 658.609375 43.0625 658.390625 42.730469 C 658.167969 42.402344 657.980469 42.050781 657.828125 41.683594 C 657.675781 41.316406 657.5625 40.9375 657.484375 40.546875 C 657.40625 40.160156 657.367188 39.765625 657.367188 39.367188 L 657.367188 20.683594 Z M 569.550781 18.167969 C 569.550781 17.773438 569.589844 17.378906 569.667969 16.988281 C 569.746094 16.597656 569.859375 16.21875 570.011719 15.851562 C 570.164062 15.484375 570.351562 15.136719 570.570312 14.804688 C 570.792969 14.472656 571.042969 14.167969 571.324219 13.886719 C 571.605469 13.605469 571.910156 13.355469 572.242188 13.132812 C 572.574219 12.914062 572.921875 12.726562 573.289062 12.574219 C 573.65625 12.421875 574.035156 12.308594 574.425781 12.230469 C 574.816406 12.152344 575.210938 12.113281 575.605469 12.113281 L 645.253906 12.113281 L 645.253906 39.367188 C 645.253906 39.960938 645.285156 40.554688 645.34375 41.148438 C 645.402344 41.738281 645.488281 42.328125 645.605469 42.910156 C 645.722656 43.496094 645.867188 44.070312 646.039062 44.640625 C 646.210938 45.210938 646.410156 45.769531 646.640625 46.320312 C 646.867188 46.871094 647.121094 47.40625 647.402344 47.933594 C 647.683594 48.457031 647.988281 48.964844 648.316406 49.460938 C 648.648438 49.957031 649.003906 50.433594 649.378906 50.894531 C 649.757812 51.351562 650.15625 51.792969 650.578125 52.214844 C 651 52.636719 651.4375 53.035156 651.898438 53.410156 C 652.359375 53.789062 652.835938 54.144531 653.332031 54.472656 C 653.824219 54.804688 654.335938 55.109375 654.859375 55.390625 C 655.386719 55.671875 655.921875 55.925781 656.472656 56.152344 C 657.023438 56.378906 657.582031 56.582031 658.152344 56.753906 C 658.71875 56.925781 659.296875 57.070312 659.878906 57.1875 C 660.464844 57.304688 661.050781 57.390625 661.644531 57.449219 C 662.238281 57.507812 662.828125 57.535156 663.425781 57.535156 L 690.679688 57.535156 L 690.679688 175.636719 C 690.679688 176.035156 690.640625 176.429688 690.5625 176.816406 C 690.484375 177.207031 690.371094 177.585938 690.21875 177.953125 C 690.066406 178.320312 689.878906 178.671875 689.660156 179 C 689.4375 179.332031 689.1875 179.636719 688.90625 179.917969 C 688.625 180.199219 688.316406 180.449219 687.988281 180.671875 C 687.65625 180.894531 687.308594 181.078125 686.941406 181.230469 C 686.574219 181.382812 686.195312 181.5 685.804688 181.578125 C 685.414062 181.652344 685.019531 181.691406 684.621094 181.691406 L 575.605469 181.691406 C 575.210938 181.691406 574.816406 181.652344 574.425781 181.578125 C 574.035156 181.5 573.65625 181.382812 573.289062 181.230469 C 572.921875 181.078125 572.574219 180.894531 572.242188 180.671875 C 571.910156 180.449219 571.605469 180.199219 571.324219 179.917969 C 571.042969 179.636719 570.792969 179.332031 570.570312 179 C 570.351562 178.671875 570.164062 178.320312 570.011719 177.953125 C 569.859375 177.585938 569.746094 177.207031 569.667969 176.816406 C 569.589844 176.429688 569.550781 176.035156 569.550781 175.636719 Z M 569.550781 18.167969 " fill-opacity="1" fill-rule="nonzero"/><g clip-path="url(#fa2b606f63)"><path fill="#c759b9" d="M 575.605469 649.3125 L 684.621094 649.3125 C 685.21875 649.3125 685.8125 649.28125 686.402344 649.222656 C 686.996094 649.167969 687.582031 649.078125 688.167969 648.964844 C 688.75 648.847656 689.328125 648.703125 689.898438 648.53125 C 690.464844 648.355469 691.027344 648.15625 691.574219 647.929688 C 692.125 647.703125 692.664062 647.445312 693.1875 647.167969 C 693.710938 646.886719 694.222656 646.582031 694.71875 646.25 C 695.210938 645.917969 695.6875 645.566406 696.148438 645.1875 C 696.609375 644.808594 697.050781 644.410156 697.46875 643.992188 C 697.890625 643.570312 698.289062 643.128906 698.667969 642.667969 C 699.046875 642.210938 699.398438 641.730469 699.730469 641.238281 C 700.058594 640.742188 700.367188 640.234375 700.648438 639.707031 C 700.925781 639.183594 701.179688 638.644531 701.410156 638.097656 C 701.636719 637.546875 701.835938 636.988281 702.007812 636.417969 C 702.183594 635.847656 702.328125 635.269531 702.441406 634.6875 C 702.558594 634.105469 702.644531 633.515625 702.703125 632.921875 C 702.761719 632.332031 702.792969 631.738281 702.792969 631.144531 L 702.792969 512.011719 C 702.792969 509.597656 702.332031 507.277344 701.410156 505.046875 C 700.484375 502.816406 699.171875 500.847656 697.460938 499.144531 L 659.15625 460.835938 C 657.449219 459.128906 655.480469 457.8125 653.25 456.890625 C 651.019531 455.964844 648.699219 455.503906 646.285156 455.507812 L 575.605469 455.507812 C 575.011719 455.507812 574.417969 455.535156 573.824219 455.59375 C 573.234375 455.652344 572.644531 455.738281 572.0625 455.855469 C 571.480469 455.972656 570.902344 456.117188 570.332031 456.289062 C 569.761719 456.460938 569.203125 456.660156 568.652344 456.890625 C 568.105469 457.117188 567.566406 457.371094 567.042969 457.652344 C 566.515625 457.933594 566.007812 458.238281 565.511719 458.570312 C 565.019531 458.898438 564.539062 459.253906 564.082031 459.628906 C 563.621094 460.007812 563.179688 460.40625 562.757812 460.828125 C 562.339844 461.25 561.9375 461.6875 561.5625 462.148438 C 561.183594 462.609375 560.832031 463.085938 560.5 463.582031 C 560.167969 464.078125 559.863281 464.585938 559.582031 465.109375 C 559.300781 465.636719 559.046875 466.171875 558.820312 466.722656 C 558.59375 467.273438 558.394531 467.832031 558.21875 468.402344 C 558.046875 468.972656 557.902344 469.546875 557.785156 470.132812 C 557.671875 470.714844 557.582031 471.300781 557.523438 471.894531 C 557.46875 472.488281 557.4375 473.082031 557.4375 473.675781 L 557.4375 631.144531 C 557.4375 631.738281 557.46875 632.332031 557.523438 632.921875 C 557.582031 633.515625 557.671875 634.105469 557.785156 634.6875 C 557.902344 635.269531 558.046875 635.847656 558.21875 636.417969 C 558.394531 636.988281 558.59375 637.546875 558.820312 638.097656 C 559.046875 638.644531 559.300781 639.183594 559.582031 639.707031 C 559.863281 640.234375 560.167969 640.742188 560.5 641.238281 C 560.832031 641.730469 561.183594 642.210938 561.5625 642.667969 C 561.9375 643.128906 562.339844 643.570312 562.757812 643.992188 C 563.179688 644.410156 563.621094 644.808594 564.082031 645.1875 C 564.539062 645.566406 565.019531 645.917969 565.511719 646.25 C 566.007812 646.582031 566.515625 646.886719 567.042969 647.167969 C 567.566406 647.445312 568.105469 647.703125 568.652344 647.929688 C 569.203125 648.15625 569.761719 648.355469 570.332031 648.53125 C 570.902344 648.703125 571.480469 648.847656 572.0625 648.964844 C 572.644531 649.078125 573.234375 649.167969 573.824219 649.222656 C 574.417969 649.28125 575.011719 649.3125 575.605469 649.3125 Z M 682.109375 500.929688 L 663.425781 500.929688 C 663.027344 500.929688 662.632812 500.890625 662.242188 500.8125 C 661.855469 500.734375 661.476562 500.621094 661.109375 500.46875 C 660.738281 500.316406 660.390625 500.128906 660.058594 499.910156 C 659.730469 499.6875 659.421875 499.4375 659.144531 499.15625 C 658.863281 498.875 658.609375 498.570312 658.390625 498.238281 C 658.167969 497.90625 657.980469 497.558594 657.828125 497.191406 C 657.675781 496.824219 657.5625 496.445312 657.484375 496.054688 C 657.40625 495.664062 657.367188 495.269531 657.367188 494.875 L 657.367188 476.1875 Z M 569.550781 473.675781 C 569.550781 473.277344 569.589844 472.882812 569.667969 472.496094 C 569.746094 472.105469 569.859375 471.726562 570.011719 471.359375 C 570.164062 470.992188 570.351562 470.640625 570.570312 470.3125 C 570.792969 469.980469 571.042969 469.675781 571.324219 469.394531 C 571.605469 469.113281 571.910156 468.859375 572.242188 468.640625 C 572.574219 468.417969 572.921875 468.234375 573.289062 468.082031 C 573.65625 467.929688 574.035156 467.8125 574.425781 467.734375 C 574.816406 467.65625 575.210938 467.621094 575.605469 467.621094 L 645.253906 467.621094 L 645.253906 494.875 C 645.253906 495.46875 645.285156 496.0625 645.34375 496.652344 C 645.402344 497.246094 645.488281 497.835938 645.605469 498.417969 C 645.722656 499 645.867188 499.578125 646.039062 500.148438 C 646.210938 500.71875 646.410156 501.277344 646.640625 501.828125 C 646.867188 502.375 647.121094 502.914062 647.402344 503.4375 C 647.683594 503.964844 647.988281 504.472656 648.316406 504.96875 C 648.648438 505.460938 649.003906 505.941406 649.378906 506.398438 C 649.757812 506.859375 650.15625 507.300781 650.578125 507.722656 C 651 508.140625 651.4375 508.539062 651.898438 508.917969 C 652.359375 509.296875 652.835938 509.648438 653.332031 509.980469 C 653.824219 510.3125 654.335938 510.617188 654.859375 510.898438 C 655.386719 511.175781 655.921875 511.433594 656.472656 511.660156 C 657.023438 511.886719 657.582031 512.085938 658.152344 512.261719 C 658.71875 512.433594 659.296875 512.578125 659.878906 512.695312 C 660.464844 512.808594 661.050781 512.898438 661.644531 512.953125 C 662.238281 513.011719 662.828125 513.042969 663.425781 513.042969 L 690.679688 513.042969 L 690.679688 631.144531 C 690.679688 631.539062 690.640625 631.933594 690.5625 632.324219 C 690.484375 632.714844 690.371094 633.09375 690.21875 633.460938 C 690.066406 633.828125 689.878906 634.175781 689.660156 634.507812 C 689.4375 634.839844 689.1875 635.144531 688.90625 635.425781 C 688.625 635.707031 688.316406 635.957031 687.988281 636.179688 C 687.65625 636.398438 687.308594 636.585938 686.941406 636.738281 C 686.574219 636.890625 686.195312 637.003906 685.804688 637.082031 C 685.414062 637.160156 685.019531 637.199219 684.621094 637.199219 L 575.605469 637.199219 C 575.210938 637.199219 574.816406 637.160156 574.425781 637.082031 C 574.035156 637.003906 573.65625 636.890625 573.289062 636.738281 C 572.921875 636.585938 572.574219 636.398438 572.242188 636.179688 C 571.910156 635.957031 571.605469 635.707031 571.324219 635.425781 C 571.042969 635.144531 570.792969 634.839844 570.570312 634.507812 C 570.351562 634.175781 570.164062 633.828125 570.011719 633.460938 C 569.859375 633.09375 569.746094 632.714844 569.667969 632.324219 C 569.589844 631.933594 569.550781 631.539062 569.550781 631.144531 Z M 569.550781 473.675781 " fill-opacity="1" fill-rule="nonzero"/></g><path stroke-linecap="butt" transform="matrix(0, 0.749188, -0.749188, 0, 627.494852, 243.327978)" fill="none" stroke-linejoin="miter" d="M 0.000195772 2.00051 L 234.769916 2.00051 " stroke="#c759b9" stroke-width="4" stroke-opacity="1" stroke-miterlimit="4"/><path stroke-linecap="round" transform="matrix(0, 0.749188, -0.749188, 0, 627.494852, 243.327978)" fill-opacity="1" fill="#c759b9" fill-rule="nonzero" stroke-linejoin="round" d="M 235.770999 -4.000777 L 243.774453 2.00051 L 235.770999 8.001797 Z M 235.770999 -4.000777 " stroke="#c759b9" stroke-width="4" stroke-opacity="1" stroke-miterlimit="4"/><path stroke-linecap="butt" transform="matrix(0.619227, -0.421712, 0.421712, 0.619227, 193.994014, 326.110179)" fill="none" stroke-linejoin="miter" d="M 1.999132 1.997306 L 544.444961 2.000725 " stroke="#c759b9" stroke-width="4" stroke-opacity="1" stroke-miterlimit="4"/><path stroke-linecap="round" transform="matrix(0.619227, -0.421712, 0.421712, 0.619227, 193.994014, 326.110179)" fill="none" stroke-linejoin="round" d="M 9.999259 -3.997568 L 1.999132 1.997306 L 9.997881 7.999824 " stroke="#c759b9" stroke-width="4" stroke-opacity="1" stroke-miterlimit="4"/><path stroke-linecap="round" transform="matrix(0.619227, -0.421712, 0.421712, 0.619227, 193.994014, 326.110179)" fill="none" stroke-linejoin="round" d="M 536.446211 -4.001793 L 544.444961 2.000725 L 536.446209 8.002843 " stroke="#c759b9" stroke-width="4" stroke-opacity="1" stroke-miterlimit="4"/><path stroke-linecap="butt" transform="matrix(0.658607, 0.3571, -0.3571, 0.658607, 194.695341, 366.253209)" fill="none" stroke-linejoin="miter" d="M 1.998604 2.001569 L 511.965195 2.002171 " stroke="#c759b9" stroke-width="4" stroke-opacity="1" stroke-miterlimit="4"/><path stroke-linecap="round" transform="matrix(0.658607, 0.3571, -0.3571, 0.658607, 194.695341, 366.253209)" fill="none" stroke-linejoin="round" d="M 10.002362 -3.998811 L 1.998604 2.001569 L 10.001815 8.000063 " stroke="#c759b9" stroke-width="4" stroke-opacity="1" stroke-miterlimit="4"/><path stroke-linecap="round" transform="matrix(0.658607, 0.3571, -0.3571, 0.658607, 194.695341, 366.253209)" fill="none" stroke-linejoin="round" d="M 503.966569 -3.998809 L 511.965195 2.002171 L 503.966022 8.000066 " stroke="#c759b9" stroke-width="4" stroke-opacity="1" stroke-miterlimit="4"/><g clip-path="url(#89b3bc9c6f)"><path fill="#c759b9" d="M 95.6875 347.144531 C 108.515625 347.144531 119.617188 342.542969 128.695312 333.46875 C 137.765625 324.394531 142.367188 313.292969 142.367188 300.464844 C 142.367188 287.640625 137.769531 276.539062 128.691406 267.460938 C 119.617188 258.386719 108.511719 253.789062 95.6875 253.789062 C 82.863281 253.789062 71.757812 258.386719 62.683594 267.460938 C 53.609375 276.535156 49.007812 287.640625 49.007812 300.464844 C 49.007812 313.292969 53.609375 324.394531 62.683594 333.46875 C 71.761719 342.542969 82.867188 347.144531 95.6875 347.144531 Z M 70.714844 275.492188 C 77.679688 268.53125 85.847656 265.144531 95.6875 265.144531 C 105.527344 265.144531 113.699219 268.53125 120.664062 275.492188 C 127.625 282.457031 131.011719 290.625 131.011719 300.464844 C 131.011719 310.304688 127.625 318.472656 120.664062 325.4375 C 113.699219 332.402344 105.527344 335.789062 95.6875 335.789062 C 85.851562 335.789062 77.683594 332.402344 70.714844 325.4375 C 63.75 318.476562 60.367188 310.304688 60.367188 300.464844 C 60.367188 290.625 63.75 282.457031 70.714844 275.492188 Z M 70.714844 275.492188 " fill-opacity="1" fill-rule="nonzero"/></g><g clip-path="url(#712f420dd6)"><path fill="#c759b9" d="M 177.367188 402.8125 C 177.105469 399.039062 176.574219 394.917969 175.796875 390.570312 C 175.007812 386.1875 173.996094 382.042969 172.785156 378.257812 C 171.53125 374.34375 169.828125 370.476562 167.722656 366.773438 C 165.535156 362.929688 162.96875 359.582031 160.089844 356.828125 C 157.078125 353.945312 153.390625 351.628906 149.125 349.9375 C 144.875 348.257812 140.167969 347.40625 135.128906 347.40625 C 133.152344 347.40625 131.238281 348.214844 127.542969 350.621094 C 125.269531 352.105469 122.609375 353.820312 119.640625 355.71875 C 117.101562 357.335938 113.660156 358.851562 109.414062 360.222656 C 105.269531 361.5625 101.058594 362.242188 96.90625 362.242188 C 92.753906 362.242188 88.546875 361.5625 84.398438 360.222656 C 80.152344 358.851562 76.714844 357.335938 74.179688 355.71875 C 71.238281 353.839844 68.578125 352.125 66.269531 350.621094 C 62.578125 348.214844 60.664062 347.402344 58.683594 347.402344 C 53.644531 347.402344 48.9375 348.257812 44.691406 349.9375 C 40.429688 351.625 36.738281 353.941406 33.722656 356.828125 C 30.84375 359.585938 28.277344 362.929688 26.09375 366.773438 C 23.992188 370.476562 22.285156 374.339844 21.03125 378.257812 C 19.820312 382.042969 18.808594 386.1875 18.023438 390.570312 C 17.242188 394.914062 16.714844 399.035156 16.453125 402.820312 C 16.195312 406.519531 16.066406 410.371094 16.066406 414.261719 C 16.066406 424.378906 19.28125 432.570312 25.621094 438.609375 C 31.886719 444.570312 40.171875 447.59375 50.253906 447.59375 L 143.570312 447.59375 C 153.648438 447.59375 161.933594 444.570312 168.199219 438.609375 C 174.542969 432.574219 177.757812 424.382812 177.757812 414.261719 C 177.757812 410.355469 177.625 406.503906 177.367188 402.8125 Z M 160.367188 430.382812 C 156.230469 434.320312 150.734375 436.234375 143.570312 436.234375 L 50.253906 436.234375 C 43.085938 436.234375 37.589844 434.320312 33.453125 430.382812 C 29.394531 426.519531 27.421875 421.246094 27.421875 414.261719 C 27.421875 410.632812 27.542969 407.046875 27.78125 403.605469 C 28.015625 400.226562 28.492188 396.515625 29.199219 392.574219 C 29.898438 388.683594 30.789062 385.027344 31.847656 381.71875 C 32.863281 378.546875 34.25 375.40625 35.96875 372.382812 C 37.609375 369.5 39.496094 367.027344 41.578125 365.03125 C 43.523438 363.167969 45.980469 361.640625 48.871094 360.496094 C 51.546875 359.4375 54.550781 358.859375 57.816406 358.773438 C 58.214844 358.984375 58.921875 359.386719 60.070312 360.136719 C 62.402344 361.65625 65.09375 363.394531 68.070312 365.292969 C 71.421875 367.429688 75.742188 369.363281 80.90625 371.027344 C 86.183594 372.734375 91.566406 373.601562 96.90625 373.601562 C 102.25 373.601562 107.632812 372.734375 112.90625 371.03125 C 118.074219 369.359375 122.390625 367.429688 125.75 365.289062 C 128.792969 363.34375 131.410156 361.660156 133.746094 360.136719 C 134.890625 359.390625 135.601562 358.984375 136 358.773438 C 139.261719 358.859375 142.269531 359.4375 144.945312 360.496094 C 147.835938 361.640625 150.289062 363.167969 152.238281 365.03125 C 154.320312 367.023438 156.207031 369.5 157.847656 372.382812 C 159.566406 375.40625 160.953125 378.550781 161.96875 381.71875 C 163.027344 385.03125 163.917969 388.683594 164.617188 392.574219 C 165.324219 396.523438 165.804688 400.234375 166.035156 403.605469 L 166.035156 403.609375 C 166.277344 407.039062 166.398438 410.621094 166.398438 414.261719 C 166.398438 421.246094 164.425781 426.519531 160.367188 430.382812 Z M 160.367188 430.382812 " fill-opacity="1" fill-rule="nonzero"/></g><path fill="#c759b9" d="M 317.214844 202.777344 L 301.675781 218.320312 C 300.832031 219.160156 300.832031 220.527344 301.675781 221.367188 C 302.515625 222.207031 303.882812 222.207031 304.722656 221.367188 L 320.261719 205.824219 L 335.804688 221.367188 C 336.644531 222.207031 338.011719 222.207031 338.851562 221.367188 C 339.691406 220.527344 339.691406 219.160156 338.851562 218.320312 L 323.308594 202.777344 L 338.851562 187.238281 C 339.691406 186.394531 339.691406 185.03125 338.851562 184.191406 C 338.011719 183.347656 336.644531 183.347656 335.804688 184.191406 L 320.261719 199.730469 L 304.722656 184.191406 C 303.882812 183.347656 302.515625 183.347656 301.675781 184.191406 C 300.832031 185.03125 300.832031 186.394531 301.675781 187.238281 Z M 317.214844 202.777344 " fill-opacity="1" fill-rule="evenodd"/><path fill="#72238f" d="M 316.632812 501.066406 C 316.628906 501.066406 316.621094 501.066406 316.613281 501.066406 C 316.347656 501.058594 316.09375 500.945312 315.914062 500.75 L 297.425781 480.648438 C 297.109375 480.300781 297.078125 479.78125 297.355469 479.402344 C 297.632812 479.027344 298.136719 478.898438 298.5625 479.09375 L 315.484375 487.019531 C 315.625 487.085938 315.792969 487.054688 315.902344 486.941406 L 341.714844 459.964844 C 342.0625 459.597656 342.632812 459.558594 343.03125 459.871094 C 343.429688 460.1875 343.519531 460.753906 343.242188 461.175781 L 317.566406 500.507812 C 317.53125 500.566406 317.488281 500.617188 317.441406 500.664062 L 317.328125 500.777344 C 317.144531 500.960938 316.894531 501.066406 316.632812 501.066406 Z M 316.632812 501.066406 " fill-opacity="1" fill-rule="nonzero"/><g fill="#72238f" fill-opacity="1"><g transform="translate(612.368389, 99.829336)"><g><path d="M 0.578125 -4.828125 C 0.578125 -6.304688 0.910156 -7.484375 1.578125 -8.359375 C 2.242188 -9.234375 3.148438 -9.671875 4.296875 -9.671875 C 5.222656 -9.671875 5.988281 -9.328125 6.59375 -8.640625 L 6.59375 -13.484375 L 9.140625 -13.484375 L 9.140625 0 L 6.84375 0 L 6.734375 -1.015625 C 6.097656 -0.222656 5.28125 0.171875 4.28125 0.171875 C 3.164062 0.171875 2.269531 -0.265625 1.59375 -1.140625 C 0.914062 -2.023438 0.578125 -3.253906 0.578125 -4.828125 Z M 3.125 -4.640625 C 3.125 -3.742188 3.273438 -3.054688 3.578125 -2.578125 C 3.890625 -2.109375 4.34375 -1.875 4.9375 -1.875 C 5.71875 -1.875 6.269531 -2.207031 6.59375 -2.875 L 6.59375 -6.625 C 6.28125 -7.28125 5.734375 -7.609375 4.953125 -7.609375 C 3.734375 -7.609375 3.125 -6.617188 3.125 -4.640625 Z M 3.125 -4.640625 "/></g></g><g transform="translate(622.49999, 99.829336)"><g><path d="M 6.484375 0 C 6.367188 -0.226562 6.28125 -0.515625 6.21875 -0.859375 C 5.601562 -0.171875 4.804688 0.171875 3.828125 0.171875 C 2.898438 0.171875 2.128906 -0.09375 1.515625 -0.625 C 0.898438 -1.164062 0.59375 -1.847656 0.59375 -2.671875 C 0.59375 -3.679688 0.96875 -4.453125 1.71875 -4.984375 C 2.46875 -5.523438 3.546875 -5.796875 4.953125 -5.796875 L 6.125 -5.796875 L 6.125 -6.34375 C 6.125 -6.78125 6.007812 -7.128906 5.78125 -7.390625 C 5.550781 -7.660156 5.195312 -7.796875 4.71875 -7.796875 C 4.289062 -7.796875 3.953125 -7.691406 3.703125 -7.484375 C 3.460938 -7.285156 3.34375 -7.003906 3.34375 -6.640625 L 0.8125 -6.640625 C 0.8125 -7.191406 0.976562 -7.703125 1.3125 -8.171875 C 1.65625 -8.640625 2.132812 -9.003906 2.75 -9.265625 C 3.375 -9.535156 4.070312 -9.671875 4.84375 -9.671875 C 6.019531 -9.671875 6.953125 -9.375 7.640625 -8.78125 C 8.328125 -8.195312 8.671875 -7.375 8.671875 -6.3125 L 8.671875 -2.203125 C 8.671875 -1.296875 8.796875 -0.613281 9.046875 -0.15625 L 9.046875 0 Z M 4.375 -1.765625 C 4.75 -1.765625 5.09375 -1.847656 5.40625 -2.015625 C 5.726562 -2.179688 5.96875 -2.40625 6.125 -2.6875 L 6.125 -4.328125 L 5.171875 -4.328125 C 3.898438 -4.328125 3.222656 -3.882812 3.140625 -3 L 3.140625 -2.859375 C 3.140625 -2.535156 3.25 -2.269531 3.46875 -2.0625 C 3.6875 -1.863281 3.988281 -1.765625 4.375 -1.765625 Z M 4.375 -1.765625 "/></g></g><g transform="translate(632.139936, 99.829336)"><g><path d="M 4.015625 -11.84375 L 4.015625 -9.5 L 5.640625 -9.5 L 5.640625 -7.640625 L 4.015625 -7.640625 L 4.015625 -2.890625 C 4.015625 -2.546875 4.082031 -2.296875 4.21875 -2.140625 C 4.351562 -1.992188 4.609375 -1.921875 4.984375 -1.921875 C 5.265625 -1.921875 5.515625 -1.9375 5.734375 -1.96875 L 5.734375 -0.046875 C 5.234375 0.0976562 4.722656 0.171875 4.203125 0.171875 C 2.421875 0.171875 1.507812 -0.722656 1.46875 -2.515625 L 1.46875 -7.640625 L 0.09375 -7.640625 L 0.09375 -9.5 L 1.46875 -9.5 L 1.46875 -11.84375 Z M 4.015625 -11.84375 "/></g></g><g transform="translate(638.215384, 99.829336)"><g><path d="M 6.484375 0 C 6.367188 -0.226562 6.28125 -0.515625 6.21875 -0.859375 C 5.601562 -0.171875 4.804688 0.171875 3.828125 0.171875 C 2.898438 0.171875 2.128906 -0.09375 1.515625 -0.625 C 0.898438 -1.164062 0.59375 -1.847656 0.59375 -2.671875 C 0.59375 -3.679688 0.96875 -4.453125 1.71875 -4.984375 C 2.46875 -5.523438 3.546875 -5.796875 4.953125 -5.796875 L 6.125 -5.796875 L 6.125 -6.34375 C 6.125 -6.78125 6.007812 -7.128906 5.78125 -7.390625 C 5.550781 -7.660156 5.195312 -7.796875 4.71875 -7.796875 C 4.289062 -7.796875 3.953125 -7.691406 3.703125 -7.484375 C 3.460938 -7.285156 3.34375 -7.003906 3.34375 -6.640625 L 0.8125 -6.640625 C 0.8125 -7.191406 0.976562 -7.703125 1.3125 -8.171875 C 1.65625 -8.640625 2.132812 -9.003906 2.75 -9.265625 C 3.375 -9.535156 4.070312 -9.671875 4.84375 -9.671875 C 6.019531 -9.671875 6.953125 -9.375 7.640625 -8.78125 C 8.328125 -8.195312 8.671875 -7.375 8.671875 -6.3125 L 8.671875 -2.203125 C 8.671875 -1.296875 8.796875 -0.613281 9.046875 -0.15625 L 9.046875 0 Z M 4.375 -1.765625 C 4.75 -1.765625 5.09375 -1.847656 5.40625 -2.015625 C 5.726562 -2.179688 5.96875 -2.40625 6.125 -2.6875 L 6.125 -4.328125 L 5.171875 -4.328125 C 3.898438 -4.328125 3.222656 -3.882812 3.140625 -3 L 3.140625 -2.859375 C 3.140625 -2.535156 3.25 -2.269531 3.46875 -2.0625 C 3.6875 -1.863281 3.988281 -1.765625 4.375 -1.765625 Z M 4.375 -1.765625 "/></g></g></g><g fill="#72238f" fill-opacity="1"><g transform="translate(583.407581, 124.552549)"><g><path d="M 1.671875 0 L 1.671875 -7.640625 L 0.25 -7.640625 L 0.25 -9.5 L 1.671875 -9.5 L 1.671875 -10.3125 C 1.671875 -11.375 1.972656 -12.195312 2.578125 -12.78125 C 3.191406 -13.375 4.050781 -13.671875 5.15625 -13.671875 C 5.507812 -13.671875 5.941406 -13.613281 6.453125 -13.5 L 6.421875 -11.53125 C 6.210938 -11.582031 5.953125 -11.609375 5.640625 -11.609375 C 4.691406 -11.609375 4.21875 -11.160156 4.21875 -10.265625 L 4.21875 -9.5 L 6.109375 -9.5 L 6.109375 -7.640625 L 4.21875 -7.640625 L 4.21875 0 Z M 1.671875 0 "/></g></g><g transform="translate(589.85177, 124.552549)"><g><path d="M 6.671875 -0.96875 C 6.035156 -0.207031 5.164062 0.171875 4.0625 0.171875 C 3.039062 0.171875 2.265625 -0.117188 1.734375 -0.703125 C 1.203125 -1.285156 0.925781 -2.144531 0.90625 -3.28125 L 0.90625 -9.5 L 3.453125 -9.5 L 3.453125 -3.359375 C 3.453125 -2.367188 3.898438 -1.875 4.796875 -1.875 C 5.660156 -1.875 6.253906 -2.175781 6.578125 -2.78125 L 6.578125 -9.5 L 9.125 -9.5 L 9.125 0 L 6.734375 0 Z M 6.671875 -0.96875 "/></g></g><g transform="translate(599.913134, 124.552549)"><g><path d="M 3.3125 -9.5 L 3.390625 -8.40625 C 4.066406 -9.25 4.976562 -9.671875 6.125 -9.671875 C 7.125 -9.671875 7.867188 -9.375 8.359375 -8.78125 C 8.859375 -8.195312 9.113281 -7.316406 9.125 -6.140625 L 9.125 0 L 6.59375 0 L 6.59375 -6.078125 C 6.59375 -6.617188 6.472656 -7.007812 6.234375 -7.25 C 6.003906 -7.488281 5.613281 -7.609375 5.0625 -7.609375 C 4.351562 -7.609375 3.816406 -7.304688 3.453125 -6.703125 L 3.453125 0 L 0.921875 0 L 0.921875 -9.5 Z M 3.3125 -9.5 "/></g></g><g transform="translate(609.983278, 124.552549)"><g><path d="M 4.921875 -1.875 C 5.390625 -1.875 5.769531 -2 6.0625 -2.25 C 6.351562 -2.507812 6.507812 -2.851562 6.53125 -3.28125 L 8.90625 -3.28125 C 8.894531 -2.632812 8.71875 -2.046875 8.375 -1.515625 C 8.03125 -0.984375 7.554688 -0.566406 6.953125 -0.265625 C 6.359375 0.0234375 5.695312 0.171875 4.96875 0.171875 C 3.613281 0.171875 2.539062 -0.257812 1.75 -1.125 C 0.96875 -1.988281 0.578125 -3.179688 0.578125 -4.703125 L 0.578125 -4.859375 C 0.578125 -6.328125 0.96875 -7.492188 1.75 -8.359375 C 2.53125 -9.234375 3.597656 -9.671875 4.953125 -9.671875 C 6.140625 -9.671875 7.09375 -9.332031 7.8125 -8.65625 C 8.53125 -7.988281 8.894531 -7.09375 8.90625 -5.96875 L 6.53125 -5.96875 C 6.507812 -6.457031 6.351562 -6.851562 6.0625 -7.15625 C 5.769531 -7.46875 5.382812 -7.625 4.90625 -7.625 C 4.3125 -7.625 3.863281 -7.40625 3.5625 -6.96875 C 3.269531 -6.539062 3.125 -5.84375 3.125 -4.875 L 3.125 -4.625 C 3.125 -3.644531 3.269531 -2.941406 3.5625 -2.515625 C 3.863281 -2.085938 4.316406 -1.875 4.921875 -1.875 Z M 4.921875 -1.875 "/></g></g><g transform="translate(619.359838, 124.552549)"><g><path d="M 4.015625 -11.84375 L 4.015625 -9.5 L 5.640625 -9.5 L 5.640625 -7.640625 L 4.015625 -7.640625 L 4.015625 -2.890625 C 4.015625 -2.546875 4.082031 -2.296875 4.21875 -2.140625 C 4.351562 -1.992188 4.609375 -1.921875 4.984375 -1.921875 C 5.265625 -1.921875 5.515625 -1.9375 5.734375 -1.96875 L 5.734375 -0.046875 C 5.234375 0.0976562 4.722656 0.171875 4.203125 0.171875 C 2.421875 0.171875 1.507812 -0.722656 1.46875 -2.515625 L 1.46875 -7.640625 L 0.09375 -7.640625 L 0.09375 -9.5 L 1.46875 -9.5 L 1.46875 -11.84375 Z M 4.015625 -11.84375 "/></g></g><g transform="translate(625.435286, 124.552549)"><g><path d="M 3.65625 0 L 1.109375 0 L 1.109375 -9.5 L 3.65625 -9.5 Z M 0.953125 -11.953125 C 0.953125 -12.335938 1.078125 -12.648438 1.328125 -12.890625 C 1.585938 -13.140625 1.9375 -13.265625 2.375 -13.265625 C 2.8125 -13.265625 3.15625 -13.140625 3.40625 -12.890625 C 3.664062 -12.648438 3.796875 -12.335938 3.796875 -11.953125 C 3.796875 -11.566406 3.664062 -11.25 3.40625 -11 C 3.144531 -10.757812 2.800781 -10.640625 2.375 -10.640625 C 1.945312 -10.640625 1.601562 -10.757812 1.34375 -11 C 1.082031 -11.25 0.953125 -11.566406 0.953125 -11.953125 Z M 0.953125 -11.953125 "/></g></g><g transform="translate(630.202582, 124.552549)"><g><path d="M 0.578125 -4.84375 C 0.578125 -5.78125 0.757812 -6.617188 1.125 -7.359375 C 1.488281 -8.097656 2.007812 -8.664062 2.6875 -9.0625 C 3.375 -9.46875 4.164062 -9.671875 5.0625 -9.671875 C 6.34375 -9.671875 7.390625 -9.28125 8.203125 -8.5 C 9.015625 -7.71875 9.46875 -6.648438 9.5625 -5.296875 L 9.578125 -4.65625 C 9.578125 -3.195312 9.171875 -2.023438 8.359375 -1.140625 C 7.546875 -0.265625 6.453125 0.171875 5.078125 0.171875 C 3.710938 0.171875 2.617188 -0.265625 1.796875 -1.140625 C 0.984375 -2.015625 0.578125 -3.207031 0.578125 -4.71875 Z M 3.125 -4.65625 C 3.125 -3.75 3.289062 -3.054688 3.625 -2.578125 C 3.96875 -2.109375 4.453125 -1.875 5.078125 -1.875 C 5.691406 -1.875 6.171875 -2.109375 6.515625 -2.578125 C 6.867188 -3.046875 7.046875 -3.800781 7.046875 -4.84375 C 7.046875 -5.726562 6.867188 -6.410156 6.515625 -6.890625 C 6.171875 -7.378906 5.6875 -7.625 5.0625 -7.625 C 4.445312 -7.625 3.96875 -7.378906 3.625 -6.890625 C 3.289062 -6.410156 3.125 -5.664062 3.125 -4.65625 Z M 3.125 -4.65625 "/></g></g><g transform="translate(640.369301, 124.552549)"><g><path d="M 3.3125 -9.5 L 3.390625 -8.40625 C 4.066406 -9.25 4.976562 -9.671875 6.125 -9.671875 C 7.125 -9.671875 7.867188 -9.375 8.359375 -8.78125 C 8.859375 -8.195312 9.113281 -7.316406 9.125 -6.140625 L 9.125 0 L 6.59375 0 L 6.59375 -6.078125 C 6.59375 -6.617188 6.472656 -7.007812 6.234375 -7.25 C 6.003906 -7.488281 5.613281 -7.609375 5.0625 -7.609375 C 4.351562 -7.609375 3.816406 -7.304688 3.453125 -6.703125 L 3.453125 0 L 0.921875 0 L 0.921875 -9.5 Z M 3.3125 -9.5 "/></g></g><g transform="translate(650.439445, 124.552549)"><g><path d="M 6.125 -2.625 C 6.125 -2.9375 5.96875 -3.179688 5.65625 -3.359375 C 5.351562 -3.535156 4.863281 -3.695312 4.1875 -3.84375 C 1.925781 -4.3125 0.796875 -5.269531 0.796875 -6.71875 C 0.796875 -7.5625 1.144531 -8.265625 1.84375 -8.828125 C 2.539062 -9.390625 3.453125 -9.671875 4.578125 -9.671875 C 5.785156 -9.671875 6.75 -9.382812 7.46875 -8.8125 C 8.195312 -8.25 8.5625 -7.515625 8.5625 -6.609375 L 6.03125 -6.609375 C 6.03125 -6.972656 5.910156 -7.273438 5.671875 -7.515625 C 5.441406 -7.753906 5.078125 -7.875 4.578125 -7.875 C 4.148438 -7.875 3.816406 -7.773438 3.578125 -7.578125 C 3.347656 -7.378906 3.234375 -7.132812 3.234375 -6.84375 C 3.234375 -6.5625 3.363281 -6.332031 3.625 -6.15625 C 3.894531 -5.988281 4.34375 -5.84375 4.96875 -5.71875 C 5.601562 -5.59375 6.140625 -5.445312 6.578125 -5.28125 C 7.921875 -4.789062 8.59375 -3.941406 8.59375 -2.734375 C 8.59375 -1.867188 8.21875 -1.164062 7.46875 -0.625 C 6.726562 -0.09375 5.769531 0.171875 4.59375 0.171875 C 3.789062 0.171875 3.082031 0.03125 2.46875 -0.25 C 1.851562 -0.53125 1.367188 -0.914062 1.015625 -1.40625 C 0.660156 -1.90625 0.484375 -2.441406 0.484375 -3.015625 L 2.890625 -3.015625 C 2.921875 -2.566406 3.085938 -2.222656 3.390625 -1.984375 C 3.703125 -1.742188 4.117188 -1.625 4.640625 -1.625 C 5.128906 -1.625 5.5 -1.710938 5.75 -1.890625 C 6 -2.078125 6.125 -2.320312 6.125 -2.625 Z M 6.125 -2.625 "/></g></g><g transform="translate(659.684311, 124.552549)"><g/></g><g transform="translate(664.161881, 124.552549)"><g><path d="M 1.09375 -5.203125 C 1.09375 -6.535156 1.269531 -7.804688 1.625 -9.015625 C 1.976562 -10.234375 2.503906 -11.304688 3.203125 -12.234375 C 3.898438 -13.171875 4.65625 -13.820312 5.46875 -14.1875 L 5.96875 -12.828125 C 5.113281 -12.191406 4.441406 -11.210938 3.953125 -9.890625 C 3.472656 -8.566406 3.234375 -7.019531 3.234375 -5.25 L 3.234375 -4.984375 C 3.234375 -3.203125 3.46875 -1.644531 3.9375 -0.3125 C 4.414062 1.007812 5.09375 2 5.96875 2.65625 L 5.46875 4 C 4.675781 3.632812 3.9375 3 3.25 2.09375 C 2.5625 1.195312 2.035156 0.160156 1.671875 -1.015625 C 1.304688 -2.203125 1.113281 -3.441406 1.09375 -4.734375 Z M 1.09375 -5.203125 "/></g></g><g transform="translate(670.474378, 124.552549)"><g><path d="M 5.34375 -5 C 5.34375 -3.675781 5.148438 -2.398438 4.765625 -1.171875 C 4.390625 0.046875 3.84375 1.125 3.125 2.0625 C 2.414062 3 1.65625 3.644531 0.84375 4 L 0.34375 2.65625 C 1.175781 2.03125 1.832031 1.066406 2.3125 -0.234375 C 2.789062 -1.546875 3.039062 -3.050781 3.0625 -4.75 L 3.0625 -5.21875 C 3.0625 -6.96875 2.820312 -8.507812 2.34375 -9.84375 C 1.875 -11.175781 1.207031 -12.175781 0.34375 -12.84375 L 0.84375 -14.1875 C 1.632812 -13.84375 2.382812 -13.21875 3.09375 -12.3125 C 3.800781 -11.40625 4.347656 -10.347656 4.734375 -9.140625 C 5.128906 -7.929688 5.332031 -6.679688 5.34375 -5.390625 Z M 5.34375 -5 "/></g></g></g><g fill="#72238f" fill-opacity="1"><g transform="translate(612.368389, 555.335812)"><g><path d="M 0.578125 -4.828125 C 0.578125 -6.304688 0.910156 -7.484375 1.578125 -8.359375 C 2.242188 -9.234375 3.148438 -9.671875 4.296875 -9.671875 C 5.222656 -9.671875 5.988281 -9.328125 6.59375 -8.640625 L 6.59375 -13.484375 L 9.140625 -13.484375 L 9.140625 0 L 6.84375 0 L 6.734375 -1.015625 C 6.097656 -0.222656 5.28125 0.171875 4.28125 0.171875 C 3.164062 0.171875 2.269531 -0.265625 1.59375 -1.140625 C 0.914062 -2.023438 0.578125 -3.253906 0.578125 -4.828125 Z M 3.125 -4.640625 C 3.125 -3.742188 3.273438 -3.054688 3.578125 -2.578125 C 3.890625 -2.109375 4.34375 -1.875 4.9375 -1.875 C 5.71875 -1.875 6.269531 -2.207031 6.59375 -2.875 L 6.59375 -6.625 C 6.28125 -7.28125 5.734375 -7.609375 4.953125 -7.609375 C 3.734375 -7.609375 3.125 -6.617188 3.125 -4.640625 Z M 3.125 -4.640625 "/></g></g><g transform="translate(622.49999, 555.335812)"><g><path d="M 6.484375 0 C 6.367188 -0.226562 6.28125 -0.515625 6.21875 -0.859375 C 5.601562 -0.171875 4.804688 0.171875 3.828125 0.171875 C 2.898438 0.171875 2.128906 -0.09375 1.515625 -0.625 C 0.898438 -1.164062 0.59375 -1.847656 0.59375 -2.671875 C 0.59375 -3.679688 0.96875 -4.453125 1.71875 -4.984375 C 2.46875 -5.523438 3.546875 -5.796875 4.953125 -5.796875 L 6.125 -5.796875 L 6.125 -6.34375 C 6.125 -6.78125 6.007812 -7.128906 5.78125 -7.390625 C 5.550781 -7.660156 5.195312 -7.796875 4.71875 -7.796875 C 4.289062 -7.796875 3.953125 -7.691406 3.703125 -7.484375 C 3.460938 -7.285156 3.34375 -7.003906 3.34375 -6.640625 L 0.8125 -6.640625 C 0.8125 -7.191406 0.976562 -7.703125 1.3125 -8.171875 C 1.65625 -8.640625 2.132812 -9.003906 2.75 -9.265625 C 3.375 -9.535156 4.070312 -9.671875 4.84375 -9.671875 C 6.019531 -9.671875 6.953125 -9.375 7.640625 -8.78125 C 8.328125 -8.195312 8.671875 -7.375 8.671875 -6.3125 L 8.671875 -2.203125 C 8.671875 -1.296875 8.796875 -0.613281 9.046875 -0.15625 L 9.046875 0 Z M 4.375 -1.765625 C 4.75 -1.765625 5.09375 -1.847656 5.40625 -2.015625 C 5.726562 -2.179688 5.96875 -2.40625 6.125 -2.6875 L 6.125 -4.328125 L 5.171875 -4.328125 C 3.898438 -4.328125 3.222656 -3.882812 3.140625 -3 L 3.140625 -2.859375 C 3.140625 -2.535156 3.25 -2.269531 3.46875 -2.0625 C 3.6875 -1.863281 3.988281 -1.765625 4.375 -1.765625 Z M 4.375 -1.765625 "/></g></g><g transform="translate(632.139936, 555.335812)"><g><path d="M 4.015625 -11.84375 L 4.015625 -9.5 L 5.640625 -9.5 L 5.640625 -7.640625 L 4.015625 -7.640625 L 4.015625 -2.890625 C 4.015625 -2.546875 4.082031 -2.296875 4.21875 -2.140625 C 4.351562 -1.992188 4.609375 -1.921875 4.984375 -1.921875 C 5.265625 -1.921875 5.515625 -1.9375 5.734375 -1.96875 L 5.734375 -0.046875 C 5.234375 0.0976562 4.722656 0.171875 4.203125 0.171875 C 2.421875 0.171875 1.507812 -0.722656 1.46875 -2.515625 L 1.46875 -7.640625 L 0.09375 -7.640625 L 0.09375 -9.5 L 1.46875 -9.5 L 1.46875 -11.84375 Z M 4.015625 -11.84375 "/></g></g><g transform="translate(638.215384, 555.335812)"><g><path d="M 6.484375 0 C 6.367188 -0.226562 6.28125 -0.515625 6.21875 -0.859375 C 5.601562 -0.171875 4.804688 0.171875 3.828125 0.171875 C 2.898438 0.171875 2.128906 -0.09375 1.515625 -0.625 C 0.898438 -1.164062 0.59375 -1.847656 0.59375 -2.671875 C 0.59375 -3.679688 0.96875 -4.453125 1.71875 -4.984375 C 2.46875 -5.523438 3.546875 -5.796875 4.953125 -5.796875 L 6.125 -5.796875 L 6.125 -6.34375 C 6.125 -6.78125 6.007812 -7.128906 5.78125 -7.390625 C 5.550781 -7.660156 5.195312 -7.796875 4.71875 -7.796875 C 4.289062 -7.796875 3.953125 -7.691406 3.703125 -7.484375 C 3.460938 -7.285156 3.34375 -7.003906 3.34375 -6.640625 L 0.8125 -6.640625 C 0.8125 -7.191406 0.976562 -7.703125 1.3125 -8.171875 C 1.65625 -8.640625 2.132812 -9.003906 2.75 -9.265625 C 3.375 -9.535156 4.070312 -9.671875 4.84375 -9.671875 C 6.019531 -9.671875 6.953125 -9.375 7.640625 -8.78125 C 8.328125 -8.195312 8.671875 -7.375 8.671875 -6.3125 L 8.671875 -2.203125 C 8.671875 -1.296875 8.796875 -0.613281 9.046875 -0.15625 L 9.046875 0 Z M 4.375 -1.765625 C 4.75 -1.765625 5.09375 -1.847656 5.40625 -2.015625 C 5.726562 -2.179688 5.96875 -2.40625 6.125 -2.6875 L 6.125 -4.328125 L 5.171875 -4.328125 C 3.898438 -4.328125 3.222656 -3.882812 3.140625 -3 L 3.140625 -2.859375 C 3.140625 -2.535156 3.25 -2.269531 3.46875 -2.0625 C 3.6875 -1.863281 3.988281 -1.765625 4.375 -1.765625 Z M 4.375 -1.765625 "/></g></g></g><g fill="#72238f" fill-opacity="1"><g transform="translate(583.407581, 580.059024)"><g><path d="M 1.671875 0 L 1.671875 -7.640625 L 0.25 -7.640625 L 0.25 -9.5 L 1.671875 -9.5 L 1.671875 -10.3125 C 1.671875 -11.375 1.972656 -12.195312 2.578125 -12.78125 C 3.191406 -13.375 4.050781 -13.671875 5.15625 -13.671875 C 5.507812 -13.671875 5.941406 -13.613281 6.453125 -13.5 L 6.421875 -11.53125 C 6.210938 -11.582031 5.953125 -11.609375 5.640625 -11.609375 C 4.691406 -11.609375 4.21875 -11.160156 4.21875 -10.265625 L 4.21875 -9.5 L 6.109375 -9.5 L 6.109375 -7.640625 L 4.21875 -7.640625 L 4.21875 0 Z M 1.671875 0 "/></g></g><g transform="translate(589.85177, 580.059024)"><g><path d="M 6.671875 -0.96875 C 6.035156 -0.207031 5.164062 0.171875 4.0625 0.171875 C 3.039062 0.171875 2.265625 -0.117188 1.734375 -0.703125 C 1.203125 -1.285156 0.925781 -2.144531 0.90625 -3.28125 L 0.90625 -9.5 L 3.453125 -9.5 L 3.453125 -3.359375 C 3.453125 -2.367188 3.898438 -1.875 4.796875 -1.875 C 5.660156 -1.875 6.253906 -2.175781 6.578125 -2.78125 L 6.578125 -9.5 L 9.125 -9.5 L 9.125 0 L 6.734375 0 Z M 6.671875 -0.96875 "/></g></g><g transform="translate(599.913134, 580.059024)"><g><path d="M 3.3125 -9.5 L 3.390625 -8.40625 C 4.066406 -9.25 4.976562 -9.671875 6.125 -9.671875 C 7.125 -9.671875 7.867188 -9.375 8.359375 -8.78125 C 8.859375 -8.195312 9.113281 -7.316406 9.125 -6.140625 L 9.125 0 L 6.59375 0 L 6.59375 -6.078125 C 6.59375 -6.617188 6.472656 -7.007812 6.234375 -7.25 C 6.003906 -7.488281 5.613281 -7.609375 5.0625 -7.609375 C 4.351562 -7.609375 3.816406 -7.304688 3.453125 -6.703125 L 3.453125 0 L 0.921875 0 L 0.921875 -9.5 Z M 3.3125 -9.5 "/></g></g><g transform="translate(609.983278, 580.059024)"><g><path d="M 4.921875 -1.875 C 5.390625 -1.875 5.769531 -2 6.0625 -2.25 C 6.351562 -2.507812 6.507812 -2.851562 6.53125 -3.28125 L 8.90625 -3.28125 C 8.894531 -2.632812 8.71875 -2.046875 8.375 -1.515625 C 8.03125 -0.984375 7.554688 -0.566406 6.953125 -0.265625 C 6.359375 0.0234375 5.695312 0.171875 4.96875 0.171875 C 3.613281 0.171875 2.539062 -0.257812 1.75 -1.125 C 0.96875 -1.988281 0.578125 -3.179688 0.578125 -4.703125 L 0.578125 -4.859375 C 0.578125 -6.328125 0.96875 -7.492188 1.75 -8.359375 C 2.53125 -9.234375 3.597656 -9.671875 4.953125 -9.671875 C 6.140625 -9.671875 7.09375 -9.332031 7.8125 -8.65625 C 8.53125 -7.988281 8.894531 -7.09375 8.90625 -5.96875 L 6.53125 -5.96875 C 6.507812 -6.457031 6.351562 -6.851562 6.0625 -7.15625 C 5.769531 -7.46875 5.382812 -7.625 4.90625 -7.625 C 4.3125 -7.625 3.863281 -7.40625 3.5625 -6.96875 C 3.269531 -6.539062 3.125 -5.84375 3.125 -4.875 L 3.125 -4.625 C 3.125 -3.644531 3.269531 -2.941406 3.5625 -2.515625 C 3.863281 -2.085938 4.316406 -1.875 4.921875 -1.875 Z M 4.921875 -1.875 "/></g></g><g transform="translate(619.359838, 580.059024)"><g><path d="M 4.015625 -11.84375 L 4.015625 -9.5 L 5.640625 -9.5 L 5.640625 -7.640625 L 4.015625 -7.640625 L 4.015625 -2.890625 C 4.015625 -2.546875 4.082031 -2.296875 4.21875 -2.140625 C 4.351562 -1.992188 4.609375 -1.921875 4.984375 -1.921875 C 5.265625 -1.921875 5.515625 -1.9375 5.734375 -1.96875 L 5.734375 -0.046875 C 5.234375 0.0976562 4.722656 0.171875 4.203125 0.171875 C 2.421875 0.171875 1.507812 -0.722656 1.46875 -2.515625 L 1.46875 -7.640625 L 0.09375 -7.640625 L 0.09375 -9.5 L 1.46875 -9.5 L 1.46875 -11.84375 Z M 4.015625 -11.84375 "/></g></g><g transform="translate(625.435286, 580.059024)"><g><path d="M 3.65625 0 L 1.109375 0 L 1.109375 -9.5 L 3.65625 -9.5 Z M 0.953125 -11.953125 C 0.953125 -12.335938 1.078125 -12.648438 1.328125 -12.890625 C 1.585938 -13.140625 1.9375 -13.265625 2.375 -13.265625 C 2.8125 -13.265625 3.15625 -13.140625 3.40625 -12.890625 C 3.664062 -12.648438 3.796875 -12.335938 3.796875 -11.953125 C 3.796875 -11.566406 3.664062 -11.25 3.40625 -11 C 3.144531 -10.757812 2.800781 -10.640625 2.375 -10.640625 C 1.945312 -10.640625 1.601562 -10.757812 1.34375 -11 C 1.082031 -11.25 0.953125 -11.566406 0.953125 -11.953125 Z M 0.953125 -11.953125 "/></g></g><g transform="translate(630.202582, 580.059024)"><g><path d="M 0.578125 -4.84375 C 0.578125 -5.78125 0.757812 -6.617188 1.125 -7.359375 C 1.488281 -8.097656 2.007812 -8.664062 2.6875 -9.0625 C 3.375 -9.46875 4.164062 -9.671875 5.0625 -9.671875 C 6.34375 -9.671875 7.390625 -9.28125 8.203125 -8.5 C 9.015625 -7.71875 9.46875 -6.648438 9.5625 -5.296875 L 9.578125 -4.65625 C 9.578125 -3.195312 9.171875 -2.023438 8.359375 -1.140625 C 7.546875 -0.265625 6.453125 0.171875 5.078125 0.171875 C 3.710938 0.171875 2.617188 -0.265625 1.796875 -1.140625 C 0.984375 -2.015625 0.578125 -3.207031 0.578125 -4.71875 Z M 3.125 -4.65625 C 3.125 -3.75 3.289062 -3.054688 3.625 -2.578125 C 3.96875 -2.109375 4.453125 -1.875 5.078125 -1.875 C 5.691406 -1.875 6.171875 -2.109375 6.515625 -2.578125 C 6.867188 -3.046875 7.046875 -3.800781 7.046875 -4.84375 C 7.046875 -5.726562 6.867188 -6.410156 6.515625 -6.890625 C 6.171875 -7.378906 5.6875 -7.625 5.0625 -7.625 C 4.445312 -7.625 3.96875 -7.378906 3.625 -6.890625 C 3.289062 -6.410156 3.125 -5.664062 3.125 -4.65625 Z M 3.125 -4.65625 "/></g></g><g transform="translate(640.369301, 580.059024)"><g><path d="M 3.3125 -9.5 L 3.390625 -8.40625 C 4.066406 -9.25 4.976562 -9.671875 6.125 -9.671875 C 7.125 -9.671875 7.867188 -9.375 8.359375 -8.78125 C 8.859375 -8.195312 9.113281 -7.316406 9.125 -6.140625 L 9.125 0 L 6.59375 0 L 6.59375 -6.078125 C 6.59375 -6.617188 6.472656 -7.007812 6.234375 -7.25 C 6.003906 -7.488281 5.613281 -7.609375 5.0625 -7.609375 C 4.351562 -7.609375 3.816406 -7.304688 3.453125 -6.703125 L 3.453125 0 L 0.921875 0 L 0.921875 -9.5 Z M 3.3125 -9.5 "/></g></g><g transform="translate(650.439445, 580.059024)"><g><path d="M 6.125 -2.625 C 6.125 -2.9375 5.96875 -3.179688 5.65625 -3.359375 C 5.351562 -3.535156 4.863281 -3.695312 4.1875 -3.84375 C 1.925781 -4.3125 0.796875 -5.269531 0.796875 -6.71875 C 0.796875 -7.5625 1.144531 -8.265625 1.84375 -8.828125 C 2.539062 -9.390625 3.453125 -9.671875 4.578125 -9.671875 C 5.785156 -9.671875 6.75 -9.382812 7.46875 -8.8125 C 8.195312 -8.25 8.5625 -7.515625 8.5625 -6.609375 L 6.03125 -6.609375 C 6.03125 -6.972656 5.910156 -7.273438 5.671875 -7.515625 C 5.441406 -7.753906 5.078125 -7.875 4.578125 -7.875 C 4.148438 -7.875 3.816406 -7.773438 3.578125 -7.578125 C 3.347656 -7.378906 3.234375 -7.132812 3.234375 -6.84375 C 3.234375 -6.5625 3.363281 -6.332031 3.625 -6.15625 C 3.894531 -5.988281 4.34375 -5.84375 4.96875 -5.71875 C 5.601562 -5.59375 6.140625 -5.445312 6.578125 -5.28125 C 7.921875 -4.789062 8.59375 -3.941406 8.59375 -2.734375 C 8.59375 -1.867188 8.21875 -1.164062 7.46875 -0.625 C 6.726562 -0.09375 5.769531 0.171875 4.59375 0.171875 C 3.789062 0.171875 3.082031 0.03125 2.46875 -0.25 C 1.851562 -0.53125 1.367188 -0.914062 1.015625 -1.40625 C 0.660156 -1.90625 0.484375 -2.441406 0.484375 -3.015625 L 2.890625 -3.015625 C 2.921875 -2.566406 3.085938 -2.222656 3.390625 -1.984375 C 3.703125 -1.742188 4.117188 -1.625 4.640625 -1.625 C 5.128906 -1.625 5.5 -1.710938 5.75 -1.890625 C 6 -2.078125 6.125 -2.320312 6.125 -2.625 Z M 6.125 -2.625 "/></g></g><g transform="translate(659.684311, 580.059024)"><g/></g><g transform="translate(664.161881, 580.059024)"><g><path d="M 1.09375 -5.203125 C 1.09375 -6.535156 1.269531 -7.804688 1.625 -9.015625 C 1.976562 -10.234375 2.503906 -11.304688 3.203125 -12.234375 C 3.898438 -13.171875 4.65625 -13.820312 5.46875 -14.1875 L 5.96875 -12.828125 C 5.113281 -12.191406 4.441406 -11.210938 3.953125 -9.890625 C 3.472656 -8.566406 3.234375 -7.019531 3.234375 -5.25 L 3.234375 -4.984375 C 3.234375 -3.203125 3.46875 -1.644531 3.9375 -0.3125 C 4.414062 1.007812 5.09375 2 5.96875 2.65625 L 5.46875 4 C 4.675781 3.632812 3.9375 3 3.25 2.09375 C 2.5625 1.195312 2.035156 0.160156 1.671875 -1.015625 C 1.304688 -2.203125 1.113281 -3.441406 1.09375 -4.734375 Z M 1.09375 -5.203125 "/></g></g><g transform="translate(670.474378, 580.059024)"><g><path d="M 5.34375 -5 C 5.34375 -3.675781 5.148438 -2.398438 4.765625 -1.171875 C 4.390625 0.046875 3.84375 1.125 3.125 2.0625 C 2.414062 3 1.65625 3.644531 0.84375 4 L 0.34375 2.65625 C 1.175781 2.03125 1.832031 1.066406 2.3125 -0.234375 C 2.789062 -1.546875 3.039062 -3.050781 3.0625 -4.75 L 3.0625 -5.21875 C 3.0625 -6.96875 2.820312 -8.507812 2.34375 -9.84375 C 1.875 -11.175781 1.207031 -12.175781 0.34375 -12.84375 L 0.84375 -14.1875 C 1.632812 -13.84375 2.382812 -13.21875 3.09375 -12.3125 C 3.800781 -11.40625 4.347656 -10.347656 4.734375 -9.140625 C 5.128906 -7.929688 5.332031 -6.679688 5.34375 -5.390625 Z M 5.34375 -5 "/></g></g></g><g fill="#72238f" fill-opacity="1"><g transform="translate(579.345575, 225.692964)"><g><path d="M 11.640625 -6.109375 C 11.640625 -4.847656 11.414062 -3.742188 10.96875 -2.796875 C 10.53125 -1.847656 9.894531 -1.113281 9.0625 -0.59375 C 8.238281 -0.0820312 7.289062 0.171875 6.21875 0.171875 C 5.15625 0.171875 4.207031 -0.0820312 3.375 -0.59375 C 2.550781 -1.101562 1.910156 -1.828125 1.453125 -2.765625 C 0.992188 -3.710938 0.757812 -4.800781 0.75 -6.03125 L 0.75 -6.671875 C 0.75 -7.921875 0.972656 -9.023438 1.421875 -9.984375 C 1.878906 -10.941406 2.519531 -11.675781 3.34375 -12.1875 C 4.175781 -12.707031 5.125 -12.96875 6.1875 -12.96875 C 7.257812 -12.96875 8.207031 -12.707031 9.03125 -12.1875 C 9.863281 -11.675781 10.503906 -10.941406 10.953125 -9.984375 C 11.410156 -9.023438 11.640625 -7.921875 11.640625 -6.671875 Z M 8.96875 -6.6875 C 8.96875 -8.019531 8.726562 -9.035156 8.25 -9.734375 C 7.769531 -10.429688 7.085938 -10.78125 6.203125 -10.78125 C 5.316406 -10.78125 4.632812 -10.4375 4.15625 -9.75 C 3.675781 -9.0625 3.429688 -8.054688 3.421875 -6.734375 L 3.421875 -6.109375 C 3.421875 -4.796875 3.660156 -3.78125 4.140625 -3.0625 C 4.617188 -2.34375 5.3125 -1.984375 6.21875 -1.984375 C 7.101562 -1.984375 7.78125 -2.328125 8.25 -3.015625 C 8.726562 -3.710938 8.96875 -4.726562 8.96875 -6.0625 Z M 8.96875 -6.6875 "/></g></g><g transform="translate(591.759859, 225.692964)"><g><path d="M 3.65625 0 L 1.109375 0 L 1.109375 -13.484375 L 3.65625 -13.484375 Z M 3.65625 0 "/></g></g><g transform="translate(596.527155, 225.692964)"><g><path d="M 0.578125 -4.828125 C 0.578125 -6.304688 0.910156 -7.484375 1.578125 -8.359375 C 2.242188 -9.234375 3.148438 -9.671875 4.296875 -9.671875 C 5.222656 -9.671875 5.988281 -9.328125 6.59375 -8.640625 L 6.59375 -13.484375 L 9.140625 -13.484375 L 9.140625 0 L 6.84375 0 L 6.734375 -1.015625 C 6.097656 -0.222656 5.28125 0.171875 4.28125 0.171875 C 3.164062 0.171875 2.269531 -0.265625 1.59375 -1.140625 C 0.914062 -2.023438 0.578125 -3.253906 0.578125 -4.828125 Z M 3.125 -4.640625 C 3.125 -3.742188 3.273438 -3.054688 3.578125 -2.578125 C 3.890625 -2.109375 4.34375 -1.875 4.9375 -1.875 C 5.71875 -1.875 6.269531 -2.207031 6.59375 -2.875 L 6.59375 -6.625 C 6.28125 -7.28125 5.734375 -7.609375 4.953125 -7.609375 C 3.734375 -7.609375 3.125 -6.617188 3.125 -4.640625 Z M 3.125 -4.640625 "/></g></g><g transform="translate(606.658755, 225.692964)"><g/></g><g transform="translate(611.136326, 225.692964)"><g><path d="M 11.171875 -4.265625 C 11.078125 -2.890625 10.570312 -1.804688 9.65625 -1.015625 C 8.738281 -0.222656 7.53125 0.171875 6.03125 0.171875 C 4.394531 0.171875 3.101562 -0.378906 2.15625 -1.484375 C 1.21875 -2.585938 0.75 -4.101562 0.75 -6.03125 L 0.75 -6.8125 C 0.75 -8.039062 0.96875 -9.117188 1.40625 -10.046875 C 1.84375 -10.984375 2.460938 -11.703125 3.265625 -12.203125 C 4.066406 -12.710938 5 -12.96875 6.0625 -12.96875 C 7.539062 -12.96875 8.726562 -12.570312 9.625 -11.78125 C 10.53125 -10.988281 11.054688 -9.878906 11.203125 -8.453125 L 8.5625 -8.453125 C 8.5 -9.273438 8.269531 -9.867188 7.875 -10.234375 C 7.476562 -10.609375 6.875 -10.796875 6.0625 -10.796875 C 5.1875 -10.796875 4.53125 -10.476562 4.09375 -9.84375 C 3.65625 -9.21875 3.429688 -8.242188 3.421875 -6.921875 L 3.421875 -5.96875 C 3.421875 -4.582031 3.628906 -3.566406 4.046875 -2.921875 C 4.472656 -2.285156 5.132812 -1.96875 6.03125 -1.96875 C 6.84375 -1.96875 7.445312 -2.15625 7.84375 -2.53125 C 8.25 -2.90625 8.484375 -3.484375 8.546875 -4.265625 Z M 11.171875 -4.265625 "/></g></g><g transform="translate(622.900923, 225.692964)"><g><path d="M 0.578125 -4.84375 C 0.578125 -5.78125 0.757812 -6.617188 1.125 -7.359375 C 1.488281 -8.097656 2.007812 -8.664062 2.6875 -9.0625 C 3.375 -9.46875 4.164062 -9.671875 5.0625 -9.671875 C 6.34375 -9.671875 7.390625 -9.28125 8.203125 -8.5 C 9.015625 -7.71875 9.46875 -6.648438 9.5625 -5.296875 L 9.578125 -4.65625 C 9.578125 -3.195312 9.171875 -2.023438 8.359375 -1.140625 C 7.546875 -0.265625 6.453125 0.171875 5.078125 0.171875 C 3.710938 0.171875 2.617188 -0.265625 1.796875 -1.140625 C 0.984375 -2.015625 0.578125 -3.207031 0.578125 -4.71875 Z M 3.125 -4.65625 C 3.125 -3.75 3.289062 -3.054688 3.625 -2.578125 C 3.96875 -2.109375 4.453125 -1.875 5.078125 -1.875 C 5.691406 -1.875 6.171875 -2.109375 6.515625 -2.578125 C 6.867188 -3.046875 7.046875 -3.800781 7.046875 -4.84375 C 7.046875 -5.726562 6.867188 -6.410156 6.515625 -6.890625 C 6.171875 -7.378906 5.6875 -7.625 5.0625 -7.625 C 4.445312 -7.625 3.96875 -7.378906 3.625 -6.890625 C 3.289062 -6.410156 3.125 -5.664062 3.125 -4.65625 Z M 3.125 -4.65625 "/></g></g><g transform="translate(633.067642, 225.692964)"><g><path d="M 3.3125 -9.5 L 3.390625 -8.40625 C 4.066406 -9.25 4.976562 -9.671875 6.125 -9.671875 C 7.125 -9.671875 7.867188 -9.375 8.359375 -8.78125 C 8.859375 -8.195312 9.113281 -7.316406 9.125 -6.140625 L 9.125 0 L 6.59375 0 L 6.59375 -6.078125 C 6.59375 -6.617188 6.472656 -7.007812 6.234375 -7.25 C 6.003906 -7.488281 5.613281 -7.609375 5.0625 -7.609375 C 4.351562 -7.609375 3.816406 -7.304688 3.453125 -6.703125 L 3.453125 0 L 0.921875 0 L 0.921875 -9.5 Z M 3.3125 -9.5 "/></g></g><g transform="translate(643.137786, 225.692964)"><g><path d="M 4.015625 -11.84375 L 4.015625 -9.5 L 5.640625 -9.5 L 5.640625 -7.640625 L 4.015625 -7.640625 L 4.015625 -2.890625 C 4.015625 -2.546875 4.082031 -2.296875 4.21875 -2.140625 C 4.351562 -1.992188 4.609375 -1.921875 4.984375 -1.921875 C 5.265625 -1.921875 5.515625 -1.9375 5.734375 -1.96875 L 5.734375 -0.046875 C 5.234375 0.0976562 4.722656 0.171875 4.203125 0.171875 C 2.421875 0.171875 1.507812 -0.722656 1.46875 -2.515625 L 1.46875 -7.640625 L 0.09375 -7.640625 L 0.09375 -9.5 L 1.46875 -9.5 L 1.46875 -11.84375 Z M 4.015625 -11.84375 "/></g></g><g transform="translate(649.213234, 225.692964)"><g><path d="M 6.3125 -7.125 C 5.96875 -7.164062 5.664062 -7.1875 5.40625 -7.1875 C 4.4375 -7.1875 3.804688 -6.863281 3.515625 -6.21875 L 3.515625 0 L 0.96875 0 L 0.96875 -9.5 L 3.375 -9.5 L 3.4375 -8.375 C 3.945312 -9.238281 4.65625 -9.671875 5.5625 -9.671875 C 5.84375 -9.671875 6.101562 -9.632812 6.34375 -9.5625 Z M 6.3125 -7.125 "/></g></g><g transform="translate(655.771558, 225.692964)"><g><path d="M 6.484375 0 C 6.367188 -0.226562 6.28125 -0.515625 6.21875 -0.859375 C 5.601562 -0.171875 4.804688 0.171875 3.828125 0.171875 C 2.898438 0.171875 2.128906 -0.09375 1.515625 -0.625 C 0.898438 -1.164062 0.59375 -1.847656 0.59375 -2.671875 C 0.59375 -3.679688 0.96875 -4.453125 1.71875 -4.984375 C 2.46875 -5.523438 3.546875 -5.796875 4.953125 -5.796875 L 6.125 -5.796875 L 6.125 -6.34375 C 6.125 -6.78125 6.007812 -7.128906 5.78125 -7.390625 C 5.550781 -7.660156 5.195312 -7.796875 4.71875 -7.796875 C 4.289062 -7.796875 3.953125 -7.691406 3.703125 -7.484375 C 3.460938 -7.285156 3.34375 -7.003906 3.34375 -6.640625 L 0.8125 -6.640625 C 0.8125 -7.191406 0.976562 -7.703125 1.3125 -8.171875 C 1.65625 -8.640625 2.132812 -9.003906 2.75 -9.265625 C 3.375 -9.535156 4.070312 -9.671875 4.84375 -9.671875 C 6.019531 -9.671875 6.953125 -9.375 7.640625 -8.78125 C 8.328125 -8.195312 8.671875 -7.375 8.671875 -6.3125 L 8.671875 -2.203125 C 8.671875 -1.296875 8.796875 -0.613281 9.046875 -0.15625 L 9.046875 0 Z M 4.375 -1.765625 C 4.75 -1.765625 5.09375 -1.847656 5.40625 -2.015625 C 5.726562 -2.179688 5.96875 -2.40625 6.125 -2.6875 L 6.125 -4.328125 L 5.171875 -4.328125 C 3.898438 -4.328125 3.222656 -3.882812 3.140625 -3 L 3.140625 -2.859375 C 3.140625 -2.535156 3.25 -2.269531 3.46875 -2.0625 C 3.6875 -1.863281 3.988281 -1.765625 4.375 -1.765625 Z M 4.375 -1.765625 "/></g></g><g transform="translate(665.411504, 225.692964)"><g><path d="M 4.921875 -1.875 C 5.390625 -1.875 5.769531 -2 6.0625 -2.25 C 6.351562 -2.507812 6.507812 -2.851562 6.53125 -3.28125 L 8.90625 -3.28125 C 8.894531 -2.632812 8.71875 -2.046875 8.375 -1.515625 C 8.03125 -0.984375 7.554688 -0.566406 6.953125 -0.265625 C 6.359375 0.0234375 5.695312 0.171875 4.96875 0.171875 C 3.613281 0.171875 2.539062 -0.257812 1.75 -1.125 C 0.96875 -1.988281 0.578125 -3.179688 0.578125 -4.703125 L 0.578125 -4.859375 C 0.578125 -6.328125 0.96875 -7.492188 1.75 -8.359375 C 2.53125 -9.234375 3.597656 -9.671875 4.953125 -9.671875 C 6.140625 -9.671875 7.09375 -9.332031 7.8125 -8.65625 C 8.53125 -7.988281 8.894531 -7.09375 8.90625 -5.96875 L 6.53125 -5.96875 C 6.507812 -6.457031 6.351562 -6.851562 6.0625 -7.15625 C 5.769531 -7.46875 5.382812 -7.625 4.90625 -7.625 C 4.3125 -7.625 3.863281 -7.40625 3.5625 -6.96875 C 3.269531 -6.539062 3.125 -5.84375 3.125 -4.875 L 3.125 -4.625 C 3.125 -3.644531 3.269531 -2.941406 3.5625 -2.515625 C 3.863281 -2.085938 4.316406 -1.875 4.921875 -1.875 Z M 4.921875 -1.875 "/></g></g><g transform="translate(674.788063, 225.692964)"><g><path d="M 4.015625 -11.84375 L 4.015625 -9.5 L 5.640625 -9.5 L 5.640625 -7.640625 L 4.015625 -7.640625 L 4.015625 -2.890625 C 4.015625 -2.546875 4.082031 -2.296875 4.21875 -2.140625 C 4.351562 -1.992188 4.609375 -1.921875 4.984375 -1.921875 C 5.265625 -1.921875 5.515625 -1.9375 5.734375 -1.96875 L 5.734375 -0.046875 C 5.234375 0.0976562 4.722656 0.171875 4.203125 0.171875 C 2.421875 0.171875 1.507812 -0.722656 1.46875 -2.515625 L 1.46875 -7.640625 L 0.09375 -7.640625 L 0.09375 -9.5 L 1.46875 -9.5 L 1.46875 -11.84375 Z M 4.015625 -11.84375 "/></g></g></g><g fill="#72238f" fill-opacity="1"><g transform="translate(571.069386, 681.236887)"><g><path d="M 11.53125 0 L 8.90625 0 L 3.78125 -8.40625 L 3.78125 0 L 1.140625 0 L 1.140625 -12.78125 L 3.78125 -12.78125 L 8.90625 -4.359375 L 8.90625 -12.78125 L 11.53125 -12.78125 Z M 11.53125 0 "/></g></g><g transform="translate(583.764616, 681.236887)"><g><path d="M 5.34375 0.171875 C 3.957031 0.171875 2.820312 -0.253906 1.9375 -1.109375 C 1.0625 -1.960938 0.625 -3.097656 0.625 -4.515625 L 0.625 -4.765625 C 0.625 -5.722656 0.804688 -6.578125 1.171875 -7.328125 C 1.546875 -8.078125 2.070312 -8.65625 2.75 -9.0625 C 3.425781 -9.46875 4.195312 -9.671875 5.0625 -9.671875 C 6.363281 -9.671875 7.382812 -9.257812 8.125 -8.4375 C 8.875 -7.625 9.25 -6.46875 9.25 -4.96875 L 9.25 -3.921875 L 3.203125 -3.921875 C 3.285156 -3.304688 3.53125 -2.8125 3.9375 -2.4375 C 4.351562 -2.0625 4.878906 -1.875 5.515625 -1.875 C 6.492188 -1.875 7.257812 -2.226562 7.8125 -2.9375 L 9.046875 -1.53125 C 8.671875 -1 8.15625 -0.582031 7.5 -0.28125 C 6.851562 0.0195312 6.132812 0.171875 5.34375 0.171875 Z M 5.0625 -7.625 C 4.550781 -7.625 4.140625 -7.453125 3.828125 -7.109375 C 3.515625 -6.773438 3.316406 -6.289062 3.234375 -5.65625 L 6.765625 -5.65625 L 6.765625 -5.859375 C 6.753906 -6.421875 6.597656 -6.851562 6.296875 -7.15625 C 6.003906 -7.46875 5.59375 -7.625 5.0625 -7.625 Z M 5.0625 -7.625 "/></g></g><g transform="translate(593.483577, 681.236887)"><g><path d="M 9.234375 -3.453125 L 10.484375 -9.5 L 12.9375 -9.5 L 10.515625 0 L 8.390625 0 L 6.59375 -5.984375 L 4.78125 0 L 2.671875 0 L 0.25 -9.5 L 2.703125 -9.5 L 3.9375 -3.453125 L 5.671875 -9.5 L 7.515625 -9.5 Z M 9.234375 -3.453125 "/></g></g><g transform="translate(606.6968, 681.236887)"><g/></g><g transform="translate(611.174371, 681.236887)"><g><path d="M 11.171875 -4.265625 C 11.078125 -2.890625 10.570312 -1.804688 9.65625 -1.015625 C 8.738281 -0.222656 7.53125 0.171875 6.03125 0.171875 C 4.394531 0.171875 3.101562 -0.378906 2.15625 -1.484375 C 1.21875 -2.585938 0.75 -4.101562 0.75 -6.03125 L 0.75 -6.8125 C 0.75 -8.039062 0.96875 -9.117188 1.40625 -10.046875 C 1.84375 -10.984375 2.460938 -11.703125 3.265625 -12.203125 C 4.066406 -12.710938 5 -12.96875 6.0625 -12.96875 C 7.539062 -12.96875 8.726562 -12.570312 9.625 -11.78125 C 10.53125 -10.988281 11.054688 -9.878906 11.203125 -8.453125 L 8.5625 -8.453125 C 8.5 -9.273438 8.269531 -9.867188 7.875 -10.234375 C 7.476562 -10.609375 6.875 -10.796875 6.0625 -10.796875 C 5.1875 -10.796875 4.53125 -10.476562 4.09375 -9.84375 C 3.65625 -9.21875 3.429688 -8.242188 3.421875 -6.921875 L 3.421875 -5.96875 C 3.421875 -4.582031 3.628906 -3.566406 4.046875 -2.921875 C 4.472656 -2.285156 5.132812 -1.96875 6.03125 -1.96875 C 6.84375 -1.96875 7.445312 -2.15625 7.84375 -2.53125 C 8.25 -2.90625 8.484375 -3.484375 8.546875 -4.265625 Z M 11.171875 -4.265625 "/></g></g><g transform="translate(622.938968, 681.236887)"><g><path d="M 0.578125 -4.84375 C 0.578125 -5.78125 0.757812 -6.617188 1.125 -7.359375 C 1.488281 -8.097656 2.007812 -8.664062 2.6875 -9.0625 C 3.375 -9.46875 4.164062 -9.671875 5.0625 -9.671875 C 6.34375 -9.671875 7.390625 -9.28125 8.203125 -8.5 C 9.015625 -7.71875 9.46875 -6.648438 9.5625 -5.296875 L 9.578125 -4.65625 C 9.578125 -3.195312 9.171875 -2.023438 8.359375 -1.140625 C 7.546875 -0.265625 6.453125 0.171875 5.078125 0.171875 C 3.710938 0.171875 2.617188 -0.265625 1.796875 -1.140625 C 0.984375 -2.015625 0.578125 -3.207031 0.578125 -4.71875 Z M 3.125 -4.65625 C 3.125 -3.75 3.289062 -3.054688 3.625 -2.578125 C 3.96875 -2.109375 4.453125 -1.875 5.078125 -1.875 C 5.691406 -1.875 6.171875 -2.109375 6.515625 -2.578125 C 6.867188 -3.046875 7.046875 -3.800781 7.046875 -4.84375 C 7.046875 -5.726562 6.867188 -6.410156 6.515625 -6.890625 C 6.171875 -7.378906 5.6875 -7.625 5.0625 -7.625 C 4.445312 -7.625 3.96875 -7.378906 3.625 -6.890625 C 3.289062 -6.410156 3.125 -5.664062 3.125 -4.65625 Z M 3.125 -4.65625 "/></g></g><g transform="translate(633.105686, 681.236887)"><g><path d="M 3.3125 -9.5 L 3.390625 -8.40625 C 4.066406 -9.25 4.976562 -9.671875 6.125 -9.671875 C 7.125 -9.671875 7.867188 -9.375 8.359375 -8.78125 C 8.859375 -8.195312 9.113281 -7.316406 9.125 -6.140625 L 9.125 0 L 6.59375 0 L 6.59375 -6.078125 C 6.59375 -6.617188 6.472656 -7.007812 6.234375 -7.25 C 6.003906 -7.488281 5.613281 -7.609375 5.0625 -7.609375 C 4.351562 -7.609375 3.816406 -7.304688 3.453125 -6.703125 L 3.453125 0 L 0.921875 0 L 0.921875 -9.5 Z M 3.3125 -9.5 "/></g></g><g transform="translate(643.17583, 681.236887)"><g><path d="M 4.015625 -11.84375 L 4.015625 -9.5 L 5.640625 -9.5 L 5.640625 -7.640625 L 4.015625 -7.640625 L 4.015625 -2.890625 C 4.015625 -2.546875 4.082031 -2.296875 4.21875 -2.140625 C 4.351562 -1.992188 4.609375 -1.921875 4.984375 -1.921875 C 5.265625 -1.921875 5.515625 -1.9375 5.734375 -1.96875 L 5.734375 -0.046875 C 5.234375 0.0976562 4.722656 0.171875 4.203125 0.171875 C 2.421875 0.171875 1.507812 -0.722656 1.46875 -2.515625 L 1.46875 -7.640625 L 0.09375 -7.640625 L 0.09375 -9.5 L 1.46875 -9.5 L 1.46875 -11.84375 Z M 4.015625 -11.84375 "/></g></g><g transform="translate(649.251279, 681.236887)"><g><path d="M 6.3125 -7.125 C 5.96875 -7.164062 5.664062 -7.1875 5.40625 -7.1875 C 4.4375 -7.1875 3.804688 -6.863281 3.515625 -6.21875 L 3.515625 0 L 0.96875 0 L 0.96875 -9.5 L 3.375 -9.5 L 3.4375 -8.375 C 3.945312 -9.238281 4.65625 -9.671875 5.5625 -9.671875 C 5.84375 -9.671875 6.101562 -9.632812 6.34375 -9.5625 Z M 6.3125 -7.125 "/></g></g><g transform="translate(655.809603, 681.236887)"><g><path d="M 6.484375 0 C 6.367188 -0.226562 6.28125 -0.515625 6.21875 -0.859375 C 5.601562 -0.171875 4.804688 0.171875 3.828125 0.171875 C 2.898438 0.171875 2.128906 -0.09375 1.515625 -0.625 C 0.898438 -1.164062 0.59375 -1.847656 0.59375 -2.671875 C 0.59375 -3.679688 0.96875 -4.453125 1.71875 -4.984375 C 2.46875 -5.523438 3.546875 -5.796875 4.953125 -5.796875 L 6.125 -5.796875 L 6.125 -6.34375 C 6.125 -6.78125 6.007812 -7.128906 5.78125 -7.390625 C 5.550781 -7.660156 5.195312 -7.796875 4.71875 -7.796875 C 4.289062 -7.796875 3.953125 -7.691406 3.703125 -7.484375 C 3.460938 -7.285156 3.34375 -7.003906 3.34375 -6.640625 L 0.8125 -6.640625 C 0.8125 -7.191406 0.976562 -7.703125 1.3125 -8.171875 C 1.65625 -8.640625 2.132812 -9.003906 2.75 -9.265625 C 3.375 -9.535156 4.070312 -9.671875 4.84375 -9.671875 C 6.019531 -9.671875 6.953125 -9.375 7.640625 -8.78125 C 8.328125 -8.195312 8.671875 -7.375 8.671875 -6.3125 L 8.671875 -2.203125 C 8.671875 -1.296875 8.796875 -0.613281 9.046875 -0.15625 L 9.046875 0 Z M 4.375 -1.765625 C 4.75 -1.765625 5.09375 -1.847656 5.40625 -2.015625 C 5.726562 -2.179688 5.96875 -2.40625 6.125 -2.6875 L 6.125 -4.328125 L 5.171875 -4.328125 C 3.898438 -4.328125 3.222656 -3.882812 3.140625 -3 L 3.140625 -2.859375 C 3.140625 -2.535156 3.25 -2.269531 3.46875 -2.0625 C 3.6875 -1.863281 3.988281 -1.765625 4.375 -1.765625 Z M 4.375 -1.765625 "/></g></g><g transform="translate(665.449548, 681.236887)"><g><path d="M 4.921875 -1.875 C 5.390625 -1.875 5.769531 -2 6.0625 -2.25 C 6.351562 -2.507812 6.507812 -2.851562 6.53125 -3.28125 L 8.90625 -3.28125 C 8.894531 -2.632812 8.71875 -2.046875 8.375 -1.515625 C 8.03125 -0.984375 7.554688 -0.566406 6.953125 -0.265625 C 6.359375 0.0234375 5.695312 0.171875 4.96875 0.171875 C 3.613281 0.171875 2.539062 -0.257812 1.75 -1.125 C 0.96875 -1.988281 0.578125 -3.179688 0.578125 -4.703125 L 0.578125 -4.859375 C 0.578125 -6.328125 0.96875 -7.492188 1.75 -8.359375 C 2.53125 -9.234375 3.597656 -9.671875 4.953125 -9.671875 C 6.140625 -9.671875 7.09375 -9.332031 7.8125 -8.65625 C 8.53125 -7.988281 8.894531 -7.09375 8.90625 -5.96875 L 6.53125 -5.96875 C 6.507812 -6.457031 6.351562 -6.851562 6.0625 -7.15625 C 5.769531 -7.46875 5.382812 -7.625 4.90625 -7.625 C 4.3125 -7.625 3.863281 -7.40625 3.5625 -6.96875 C 3.269531 -6.539062 3.125 -5.84375 3.125 -4.875 L 3.125 -4.625 C 3.125 -3.644531 3.269531 -2.941406 3.5625 -2.515625 C 3.863281 -2.085938 4.316406 -1.875 4.921875 -1.875 Z M 4.921875 -1.875 "/></g></g><g transform="translate(674.826108, 681.236887)"><g><path d="M 4.015625 -11.84375 L 4.015625 -9.5 L 5.640625 -9.5 L 5.640625 -7.640625 L 4.015625 -7.640625 L 4.015625 -2.890625 C 4.015625 -2.546875 4.082031 -2.296875 4.21875 -2.140625 C 4.351562 -1.992188 4.609375 -1.921875 4.984375 -1.921875 C 5.265625 -1.921875 5.515625 -1.9375 5.734375 -1.96875 L 5.734375 -0.046875 C 5.234375 0.0976562 4.722656 0.171875 4.203125 0.171875 C 2.421875 0.171875 1.507812 -0.722656 1.46875 -2.515625 L 1.46875 -7.640625 L 0.09375 -7.640625 L 0.09375 -9.5 L 1.46875 -9.5 L 1.46875 -11.84375 Z M 4.015625 -11.84375 "/></g></g></g><g fill="#72238f" fill-opacity="1"><g transform="translate(78.386613, 477.682412)"><g><path d="M 10.8125 -12.78125 L 10.8125 -4.359375 C 10.8125 -2.960938 10.375 -1.859375 9.5 -1.046875 C 8.625 -0.234375 7.429688 0.171875 5.921875 0.171875 C 4.421875 0.171875 3.234375 -0.222656 2.359375 -1.015625 C 1.484375 -1.804688 1.035156 -2.890625 1.015625 -4.265625 L 1.015625 -12.78125 L 3.65625 -12.78125 L 3.65625 -4.34375 C 3.65625 -3.507812 3.851562 -2.898438 4.25 -2.515625 C 4.65625 -2.128906 5.210938 -1.9375 5.921875 -1.9375 C 7.398438 -1.9375 8.148438 -2.71875 8.171875 -4.28125 L 8.171875 -12.78125 Z M 10.8125 -12.78125 "/></g></g><g transform="translate(90.221446, 477.682412)"><g><path d="M 6.125 -2.625 C 6.125 -2.9375 5.96875 -3.179688 5.65625 -3.359375 C 5.351562 -3.535156 4.863281 -3.695312 4.1875 -3.84375 C 1.925781 -4.3125 0.796875 -5.269531 0.796875 -6.71875 C 0.796875 -7.5625 1.144531 -8.265625 1.84375 -8.828125 C 2.539062 -9.390625 3.453125 -9.671875 4.578125 -9.671875 C 5.785156 -9.671875 6.75 -9.382812 7.46875 -8.8125 C 8.195312 -8.25 8.5625 -7.515625 8.5625 -6.609375 L 6.03125 -6.609375 C 6.03125 -6.972656 5.910156 -7.273438 5.671875 -7.515625 C 5.441406 -7.753906 5.078125 -7.875 4.578125 -7.875 C 4.148438 -7.875 3.816406 -7.773438 3.578125 -7.578125 C 3.347656 -7.378906 3.234375 -7.132812 3.234375 -6.84375 C 3.234375 -6.5625 3.363281 -6.332031 3.625 -6.15625 C 3.894531 -5.988281 4.34375 -5.84375 4.96875 -5.71875 C 5.601562 -5.59375 6.140625 -5.445312 6.578125 -5.28125 C 7.921875 -4.789062 8.59375 -3.941406 8.59375 -2.734375 C 8.59375 -1.867188 8.21875 -1.164062 7.46875 -0.625 C 6.726562 -0.09375 5.769531 0.171875 4.59375 0.171875 C 3.789062 0.171875 3.082031 0.03125 2.46875 -0.25 C 1.851562 -0.53125 1.367188 -0.914062 1.015625 -1.40625 C 0.660156 -1.90625 0.484375 -2.441406 0.484375 -3.015625 L 2.890625 -3.015625 C 2.921875 -2.566406 3.085938 -2.222656 3.390625 -1.984375 C 3.703125 -1.742188 4.117188 -1.625 4.640625 -1.625 C 5.128906 -1.625 5.5 -1.710938 5.75 -1.890625 C 6 -2.078125 6.125 -2.320312 6.125 -2.625 Z M 6.125 -2.625 "/></g></g><g transform="translate(99.466313, 477.682412)"><g><path d="M 5.34375 0.171875 C 3.957031 0.171875 2.820312 -0.253906 1.9375 -1.109375 C 1.0625 -1.960938 0.625 -3.097656 0.625 -4.515625 L 0.625 -4.765625 C 0.625 -5.722656 0.804688 -6.578125 1.171875 -7.328125 C 1.546875 -8.078125 2.070312 -8.65625 2.75 -9.0625 C 3.425781 -9.46875 4.195312 -9.671875 5.0625 -9.671875 C 6.363281 -9.671875 7.382812 -9.257812 8.125 -8.4375 C 8.875 -7.625 9.25 -6.46875 9.25 -4.96875 L 9.25 -3.921875 L 3.203125 -3.921875 C 3.285156 -3.304688 3.53125 -2.8125 3.9375 -2.4375 C 4.351562 -2.0625 4.878906 -1.875 5.515625 -1.875 C 6.492188 -1.875 7.257812 -2.226562 7.8125 -2.9375 L 9.046875 -1.53125 C 8.671875 -1 8.15625 -0.582031 7.5 -0.28125 C 6.851562 0.0195312 6.132812 0.171875 5.34375 0.171875 Z M 5.0625 -7.625 C 4.550781 -7.625 4.140625 -7.453125 3.828125 -7.109375 C 3.515625 -6.773438 3.316406 -6.289062 3.234375 -5.65625 L 6.765625 -5.65625 L 6.765625 -5.859375 C 6.753906 -6.421875 6.597656 -6.851562 6.296875 -7.15625 C 6.003906 -7.46875 5.59375 -7.625 5.0625 -7.625 Z M 5.0625 -7.625 "/></g></g><g transform="translate(109.185274, 477.682412)"><g><path d="M 6.3125 -7.125 C 5.96875 -7.164062 5.664062 -7.1875 5.40625 -7.1875 C 4.4375 -7.1875 3.804688 -6.863281 3.515625 -6.21875 L 3.515625 0 L 0.96875 0 L 0.96875 -9.5 L 3.375 -9.5 L 3.4375 -8.375 C 3.945312 -9.238281 4.65625 -9.671875 5.5625 -9.671875 C 5.84375 -9.671875 6.101562 -9.632812 6.34375 -9.5625 Z M 6.3125 -7.125 "/></g></g></g><g fill="#72238f" fill-opacity="1"><g transform="translate(679.631448, 332.969349)"><g><path d="M 7.765625 -3.359375 C 7.765625 -3.847656 7.585938 -4.226562 7.234375 -4.5 C 6.890625 -4.769531 6.257812 -5.050781 5.34375 -5.34375 C 4.4375 -5.632812 3.710938 -5.925781 3.171875 -6.21875 C 1.722656 -7 1 -8.054688 1 -9.390625 C 1 -10.078125 1.191406 -10.691406 1.578125 -11.234375 C 1.972656 -11.773438 2.535156 -12.195312 3.265625 -12.5 C 3.992188 -12.8125 4.8125 -12.96875 5.71875 -12.96875 C 6.632812 -12.96875 7.445312 -12.800781 8.15625 -12.46875 C 8.875 -12.132812 9.429688 -11.664062 9.828125 -11.0625 C 10.222656 -10.457031 10.421875 -9.773438 10.421875 -9.015625 L 7.78125 -9.015625 C 7.78125 -9.597656 7.59375 -10.050781 7.21875 -10.375 C 6.851562 -10.695312 6.335938 -10.859375 5.671875 -10.859375 C 5.023438 -10.859375 4.523438 -10.722656 4.171875 -10.453125 C 3.816406 -10.179688 3.640625 -9.820312 3.640625 -9.375 C 3.640625 -8.957031 3.847656 -8.609375 4.265625 -8.328125 C 4.679688 -8.046875 5.296875 -7.785156 6.109375 -7.546875 C 7.609375 -7.085938 8.703125 -6.523438 9.390625 -5.859375 C 10.078125 -5.191406 10.421875 -4.363281 10.421875 -3.375 C 10.421875 -2.269531 10 -1.398438 9.15625 -0.765625 C 8.320312 -0.140625 7.195312 0.171875 5.78125 0.171875 C 4.789062 0.171875 3.890625 -0.00390625 3.078125 -0.359375 C 2.273438 -0.722656 1.660156 -1.21875 1.234375 -1.84375 C 0.816406 -2.46875 0.609375 -3.191406 0.609375 -4.015625 L 3.25 -4.015625 C 3.25 -2.609375 4.09375 -1.90625 5.78125 -1.90625 C 6.40625 -1.90625 6.890625 -2.03125 7.234375 -2.28125 C 7.585938 -2.539062 7.765625 -2.898438 7.765625 -3.359375 Z M 7.765625 -3.359375 "/></g></g><g transform="translate(690.684901, 332.969349)"><g><path d="M 4.015625 -11.84375 L 4.015625 -9.5 L 5.640625 -9.5 L 5.640625 -7.640625 L 4.015625 -7.640625 L 4.015625 -2.890625 C 4.015625 -2.546875 4.082031 -2.296875 4.21875 -2.140625 C 4.351562 -1.992188 4.609375 -1.921875 4.984375 -1.921875 C 5.265625 -1.921875 5.515625 -1.9375 5.734375 -1.96875 L 5.734375 -0.046875 C 5.234375 0.0976562 4.722656 0.171875 4.203125 0.171875 C 2.421875 0.171875 1.507812 -0.722656 1.46875 -2.515625 L 1.46875 -7.640625 L 0.09375 -7.640625 L 0.09375 -9.5 L 1.46875 -9.5 L 1.46875 -11.84375 Z M 4.015625 -11.84375 "/></g></g><g transform="translate(696.76035, 332.969349)"><g><path d="M 6.484375 0 C 6.367188 -0.226562 6.28125 -0.515625 6.21875 -0.859375 C 5.601562 -0.171875 4.804688 0.171875 3.828125 0.171875 C 2.898438 0.171875 2.128906 -0.09375 1.515625 -0.625 C 0.898438 -1.164062 0.59375 -1.847656 0.59375 -2.671875 C 0.59375 -3.679688 0.96875 -4.453125 1.71875 -4.984375 C 2.46875 -5.523438 3.546875 -5.796875 4.953125 -5.796875 L 6.125 -5.796875 L 6.125 -6.34375 C 6.125 -6.78125 6.007812 -7.128906 5.78125 -7.390625 C 5.550781 -7.660156 5.195312 -7.796875 4.71875 -7.796875 C 4.289062 -7.796875 3.953125 -7.691406 3.703125 -7.484375 C 3.460938 -7.285156 3.34375 -7.003906 3.34375 -6.640625 L 0.8125 -6.640625 C 0.8125 -7.191406 0.976562 -7.703125 1.3125 -8.171875 C 1.65625 -8.640625 2.132812 -9.003906 2.75 -9.265625 C 3.375 -9.535156 4.070312 -9.671875 4.84375 -9.671875 C 6.019531 -9.671875 6.953125 -9.375 7.640625 -8.78125 C 8.328125 -8.195312 8.671875 -7.375 8.671875 -6.3125 L 8.671875 -2.203125 C 8.671875 -1.296875 8.796875 -0.613281 9.046875 -0.15625 L 9.046875 0 Z M 4.375 -1.765625 C 4.75 -1.765625 5.09375 -1.847656 5.40625 -2.015625 C 5.726562 -2.179688 5.96875 -2.40625 6.125 -2.6875 L 6.125 -4.328125 L 5.171875 -4.328125 C 3.898438 -4.328125 3.222656 -3.882812 3.140625 -3 L 3.140625 -2.859375 C 3.140625 -2.535156 3.25 -2.269531 3.46875 -2.0625 C 3.6875 -1.863281 3.988281 -1.765625 4.375 -1.765625 Z M 4.375 -1.765625 "/></g></g><g transform="translate(706.400296, 332.969349)"><g><path d="M 4.015625 -11.84375 L 4.015625 -9.5 L 5.640625 -9.5 L 5.640625 -7.640625 L 4.015625 -7.640625 L 4.015625 -2.890625 C 4.015625 -2.546875 4.082031 -2.296875 4.21875 -2.140625 C 4.351562 -1.992188 4.609375 -1.921875 4.984375 -1.921875 C 5.265625 -1.921875 5.515625 -1.9375 5.734375 -1.96875 L 5.734375 -0.046875 C 5.234375 0.0976562 4.722656 0.171875 4.203125 0.171875 C 2.421875 0.171875 1.507812 -0.722656 1.46875 -2.515625 L 1.46875 -7.640625 L 0.09375 -7.640625 L 0.09375 -9.5 L 1.46875 -9.5 L 1.46875 -11.84375 Z M 4.015625 -11.84375 "/></g></g><g transform="translate(712.475744, 332.969349)"><g><path d="M 5.34375 0.171875 C 3.957031 0.171875 2.820312 -0.253906 1.9375 -1.109375 C 1.0625 -1.960938 0.625 -3.097656 0.625 -4.515625 L 0.625 -4.765625 C 0.625 -5.722656 0.804688 -6.578125 1.171875 -7.328125 C 1.546875 -8.078125 2.070312 -8.65625 2.75 -9.0625 C 3.425781 -9.46875 4.195312 -9.671875 5.0625 -9.671875 C 6.363281 -9.671875 7.382812 -9.257812 8.125 -8.4375 C 8.875 -7.625 9.25 -6.46875 9.25 -4.96875 L 9.25 -3.921875 L 3.203125 -3.921875 C 3.285156 -3.304688 3.53125 -2.8125 3.9375 -2.4375 C 4.351562 -2.0625 4.878906 -1.875 5.515625 -1.875 C 6.492188 -1.875 7.257812 -2.226562 7.8125 -2.9375 L 9.046875 -1.53125 C 8.671875 -1 8.15625 -0.582031 7.5 -0.28125 C 6.851562 0.0195312 6.132812 0.171875 5.34375 0.171875 Z M 5.0625 -7.625 C 4.550781 -7.625 4.140625 -7.453125 3.828125 -7.109375 C 3.515625 -6.773438 3.316406 -6.289062 3.234375 -5.65625 L 6.765625 -5.65625 L 6.765625 -5.859375 C 6.753906 -6.421875 6.597656 -6.851562 6.296875 -7.15625 C 6.003906 -7.46875 5.59375 -7.625 5.0625 -7.625 Z M 5.0625 -7.625 "/></g></g></g><g fill="#72238f" fill-opacity="1"><g transform="translate(661.873345, 357.692562)"><g><path d="M 4.578125 -12.78125 L 7.875 -3.515625 L 11.140625 -12.78125 L 14.59375 -12.78125 L 14.59375 0 L 11.953125 0 L 11.953125 -3.5 L 12.21875 -9.53125 L 8.765625 0 L 6.953125 0 L 3.515625 -9.515625 L 3.78125 -3.5 L 3.78125 0 L 1.140625 0 L 1.140625 -12.78125 Z M 4.578125 -12.78125 "/></g></g><g transform="translate(677.623858, 357.692562)"><g><path d="M 3.65625 0 L 1.109375 0 L 1.109375 -9.5 L 3.65625 -9.5 Z M 0.953125 -11.953125 C 0.953125 -12.335938 1.078125 -12.648438 1.328125 -12.890625 C 1.585938 -13.140625 1.9375 -13.265625 2.375 -13.265625 C 2.8125 -13.265625 3.15625 -13.140625 3.40625 -12.890625 C 3.664062 -12.648438 3.796875 -12.335938 3.796875 -11.953125 C 3.796875 -11.566406 3.664062 -11.25 3.40625 -11 C 3.144531 -10.757812 2.800781 -10.640625 2.375 -10.640625 C 1.945312 -10.640625 1.601562 -10.757812 1.34375 -11 C 1.082031 -11.25 0.953125 -11.566406 0.953125 -11.953125 Z M 0.953125 -11.953125 "/></g></g><g transform="translate(682.391153, 357.692562)"><g><path d="M 0.609375 -4.828125 C 0.609375 -6.273438 0.953125 -7.441406 1.640625 -8.328125 C 2.335938 -9.222656 3.273438 -9.671875 4.453125 -9.671875 C 5.492188 -9.671875 6.304688 -9.316406 6.890625 -8.609375 L 6.984375 -9.5 L 9.296875 -9.5 L 9.296875 -0.3125 C 9.296875 0.519531 9.101562 1.242188 8.71875 1.859375 C 8.34375 2.472656 7.8125 2.9375 7.125 3.25 C 6.445312 3.570312 5.644531 3.734375 4.71875 3.734375 C 4.019531 3.734375 3.335938 3.59375 2.671875 3.3125 C 2.015625 3.039062 1.519531 2.6875 1.1875 2.25 L 2.3125 0.703125 C 2.945312 1.410156 3.710938 1.765625 4.609375 1.765625 C 5.285156 1.765625 5.8125 1.582031 6.1875 1.21875 C 6.5625 0.863281 6.75 0.351562 6.75 -0.3125 L 6.75 -0.8125 C 6.15625 -0.15625 5.382812 0.171875 4.4375 0.171875 C 3.289062 0.171875 2.363281 -0.269531 1.65625 -1.15625 C 0.957031 -2.050781 0.609375 -3.238281 0.609375 -4.71875 Z M 3.140625 -4.640625 C 3.140625 -3.773438 3.3125 -3.097656 3.65625 -2.609375 C 4.007812 -2.117188 4.484375 -1.875 5.078125 -1.875 C 5.859375 -1.875 6.414062 -2.164062 6.75 -2.75 L 6.75 -6.75 C 6.40625 -7.320312 5.859375 -7.609375 5.109375 -7.609375 C 4.492188 -7.609375 4.007812 -7.359375 3.65625 -6.859375 C 3.3125 -6.367188 3.140625 -5.628906 3.140625 -4.640625 Z M 3.140625 -4.640625 "/></g></g><g transform="translate(692.654447, 357.692562)"><g><path d="M 6.3125 -7.125 C 5.96875 -7.164062 5.664062 -7.1875 5.40625 -7.1875 C 4.4375 -7.1875 3.804688 -6.863281 3.515625 -6.21875 L 3.515625 0 L 0.96875 0 L 0.96875 -9.5 L 3.375 -9.5 L 3.4375 -8.375 C 3.945312 -9.238281 4.65625 -9.671875 5.5625 -9.671875 C 5.84375 -9.671875 6.101562 -9.632812 6.34375 -9.5625 Z M 6.3125 -7.125 "/></g></g><g transform="translate(699.212771, 357.692562)"><g><path d="M 6.484375 0 C 6.367188 -0.226562 6.28125 -0.515625 6.21875 -0.859375 C 5.601562 -0.171875 4.804688 0.171875 3.828125 0.171875 C 2.898438 0.171875 2.128906 -0.09375 1.515625 -0.625 C 0.898438 -1.164062 0.59375 -1.847656 0.59375 -2.671875 C 0.59375 -3.679688 0.96875 -4.453125 1.71875 -4.984375 C 2.46875 -5.523438 3.546875 -5.796875 4.953125 -5.796875 L 6.125 -5.796875 L 6.125 -6.34375 C 6.125 -6.78125 6.007812 -7.128906 5.78125 -7.390625 C 5.550781 -7.660156 5.195312 -7.796875 4.71875 -7.796875 C 4.289062 -7.796875 3.953125 -7.691406 3.703125 -7.484375 C 3.460938 -7.285156 3.34375 -7.003906 3.34375 -6.640625 L 0.8125 -6.640625 C 0.8125 -7.191406 0.976562 -7.703125 1.3125 -8.171875 C 1.65625 -8.640625 2.132812 -9.003906 2.75 -9.265625 C 3.375 -9.535156 4.070312 -9.671875 4.84375 -9.671875 C 6.019531 -9.671875 6.953125 -9.375 7.640625 -8.78125 C 8.328125 -8.195312 8.671875 -7.375 8.671875 -6.3125 L 8.671875 -2.203125 C 8.671875 -1.296875 8.796875 -0.613281 9.046875 -0.15625 L 9.046875 0 Z M 4.375 -1.765625 C 4.75 -1.765625 5.09375 -1.847656 5.40625 -2.015625 C 5.726562 -2.179688 5.96875 -2.40625 6.125 -2.6875 L 6.125 -4.328125 L 5.171875 -4.328125 C 3.898438 -4.328125 3.222656 -3.882812 3.140625 -3 L 3.140625 -2.859375 C 3.140625 -2.535156 3.25 -2.269531 3.46875 -2.0625 C 3.6875 -1.863281 3.988281 -1.765625 4.375 -1.765625 Z M 4.375 -1.765625 "/></g></g><g transform="translate(708.852717, 357.692562)"><g><path d="M 4.015625 -11.84375 L 4.015625 -9.5 L 5.640625 -9.5 L 5.640625 -7.640625 L 4.015625 -7.640625 L 4.015625 -2.890625 C 4.015625 -2.546875 4.082031 -2.296875 4.21875 -2.140625 C 4.351562 -1.992188 4.609375 -1.921875 4.984375 -1.921875 C 5.265625 -1.921875 5.515625 -1.9375 5.734375 -1.96875 L 5.734375 -0.046875 C 5.234375 0.0976562 4.722656 0.171875 4.203125 0.171875 C 2.421875 0.171875 1.507812 -0.722656 1.46875 -2.515625 L 1.46875 -7.640625 L 0.09375 -7.640625 L 0.09375 -9.5 L 1.46875 -9.5 L 1.46875 -11.84375 Z M 4.015625 -11.84375 "/></g></g><g transform="translate(714.928165, 357.692562)"><g><path d="M 3.65625 0 L 1.109375 0 L 1.109375 -9.5 L 3.65625 -9.5 Z M 0.953125 -11.953125 C 0.953125 -12.335938 1.078125 -12.648438 1.328125 -12.890625 C 1.585938 -13.140625 1.9375 -13.265625 2.375 -13.265625 C 2.8125 -13.265625 3.15625 -13.140625 3.40625 -12.890625 C 3.664062 -12.648438 3.796875 -12.335938 3.796875 -11.953125 C 3.796875 -11.566406 3.664062 -11.25 3.40625 -11 C 3.144531 -10.757812 2.800781 -10.640625 2.375 -10.640625 C 1.945312 -10.640625 1.601562 -10.757812 1.34375 -11 C 1.082031 -11.25 0.953125 -11.566406 0.953125 -11.953125 Z M 0.953125 -11.953125 "/></g></g><g transform="translate(719.695461, 357.692562)"><g><path d="M 0.578125 -4.84375 C 0.578125 -5.78125 0.757812 -6.617188 1.125 -7.359375 C 1.488281 -8.097656 2.007812 -8.664062 2.6875 -9.0625 C 3.375 -9.46875 4.164062 -9.671875 5.0625 -9.671875 C 6.34375 -9.671875 7.390625 -9.28125 8.203125 -8.5 C 9.015625 -7.71875 9.46875 -6.648438 9.5625 -5.296875 L 9.578125 -4.65625 C 9.578125 -3.195312 9.171875 -2.023438 8.359375 -1.140625 C 7.546875 -0.265625 6.453125 0.171875 5.078125 0.171875 C 3.710938 0.171875 2.617188 -0.265625 1.796875 -1.140625 C 0.984375 -2.015625 0.578125 -3.207031 0.578125 -4.71875 Z M 3.125 -4.65625 C 3.125 -3.75 3.289062 -3.054688 3.625 -2.578125 C 3.96875 -2.109375 4.453125 -1.875 5.078125 -1.875 C 5.691406 -1.875 6.171875 -2.109375 6.515625 -2.578125 C 6.867188 -3.046875 7.046875 -3.800781 7.046875 -4.84375 C 7.046875 -5.726562 6.867188 -6.410156 6.515625 -6.890625 C 6.171875 -7.378906 5.6875 -7.625 5.0625 -7.625 C 4.445312 -7.625 3.96875 -7.378906 3.625 -6.890625 C 3.289062 -6.410156 3.125 -5.664062 3.125 -4.65625 Z M 3.125 -4.65625 "/></g></g><g transform="translate(729.86218, 357.692562)"><g><path d="M 3.3125 -9.5 L 3.390625 -8.40625 C 4.066406 -9.25 4.976562 -9.671875 6.125 -9.671875 C 7.125 -9.671875 7.867188 -9.375 8.359375 -8.78125 C 8.859375 -8.195312 9.113281 -7.316406 9.125 -6.140625 L 9.125 0 L 6.59375 0 L 6.59375 -6.078125 C 6.59375 -6.617188 6.472656 -7.007812 6.234375 -7.25 C 6.003906 -7.488281 5.613281 -7.609375 5.0625 -7.609375 C 4.351562 -7.609375 3.816406 -7.304688 3.453125 -6.703125 L 3.453125 0 L 0.921875 0 L 0.921875 -9.5 Z M 3.3125 -9.5 "/></g></g></g></svg>