<svg xmlns="http://www.w3.org/2000/svg" xmlns:xlink="http://www.w3.org/1999/xlink" width="1623" zoomAndPan="magnify" viewBox="0 0 1217.25 711.749979" height="949" preserveAspectRatio="xMidYMid meet" version="1.0"><defs><g/><clipPath id="90011ac49c"><path d="M 0 0.09375 L 1216.5 0.09375 L 1216.5 711.40625 L 0 711.40625 Z M 0 0.09375 " clip-rule="nonzero"/></clipPath><clipPath id="fd12d48243"><path d="M 1046 0.09375 L 1192 0.09375 L 1192 194 L 1046 194 Z M 1046 0.09375 " clip-rule="nonzero"/></clipPath><clipPath id="29db962688"><path d="M 48 258.777344 L 143 258.777344 L 143 353 L 48 353 Z M 48 258.777344 " clip-rule="nonzero"/></clipPath><clipPath id="b7dc8446c4"><path d="M 15 352 L 178 352 L 178 452.90625 L 15 452.90625 Z M 15 352 " clip-rule="nonzero"/></clipPath><clipPath id="efc525d066"><path d="M 567 242.828125 L 736 242.828125 L 736 466.1875 L 567 466.1875 Z M 567 242.828125 " clip-rule="nonzero"/></clipPath><clipPath id="f2af087742"><path d="M 1046 517.460938 L 1192 517.460938 L 1192 711.40625 L 1046 711.40625 Z M 1046 517.460938 " clip-rule="nonzero"/></clipPath></defs><g clip-path="url(#90011ac49c)"><path fill="#ffffff" d="M 0 0.09375 L 1216.5 0.09375 L 1216.5 711.40625 L 0 711.40625 Z M 0 0.09375 " fill-opacity="1" fill-rule="nonzero"/></g><g clip-path="url(#fd12d48243)"><path fill="#c759b9" d="M 1064.753906 193.992188 L 1173.820312 193.992188 C 1174.417969 193.992188 1175.011719 193.960938 1175.605469 193.902344 C 1176.195312 193.84375 1176.785156 193.757812 1177.367188 193.640625 C 1177.953125 193.523438 1178.527344 193.378906 1179.097656 193.207031 C 1179.667969 193.035156 1180.226562 192.835938 1180.777344 192.605469 C 1181.328125 192.378906 1181.867188 192.125 1182.390625 191.84375 C 1182.914062 191.5625 1183.425781 191.257812 1183.921875 190.925781 C 1184.414062 190.597656 1184.894531 190.242188 1185.355469 189.863281 C 1185.8125 189.488281 1186.253906 189.085938 1186.675781 188.667969 C 1187.097656 188.246094 1187.496094 187.804688 1187.875 187.34375 C 1188.25 186.882812 1188.605469 186.40625 1188.9375 185.910156 C 1189.265625 185.417969 1189.574219 184.90625 1189.851562 184.382812 C 1190.132812 183.855469 1190.386719 183.320312 1190.617188 182.769531 C 1190.84375 182.21875 1191.042969 181.660156 1191.21875 181.089844 C 1191.390625 180.519531 1191.535156 179.941406 1191.652344 179.359375 C 1191.765625 178.773438 1191.855469 178.1875 1191.914062 177.59375 C 1191.96875 177 1192 176.40625 1192 175.8125 L 1192 56.628906 C 1192 54.210938 1191.539062 51.890625 1190.617188 49.65625 C 1189.691406 47.425781 1188.375 45.457031 1186.667969 43.75 L 1148.34375 5.425781 C 1146.636719 3.71875 1144.667969 2.402344 1142.4375 1.476562 C 1140.203125 0.554688 1137.882812 0.09375 1135.46875 0.09375 L 1064.753906 0.09375 C 1064.160156 0.09375 1063.566406 0.125 1062.972656 0.183594 C 1062.382812 0.238281 1061.792969 0.328125 1061.210938 0.445312 C 1060.625 0.558594 1060.046875 0.703125 1059.480469 0.875 C 1058.910156 1.050781 1058.347656 1.25 1057.800781 1.476562 C 1057.25 1.707031 1056.710938 1.960938 1056.1875 2.242188 C 1055.660156 2.519531 1055.152344 2.828125 1054.65625 3.15625 C 1054.160156 3.488281 1053.683594 3.84375 1053.222656 4.21875 C 1052.761719 4.597656 1052.324219 4.996094 1051.902344 5.417969 C 1051.480469 5.839844 1051.082031 6.28125 1050.703125 6.738281 C 1050.324219 7.199219 1049.972656 7.679688 1049.640625 8.171875 C 1049.308594 8.667969 1049.003906 9.179688 1048.722656 9.703125 C 1048.445312 10.226562 1048.1875 10.765625 1047.960938 11.316406 C 1047.734375 11.867188 1047.535156 12.425781 1047.359375 12.996094 C 1047.1875 13.566406 1047.042969 14.140625 1046.925781 14.726562 C 1046.8125 15.308594 1046.722656 15.898438 1046.664062 16.488281 C 1046.605469 17.082031 1046.578125 17.675781 1046.578125 18.273438 L 1046.578125 175.8125 C 1046.578125 176.40625 1046.605469 177 1046.664062 177.59375 C 1046.722656 178.1875 1046.8125 178.773438 1046.925781 179.359375 C 1047.042969 179.941406 1047.1875 180.519531 1047.359375 181.089844 C 1047.53125 181.660156 1047.734375 182.21875 1047.960938 182.769531 C 1048.1875 183.320312 1048.445312 183.855469 1048.722656 184.382812 C 1049.003906 184.90625 1049.308594 185.417969 1049.640625 185.910156 C 1049.972656 186.40625 1050.324219 186.882812 1050.703125 187.34375 C 1051.082031 187.804688 1051.480469 188.246094 1051.902344 188.667969 C 1052.324219 189.085938 1052.761719 189.488281 1053.222656 189.863281 C 1053.683594 190.242188 1054.160156 190.597656 1054.65625 190.925781 C 1055.152344 191.257812 1055.660156 191.5625 1056.1875 191.84375 C 1056.710938 192.125 1057.25 192.378906 1057.800781 192.605469 C 1058.347656 192.835938 1058.910156 193.035156 1059.480469 193.207031 C 1060.046875 193.378906 1060.625 193.523438 1061.210938 193.640625 C 1061.792969 193.757812 1062.382812 193.84375 1062.972656 193.902344 C 1063.566406 193.960938 1064.160156 193.992188 1064.753906 193.992188 Z M 1171.308594 45.539062 L 1152.613281 45.539062 C 1152.214844 45.539062 1151.824219 45.5 1151.433594 45.421875 C 1151.042969 45.34375 1150.664062 45.230469 1150.296875 45.078125 C 1149.929688 44.925781 1149.578125 44.738281 1149.25 44.515625 C 1148.917969 44.296875 1148.613281 44.046875 1148.328125 43.765625 C 1148.046875 43.484375 1147.796875 43.175781 1147.578125 42.84375 C 1147.355469 42.515625 1147.167969 42.164062 1147.015625 41.796875 C 1146.863281 41.429688 1146.75 41.050781 1146.671875 40.660156 C 1146.59375 40.269531 1146.554688 39.878906 1146.554688 39.480469 L 1146.554688 20.785156 Z M 1058.695312 18.273438 C 1058.695312 17.875 1058.734375 17.480469 1058.8125 17.089844 C 1058.890625 16.699219 1059.003906 16.320312 1059.15625 15.953125 C 1059.308594 15.585938 1059.496094 15.238281 1059.71875 14.90625 C 1059.9375 14.574219 1060.191406 14.269531 1060.472656 13.988281 C 1060.753906 13.707031 1061.058594 13.453125 1061.390625 13.234375 C 1061.71875 13.011719 1062.070312 12.828125 1062.4375 12.675781 C 1062.804688 12.523438 1063.183594 12.40625 1063.574219 12.328125 C 1063.964844 12.25 1064.359375 12.210938 1064.753906 12.210938 L 1134.4375 12.210938 L 1134.4375 39.480469 C 1134.4375 40.074219 1134.464844 40.667969 1134.523438 41.261719 C 1134.582031 41.855469 1134.671875 42.441406 1134.785156 43.027344 C 1134.902344 43.609375 1135.046875 44.1875 1135.21875 44.757812 C 1135.390625 45.324219 1135.59375 45.886719 1135.820312 46.4375 C 1136.046875 46.984375 1136.300781 47.523438 1136.582031 48.046875 C 1136.863281 48.574219 1137.167969 49.082031 1137.5 49.578125 C 1137.832031 50.074219 1138.183594 50.550781 1138.5625 51.011719 C 1138.941406 51.472656 1139.339844 51.910156 1139.761719 52.332031 C 1140.183594 52.753906 1140.621094 53.152344 1141.082031 53.53125 C 1141.542969 53.910156 1142.019531 54.261719 1142.515625 54.59375 C 1143.011719 54.925781 1143.519531 55.230469 1144.046875 55.511719 C 1144.570312 55.792969 1145.109375 56.046875 1145.660156 56.273438 C 1146.207031 56.5 1146.769531 56.703125 1147.335938 56.875 C 1147.90625 57.046875 1148.484375 57.191406 1149.066406 57.308594 C 1149.652344 57.425781 1150.242188 57.511719 1150.832031 57.570312 C 1151.425781 57.628906 1152.019531 57.65625 1152.613281 57.65625 L 1179.882812 57.65625 L 1179.882812 175.8125 C 1179.882812 176.210938 1179.84375 176.605469 1179.765625 176.996094 C 1179.6875 177.386719 1179.570312 177.765625 1179.421875 178.132812 C 1179.269531 178.5 1179.082031 178.847656 1178.859375 179.179688 C 1178.640625 179.507812 1178.386719 179.816406 1178.105469 180.097656 C 1177.824219 180.378906 1177.519531 180.628906 1177.1875 180.851562 C 1176.859375 181.070312 1176.507812 181.257812 1176.140625 181.410156 C 1175.773438 181.5625 1175.394531 181.679688 1175.003906 181.753906 C 1174.613281 181.832031 1174.21875 181.871094 1173.820312 181.871094 L 1064.753906 181.871094 C 1064.359375 181.871094 1063.964844 181.832031 1063.574219 181.753906 C 1063.183594 181.679688 1062.804688 181.5625 1062.4375 181.410156 C 1062.070312 181.257812 1061.71875 181.070312 1061.390625 180.851562 C 1061.058594 180.628906 1060.753906 180.378906 1060.472656 180.097656 C 1060.191406 179.816406 1059.9375 179.507812 1059.71875 179.179688 C 1059.496094 178.847656 1059.308594 178.5 1059.15625 178.132812 C 1059.003906 177.765625 1058.890625 177.386719 1058.8125 176.996094 C 1058.734375 176.605469 1058.695312 176.210938 1058.695312 175.8125 Z M 1058.695312 18.273438 " fill-opacity="1" fill-rule="nonzero"/></g><path stroke-linecap="butt" transform="matrix(0.749528, -0.0039835, 0.0039835, 0.749528, 193.89757, 355.729878)" fill="none" stroke-linejoin="miter" d="M 2.0022 2.002267 L 374.320069 2.000605 " stroke="#c759b9" stroke-width="4" stroke-opacity="1" stroke-miterlimit="4"/><path stroke-linecap="round" transform="matrix(0.749528, -0.0039835, 0.0039835, 0.749528, 193.89757, 355.729878)" fill="none" stroke-linejoin="round" d="M 9.997454 -4.000715 L 2.0022 2.002267 L 10.001416 8.001658 " stroke="#c759b9" stroke-width="4" stroke-opacity="1" stroke-miterlimit="4"/><path stroke-linecap="round" transform="matrix(0.749528, -0.0039835, 0.0039835, 0.749528, 193.89757, 355.729878)" fill="none" stroke-linejoin="round" d="M 366.320853 -3.998786 L 374.320069 2.000605 L 366.319631 7.998348 " stroke="#c759b9" stroke-width="4" stroke-opacity="1" stroke-miterlimit="4"/><g clip-path="url(#29db962688)"><path fill="#c759b9" d="M 95.566406 352.175781 C 108.398438 352.175781 119.507812 347.574219 128.585938 338.496094 C 137.664062 329.417969 142.269531 318.308594 142.269531 305.476562 C 142.269531 292.648438 137.664062 281.539062 128.585938 272.457031 C 119.507812 263.378906 108.394531 258.777344 95.566406 258.777344 C 82.734375 258.777344 71.625 263.378906 62.546875 272.457031 C 53.46875 281.535156 48.863281 292.644531 48.863281 305.476562 C 48.863281 318.308594 53.46875 329.417969 62.546875 338.496094 C 71.628906 347.574219 82.738281 352.175781 95.566406 352.175781 Z M 70.582031 280.492188 C 77.546875 273.527344 85.71875 270.140625 95.566406 270.140625 C 105.410156 270.140625 113.585938 273.527344 120.550781 280.492188 C 127.519531 287.460938 130.90625 295.632812 130.90625 305.476562 C 130.90625 315.320312 127.519531 323.492188 120.550781 330.460938 C 113.585938 337.429688 105.410156 340.816406 95.566406 340.816406 C 85.722656 340.816406 77.550781 337.425781 70.582031 330.460938 C 63.613281 323.496094 60.226562 315.320312 60.226562 305.476562 C 60.226562 295.632812 63.613281 287.460938 70.582031 280.492188 Z M 70.582031 280.492188 " fill-opacity="1" fill-rule="nonzero"/></g><g clip-path="url(#b7dc8446c4)"><path fill="#c759b9" d="M 177.28125 407.875 C 177.019531 404.09375 176.492188 399.972656 175.710938 395.621094 C 174.925781 391.238281 173.910156 387.09375 172.699219 383.304688 C 171.441406 379.386719 169.742188 375.519531 167.632812 371.816406 C 165.449219 367.96875 162.878906 364.621094 159.996094 361.863281 C 156.984375 358.980469 153.292969 356.664062 149.027344 354.972656 C 144.777344 353.289062 140.066406 352.4375 135.027344 352.4375 C 133.046875 352.4375 131.132812 353.25 127.433594 355.65625 C 125.160156 357.140625 122.5 358.855469 119.527344 360.753906 C 116.988281 362.371094 113.546875 363.890625 109.296875 365.261719 C 105.152344 366.605469 100.941406 367.285156 96.785156 367.285156 C 92.628906 367.285156 88.417969 366.605469 84.269531 365.261719 C 80.023438 363.890625 76.582031 362.375 74.046875 360.757812 C 71.105469 358.875 68.441406 357.160156 66.132812 355.65625 C 62.4375 353.25 60.523438 352.4375 58.546875 352.4375 C 53.503906 352.4375 48.792969 353.289062 44.542969 354.972656 C 40.28125 356.660156 36.589844 358.980469 33.574219 361.867188 C 30.691406 364.621094 28.125 367.972656 25.941406 371.816406 C 23.835938 375.519531 22.128906 379.386719 20.875 383.304688 C 19.664062 387.09375 18.652344 391.238281 17.863281 395.621094 C 17.082031 399.96875 16.554688 404.089844 16.292969 407.878906 C 16.035156 411.582031 15.90625 415.433594 15.90625 419.328125 C 15.90625 429.449219 19.125 437.644531 25.46875 443.6875 C 31.734375 449.648438 40.023438 452.671875 50.109375 452.671875 L 143.472656 452.671875 C 153.550781 452.671875 161.84375 449.648438 168.109375 443.6875 C 174.457031 437.648438 177.675781 429.449219 177.675781 419.328125 C 177.671875 415.417969 177.539062 411.566406 177.28125 407.875 Z M 160.277344 435.453125 C 156.136719 439.394531 150.636719 441.308594 143.46875 441.308594 L 50.109375 441.308594 C 42.9375 441.308594 37.441406 439.394531 33.300781 435.457031 C 29.242188 431.589844 27.269531 426.3125 27.269531 419.328125 C 27.269531 415.695312 27.386719 412.105469 27.628906 408.664062 C 27.863281 405.285156 28.339844 401.574219 29.046875 397.628906 C 29.746094 393.734375 30.636719 390.078125 31.699219 386.769531 C 32.714844 383.597656 34.101562 380.453125 35.820312 377.429688 C 37.460938 374.542969 39.347656 372.070312 41.429688 370.074219 C 43.378906 368.207031 45.832031 366.683594 48.726562 365.539062 C 51.402344 364.476562 54.410156 363.898438 57.675781 363.8125 C 58.074219 364.023438 58.78125 364.425781 59.929688 365.175781 C 62.265625 366.695312 64.957031 368.433594 67.933594 370.335938 C 71.289062 372.472656 75.613281 374.40625 80.777344 376.074219 C 86.054688 377.78125 91.441406 378.648438 96.785156 378.648438 C 102.128906 378.648438 107.515625 377.78125 112.792969 376.074219 C 117.960938 374.402344 122.28125 372.472656 125.640625 370.332031 C 128.6875 368.386719 131.304688 366.699219 133.640625 365.175781 C 134.789062 364.429688 135.496094 364.023438 135.894531 363.8125 C 139.160156 363.898438 142.167969 364.476562 144.847656 365.539062 C 147.738281 366.683594 150.195312 368.210938 152.140625 370.074219 C 154.226562 372.066406 156.113281 374.542969 157.753906 377.429688 C 159.472656 380.453125 160.863281 383.597656 161.875 386.769531 C 162.9375 390.082031 163.828125 393.734375 164.527344 397.628906 C 165.234375 401.578125 165.714844 405.292969 165.949219 408.664062 L 165.949219 408.667969 C 166.1875 412.097656 166.308594 415.683594 166.3125 419.328125 C 166.308594 426.316406 164.335938 431.589844 160.277344 435.453125 Z M 160.277344 435.453125 " fill-opacity="1" fill-rule="nonzero"/></g><g fill="#72238f" fill-opacity="1"><g transform="translate(78.256467, 485.089946)"><g><path d="M 10.8125 -12.78125 L 10.8125 -4.359375 C 10.8125 -2.960938 10.375 -1.859375 9.5 -1.046875 C 8.625 -0.234375 7.429688 0.171875 5.921875 0.171875 C 4.421875 0.171875 3.234375 -0.222656 2.359375 -1.015625 C 1.484375 -1.804688 1.035156 -2.890625 1.015625 -4.265625 L 1.015625 -12.78125 L 3.65625 -12.78125 L 3.65625 -4.34375 C 3.65625 -3.507812 3.851562 -2.898438 4.25 -2.515625 C 4.65625 -2.128906 5.210938 -1.9375 5.921875 -1.9375 C 7.398438 -1.9375 8.148438 -2.71875 8.171875 -4.28125 L 8.171875 -12.78125 Z M 10.8125 -12.78125 "/></g></g><g transform="translate(90.096828, 485.089946)"><g><path d="M 6.125 -2.625 C 6.125 -2.9375 5.96875 -3.179688 5.65625 -3.359375 C 5.351562 -3.535156 4.863281 -3.695312 4.1875 -3.84375 C 1.925781 -4.3125 0.796875 -5.269531 0.796875 -6.71875 C 0.796875 -7.5625 1.144531 -8.265625 1.84375 -8.828125 C 2.539062 -9.390625 3.453125 -9.671875 4.578125 -9.671875 C 5.785156 -9.671875 6.75 -9.382812 7.46875 -8.8125 C 8.195312 -8.25 8.5625 -7.515625 8.5625 -6.609375 L 6.03125 -6.609375 C 6.03125 -6.972656 5.910156 -7.273438 5.671875 -7.515625 C 5.441406 -7.753906 5.078125 -7.875 4.578125 -7.875 C 4.148438 -7.875 3.816406 -7.773438 3.578125 -7.578125 C 3.347656 -7.378906 3.234375 -7.132812 3.234375 -6.84375 C 3.234375 -6.5625 3.363281 -6.332031 3.625 -6.15625 C 3.894531 -5.988281 4.34375 -5.84375 4.96875 -5.71875 C 5.601562 -5.59375 6.140625 -5.445312 6.578125 -5.28125 C 7.921875 -4.789062 8.59375 -3.941406 8.59375 -2.734375 C 8.59375 -1.867188 8.21875 -1.164062 7.46875 -0.625 C 6.726562 -0.09375 5.769531 0.171875 4.59375 0.171875 C 3.789062 0.171875 3.082031 0.03125 2.46875 -0.25 C 1.851562 -0.53125 1.367188 -0.914062 1.015625 -1.40625 C 0.660156 -1.90625 0.484375 -2.441406 0.484375 -3.015625 L 2.890625 -3.015625 C 2.921875 -2.566406 3.085938 -2.222656 3.390625 -1.984375 C 3.703125 -1.742188 4.117188 -1.625 4.640625 -1.625 C 5.128906 -1.625 5.5 -1.710938 5.75 -1.890625 C 6 -2.078125 6.125 -2.320312 6.125 -2.625 Z M 6.125 -2.625 "/></g></g><g transform="translate(99.346011, 485.089946)"><g><path d="M 5.34375 0.171875 C 3.957031 0.171875 2.820312 -0.253906 1.9375 -1.109375 C 1.0625 -1.960938 0.625 -3.097656 0.625 -4.515625 L 0.625 -4.765625 C 0.625 -5.722656 0.804688 -6.578125 1.171875 -7.328125 C 1.546875 -8.078125 2.070312 -8.65625 2.75 -9.0625 C 3.425781 -9.46875 4.195312 -9.671875 5.0625 -9.671875 C 6.363281 -9.671875 7.382812 -9.257812 8.125 -8.4375 C 8.875 -7.625 9.25 -6.46875 9.25 -4.96875 L 9.25 -3.921875 L 3.203125 -3.921875 C 3.285156 -3.304688 3.53125 -2.8125 3.9375 -2.4375 C 4.351562 -2.0625 4.878906 -1.875 5.515625 -1.875 C 6.492188 -1.875 7.257812 -2.226562 7.8125 -2.9375 L 9.046875 -1.53125 C 8.671875 -1 8.15625 -0.582031 7.5 -0.28125 C 6.851562 0.0195312 6.132812 0.171875 5.34375 0.171875 Z M 5.0625 -7.625 C 4.550781 -7.625 4.140625 -7.453125 3.828125 -7.109375 C 3.515625 -6.773438 3.316406 -6.289062 3.234375 -5.65625 L 6.765625 -5.65625 L 6.765625 -5.859375 C 6.753906 -6.421875 6.597656 -6.851562 6.296875 -7.15625 C 6.003906 -7.46875 5.59375 -7.625 5.0625 -7.625 Z M 5.0625 -7.625 "/></g></g><g transform="translate(109.069512, 485.089946)"><g><path d="M 6.3125 -7.125 C 5.96875 -7.164062 5.664062 -7.1875 5.40625 -7.1875 C 4.4375 -7.1875 3.804688 -6.863281 3.515625 -6.21875 L 3.515625 0 L 0.96875 0 L 0.96875 -9.5 L 3.375 -9.5 L 3.4375 -8.375 C 3.945312 -9.238281 4.65625 -9.671875 5.5625 -9.671875 C 5.84375 -9.671875 6.101562 -9.632812 6.34375 -9.5625 Z M 6.3125 -7.125 "/></g></g></g><g clip-path="url(#efc525d066)"><path fill="#c759b9" d="M 588.789062 466.082031 L 714.371094 466.082031 C 715.054688 466.082031 715.742188 466.050781 716.421875 465.984375 C 717.105469 465.914062 717.78125 465.816406 718.453125 465.679688 C 719.125 465.546875 719.789062 465.382812 720.445312 465.183594 C 721.101562 464.984375 721.746094 464.753906 722.378906 464.492188 C 723.015625 464.226562 723.632812 463.933594 724.238281 463.613281 C 724.84375 463.289062 725.429688 462.9375 726 462.554688 C 726.570312 462.175781 727.117188 461.769531 727.648438 461.332031 C 728.179688 460.898438 728.6875 460.4375 729.171875 459.953125 C 729.65625 459.46875 730.117188 458.960938 730.550781 458.429688 C 730.984375 457.902344 731.394531 457.351562 731.773438 456.78125 C 732.15625 456.210938 732.507812 455.625 732.828125 455.019531 C 733.152344 454.414062 733.445312 453.796875 733.707031 453.164062 C 733.96875 452.53125 734.199219 451.886719 734.398438 451.230469 C 734.597656 450.574219 734.765625 449.910156 734.898438 449.238281 C 735.03125 448.5625 735.132812 447.886719 735.199219 447.203125 C 735.269531 446.523438 735.300781 445.839844 735.300781 445.152344 L 735.300781 307.921875 C 735.300781 306.542969 735.167969 305.179688 734.902344 303.828125 C 734.632812 302.480469 734.234375 301.167969 733.707031 299.894531 C 733.183594 298.625 732.535156 297.414062 731.769531 296.269531 C 731.003906 295.125 730.136719 294.066406 729.160156 293.09375 L 685.035156 248.964844 C 684.0625 247.992188 683.003906 247.121094 681.855469 246.355469 C 680.710938 245.59375 679.503906 244.945312 678.234375 244.417969 C 676.960938 243.890625 675.648438 243.496094 674.300781 243.226562 C 672.949219 242.960938 671.585938 242.824219 670.207031 242.828125 L 588.789062 242.828125 C 588.101562 242.828125 587.417969 242.859375 586.738281 242.925781 C 586.054688 242.996094 585.378906 243.09375 584.707031 243.230469 C 584.035156 243.363281 583.371094 243.527344 582.714844 243.726562 C 582.058594 243.925781 581.414062 244.15625 580.777344 244.421875 C 580.144531 244.683594 579.527344 244.976562 578.921875 245.296875 C 578.316406 245.621094 577.730469 245.972656 577.160156 246.355469 C 576.589844 246.734375 576.039062 247.144531 575.511719 247.578125 C 574.980469 248.011719 574.472656 248.472656 573.988281 248.957031 C 573.503906 249.441406 573.042969 249.949219 572.609375 250.480469 C 572.175781 251.007812 571.765625 251.558594 571.386719 252.128906 C 571.003906 252.699219 570.652344 253.285156 570.328125 253.890625 C 570.007812 254.496094 569.714844 255.113281 569.453125 255.746094 C 569.191406 256.378906 568.957031 257.023438 568.761719 257.679688 C 568.5625 258.335938 568.394531 259 568.261719 259.671875 C 568.128906 260.347656 568.027344 261.023438 567.960938 261.707031 C 567.890625 262.386719 567.859375 263.070312 567.859375 263.757812 L 567.859375 445.152344 C 567.859375 445.839844 567.890625 446.523438 567.960938 447.203125 C 568.027344 447.886719 568.128906 448.5625 568.261719 449.238281 C 568.394531 449.910156 568.5625 450.574219 568.761719 451.230469 C 568.957031 451.886719 569.191406 452.53125 569.453125 453.164062 C 569.714844 453.796875 570.007812 454.414062 570.328125 455.019531 C 570.652344 455.625 571.003906 456.210938 571.386719 456.78125 C 571.765625 457.351562 572.175781 457.902344 572.609375 458.429688 C 573.042969 458.960938 573.503906 459.46875 573.988281 459.953125 C 574.472656 460.4375 574.980469 460.898438 575.511719 461.332031 C 576.039062 461.769531 576.589844 462.175781 577.160156 462.554688 C 577.730469 462.9375 578.316406 463.289062 578.921875 463.613281 C 579.527344 463.933594 580.144531 464.226562 580.777344 464.492188 C 581.414062 464.753906 582.058594 464.984375 582.714844 465.183594 C 583.371094 465.382812 584.035156 465.546875 584.707031 465.679688 C 585.378906 465.816406 586.054688 465.914062 586.738281 465.984375 C 587.417969 466.050781 588.101562 466.082031 588.789062 466.082031 Z M 711.476562 295.152344 L 689.953125 295.152344 C 689.496094 295.152344 689.039062 295.109375 688.589844 295.019531 C 688.140625 294.929688 687.707031 294.796875 687.28125 294.621094 C 686.859375 294.445312 686.457031 294.230469 686.074219 293.976562 C 685.695312 293.722656 685.34375 293.433594 685.019531 293.109375 C 684.695312 292.785156 684.40625 292.433594 684.152344 292.050781 C 683.898438 291.671875 683.683594 291.269531 683.507812 290.847656 C 683.332031 290.421875 683.199219 289.984375 683.109375 289.535156 C 683.019531 289.085938 682.976562 288.632812 682.976562 288.175781 L 682.976562 266.652344 Z M 581.8125 263.757812 C 581.8125 263.300781 581.855469 262.84375 581.945312 262.394531 C 582.035156 261.945312 582.167969 261.511719 582.34375 261.085938 C 582.519531 260.664062 582.734375 260.261719 582.988281 259.882812 C 583.242188 259.5 583.53125 259.148438 583.855469 258.824219 C 584.179688 258.5 584.53125 258.210938 584.914062 257.957031 C 585.292969 257.703125 585.695312 257.488281 586.117188 257.3125 C 586.542969 257.136719 586.980469 257.003906 587.429688 256.914062 C 587.878906 256.824219 588.332031 256.78125 588.789062 256.78125 L 669.023438 256.78125 L 669.023438 288.175781 C 669.023438 288.859375 669.054688 289.546875 669.121094 290.226562 C 669.191406 290.910156 669.289062 291.585938 669.425781 292.257812 C 669.558594 292.929688 669.722656 293.59375 669.921875 294.25 C 670.121094 294.90625 670.351562 295.550781 670.613281 296.183594 C 670.878906 296.820312 671.171875 297.4375 671.492188 298.042969 C 671.816406 298.648438 672.167969 299.234375 672.550781 299.804688 C 672.929688 300.375 673.339844 300.925781 673.773438 301.453125 C 674.207031 301.984375 674.667969 302.492188 675.152344 302.976562 C 675.636719 303.460938 676.144531 303.921875 676.675781 304.355469 C 677.203125 304.789062 677.753906 305.199219 678.324219 305.578125 C 678.894531 305.960938 679.480469 306.3125 680.085938 306.632812 C 680.691406 306.957031 681.308594 307.25 681.941406 307.511719 C 682.574219 307.773438 683.21875 308.007812 683.875 308.203125 C 684.53125 308.402344 685.195312 308.570312 685.867188 308.703125 C 686.542969 308.835938 687.21875 308.9375 687.902344 309.003906 C 688.582031 309.074219 689.265625 309.105469 689.953125 309.105469 L 721.347656 309.105469 L 721.347656 445.152344 C 721.347656 445.613281 721.304688 446.066406 721.214844 446.515625 C 721.125 446.964844 720.992188 447.398438 720.816406 447.824219 C 720.640625 448.246094 720.425781 448.648438 720.171875 449.03125 C 719.917969 449.410156 719.628906 449.761719 719.304688 450.085938 C 718.980469 450.410156 718.628906 450.699219 718.246094 450.953125 C 717.867188 451.207031 717.464844 451.421875 717.039062 451.597656 C 716.617188 451.773438 716.179688 451.90625 715.730469 451.996094 C 715.28125 452.085938 714.828125 452.128906 714.371094 452.128906 L 588.789062 452.128906 C 588.332031 452.128906 587.878906 452.085938 587.429688 451.996094 C 586.980469 451.90625 586.542969 451.773438 586.117188 451.597656 C 585.695312 451.421875 585.292969 451.207031 584.914062 450.953125 C 584.53125 450.699219 584.179688 450.410156 583.855469 450.085938 C 583.53125 449.761719 583.242188 449.410156 582.988281 449.03125 C 582.734375 448.648438 582.519531 448.246094 582.34375 447.824219 C 582.167969 447.398438 582.035156 446.964844 581.945312 446.515625 C 581.855469 446.066406 581.8125 445.613281 581.8125 445.152344 Z M 581.8125 263.757812 " fill-opacity="1" fill-rule="nonzero"/></g><g fill="#72238f" fill-opacity="1"><g transform="translate(625.658343, 365.047193)"><g><path d="M 7.765625 -3.359375 C 7.765625 -3.847656 7.585938 -4.226562 7.234375 -4.5 C 6.890625 -4.769531 6.257812 -5.050781 5.34375 -5.34375 C 4.4375 -5.632812 3.710938 -5.925781 3.171875 -6.21875 C 1.722656 -7 1 -8.054688 1 -9.390625 C 1 -10.078125 1.191406 -10.691406 1.578125 -11.234375 C 1.972656 -11.773438 2.535156 -12.195312 3.265625 -12.5 C 3.992188 -12.8125 4.8125 -12.96875 5.71875 -12.96875 C 6.632812 -12.96875 7.445312 -12.800781 8.15625 -12.46875 C 8.875 -12.132812 9.429688 -11.664062 9.828125 -11.0625 C 10.222656 -10.457031 10.421875 -9.773438 10.421875 -9.015625 L 7.78125 -9.015625 C 7.78125 -9.597656 7.59375 -10.050781 7.21875 -10.375 C 6.851562 -10.695312 6.335938 -10.859375 5.671875 -10.859375 C 5.023438 -10.859375 4.523438 -10.722656 4.171875 -10.453125 C 3.816406 -10.179688 3.640625 -9.820312 3.640625 -9.375 C 3.640625 -8.957031 3.847656 -8.609375 4.265625 -8.328125 C 4.679688 -8.046875 5.296875 -7.785156 6.109375 -7.546875 C 7.609375 -7.085938 8.703125 -6.523438 9.390625 -5.859375 C 10.078125 -5.191406 10.421875 -4.363281 10.421875 -3.375 C 10.421875 -2.269531 10 -1.398438 9.15625 -0.765625 C 8.320312 -0.140625 7.195312 0.171875 5.78125 0.171875 C 4.789062 0.171875 3.890625 -0.00390625 3.078125 -0.359375 C 2.273438 -0.722656 1.660156 -1.21875 1.234375 -1.84375 C 0.816406 -2.46875 0.609375 -3.191406 0.609375 -4.015625 L 3.25 -4.015625 C 3.25 -2.609375 4.09375 -1.90625 5.78125 -1.90625 C 6.40625 -1.90625 6.890625 -2.03125 7.234375 -2.28125 C 7.585938 -2.539062 7.765625 -2.898438 7.765625 -3.359375 Z M 7.765625 -3.359375 "/></g></g><g transform="translate(636.716958, 365.047193)"><g><path d="M 4.015625 -11.84375 L 4.015625 -9.5 L 5.640625 -9.5 L 5.640625 -7.640625 L 4.015625 -7.640625 L 4.015625 -2.890625 C 4.015625 -2.546875 4.082031 -2.296875 4.21875 -2.140625 C 4.351562 -1.992188 4.609375 -1.921875 4.984375 -1.921875 C 5.265625 -1.921875 5.515625 -1.9375 5.734375 -1.96875 L 5.734375 -0.046875 C 5.234375 0.0976562 4.722656 0.171875 4.203125 0.171875 C 2.421875 0.171875 1.507812 -0.722656 1.46875 -2.515625 L 1.46875 -7.640625 L 0.09375 -7.640625 L 0.09375 -9.5 L 1.46875 -9.5 L 1.46875 -11.84375 Z M 4.015625 -11.84375 "/></g></g><g transform="translate(642.795244, 365.047193)"><g><path d="M 6.484375 0 C 6.367188 -0.226562 6.28125 -0.515625 6.21875 -0.859375 C 5.601562 -0.171875 4.804688 0.171875 3.828125 0.171875 C 2.898438 0.171875 2.128906 -0.09375 1.515625 -0.625 C 0.898438 -1.164062 0.59375 -1.847656 0.59375 -2.671875 C 0.59375 -3.679688 0.96875 -4.453125 1.71875 -4.984375 C 2.46875 -5.523438 3.546875 -5.796875 4.953125 -5.796875 L 6.125 -5.796875 L 6.125 -6.34375 C 6.125 -6.78125 6.007812 -7.128906 5.78125 -7.390625 C 5.550781 -7.660156 5.195312 -7.796875 4.71875 -7.796875 C 4.289062 -7.796875 3.953125 -7.691406 3.703125 -7.484375 C 3.460938 -7.285156 3.34375 -7.003906 3.34375 -6.640625 L 0.8125 -6.640625 C 0.8125 -7.191406 0.976562 -7.703125 1.3125 -8.171875 C 1.65625 -8.640625 2.132812 -9.003906 2.75 -9.265625 C 3.375 -9.535156 4.070312 -9.671875 4.84375 -9.671875 C 6.019531 -9.671875 6.953125 -9.375 7.640625 -8.78125 C 8.328125 -8.195312 8.671875 -7.375 8.671875 -6.3125 L 8.671875 -2.203125 C 8.671875 -1.296875 8.796875 -0.613281 9.046875 -0.15625 L 9.046875 0 Z M 4.375 -1.765625 C 4.75 -1.765625 5.09375 -1.847656 5.40625 -2.015625 C 5.726562 -2.179688 5.96875 -2.40625 6.125 -2.6875 L 6.125 -4.328125 L 5.171875 -4.328125 C 3.898438 -4.328125 3.222656 -3.882812 3.140625 -3 L 3.140625 -2.859375 C 3.140625 -2.535156 3.25 -2.269531 3.46875 -2.0625 C 3.6875 -1.863281 3.988281 -1.765625 4.375 -1.765625 Z M 4.375 -1.765625 "/></g></g><g transform="translate(652.439692, 365.047193)"><g><path d="M 4.015625 -11.84375 L 4.015625 -9.5 L 5.640625 -9.5 L 5.640625 -7.640625 L 4.015625 -7.640625 L 4.015625 -2.890625 C 4.015625 -2.546875 4.082031 -2.296875 4.21875 -2.140625 C 4.351562 -1.992188 4.609375 -1.921875 4.984375 -1.921875 C 5.265625 -1.921875 5.515625 -1.9375 5.734375 -1.96875 L 5.734375 -0.046875 C 5.234375 0.0976562 4.722656 0.171875 4.203125 0.171875 C 2.421875 0.171875 1.507812 -0.722656 1.46875 -2.515625 L 1.46875 -7.640625 L 0.09375 -7.640625 L 0.09375 -9.5 L 1.46875 -9.5 L 1.46875 -11.84375 Z M 4.015625 -11.84375 "/></g></g><g transform="translate(658.517978, 365.047193)"><g><path d="M 5.34375 0.171875 C 3.957031 0.171875 2.820312 -0.253906 1.9375 -1.109375 C 1.0625 -1.960938 0.625 -3.097656 0.625 -4.515625 L 0.625 -4.765625 C 0.625 -5.722656 0.804688 -6.578125 1.171875 -7.328125 C 1.546875 -8.078125 2.070312 -8.65625 2.75 -9.0625 C 3.425781 -9.46875 4.195312 -9.671875 5.0625 -9.671875 C 6.363281 -9.671875 7.382812 -9.257812 8.125 -8.4375 C 8.875 -7.625 9.25 -6.46875 9.25 -4.96875 L 9.25 -3.921875 L 3.203125 -3.921875 C 3.285156 -3.304688 3.53125 -2.8125 3.9375 -2.4375 C 4.351562 -2.0625 4.878906 -1.875 5.515625 -1.875 C 6.492188 -1.875 7.257812 -2.226562 7.8125 -2.9375 L 9.046875 -1.53125 C 8.671875 -1 8.15625 -0.582031 7.5 -0.28125 C 6.851562 0.0195312 6.132812 0.171875 5.34375 0.171875 Z M 5.0625 -7.625 C 4.550781 -7.625 4.140625 -7.453125 3.828125 -7.109375 C 3.515625 -6.773438 3.316406 -6.289062 3.234375 -5.65625 L 6.765625 -5.65625 L 6.765625 -5.859375 C 6.753906 -6.421875 6.597656 -6.851562 6.296875 -7.15625 C 6.003906 -7.46875 5.59375 -7.625 5.0625 -7.625 Z M 5.0625 -7.625 "/></g></g><g transform="translate(668.241479, 365.047193)"><g><path d="M 6.125 -2.625 C 6.125 -2.9375 5.96875 -3.179688 5.65625 -3.359375 C 5.351562 -3.535156 4.863281 -3.695312 4.1875 -3.84375 C 1.925781 -4.3125 0.796875 -5.269531 0.796875 -6.71875 C 0.796875 -7.5625 1.144531 -8.265625 1.84375 -8.828125 C 2.539062 -9.390625 3.453125 -9.671875 4.578125 -9.671875 C 5.785156 -9.671875 6.75 -9.382812 7.46875 -8.8125 C 8.195312 -8.25 8.5625 -7.515625 8.5625 -6.609375 L 6.03125 -6.609375 C 6.03125 -6.972656 5.910156 -7.273438 5.671875 -7.515625 C 5.441406 -7.753906 5.078125 -7.875 4.578125 -7.875 C 4.148438 -7.875 3.816406 -7.773438 3.578125 -7.578125 C 3.347656 -7.378906 3.234375 -7.132812 3.234375 -6.84375 C 3.234375 -6.5625 3.363281 -6.332031 3.625 -6.15625 C 3.894531 -5.988281 4.34375 -5.84375 4.96875 -5.71875 C 5.601562 -5.59375 6.140625 -5.445312 6.578125 -5.28125 C 7.921875 -4.789062 8.59375 -3.941406 8.59375 -2.734375 C 8.59375 -1.867188 8.21875 -1.164062 7.46875 -0.625 C 6.726562 -0.09375 5.769531 0.171875 4.59375 0.171875 C 3.789062 0.171875 3.082031 0.03125 2.46875 -0.25 C 1.851562 -0.53125 1.367188 -0.914062 1.015625 -1.40625 C 0.660156 -1.90625 0.484375 -2.441406 0.484375 -3.015625 L 2.890625 -3.015625 C 2.921875 -2.566406 3.085938 -2.222656 3.390625 -1.984375 C 3.703125 -1.742188 4.117188 -1.625 4.640625 -1.625 C 5.128906 -1.625 5.5 -1.710938 5.75 -1.890625 C 6 -2.078125 6.125 -2.320312 6.125 -2.625 Z M 6.125 -2.625 "/></g></g></g><g fill="#72238f" fill-opacity="1"><g transform="translate(616.687308, 389.781952)"><g><path d="M 11.171875 -4.265625 C 11.078125 -2.890625 10.570312 -1.804688 9.65625 -1.015625 C 8.738281 -0.222656 7.53125 0.171875 6.03125 0.171875 C 4.394531 0.171875 3.101562 -0.378906 2.15625 -1.484375 C 1.21875 -2.585938 0.75 -4.101562 0.75 -6.03125 L 0.75 -6.8125 C 0.75 -8.039062 0.96875 -9.117188 1.40625 -10.046875 C 1.84375 -10.984375 2.460938 -11.703125 3.265625 -12.203125 C 4.066406 -12.710938 5 -12.96875 6.0625 -12.96875 C 7.539062 -12.96875 8.726562 -12.570312 9.625 -11.78125 C 10.53125 -10.988281 11.054688 -9.878906 11.203125 -8.453125 L 8.5625 -8.453125 C 8.5 -9.273438 8.269531 -9.867188 7.875 -10.234375 C 7.476562 -10.609375 6.875 -10.796875 6.0625 -10.796875 C 5.1875 -10.796875 4.53125 -10.476562 4.09375 -9.84375 C 3.65625 -9.21875 3.429688 -8.242188 3.421875 -6.921875 L 3.421875 -5.96875 C 3.421875 -4.582031 3.628906 -3.566406 4.046875 -2.921875 C 4.472656 -2.285156 5.132812 -1.96875 6.03125 -1.96875 C 6.84375 -1.96875 7.445312 -2.15625 7.84375 -2.53125 C 8.25 -2.90625 8.484375 -3.484375 8.546875 -4.265625 Z M 11.171875 -4.265625 "/></g></g><g transform="translate(628.4574, 389.781952)"><g><path d="M 0.578125 -4.84375 C 0.578125 -5.78125 0.757812 -6.617188 1.125 -7.359375 C 1.488281 -8.097656 2.007812 -8.664062 2.6875 -9.0625 C 3.375 -9.46875 4.164062 -9.671875 5.0625 -9.671875 C 6.34375 -9.671875 7.390625 -9.28125 8.203125 -8.5 C 9.015625 -7.71875 9.46875 -6.648438 9.5625 -5.296875 L 9.578125 -4.65625 C 9.578125 -3.195312 9.171875 -2.023438 8.359375 -1.140625 C 7.546875 -0.265625 6.453125 0.171875 5.078125 0.171875 C 3.710938 0.171875 2.617188 -0.265625 1.796875 -1.140625 C 0.984375 -2.015625 0.578125 -3.207031 0.578125 -4.71875 Z M 3.125 -4.65625 C 3.125 -3.75 3.289062 -3.054688 3.625 -2.578125 C 3.96875 -2.109375 4.453125 -1.875 5.078125 -1.875 C 5.691406 -1.875 6.171875 -2.109375 6.515625 -2.578125 C 6.867188 -3.046875 7.046875 -3.800781 7.046875 -4.84375 C 7.046875 -5.726562 6.867188 -6.410156 6.515625 -6.890625 C 6.171875 -7.378906 5.6875 -7.625 5.0625 -7.625 C 4.445312 -7.625 3.96875 -7.378906 3.625 -6.890625 C 3.289062 -6.410156 3.125 -5.664062 3.125 -4.65625 Z M 3.125 -4.65625 "/></g></g><g transform="translate(638.628866, 389.781952)"><g><path d="M 3.3125 -9.5 L 3.390625 -8.40625 C 4.066406 -9.25 4.976562 -9.671875 6.125 -9.671875 C 7.125 -9.671875 7.867188 -9.375 8.359375 -8.78125 C 8.859375 -8.195312 9.113281 -7.316406 9.125 -6.140625 L 9.125 0 L 6.59375 0 L 6.59375 -6.078125 C 6.59375 -6.617188 6.472656 -7.007812 6.234375 -7.25 C 6.003906 -7.488281 5.613281 -7.609375 5.0625 -7.609375 C 4.351562 -7.609375 3.816406 -7.304688 3.453125 -6.703125 L 3.453125 0 L 0.921875 0 L 0.921875 -9.5 Z M 3.3125 -9.5 "/></g></g><g transform="translate(648.703713, 389.781952)"><g><path d="M 4.015625 -11.84375 L 4.015625 -9.5 L 5.640625 -9.5 L 5.640625 -7.640625 L 4.015625 -7.640625 L 4.015625 -2.890625 C 4.015625 -2.546875 4.082031 -2.296875 4.21875 -2.140625 C 4.351562 -1.992188 4.609375 -1.921875 4.984375 -1.921875 C 5.265625 -1.921875 5.515625 -1.9375 5.734375 -1.96875 L 5.734375 -0.046875 C 5.234375 0.0976562 4.722656 0.171875 4.203125 0.171875 C 2.421875 0.171875 1.507812 -0.722656 1.46875 -2.515625 L 1.46875 -7.640625 L 0.09375 -7.640625 L 0.09375 -9.5 L 1.46875 -9.5 L 1.46875 -11.84375 Z M 4.015625 -11.84375 "/></g></g><g transform="translate(654.781999, 389.781952)"><g><path d="M 6.3125 -7.125 C 5.96875 -7.164062 5.664062 -7.1875 5.40625 -7.1875 C 4.4375 -7.1875 3.804688 -6.863281 3.515625 -6.21875 L 3.515625 0 L 0.96875 0 L 0.96875 -9.5 L 3.375 -9.5 L 3.4375 -8.375 C 3.945312 -9.238281 4.65625 -9.671875 5.5625 -9.671875 C 5.84375 -9.671875 6.101562 -9.632812 6.34375 -9.5625 Z M 6.3125 -7.125 "/></g></g><g transform="translate(661.343386, 389.781952)"><g><path d="M 6.484375 0 C 6.367188 -0.226562 6.28125 -0.515625 6.21875 -0.859375 C 5.601562 -0.171875 4.804688 0.171875 3.828125 0.171875 C 2.898438 0.171875 2.128906 -0.09375 1.515625 -0.625 C 0.898438 -1.164062 0.59375 -1.847656 0.59375 -2.671875 C 0.59375 -3.679688 0.96875 -4.453125 1.71875 -4.984375 C 2.46875 -5.523438 3.546875 -5.796875 4.953125 -5.796875 L 6.125 -5.796875 L 6.125 -6.34375 C 6.125 -6.78125 6.007812 -7.128906 5.78125 -7.390625 C 5.550781 -7.660156 5.195312 -7.796875 4.71875 -7.796875 C 4.289062 -7.796875 3.953125 -7.691406 3.703125 -7.484375 C 3.460938 -7.285156 3.34375 -7.003906 3.34375 -6.640625 L 0.8125 -6.640625 C 0.8125 -7.191406 0.976562 -7.703125 1.3125 -8.171875 C 1.65625 -8.640625 2.132812 -9.003906 2.75 -9.265625 C 3.375 -9.535156 4.070312 -9.671875 4.84375 -9.671875 C 6.019531 -9.671875 6.953125 -9.375 7.640625 -8.78125 C 8.328125 -8.195312 8.671875 -7.375 8.671875 -6.3125 L 8.671875 -2.203125 C 8.671875 -1.296875 8.796875 -0.613281 9.046875 -0.15625 L 9.046875 0 Z M 4.375 -1.765625 C 4.75 -1.765625 5.09375 -1.847656 5.40625 -2.015625 C 5.726562 -2.179688 5.96875 -2.40625 6.125 -2.6875 L 6.125 -4.328125 L 5.171875 -4.328125 C 3.898438 -4.328125 3.222656 -3.882812 3.140625 -3 L 3.140625 -2.859375 C 3.140625 -2.535156 3.25 -2.269531 3.46875 -2.0625 C 3.6875 -1.863281 3.988281 -1.765625 4.375 -1.765625 Z M 4.375 -1.765625 "/></g></g><g transform="translate(670.987834, 389.781952)"><g><path d="M 4.921875 -1.875 C 5.390625 -1.875 5.769531 -2 6.0625 -2.25 C 6.351562 -2.507812 6.507812 -2.851562 6.53125 -3.28125 L 8.90625 -3.28125 C 8.894531 -2.632812 8.71875 -2.046875 8.375 -1.515625 C 8.03125 -0.984375 7.554688 -0.566406 6.953125 -0.265625 C 6.359375 0.0234375 5.695312 0.171875 4.96875 0.171875 C 3.613281 0.171875 2.539062 -0.257812 1.75 -1.125 C 0.96875 -1.988281 0.578125 -3.179688 0.578125 -4.703125 L 0.578125 -4.859375 C 0.578125 -6.328125 0.96875 -7.492188 1.75 -8.359375 C 2.53125 -9.234375 3.597656 -9.671875 4.953125 -9.671875 C 6.140625 -9.671875 7.09375 -9.332031 7.8125 -8.65625 C 8.53125 -7.988281 8.894531 -7.09375 8.90625 -5.96875 L 6.53125 -5.96875 C 6.507812 -6.457031 6.351562 -6.851562 6.0625 -7.15625 C 5.769531 -7.46875 5.382812 -7.625 4.90625 -7.625 C 4.3125 -7.625 3.863281 -7.40625 3.5625 -6.96875 C 3.269531 -6.539062 3.125 -5.84375 3.125 -4.875 L 3.125 -4.625 C 3.125 -3.644531 3.269531 -2.941406 3.5625 -2.515625 C 3.863281 -2.085938 4.316406 -1.875 4.921875 -1.875 Z M 4.921875 -1.875 "/></g></g><g transform="translate(680.368772, 389.781952)"><g><path d="M 4.015625 -11.84375 L 4.015625 -9.5 L 5.640625 -9.5 L 5.640625 -7.640625 L 4.015625 -7.640625 L 4.015625 -2.890625 C 4.015625 -2.546875 4.082031 -2.296875 4.21875 -2.140625 C 4.351562 -1.992188 4.609375 -1.921875 4.984375 -1.921875 C 5.265625 -1.921875 5.515625 -1.9375 5.734375 -1.96875 L 5.734375 -0.046875 C 5.234375 0.0976562 4.722656 0.171875 4.203125 0.171875 C 2.421875 0.171875 1.507812 -0.722656 1.46875 -2.515625 L 1.46875 -7.640625 L 0.09375 -7.640625 L 0.09375 -9.5 L 1.46875 -9.5 L 1.46875 -11.84375 Z M 4.015625 -11.84375 "/></g></g></g><g fill="#72238f" fill-opacity="1"><g transform="translate(617.987288, 414.516711)"><g><path d="M 8.359375 -2.640625 L 3.734375 -2.640625 L 2.859375 0 L 0.0625 0 L 4.828125 -12.78125 L 7.265625 -12.78125 L 12.046875 0 L 9.25 0 Z M 4.453125 -4.765625 L 7.65625 -4.765625 L 6.046875 -9.546875 Z M 4.453125 -4.765625 "/></g></g><g transform="translate(630.091158, 414.516711)"><g><path d="M 0.578125 -4.828125 C 0.578125 -6.304688 0.910156 -7.484375 1.578125 -8.359375 C 2.242188 -9.234375 3.148438 -9.671875 4.296875 -9.671875 C 5.222656 -9.671875 5.988281 -9.328125 6.59375 -8.640625 L 6.59375 -13.484375 L 9.140625 -13.484375 L 9.140625 0 L 6.84375 0 L 6.734375 -1.015625 C 6.097656 -0.222656 5.28125 0.171875 4.28125 0.171875 C 3.164062 0.171875 2.269531 -0.265625 1.59375 -1.140625 C 0.914062 -2.023438 0.578125 -3.253906 0.578125 -4.828125 Z M 3.125 -4.640625 C 3.125 -3.742188 3.273438 -3.054688 3.578125 -2.578125 C 3.890625 -2.109375 4.34375 -1.875 4.9375 -1.875 C 5.71875 -1.875 6.269531 -2.207031 6.59375 -2.875 L 6.59375 -6.625 C 6.28125 -7.28125 5.734375 -7.609375 4.953125 -7.609375 C 3.734375 -7.609375 3.125 -6.617188 3.125 -4.640625 Z M 3.125 -4.640625 "/></g></g><g transform="translate(640.227491, 414.516711)"><g><path d="M 0.578125 -4.828125 C 0.578125 -6.304688 0.910156 -7.484375 1.578125 -8.359375 C 2.242188 -9.234375 3.148438 -9.671875 4.296875 -9.671875 C 5.222656 -9.671875 5.988281 -9.328125 6.59375 -8.640625 L 6.59375 -13.484375 L 9.140625 -13.484375 L 9.140625 0 L 6.84375 0 L 6.734375 -1.015625 C 6.097656 -0.222656 5.28125 0.171875 4.28125 0.171875 C 3.164062 0.171875 2.269531 -0.265625 1.59375 -1.140625 C 0.914062 -2.023438 0.578125 -3.253906 0.578125 -4.828125 Z M 3.125 -4.640625 C 3.125 -3.742188 3.273438 -3.054688 3.578125 -2.578125 C 3.890625 -2.109375 4.34375 -1.875 4.9375 -1.875 C 5.71875 -1.875 6.269531 -2.207031 6.59375 -2.875 L 6.59375 -6.625 C 6.28125 -7.28125 5.734375 -7.609375 4.953125 -7.609375 C 3.734375 -7.609375 3.125 -6.617188 3.125 -4.640625 Z M 3.125 -4.640625 "/></g></g><g transform="translate(650.363823, 414.516711)"><g><path d="M 6.3125 -7.125 C 5.96875 -7.164062 5.664062 -7.1875 5.40625 -7.1875 C 4.4375 -7.1875 3.804688 -6.863281 3.515625 -6.21875 L 3.515625 0 L 0.96875 0 L 0.96875 -9.5 L 3.375 -9.5 L 3.4375 -8.375 C 3.945312 -9.238281 4.65625 -9.671875 5.5625 -9.671875 C 5.84375 -9.671875 6.101562 -9.632812 6.34375 -9.5625 Z M 6.3125 -7.125 "/></g></g><g transform="translate(656.925209, 414.516711)"><g><path d="M 5.34375 0.171875 C 3.957031 0.171875 2.820312 -0.253906 1.9375 -1.109375 C 1.0625 -1.960938 0.625 -3.097656 0.625 -4.515625 L 0.625 -4.765625 C 0.625 -5.722656 0.804688 -6.578125 1.171875 -7.328125 C 1.546875 -8.078125 2.070312 -8.65625 2.75 -9.0625 C 3.425781 -9.46875 4.195312 -9.671875 5.0625 -9.671875 C 6.363281 -9.671875 7.382812 -9.257812 8.125 -8.4375 C 8.875 -7.625 9.25 -6.46875 9.25 -4.96875 L 9.25 -3.921875 L 3.203125 -3.921875 C 3.285156 -3.304688 3.53125 -2.8125 3.9375 -2.4375 C 4.351562 -2.0625 4.878906 -1.875 5.515625 -1.875 C 6.492188 -1.875 7.257812 -2.226562 7.8125 -2.9375 L 9.046875 -1.53125 C 8.671875 -1 8.15625 -0.582031 7.5 -0.28125 C 6.851562 0.0195312 6.132812 0.171875 5.34375 0.171875 Z M 5.0625 -7.625 C 4.550781 -7.625 4.140625 -7.453125 3.828125 -7.109375 C 3.515625 -6.773438 3.316406 -6.289062 3.234375 -5.65625 L 6.765625 -5.65625 L 6.765625 -5.859375 C 6.753906 -6.421875 6.597656 -6.851562 6.296875 -7.15625 C 6.003906 -7.46875 5.59375 -7.625 5.0625 -7.625 Z M 5.0625 -7.625 "/></g></g><g transform="translate(666.64871, 414.516711)"><g><path d="M 6.125 -2.625 C 6.125 -2.9375 5.96875 -3.179688 5.65625 -3.359375 C 5.351562 -3.535156 4.863281 -3.695312 4.1875 -3.84375 C 1.925781 -4.3125 0.796875 -5.269531 0.796875 -6.71875 C 0.796875 -7.5625 1.144531 -8.265625 1.84375 -8.828125 C 2.539062 -9.390625 3.453125 -9.671875 4.578125 -9.671875 C 5.785156 -9.671875 6.75 -9.382812 7.46875 -8.8125 C 8.195312 -8.25 8.5625 -7.515625 8.5625 -6.609375 L 6.03125 -6.609375 C 6.03125 -6.972656 5.910156 -7.273438 5.671875 -7.515625 C 5.441406 -7.753906 5.078125 -7.875 4.578125 -7.875 C 4.148438 -7.875 3.816406 -7.773438 3.578125 -7.578125 C 3.347656 -7.378906 3.234375 -7.132812 3.234375 -6.84375 C 3.234375 -6.5625 3.363281 -6.332031 3.625 -6.15625 C 3.894531 -5.988281 4.34375 -5.84375 4.96875 -5.71875 C 5.601562 -5.59375 6.140625 -5.445312 6.578125 -5.28125 C 7.921875 -4.789062 8.59375 -3.941406 8.59375 -2.734375 C 8.59375 -1.867188 8.21875 -1.164062 7.46875 -0.625 C 6.726562 -0.09375 5.769531 0.171875 4.59375 0.171875 C 3.789062 0.171875 3.082031 0.03125 2.46875 -0.25 C 1.851562 -0.53125 1.367188 -0.914062 1.015625 -1.40625 C 0.660156 -1.90625 0.484375 -2.441406 0.484375 -3.015625 L 2.890625 -3.015625 C 2.921875 -2.566406 3.085938 -2.222656 3.390625 -1.984375 C 3.703125 -1.742188 4.117188 -1.625 4.640625 -1.625 C 5.128906 -1.625 5.5 -1.710938 5.75 -1.890625 C 6 -2.078125 6.125 -2.320312 6.125 -2.625 Z M 6.125 -2.625 "/></g></g><g transform="translate(675.897894, 414.516711)"><g><path d="M 6.125 -2.625 C 6.125 -2.9375 5.96875 -3.179688 5.65625 -3.359375 C 5.351562 -3.535156 4.863281 -3.695312 4.1875 -3.84375 C 1.925781 -4.3125 0.796875 -5.269531 0.796875 -6.71875 C 0.796875 -7.5625 1.144531 -8.265625 1.84375 -8.828125 C 2.539062 -9.390625 3.453125 -9.671875 4.578125 -9.671875 C 5.785156 -9.671875 6.75 -9.382812 7.46875 -8.8125 C 8.195312 -8.25 8.5625 -7.515625 8.5625 -6.609375 L 6.03125 -6.609375 C 6.03125 -6.972656 5.910156 -7.273438 5.671875 -7.515625 C 5.441406 -7.753906 5.078125 -7.875 4.578125 -7.875 C 4.148438 -7.875 3.816406 -7.773438 3.578125 -7.578125 C 3.347656 -7.378906 3.234375 -7.132812 3.234375 -6.84375 C 3.234375 -6.5625 3.363281 -6.332031 3.625 -6.15625 C 3.894531 -5.988281 4.34375 -5.84375 4.96875 -5.71875 C 5.601562 -5.59375 6.140625 -5.445312 6.578125 -5.28125 C 7.921875 -4.789062 8.59375 -3.941406 8.59375 -2.734375 C 8.59375 -1.867188 8.21875 -1.164062 7.46875 -0.625 C 6.726562 -0.09375 5.769531 0.171875 4.59375 0.171875 C 3.789062 0.171875 3.082031 0.03125 2.46875 -0.25 C 1.851562 -0.53125 1.367188 -0.914062 1.015625 -1.40625 C 0.660156 -1.90625 0.484375 -2.441406 0.484375 -3.015625 L 2.890625 -3.015625 C 2.921875 -2.566406 3.085938 -2.222656 3.390625 -1.984375 C 3.703125 -1.742188 4.117188 -1.625 4.640625 -1.625 C 5.128906 -1.625 5.5 -1.710938 5.75 -1.890625 C 6 -2.078125 6.125 -2.320312 6.125 -2.625 Z M 6.125 -2.625 "/></g></g></g><path stroke-linecap="butt" transform="matrix(0.546514, 0.512962, -0.512962, 0.546514, 766.121552, 371.871739)" fill="none" stroke-linejoin="miter" d="M -0.00175558 2.001789 L 468.699961 2.000864 " stroke="#c759b9" stroke-width="4" stroke-opacity="1" stroke-miterlimit="4"/><path stroke-linecap="round" transform="matrix(0.546514, 0.512962, -0.512962, 0.546514, 766.121552, 371.871739)" fill="none" stroke-linejoin="round" d="M 460.701261 -4.000415 L 468.699961 2.000864 L 460.70097 8.000645 " stroke="#c759b9" stroke-width="4" stroke-opacity="1" stroke-miterlimit="4"/><path stroke-linecap="butt" transform="matrix(0.548494, -0.510844, 0.510844, 0.548494, 763.135344, 336.408015)" fill="none" stroke-linejoin="miter" d="M 0.00023449 1.998218 L 468.711287 1.99944 " stroke="#c759b9" stroke-width="4" stroke-opacity="1" stroke-miterlimit="4"/><path stroke-linecap="round" transform="matrix(0.548494, -0.510844, 0.510844, 0.548494, 763.135344, 336.408015)" fill="none" stroke-linejoin="round" d="M 460.710191 -3.999595 L 468.711287 1.99944 L 460.708909 7.999394 " stroke="#c759b9" stroke-width="4" stroke-opacity="1" stroke-miterlimit="4"/><path fill="#72238f" d="M 916.679688 469.855469 C 916.671875 469.855469 916.667969 469.855469 916.660156 469.855469 C 916.390625 469.851562 916.140625 469.738281 915.957031 469.539062 L 897.460938 449.429688 C 897.144531 449.082031 897.117188 448.5625 897.394531 448.183594 C 897.671875 447.808594 898.175781 447.679688 898.601562 447.875 L 915.527344 455.804688 C 915.671875 455.871094 915.839844 455.835938 915.949219 455.722656 L 941.773438 428.734375 C 942.121094 428.371094 942.691406 428.328125 943.089844 428.644531 C 943.488281 428.960938 943.578125 429.523438 943.300781 429.949219 L 917.613281 469.300781 C 917.578125 469.355469 917.535156 469.40625 917.488281 469.457031 L 917.375 469.570312 C 917.1875 469.753906 916.9375 469.855469 916.679688 469.855469 Z M 916.679688 469.855469 " fill-opacity="1" fill-rule="nonzero"/><path fill="#c759b9" d="M 878.992188 156.867188 L 863.445312 172.414062 C 862.601562 173.257812 862.601562 174.625 863.445312 175.464844 C 864.285156 176.304688 865.652344 176.304688 866.492188 175.464844 L 882.039062 159.917969 L 897.589844 175.464844 C 898.429688 176.304688 899.796875 176.304688 900.636719 175.464844 C 901.480469 174.625 901.480469 173.257812 900.636719 172.414062 L 885.089844 156.867188 L 900.636719 141.320312 C 901.480469 140.476562 901.480469 139.113281 900.636719 138.269531 C 899.796875 137.429688 898.429688 137.429688 897.589844 138.269531 L 882.039062 153.820312 L 866.492188 138.269531 C 865.652344 137.429688 864.285156 137.429688 863.445312 138.269531 C 862.601562 139.113281 862.601562 140.476562 863.445312 141.320312 Z M 878.992188 156.867188 " fill-opacity="1" fill-rule="evenodd"/><g clip-path="url(#f2af087742)"><path fill="#c759b9" d="M 1064.753906 711.355469 L 1173.820312 711.355469 C 1174.417969 711.355469 1175.011719 711.328125 1175.605469 711.269531 C 1176.195312 711.210938 1176.785156 711.125 1177.367188 711.007812 C 1177.953125 710.890625 1178.527344 710.746094 1179.097656 710.574219 C 1179.667969 710.402344 1180.226562 710.199219 1180.777344 709.972656 C 1181.328125 709.746094 1181.867188 709.492188 1182.390625 709.210938 C 1182.914062 708.929688 1183.425781 708.625 1183.921875 708.292969 C 1184.414062 707.960938 1184.894531 707.609375 1185.355469 707.230469 C 1185.8125 706.851562 1186.253906 706.453125 1186.675781 706.03125 C 1187.097656 705.609375 1187.496094 705.171875 1187.875 704.710938 C 1188.25 704.25 1188.605469 703.773438 1188.9375 703.277344 C 1189.265625 702.78125 1189.574219 702.273438 1189.851562 701.746094 C 1190.132812 701.222656 1190.386719 700.683594 1190.617188 700.132812 C 1190.84375 699.585938 1191.042969 699.023438 1191.21875 698.457031 C 1191.390625 697.886719 1191.535156 697.308594 1191.652344 696.726562 C 1191.765625 696.140625 1191.855469 695.550781 1191.914062 694.960938 C 1191.96875 694.367188 1192 693.773438 1192 693.179688 L 1192 573.992188 C 1192 571.578125 1191.539062 569.253906 1190.617188 567.023438 C 1189.691406 564.792969 1188.375 562.824219 1186.667969 561.117188 L 1148.34375 522.792969 C 1146.636719 521.082031 1144.667969 519.765625 1142.4375 518.84375 C 1140.203125 517.917969 1137.882812 517.457031 1135.46875 517.460938 L 1064.753906 517.460938 C 1064.160156 517.460938 1063.566406 517.488281 1062.972656 517.546875 C 1062.382812 517.605469 1061.792969 517.691406 1061.210938 517.808594 C 1060.625 517.925781 1060.046875 518.070312 1059.480469 518.242188 C 1058.910156 518.414062 1058.347656 518.617188 1057.800781 518.84375 C 1057.25 519.070312 1056.710938 519.324219 1056.1875 519.605469 C 1055.660156 519.886719 1055.152344 520.191406 1054.65625 520.523438 C 1054.160156 520.855469 1053.683594 521.207031 1053.222656 521.585938 C 1052.761719 521.964844 1052.324219 522.363281 1051.902344 522.785156 C 1051.480469 523.207031 1051.082031 523.644531 1050.703125 524.105469 C 1050.324219 524.566406 1049.972656 525.042969 1049.640625 525.539062 C 1049.308594 526.035156 1049.003906 526.542969 1048.722656 527.070312 C 1048.445312 527.59375 1048.1875 528.132812 1047.960938 528.679688 C 1047.734375 529.230469 1047.535156 529.792969 1047.359375 530.359375 C 1047.1875 530.929688 1047.042969 531.507812 1046.925781 532.089844 C 1046.8125 532.675781 1046.722656 533.261719 1046.664062 533.855469 C 1046.605469 534.449219 1046.578125 535.042969 1046.578125 535.636719 L 1046.578125 693.179688 C 1046.578125 693.773438 1046.605469 694.367188 1046.664062 694.960938 C 1046.722656 695.550781 1046.8125 696.140625 1046.925781 696.726562 C 1047.042969 697.308594 1047.1875 697.886719 1047.359375 698.457031 C 1047.53125 699.023438 1047.734375 699.585938 1047.960938 700.132812 C 1048.1875 700.683594 1048.445312 701.222656 1048.722656 701.746094 C 1049.003906 702.273438 1049.308594 702.78125 1049.640625 703.277344 C 1049.972656 703.773438 1050.324219 704.25 1050.703125 704.710938 C 1051.082031 705.171875 1051.480469 705.609375 1051.902344 706.03125 C 1052.324219 706.453125 1052.761719 706.851562 1053.222656 707.230469 C 1053.683594 707.609375 1054.160156 707.960938 1054.65625 708.292969 C 1055.152344 708.625 1055.660156 708.929688 1056.1875 709.210938 C 1056.710938 709.492188 1057.25 709.746094 1057.800781 709.972656 C 1058.347656 710.199219 1058.910156 710.402344 1059.480469 710.574219 C 1060.046875 710.746094 1060.625 710.890625 1061.210938 711.007812 C 1061.792969 711.125 1062.382812 711.210938 1062.972656 711.269531 C 1063.566406 711.328125 1064.160156 711.355469 1064.753906 711.355469 Z M 1171.308594 562.90625 L 1152.613281 562.90625 C 1152.214844 562.90625 1151.824219 562.867188 1151.433594 562.789062 C 1151.042969 562.710938 1150.664062 562.59375 1150.296875 562.441406 C 1149.929688 562.289062 1149.578125 562.105469 1149.25 561.882812 C 1148.917969 561.664062 1148.613281 561.410156 1148.328125 561.128906 C 1148.046875 560.847656 1147.796875 560.542969 1147.578125 560.210938 C 1147.355469 559.878906 1147.167969 559.53125 1147.015625 559.164062 C 1146.863281 558.796875 1146.75 558.417969 1146.671875 558.027344 C 1146.59375 557.636719 1146.554688 557.242188 1146.554688 556.84375 L 1146.554688 538.152344 Z M 1058.695312 535.636719 C 1058.695312 535.238281 1058.734375 534.847656 1058.8125 534.457031 C 1058.890625 534.066406 1059.003906 533.6875 1059.15625 533.320312 C 1059.308594 532.953125 1059.496094 532.601562 1059.71875 532.269531 C 1059.9375 531.941406 1060.191406 531.632812 1060.472656 531.351562 C 1060.753906 531.070312 1061.058594 530.820312 1061.390625 530.601562 C 1061.71875 530.378906 1062.070312 530.191406 1062.4375 530.039062 C 1062.804688 529.886719 1063.183594 529.773438 1063.574219 529.695312 C 1063.964844 529.617188 1064.359375 529.578125 1064.753906 529.578125 L 1134.4375 529.578125 L 1134.4375 556.84375 C 1134.4375 557.441406 1134.464844 558.035156 1134.523438 558.625 C 1134.582031 559.21875 1134.671875 559.808594 1134.785156 560.390625 C 1134.902344 560.976562 1135.046875 561.550781 1135.21875 562.121094 C 1135.390625 562.691406 1135.59375 563.25 1135.820312 563.800781 C 1136.046875 564.351562 1136.300781 564.890625 1136.582031 565.414062 C 1136.863281 565.9375 1137.167969 566.449219 1137.5 566.945312 C 1137.832031 567.4375 1138.183594 567.917969 1138.5625 568.378906 C 1138.941406 568.835938 1139.339844 569.277344 1139.761719 569.699219 C 1140.183594 570.121094 1140.621094 570.519531 1141.082031 570.898438 C 1141.542969 571.273438 1142.019531 571.628906 1142.515625 571.960938 C 1143.011719 572.289062 1143.519531 572.597656 1144.046875 572.875 C 1144.570312 573.15625 1145.109375 573.410156 1145.660156 573.640625 C 1146.207031 573.867188 1146.769531 574.066406 1147.335938 574.238281 C 1147.90625 574.414062 1148.484375 574.558594 1149.066406 574.671875 C 1149.652344 574.789062 1150.242188 574.878906 1150.832031 574.933594 C 1151.425781 574.992188 1152.019531 575.023438 1152.613281 575.023438 L 1179.882812 575.023438 L 1179.882812 693.179688 C 1179.882812 693.578125 1179.84375 693.96875 1179.765625 694.359375 C 1179.6875 694.75 1179.570312 695.128906 1179.421875 695.496094 C 1179.269531 695.863281 1179.082031 696.214844 1178.859375 696.542969 C 1178.640625 696.875 1178.386719 697.179688 1178.105469 697.464844 C 1177.824219 697.746094 1177.519531 697.996094 1177.1875 698.214844 C 1176.859375 698.4375 1176.507812 698.625 1176.140625 698.777344 C 1175.773438 698.929688 1175.394531 699.042969 1175.003906 699.121094 C 1174.613281 699.199219 1174.21875 699.238281 1173.820312 699.238281 L 1064.753906 699.238281 C 1064.359375 699.238281 1063.964844 699.199219 1063.574219 699.121094 C 1063.183594 699.042969 1062.804688 698.929688 1062.4375 698.777344 C 1062.070312 698.625 1061.71875 698.4375 1061.390625 698.214844 C 1061.058594 697.996094 1060.753906 697.746094 1060.472656 697.464844 C 1060.191406 697.179688 1059.9375 696.875 1059.71875 696.542969 C 1059.496094 696.214844 1059.308594 695.863281 1059.15625 695.496094 C 1059.003906 695.128906 1058.890625 694.75 1058.8125 694.359375 C 1058.734375 693.96875 1058.695312 693.578125 1058.695312 693.179688 Z M 1058.695312 535.636719 " fill-opacity="1" fill-rule="nonzero"/></g><g fill="#72238f" fill-opacity="1"><g transform="translate(1068.495779, 113.236984)"><g><path d="M 11.640625 -6.109375 C 11.640625 -4.847656 11.414062 -3.742188 10.96875 -2.796875 C 10.53125 -1.847656 9.894531 -1.113281 9.0625 -0.59375 C 8.238281 -0.0820312 7.289062 0.171875 6.21875 0.171875 C 5.15625 0.171875 4.207031 -0.0820312 3.375 -0.59375 C 2.550781 -1.101562 1.910156 -1.828125 1.453125 -2.765625 C 0.992188 -3.710938 0.757812 -4.800781 0.75 -6.03125 L 0.75 -6.671875 C 0.75 -7.921875 0.972656 -9.023438 1.421875 -9.984375 C 1.878906 -10.941406 2.519531 -11.675781 3.34375 -12.1875 C 4.175781 -12.707031 5.125 -12.96875 6.1875 -12.96875 C 7.257812 -12.96875 8.207031 -12.707031 9.03125 -12.1875 C 9.863281 -11.675781 10.503906 -10.941406 10.953125 -9.984375 C 11.410156 -9.023438 11.640625 -7.921875 11.640625 -6.671875 Z M 8.96875 -6.6875 C 8.96875 -8.019531 8.726562 -9.035156 8.25 -9.734375 C 7.769531 -10.429688 7.085938 -10.78125 6.203125 -10.78125 C 5.316406 -10.78125 4.632812 -10.4375 4.15625 -9.75 C 3.675781 -9.0625 3.429688 -8.054688 3.421875 -6.734375 L 3.421875 -6.109375 C 3.421875 -4.796875 3.660156 -3.78125 4.140625 -3.0625 C 4.617188 -2.34375 5.3125 -1.984375 6.21875 -1.984375 C 7.101562 -1.984375 7.78125 -2.328125 8.25 -3.015625 C 8.726562 -3.710938 8.96875 -4.726562 8.96875 -6.0625 Z M 8.96875 -6.6875 "/></g></g><g transform="translate(1080.91586, 113.236984)"><g><path d="M 3.65625 0 L 1.109375 0 L 1.109375 -13.484375 L 3.65625 -13.484375 Z M 3.65625 0 "/></g></g><g transform="translate(1085.685382, 113.236984)"><g><path d="M 0.578125 -4.828125 C 0.578125 -6.304688 0.910156 -7.484375 1.578125 -8.359375 C 2.242188 -9.234375 3.148438 -9.671875 4.296875 -9.671875 C 5.222656 -9.671875 5.988281 -9.328125 6.59375 -8.640625 L 6.59375 -13.484375 L 9.140625 -13.484375 L 9.140625 0 L 6.84375 0 L 6.734375 -1.015625 C 6.097656 -0.222656 5.28125 0.171875 4.28125 0.171875 C 3.164062 0.171875 2.269531 -0.265625 1.59375 -1.140625 C 0.914062 -2.023438 0.578125 -3.253906 0.578125 -4.828125 Z M 3.125 -4.640625 C 3.125 -3.742188 3.273438 -3.054688 3.578125 -2.578125 C 3.890625 -2.109375 4.34375 -1.875 4.9375 -1.875 C 5.71875 -1.875 6.269531 -2.207031 6.59375 -2.875 L 6.59375 -6.625 C 6.28125 -7.28125 5.734375 -7.609375 4.953125 -7.609375 C 3.734375 -7.609375 3.125 -6.617188 3.125 -4.640625 Z M 3.125 -4.640625 "/></g></g><g transform="translate(1095.821715, 113.236984)"><g/></g><g transform="translate(1100.301376, 113.236984)"><g><path d="M 11.171875 -4.265625 C 11.078125 -2.890625 10.570312 -1.804688 9.65625 -1.015625 C 8.738281 -0.222656 7.53125 0.171875 6.03125 0.171875 C 4.394531 0.171875 3.101562 -0.378906 2.15625 -1.484375 C 1.21875 -2.585938 0.75 -4.101562 0.75 -6.03125 L 0.75 -6.8125 C 0.75 -8.039062 0.96875 -9.117188 1.40625 -10.046875 C 1.84375 -10.984375 2.460938 -11.703125 3.265625 -12.203125 C 4.066406 -12.710938 5 -12.96875 6.0625 -12.96875 C 7.539062 -12.96875 8.726562 -12.570312 9.625 -11.78125 C 10.53125 -10.988281 11.054688 -9.878906 11.203125 -8.453125 L 8.5625 -8.453125 C 8.5 -9.273438 8.269531 -9.867188 7.875 -10.234375 C 7.476562 -10.609375 6.875 -10.796875 6.0625 -10.796875 C 5.1875 -10.796875 4.53125 -10.476562 4.09375 -9.84375 C 3.65625 -9.21875 3.429688 -8.242188 3.421875 -6.921875 L 3.421875 -5.96875 C 3.421875 -4.582031 3.628906 -3.566406 4.046875 -2.921875 C 4.472656 -2.285156 5.132812 -1.96875 6.03125 -1.96875 C 6.84375 -1.96875 7.445312 -2.15625 7.84375 -2.53125 C 8.25 -2.90625 8.484375 -3.484375 8.546875 -4.265625 Z M 11.171875 -4.265625 "/></g></g><g transform="translate(1112.071468, 113.236984)"><g><path d="M 0.578125 -4.84375 C 0.578125 -5.78125 0.757812 -6.617188 1.125 -7.359375 C 1.488281 -8.097656 2.007812 -8.664062 2.6875 -9.0625 C 3.375 -9.46875 4.164062 -9.671875 5.0625 -9.671875 C 6.34375 -9.671875 7.390625 -9.28125 8.203125 -8.5 C 9.015625 -7.71875 9.46875 -6.648438 9.5625 -5.296875 L 9.578125 -4.65625 C 9.578125 -3.195312 9.171875 -2.023438 8.359375 -1.140625 C 7.546875 -0.265625 6.453125 0.171875 5.078125 0.171875 C 3.710938 0.171875 2.617188 -0.265625 1.796875 -1.140625 C 0.984375 -2.015625 0.578125 -3.207031 0.578125 -4.71875 Z M 3.125 -4.65625 C 3.125 -3.75 3.289062 -3.054688 3.625 -2.578125 C 3.96875 -2.109375 4.453125 -1.875 5.078125 -1.875 C 5.691406 -1.875 6.171875 -2.109375 6.515625 -2.578125 C 6.867188 -3.046875 7.046875 -3.800781 7.046875 -4.84375 C 7.046875 -5.726562 6.867188 -6.410156 6.515625 -6.890625 C 6.171875 -7.378906 5.6875 -7.625 5.0625 -7.625 C 4.445312 -7.625 3.96875 -7.378906 3.625 -6.890625 C 3.289062 -6.410156 3.125 -5.664062 3.125 -4.65625 Z M 3.125 -4.65625 "/></g></g><g transform="translate(1122.242935, 113.236984)"><g><path d="M 3.3125 -9.5 L 3.390625 -8.40625 C 4.066406 -9.25 4.976562 -9.671875 6.125 -9.671875 C 7.125 -9.671875 7.867188 -9.375 8.359375 -8.78125 C 8.859375 -8.195312 9.113281 -7.316406 9.125 -6.140625 L 9.125 0 L 6.59375 0 L 6.59375 -6.078125 C 6.59375 -6.617188 6.472656 -7.007812 6.234375 -7.25 C 6.003906 -7.488281 5.613281 -7.609375 5.0625 -7.609375 C 4.351562 -7.609375 3.816406 -7.304688 3.453125 -6.703125 L 3.453125 0 L 0.921875 0 L 0.921875 -9.5 Z M 3.3125 -9.5 "/></g></g><g transform="translate(1132.317781, 113.236984)"><g><path d="M 4.015625 -11.84375 L 4.015625 -9.5 L 5.640625 -9.5 L 5.640625 -7.640625 L 4.015625 -7.640625 L 4.015625 -2.890625 C 4.015625 -2.546875 4.082031 -2.296875 4.21875 -2.140625 C 4.351562 -1.992188 4.609375 -1.921875 4.984375 -1.921875 C 5.265625 -1.921875 5.515625 -1.9375 5.734375 -1.96875 L 5.734375 -0.046875 C 5.234375 0.0976562 4.722656 0.171875 4.203125 0.171875 C 2.421875 0.171875 1.507812 -0.722656 1.46875 -2.515625 L 1.46875 -7.640625 L 0.09375 -7.640625 L 0.09375 -9.5 L 1.46875 -9.5 L 1.46875 -11.84375 Z M 4.015625 -11.84375 "/></g></g><g transform="translate(1138.396067, 113.236984)"><g><path d="M 6.3125 -7.125 C 5.96875 -7.164062 5.664062 -7.1875 5.40625 -7.1875 C 4.4375 -7.1875 3.804688 -6.863281 3.515625 -6.21875 L 3.515625 0 L 0.96875 0 L 0.96875 -9.5 L 3.375 -9.5 L 3.4375 -8.375 C 3.945312 -9.238281 4.65625 -9.671875 5.5625 -9.671875 C 5.84375 -9.671875 6.101562 -9.632812 6.34375 -9.5625 Z M 6.3125 -7.125 "/></g></g><g transform="translate(1144.957454, 113.236984)"><g><path d="M 6.484375 0 C 6.367188 -0.226562 6.28125 -0.515625 6.21875 -0.859375 C 5.601562 -0.171875 4.804688 0.171875 3.828125 0.171875 C 2.898438 0.171875 2.128906 -0.09375 1.515625 -0.625 C 0.898438 -1.164062 0.59375 -1.847656 0.59375 -2.671875 C 0.59375 -3.679688 0.96875 -4.453125 1.71875 -4.984375 C 2.46875 -5.523438 3.546875 -5.796875 4.953125 -5.796875 L 6.125 -5.796875 L 6.125 -6.34375 C 6.125 -6.78125 6.007812 -7.128906 5.78125 -7.390625 C 5.550781 -7.660156 5.195312 -7.796875 4.71875 -7.796875 C 4.289062 -7.796875 3.953125 -7.691406 3.703125 -7.484375 C 3.460938 -7.285156 3.34375 -7.003906 3.34375 -6.640625 L 0.8125 -6.640625 C 0.8125 -7.191406 0.976562 -7.703125 1.3125 -8.171875 C 1.65625 -8.640625 2.132812 -9.003906 2.75 -9.265625 C 3.375 -9.535156 4.070312 -9.671875 4.84375 -9.671875 C 6.019531 -9.671875 6.953125 -9.375 7.640625 -8.78125 C 8.328125 -8.195312 8.671875 -7.375 8.671875 -6.3125 L 8.671875 -2.203125 C 8.671875 -1.296875 8.796875 -0.613281 9.046875 -0.15625 L 9.046875 0 Z M 4.375 -1.765625 C 4.75 -1.765625 5.09375 -1.847656 5.40625 -2.015625 C 5.726562 -2.179688 5.96875 -2.40625 6.125 -2.6875 L 6.125 -4.328125 L 5.171875 -4.328125 C 3.898438 -4.328125 3.222656 -3.882812 3.140625 -3 L 3.140625 -2.859375 C 3.140625 -2.535156 3.25 -2.269531 3.46875 -2.0625 C 3.6875 -1.863281 3.988281 -1.765625 4.375 -1.765625 Z M 4.375 -1.765625 "/></g></g><g transform="translate(1154.601902, 113.236984)"><g><path d="M 4.921875 -1.875 C 5.390625 -1.875 5.769531 -2 6.0625 -2.25 C 6.351562 -2.507812 6.507812 -2.851562 6.53125 -3.28125 L 8.90625 -3.28125 C 8.894531 -2.632812 8.71875 -2.046875 8.375 -1.515625 C 8.03125 -0.984375 7.554688 -0.566406 6.953125 -0.265625 C 6.359375 0.0234375 5.695312 0.171875 4.96875 0.171875 C 3.613281 0.171875 2.539062 -0.257812 1.75 -1.125 C 0.96875 -1.988281 0.578125 -3.179688 0.578125 -4.703125 L 0.578125 -4.859375 C 0.578125 -6.328125 0.96875 -7.492188 1.75 -8.359375 C 2.53125 -9.234375 3.597656 -9.671875 4.953125 -9.671875 C 6.140625 -9.671875 7.09375 -9.332031 7.8125 -8.65625 C 8.53125 -7.988281 8.894531 -7.09375 8.90625 -5.96875 L 6.53125 -5.96875 C 6.507812 -6.457031 6.351562 -6.851562 6.0625 -7.15625 C 5.769531 -7.46875 5.382812 -7.625 4.90625 -7.625 C 4.3125 -7.625 3.863281 -7.40625 3.5625 -6.96875 C 3.269531 -6.539062 3.125 -5.84375 3.125 -4.875 L 3.125 -4.625 C 3.125 -3.644531 3.269531 -2.941406 3.5625 -2.515625 C 3.863281 -2.085938 4.316406 -1.875 4.921875 -1.875 Z M 4.921875 -1.875 "/></g></g><g transform="translate(1163.98284, 113.236984)"><g><path d="M 4.015625 -11.84375 L 4.015625 -9.5 L 5.640625 -9.5 L 5.640625 -7.640625 L 4.015625 -7.640625 L 4.015625 -2.890625 C 4.015625 -2.546875 4.082031 -2.296875 4.21875 -2.140625 C 4.351562 -1.992188 4.609375 -1.921875 4.984375 -1.921875 C 5.265625 -1.921875 5.515625 -1.9375 5.734375 -1.96875 L 5.734375 -0.046875 C 5.234375 0.0976562 4.722656 0.171875 4.203125 0.171875 C 2.421875 0.171875 1.507812 -0.722656 1.46875 -2.515625 L 1.46875 -7.640625 L 0.09375 -7.640625 L 0.09375 -9.5 L 1.46875 -9.5 L 1.46875 -11.84375 Z M 4.015625 -11.84375 "/></g></g></g><g fill="#72238f" fill-opacity="1"><g transform="translate(1064.338185, 639.675101)"><g><path d="M 11.53125 0 L 8.90625 0 L 3.78125 -8.40625 L 3.78125 0 L 1.140625 0 L 1.140625 -12.78125 L 3.78125 -12.78125 L 8.90625 -4.359375 L 8.90625 -12.78125 L 11.53125 -12.78125 Z M 11.53125 0 "/></g></g><g transform="translate(1077.039343, 639.675101)"><g><path d="M 5.34375 0.171875 C 3.957031 0.171875 2.820312 -0.253906 1.9375 -1.109375 C 1.0625 -1.960938 0.625 -3.097656 0.625 -4.515625 L 0.625 -4.765625 C 0.625 -5.722656 0.804688 -6.578125 1.171875 -7.328125 C 1.546875 -8.078125 2.070312 -8.65625 2.75 -9.0625 C 3.425781 -9.46875 4.195312 -9.671875 5.0625 -9.671875 C 6.363281 -9.671875 7.382812 -9.257812 8.125 -8.4375 C 8.875 -7.625 9.25 -6.46875 9.25 -4.96875 L 9.25 -3.921875 L 3.203125 -3.921875 C 3.285156 -3.304688 3.53125 -2.8125 3.9375 -2.4375 C 4.351562 -2.0625 4.878906 -1.875 5.515625 -1.875 C 6.492188 -1.875 7.257812 -2.226562 7.8125 -2.9375 L 9.046875 -1.53125 C 8.671875 -1 8.15625 -0.582031 7.5 -0.28125 C 6.851562 0.0195312 6.132812 0.171875 5.34375 0.171875 Z M 5.0625 -7.625 C 4.550781 -7.625 4.140625 -7.453125 3.828125 -7.109375 C 3.515625 -6.773438 3.316406 -6.289062 3.234375 -5.65625 L 6.765625 -5.65625 L 6.765625 -5.859375 C 6.753906 -6.421875 6.597656 -6.851562 6.296875 -7.15625 C 6.003906 -7.46875 5.59375 -7.625 5.0625 -7.625 Z M 5.0625 -7.625 "/></g></g><g transform="translate(1086.762843, 639.675101)"><g><path d="M 9.234375 -3.453125 L 10.484375 -9.5 L 12.9375 -9.5 L 10.515625 0 L 8.390625 0 L 6.59375 -5.984375 L 4.78125 0 L 2.671875 0 L 0.25 -9.5 L 2.703125 -9.5 L 3.9375 -3.453125 L 5.671875 -9.5 L 7.515625 -9.5 Z M 9.234375 -3.453125 "/></g></g><g transform="translate(1099.982237, 639.675101)"><g/></g><g transform="translate(1104.461899, 639.675101)"><g><path d="M 11.171875 -4.265625 C 11.078125 -2.890625 10.570312 -1.804688 9.65625 -1.015625 C 8.738281 -0.222656 7.53125 0.171875 6.03125 0.171875 C 4.394531 0.171875 3.101562 -0.378906 2.15625 -1.484375 C 1.21875 -2.585938 0.75 -4.101562 0.75 -6.03125 L 0.75 -6.8125 C 0.75 -8.039062 0.96875 -9.117188 1.40625 -10.046875 C 1.84375 -10.984375 2.460938 -11.703125 3.265625 -12.203125 C 4.066406 -12.710938 5 -12.96875 6.0625 -12.96875 C 7.539062 -12.96875 8.726562 -12.570312 9.625 -11.78125 C 10.53125 -10.988281 11.054688 -9.878906 11.203125 -8.453125 L 8.5625 -8.453125 C 8.5 -9.273438 8.269531 -9.867188 7.875 -10.234375 C 7.476562 -10.609375 6.875 -10.796875 6.0625 -10.796875 C 5.1875 -10.796875 4.53125 -10.476562 4.09375 -9.84375 C 3.65625 -9.21875 3.429688 -8.242188 3.421875 -6.921875 L 3.421875 -5.96875 C 3.421875 -4.582031 3.628906 -3.566406 4.046875 -2.921875 C 4.472656 -2.285156 5.132812 -1.96875 6.03125 -1.96875 C 6.84375 -1.96875 7.445312 -2.15625 7.84375 -2.53125 C 8.25 -2.90625 8.484375 -3.484375 8.546875 -4.265625 Z M 11.171875 -4.265625 "/></g></g><g transform="translate(1116.23199, 639.675101)"><g><path d="M 0.578125 -4.84375 C 0.578125 -5.78125 0.757812 -6.617188 1.125 -7.359375 C 1.488281 -8.097656 2.007812 -8.664062 2.6875 -9.0625 C 3.375 -9.46875 4.164062 -9.671875 5.0625 -9.671875 C 6.34375 -9.671875 7.390625 -9.28125 8.203125 -8.5 C 9.015625 -7.71875 9.46875 -6.648438 9.5625 -5.296875 L 9.578125 -4.65625 C 9.578125 -3.195312 9.171875 -2.023438 8.359375 -1.140625 C 7.546875 -0.265625 6.453125 0.171875 5.078125 0.171875 C 3.710938 0.171875 2.617188 -0.265625 1.796875 -1.140625 C 0.984375 -2.015625 0.578125 -3.207031 0.578125 -4.71875 Z M 3.125 -4.65625 C 3.125 -3.75 3.289062 -3.054688 3.625 -2.578125 C 3.96875 -2.109375 4.453125 -1.875 5.078125 -1.875 C 5.691406 -1.875 6.171875 -2.109375 6.515625 -2.578125 C 6.867188 -3.046875 7.046875 -3.800781 7.046875 -4.84375 C 7.046875 -5.726562 6.867188 -6.410156 6.515625 -6.890625 C 6.171875 -7.378906 5.6875 -7.625 5.0625 -7.625 C 4.445312 -7.625 3.96875 -7.378906 3.625 -6.890625 C 3.289062 -6.410156 3.125 -5.664062 3.125 -4.65625 Z M 3.125 -4.65625 "/></g></g><g transform="translate(1126.403457, 639.675101)"><g><path d="M 3.3125 -9.5 L 3.390625 -8.40625 C 4.066406 -9.25 4.976562 -9.671875 6.125 -9.671875 C 7.125 -9.671875 7.867188 -9.375 8.359375 -8.78125 C 8.859375 -8.195312 9.113281 -7.316406 9.125 -6.140625 L 9.125 0 L 6.59375 0 L 6.59375 -6.078125 C 6.59375 -6.617188 6.472656 -7.007812 6.234375 -7.25 C 6.003906 -7.488281 5.613281 -7.609375 5.0625 -7.609375 C 4.351562 -7.609375 3.816406 -7.304688 3.453125 -6.703125 L 3.453125 0 L 0.921875 0 L 0.921875 -9.5 Z M 3.3125 -9.5 "/></g></g><g transform="translate(1136.478303, 639.675101)"><g><path d="M 4.015625 -11.84375 L 4.015625 -9.5 L 5.640625 -9.5 L 5.640625 -7.640625 L 4.015625 -7.640625 L 4.015625 -2.890625 C 4.015625 -2.546875 4.082031 -2.296875 4.21875 -2.140625 C 4.351562 -1.992188 4.609375 -1.921875 4.984375 -1.921875 C 5.265625 -1.921875 5.515625 -1.9375 5.734375 -1.96875 L 5.734375 -0.046875 C 5.234375 0.0976562 4.722656 0.171875 4.203125 0.171875 C 2.421875 0.171875 1.507812 -0.722656 1.46875 -2.515625 L 1.46875 -7.640625 L 0.09375 -7.640625 L 0.09375 -9.5 L 1.46875 -9.5 L 1.46875 -11.84375 Z M 4.015625 -11.84375 "/></g></g><g transform="translate(1142.556589, 639.675101)"><g><path d="M 6.3125 -7.125 C 5.96875 -7.164062 5.664062 -7.1875 5.40625 -7.1875 C 4.4375 -7.1875 3.804688 -6.863281 3.515625 -6.21875 L 3.515625 0 L 0.96875 0 L 0.96875 -9.5 L 3.375 -9.5 L 3.4375 -8.375 C 3.945312 -9.238281 4.65625 -9.671875 5.5625 -9.671875 C 5.84375 -9.671875 6.101562 -9.632812 6.34375 -9.5625 Z M 6.3125 -7.125 "/></g></g><g transform="translate(1149.117976, 639.675101)"><g><path d="M 6.484375 0 C 6.367188 -0.226562 6.28125 -0.515625 6.21875 -0.859375 C 5.601562 -0.171875 4.804688 0.171875 3.828125 0.171875 C 2.898438 0.171875 2.128906 -0.09375 1.515625 -0.625 C 0.898438 -1.164062 0.59375 -1.847656 0.59375 -2.671875 C 0.59375 -3.679688 0.96875 -4.453125 1.71875 -4.984375 C 2.46875 -5.523438 3.546875 -5.796875 4.953125 -5.796875 L 6.125 -5.796875 L 6.125 -6.34375 C 6.125 -6.78125 6.007812 -7.128906 5.78125 -7.390625 C 5.550781 -7.660156 5.195312 -7.796875 4.71875 -7.796875 C 4.289062 -7.796875 3.953125 -7.691406 3.703125 -7.484375 C 3.460938 -7.285156 3.34375 -7.003906 3.34375 -6.640625 L 0.8125 -6.640625 C 0.8125 -7.191406 0.976562 -7.703125 1.3125 -8.171875 C 1.65625 -8.640625 2.132812 -9.003906 2.75 -9.265625 C 3.375 -9.535156 4.070312 -9.671875 4.84375 -9.671875 C 6.019531 -9.671875 6.953125 -9.375 7.640625 -8.78125 C 8.328125 -8.195312 8.671875 -7.375 8.671875 -6.3125 L 8.671875 -2.203125 C 8.671875 -1.296875 8.796875 -0.613281 9.046875 -0.15625 L 9.046875 0 Z M 4.375 -1.765625 C 4.75 -1.765625 5.09375 -1.847656 5.40625 -2.015625 C 5.726562 -2.179688 5.96875 -2.40625 6.125 -2.6875 L 6.125 -4.328125 L 5.171875 -4.328125 C 3.898438 -4.328125 3.222656 -3.882812 3.140625 -3 L 3.140625 -2.859375 C 3.140625 -2.535156 3.25 -2.269531 3.46875 -2.0625 C 3.6875 -1.863281 3.988281 -1.765625 4.375 -1.765625 Z M 4.375 -1.765625 "/></g></g><g transform="translate(1158.762424, 639.675101)"><g><path d="M 4.921875 -1.875 C 5.390625 -1.875 5.769531 -2 6.0625 -2.25 C 6.351562 -2.507812 6.507812 -2.851562 6.53125 -3.28125 L 8.90625 -3.28125 C 8.894531 -2.632812 8.71875 -2.046875 8.375 -1.515625 C 8.03125 -0.984375 7.554688 -0.566406 6.953125 -0.265625 C 6.359375 0.0234375 5.695312 0.171875 4.96875 0.171875 C 3.613281 0.171875 2.539062 -0.257812 1.75 -1.125 C 0.96875 -1.988281 0.578125 -3.179688 0.578125 -4.703125 L 0.578125 -4.859375 C 0.578125 -6.328125 0.96875 -7.492188 1.75 -8.359375 C 2.53125 -9.234375 3.597656 -9.671875 4.953125 -9.671875 C 6.140625 -9.671875 7.09375 -9.332031 7.8125 -8.65625 C 8.53125 -7.988281 8.894531 -7.09375 8.90625 -5.96875 L 6.53125 -5.96875 C 6.507812 -6.457031 6.351562 -6.851562 6.0625 -7.15625 C 5.769531 -7.46875 5.382812 -7.625 4.90625 -7.625 C 4.3125 -7.625 3.863281 -7.40625 3.5625 -6.96875 C 3.269531 -6.539062 3.125 -5.84375 3.125 -4.875 L 3.125 -4.625 C 3.125 -3.644531 3.269531 -2.941406 3.5625 -2.515625 C 3.863281 -2.085938 4.316406 -1.875 4.921875 -1.875 Z M 4.921875 -1.875 "/></g></g><g transform="translate(1168.143362, 639.675101)"><g><path d="M 4.015625 -11.84375 L 4.015625 -9.5 L 5.640625 -9.5 L 5.640625 -7.640625 L 4.015625 -7.640625 L 4.015625 -2.890625 C 4.015625 -2.546875 4.082031 -2.296875 4.21875 -2.140625 C 4.351562 -1.992188 4.609375 -1.921875 4.984375 -1.921875 C 5.265625 -1.921875 5.515625 -1.9375 5.734375 -1.96875 L 5.734375 -0.046875 C 5.234375 0.0976562 4.722656 0.171875 4.203125 0.171875 C 2.421875 0.171875 1.507812 -0.722656 1.46875 -2.515625 L 1.46875 -7.640625 L 0.09375 -7.640625 L 0.09375 -9.5 L 1.46875 -9.5 L 1.46875 -11.84375 Z M 4.015625 -11.84375 "/></g></g></g><g fill="#72238f" fill-opacity="1"><g transform="translate(591.1913, 512.513089)"><g><path d="M 3.78125 -4.5 L 3.78125 0 L 1.140625 0 L 1.140625 -12.78125 L 6.125 -12.78125 C 7.082031 -12.78125 7.925781 -12.601562 8.65625 -12.25 C 9.382812 -11.90625 9.945312 -11.410156 10.34375 -10.765625 C 10.738281 -10.117188 10.9375 -9.378906 10.9375 -8.546875 C 10.9375 -7.296875 10.503906 -6.304688 9.640625 -5.578125 C 8.785156 -4.859375 7.597656 -4.5 6.078125 -4.5 Z M 3.78125 -6.640625 L 6.125 -6.640625 C 6.820312 -6.640625 7.351562 -6.800781 7.71875 -7.125 C 8.082031 -7.457031 8.265625 -7.925781 8.265625 -8.53125 C 8.265625 -9.15625 8.082031 -9.660156 7.71875 -10.046875 C 7.351562 -10.441406 6.84375 -10.644531 6.1875 -10.65625 L 3.78125 -10.65625 Z M 3.78125 -6.640625 "/></g></g><g transform="translate(602.794502, 512.513089)"><g><path d="M 6.3125 -7.125 C 5.96875 -7.164062 5.664062 -7.1875 5.40625 -7.1875 C 4.4375 -7.1875 3.804688 -6.863281 3.515625 -6.21875 L 3.515625 0 L 0.96875 0 L 0.96875 -9.5 L 3.375 -9.5 L 3.4375 -8.375 C 3.945312 -9.238281 4.65625 -9.671875 5.5625 -9.671875 C 5.84375 -9.671875 6.101562 -9.632812 6.34375 -9.5625 Z M 6.3125 -7.125 "/></g></g><g transform="translate(609.355888, 512.513089)"><g><path d="M 0.578125 -4.84375 C 0.578125 -5.78125 0.757812 -6.617188 1.125 -7.359375 C 1.488281 -8.097656 2.007812 -8.664062 2.6875 -9.0625 C 3.375 -9.46875 4.164062 -9.671875 5.0625 -9.671875 C 6.34375 -9.671875 7.390625 -9.28125 8.203125 -8.5 C 9.015625 -7.71875 9.46875 -6.648438 9.5625 -5.296875 L 9.578125 -4.65625 C 9.578125 -3.195312 9.171875 -2.023438 8.359375 -1.140625 C 7.546875 -0.265625 6.453125 0.171875 5.078125 0.171875 C 3.710938 0.171875 2.617188 -0.265625 1.796875 -1.140625 C 0.984375 -2.015625 0.578125 -3.207031 0.578125 -4.71875 Z M 3.125 -4.65625 C 3.125 -3.75 3.289062 -3.054688 3.625 -2.578125 C 3.96875 -2.109375 4.453125 -1.875 5.078125 -1.875 C 5.691406 -1.875 6.171875 -2.109375 6.515625 -2.578125 C 6.867188 -3.046875 7.046875 -3.800781 7.046875 -4.84375 C 7.046875 -5.726562 6.867188 -6.410156 6.515625 -6.890625 C 6.171875 -7.378906 5.6875 -7.625 5.0625 -7.625 C 4.445312 -7.625 3.96875 -7.378906 3.625 -6.890625 C 3.289062 -6.410156 3.125 -5.664062 3.125 -4.65625 Z M 3.125 -4.65625 "/></g></g><g transform="translate(619.527355, 512.513089)"><g><path d="M 4.59375 -6.671875 L 6.1875 -9.5 L 8.90625 -9.5 L 6.203125 -4.84375 L 9.015625 0 L 6.296875 0 L 4.59375 -2.984375 L 2.921875 0 L 0.1875 0 L 3 -4.84375 L 0.3125 -9.5 L 3.03125 -9.5 Z M 4.59375 -6.671875 "/></g></g><g transform="translate(628.679919, 512.513089)"><g><path d="M 4.515625 -3.59375 L 6.28125 -9.5 L 9 -9.5 L 5.1875 1.46875 L 4.96875 1.96875 C 4.40625 3.21875 3.46875 3.84375 2.15625 3.84375 C 1.789062 3.84375 1.414062 3.785156 1.03125 3.671875 L 1.03125 1.75 L 1.421875 1.75 C 1.898438 1.75 2.257812 1.675781 2.5 1.53125 C 2.738281 1.382812 2.925781 1.144531 3.0625 0.8125 L 3.359375 0.03125 L 0.03125 -9.5 L 2.75 -9.5 Z M 4.515625 -3.59375 "/></g></g><g transform="translate(637.709511, 512.513089)"><g/></g><g transform="translate(642.189173, 512.513089)"><g><path d="M 11.171875 -4.265625 C 11.078125 -2.890625 10.570312 -1.804688 9.65625 -1.015625 C 8.738281 -0.222656 7.53125 0.171875 6.03125 0.171875 C 4.394531 0.171875 3.101562 -0.378906 2.15625 -1.484375 C 1.21875 -2.585938 0.75 -4.101562 0.75 -6.03125 L 0.75 -6.8125 C 0.75 -8.039062 0.96875 -9.117188 1.40625 -10.046875 C 1.84375 -10.984375 2.460938 -11.703125 3.265625 -12.203125 C 4.066406 -12.710938 5 -12.96875 6.0625 -12.96875 C 7.539062 -12.96875 8.726562 -12.570312 9.625 -11.78125 C 10.53125 -10.988281 11.054688 -9.878906 11.203125 -8.453125 L 8.5625 -8.453125 C 8.5 -9.273438 8.269531 -9.867188 7.875 -10.234375 C 7.476562 -10.609375 6.875 -10.796875 6.0625 -10.796875 C 5.1875 -10.796875 4.53125 -10.476562 4.09375 -9.84375 C 3.65625 -9.21875 3.429688 -8.242188 3.421875 -6.921875 L 3.421875 -5.96875 C 3.421875 -4.582031 3.628906 -3.566406 4.046875 -2.921875 C 4.472656 -2.285156 5.132812 -1.96875 6.03125 -1.96875 C 6.84375 -1.96875 7.445312 -2.15625 7.84375 -2.53125 C 8.25 -2.90625 8.484375 -3.484375 8.546875 -4.265625 Z M 11.171875 -4.265625 "/></g></g><g transform="translate(653.959264, 512.513089)"><g><path d="M 0.578125 -4.84375 C 0.578125 -5.78125 0.757812 -6.617188 1.125 -7.359375 C 1.488281 -8.097656 2.007812 -8.664062 2.6875 -9.0625 C 3.375 -9.46875 4.164062 -9.671875 5.0625 -9.671875 C 6.34375 -9.671875 7.390625 -9.28125 8.203125 -8.5 C 9.015625 -7.71875 9.46875 -6.648438 9.5625 -5.296875 L 9.578125 -4.65625 C 9.578125 -3.195312 9.171875 -2.023438 8.359375 -1.140625 C 7.546875 -0.265625 6.453125 0.171875 5.078125 0.171875 C 3.710938 0.171875 2.617188 -0.265625 1.796875 -1.140625 C 0.984375 -2.015625 0.578125 -3.207031 0.578125 -4.71875 Z M 3.125 -4.65625 C 3.125 -3.75 3.289062 -3.054688 3.625 -2.578125 C 3.96875 -2.109375 4.453125 -1.875 5.078125 -1.875 C 5.691406 -1.875 6.171875 -2.109375 6.515625 -2.578125 C 6.867188 -3.046875 7.046875 -3.800781 7.046875 -4.84375 C 7.046875 -5.726562 6.867188 -6.410156 6.515625 -6.890625 C 6.171875 -7.378906 5.6875 -7.625 5.0625 -7.625 C 4.445312 -7.625 3.96875 -7.378906 3.625 -6.890625 C 3.289062 -6.410156 3.125 -5.664062 3.125 -4.65625 Z M 3.125 -4.65625 "/></g></g><g transform="translate(664.130731, 512.513089)"><g><path d="M 3.3125 -9.5 L 3.390625 -8.40625 C 4.066406 -9.25 4.976562 -9.671875 6.125 -9.671875 C 7.125 -9.671875 7.867188 -9.375 8.359375 -8.78125 C 8.859375 -8.195312 9.113281 -7.316406 9.125 -6.140625 L 9.125 0 L 6.59375 0 L 6.59375 -6.078125 C 6.59375 -6.617188 6.472656 -7.007812 6.234375 -7.25 C 6.003906 -7.488281 5.613281 -7.609375 5.0625 -7.609375 C 4.351562 -7.609375 3.816406 -7.304688 3.453125 -6.703125 L 3.453125 0 L 0.921875 0 L 0.921875 -9.5 Z M 3.3125 -9.5 "/></g></g><g transform="translate(674.205577, 512.513089)"><g><path d="M 4.015625 -11.84375 L 4.015625 -9.5 L 5.640625 -9.5 L 5.640625 -7.640625 L 4.015625 -7.640625 L 4.015625 -2.890625 C 4.015625 -2.546875 4.082031 -2.296875 4.21875 -2.140625 C 4.351562 -1.992188 4.609375 -1.921875 4.984375 -1.921875 C 5.265625 -1.921875 5.515625 -1.9375 5.734375 -1.96875 L 5.734375 -0.046875 C 5.234375 0.0976562 4.722656 0.171875 4.203125 0.171875 C 2.421875 0.171875 1.507812 -0.722656 1.46875 -2.515625 L 1.46875 -7.640625 L 0.09375 -7.640625 L 0.09375 -9.5 L 1.46875 -9.5 L 1.46875 -11.84375 Z M 4.015625 -11.84375 "/></g></g><g transform="translate(680.283863, 512.513089)"><g><path d="M 6.3125 -7.125 C 5.96875 -7.164062 5.664062 -7.1875 5.40625 -7.1875 C 4.4375 -7.1875 3.804688 -6.863281 3.515625 -6.21875 L 3.515625 0 L 0.96875 0 L 0.96875 -9.5 L 3.375 -9.5 L 3.4375 -8.375 C 3.945312 -9.238281 4.65625 -9.671875 5.5625 -9.671875 C 5.84375 -9.671875 6.101562 -9.632812 6.34375 -9.5625 Z M 6.3125 -7.125 "/></g></g><g transform="translate(686.84525, 512.513089)"><g><path d="M 6.484375 0 C 6.367188 -0.226562 6.28125 -0.515625 6.21875 -0.859375 C 5.601562 -0.171875 4.804688 0.171875 3.828125 0.171875 C 2.898438 0.171875 2.128906 -0.09375 1.515625 -0.625 C 0.898438 -1.164062 0.59375 -1.847656 0.59375 -2.671875 C 0.59375 -3.679688 0.96875 -4.453125 1.71875 -4.984375 C 2.46875 -5.523438 3.546875 -5.796875 4.953125 -5.796875 L 6.125 -5.796875 L 6.125 -6.34375 C 6.125 -6.78125 6.007812 -7.128906 5.78125 -7.390625 C 5.550781 -7.660156 5.195312 -7.796875 4.71875 -7.796875 C 4.289062 -7.796875 3.953125 -7.691406 3.703125 -7.484375 C 3.460938 -7.285156 3.34375 -7.003906 3.34375 -6.640625 L 0.8125 -6.640625 C 0.8125 -7.191406 0.976562 -7.703125 1.3125 -8.171875 C 1.65625 -8.640625 2.132812 -9.003906 2.75 -9.265625 C 3.375 -9.535156 4.070312 -9.671875 4.84375 -9.671875 C 6.019531 -9.671875 6.953125 -9.375 7.640625 -8.78125 C 8.328125 -8.195312 8.671875 -7.375 8.671875 -6.3125 L 8.671875 -2.203125 C 8.671875 -1.296875 8.796875 -0.613281 9.046875 -0.15625 L 9.046875 0 Z M 4.375 -1.765625 C 4.75 -1.765625 5.09375 -1.847656 5.40625 -2.015625 C 5.726562 -2.179688 5.96875 -2.40625 6.125 -2.6875 L 6.125 -4.328125 L 5.171875 -4.328125 C 3.898438 -4.328125 3.222656 -3.882812 3.140625 -3 L 3.140625 -2.859375 C 3.140625 -2.535156 3.25 -2.269531 3.46875 -2.0625 C 3.6875 -1.863281 3.988281 -1.765625 4.375 -1.765625 Z M 4.375 -1.765625 "/></g></g><g transform="translate(696.489698, 512.513089)"><g><path d="M 4.921875 -1.875 C 5.390625 -1.875 5.769531 -2 6.0625 -2.25 C 6.351562 -2.507812 6.507812 -2.851562 6.53125 -3.28125 L 8.90625 -3.28125 C 8.894531 -2.632812 8.71875 -2.046875 8.375 -1.515625 C 8.03125 -0.984375 7.554688 -0.566406 6.953125 -0.265625 C 6.359375 0.0234375 5.695312 0.171875 4.96875 0.171875 C 3.613281 0.171875 2.539062 -0.257812 1.75 -1.125 C 0.96875 -1.988281 0.578125 -3.179688 0.578125 -4.703125 L 0.578125 -4.859375 C 0.578125 -6.328125 0.96875 -7.492188 1.75 -8.359375 C 2.53125 -9.234375 3.597656 -9.671875 4.953125 -9.671875 C 6.140625 -9.671875 7.09375 -9.332031 7.8125 -8.65625 C 8.53125 -7.988281 8.894531 -7.09375 8.90625 -5.96875 L 6.53125 -5.96875 C 6.507812 -6.457031 6.351562 -6.851562 6.0625 -7.15625 C 5.769531 -7.46875 5.382812 -7.625 4.90625 -7.625 C 4.3125 -7.625 3.863281 -7.40625 3.5625 -6.96875 C 3.269531 -6.539062 3.125 -5.84375 3.125 -4.875 L 3.125 -4.625 C 3.125 -3.644531 3.269531 -2.941406 3.5625 -2.515625 C 3.863281 -2.085938 4.316406 -1.875 4.921875 -1.875 Z M 4.921875 -1.875 "/></g></g><g transform="translate(705.870636, 512.513089)"><g><path d="M 4.015625 -11.84375 L 4.015625 -9.5 L 5.640625 -9.5 L 5.640625 -7.640625 L 4.015625 -7.640625 L 4.015625 -2.890625 C 4.015625 -2.546875 4.082031 -2.296875 4.21875 -2.140625 C 4.351562 -1.992188 4.609375 -1.921875 4.984375 -1.921875 C 5.265625 -1.921875 5.515625 -1.9375 5.734375 -1.96875 L 5.734375 -0.046875 C 5.234375 0.0976562 4.722656 0.171875 4.203125 0.171875 C 2.421875 0.171875 1.507812 -0.722656 1.46875 -2.515625 L 1.46875 -7.640625 L 0.09375 -7.640625 L 0.09375 -9.5 L 1.46875 -9.5 L 1.46875 -11.84375 Z M 4.015625 -11.84375 "/></g></g></g></svg>