<svg xmlns="http://www.w3.org/2000/svg" xmlns:xlink="http://www.w3.org/1999/xlink" width="256" zoomAndPan="magnify" viewBox="0 0 192 191.999996" height="256" preserveAspectRatio="xMidYMid meet" version="1.2"><defs><clipPath id="56a8194d07"><path d="M 45 0 L 147 0 C 158.933594 0 170.378906 4.742188 178.820312 13.179688 C 187.257812 21.621094 192 33.066406 192 45 L 192 147 C 192 171.851562 171.851562 192 147 192 L 45 192 C 20.148438 192 0 171.851562 0 147 L 0 45 C 0 20.148438 20.148438 0 45 0 Z M 45 0 "/></clipPath></defs><g id="293ac79d34"><g clip-rule="nonzero" clip-path="url(#56a8194d07)"><rect x="0" width="192" y="0" height="191.999996" style="fill:#242938;fill-opacity:1;stroke:none;"/></g><path style=" stroke:none;fill-rule:nonzero;fill:#ffffff;fill-opacity:1;" d="M 150.671875 82.296875 L 150.671875 81.976562 C 150.671875 77.886719 147.410156 74.628906 143.316406 74.628906 L 142.996094 74.628906 C 141.367188 74.628906 139.894531 75.109375 138.742188 75.9375 L 102.066406 54.851562 L 102.066406 54.019531 C 102.066406 49.929688 98.804688 46.671875 94.710938 46.671875 L 94.390625 46.671875 C 90.300781 46.671875 87.039062 49.929688 87.039062 54.019531 L 87.039062 54.851562 L 50.359375 75.9375 C 49.878906 75.617188 49.527344 75.457031 49.050781 75.109375 L 49.050781 32.582031 C 51.671875 31.433594 53.460938 28.8125 53.460938 25.710938 C 53.460938 22.613281 50.007812 18.171875 45.914062 18.171875 C 41.820312 18.171875 38.367188 21.429688 38.367188 25.710938 C 38.367188 29.992188 40.160156 31.433594 42.78125 32.582031 L 42.78125 75.265625 C 40.160156 76.417969 38.367188 79.039062 38.367188 81.976562 L 38.367188 82.296875 C 38.367188 85.234375 40.160156 87.855469 42.78125 89.003906 L 42.78125 131.210938 C 40.160156 132.363281 38.367188 134.980469 38.367188 137.921875 L 38.367188 138.242188 C 38.367188 142.332031 41.628906 145.589844 45.722656 145.589844 L 46.042969 145.589844 C 47.675781 145.589844 49.144531 145.109375 50.296875 144.277344 L 86.972656 165.367188 L 86.972656 166.195312 C 86.972656 170.285156 90.234375 173.546875 94.328125 173.546875 L 94.648438 173.546875 C 98.742188 173.546875 102.003906 170.285156 102.003906 166.195312 L 102.003906 165.367188 L 138.679688 144.277344 C 139.832031 145.109375 141.300781 145.589844 142.933594 145.589844 L 143.253906 145.589844 C 147.34375 145.589844 150.605469 142.332031 150.605469 138.242188 L 150.605469 138.082031 C 150.605469 135.140625 148.816406 132.523438 146.195312 131.371094 L 146.195312 89.164062 C 148.816406 88.015625 150.605469 85.394531 150.605469 82.296875 Z M 140.023438 130.03125 C 136.601562 124.308594 130.6875 118.082031 123.332031 112.042969 C 121.699219 113.351562 119.910156 114.660156 118.246094 115.972656 C 127.585938 123.480469 133.46875 130.699219 135.929688 135.589844 C 135.769531 136.417969 135.609375 137.21875 135.609375 138.050781 L 135.609375 138.878906 L 98.933594 160.125 C 97.941406 159.488281 96.980469 158.976562 95.671875 158.816406 C 91.097656 151.117188 86.652344 133.800781 86.652344 110.253906 C 86.652344 86.707031 86.8125 103.0625 86.972656 99.773438 C 84.832031 98.78125 82.878906 97.824219 80.929688 96.832031 C 80.609375 101.242188 80.449219 105.652344 80.449219 110.253906 C 80.449219 129.230469 83.390625 148.367188 88.957031 159.488281 L 55.253906 140.03125 C 61.488281 140.03125 69.832031 138.082031 78.980469 134.46875 C 78.660156 132.328125 78.5 130.222656 78.148438 128.082031 C 66.027344 133 56.882812 134.46875 51.800781 133.480469 C 50.96875 132.488281 50.007812 131.691406 48.855469 131.179688 L 48.855469 89.132812 C 50.007812 88.652344 51 87.824219 51.800781 86.832031 C 59.3125 85.363281 76.996094 89.613281 99.253906 102.871094 C 102.195312 104.660156 104.976562 106.480469 107.597656 108.273438 C 109.390625 106.960938 111.210938 105.652344 113.003906 104.339844 C 109.582031 102.042969 106.128906 99.773438 102.515625 97.472656 C 84.191406 86.511719 66.667969 80.316406 55.21875 80.125 L 88.925781 60.667969 C 85.980469 66.542969 83.679688 74.5625 82.367188 83.734375 C 84.320312 84.566406 86.300781 85.363281 88.253906 86.355469 C 89.882812 74.757812 92.824219 66.226562 95.605469 61.496094 C 96.757812 61.335938 97.910156 60.859375 98.867188 60.1875 L 135.546875 81.433594 L 135.546875 82.265625 C 135.546875 83.09375 135.707031 83.894531 135.867188 84.566406 C 132.09375 92.425781 119.492188 105.171875 99.347656 117.28125 C 96.246094 119.230469 93.113281 120.890625 90.171875 122.363281 C 90.332031 124.660156 90.492188 126.929688 90.8125 129.070312 C 94.742188 127.121094 98.675781 124.980469 102.609375 122.679688 C 118.824219 113.03125 133.53125 100.761719 140.085938 90.125 L 140.085938 130.03125 L 139.925781 130.03125 Z M 140.023438 130.03125 "/></g></svg>