<svg xmlns="http://www.w3.org/2000/svg" xmlns:xlink="http://www.w3.org/1999/xlink" width="256" zoomAndPan="magnify" viewBox="0 0 192 191.999996" height="256" preserveAspectRatio="xMidYMid meet" version="1.2"><defs><clipPath id="c8702526f6"><path d="M 45 0 L 147 0 C 158.933594 0 170.378906 4.742188 178.820312 13.179688 C 187.257812 21.621094 192 33.066406 192 45 L 192 147 C 192 171.851562 171.851562 192 147 192 L 45 192 C 20.148438 192 0 171.851562 0 147 L 0 45 C 0 20.148438 20.148438 0 45 0 Z M 45 0 "/></clipPath><clipPath id="130ef1a5c6"><path d="M 19.199219 19.199219 L 169 19.199219 L 169 140 L 19.199219 140 Z M 19.199219 19.199219 "/></clipPath><clipPath id="cb6d8b25cf"><path d="M 50 90 L 172.949219 90 L 172.949219 172.949219 L 50 172.949219 Z M 50 90 "/></clipPath></defs><g id="b0658f9add"><g clip-rule="nonzero" clip-path="url(#c8702526f6)"><rect x="0" width="192" y="0" height="191.999996" style="fill:#242938;fill-opacity:1;stroke:none;"/></g><g clip-rule="nonzero" clip-path="url(#130ef1a5c6)"><path style=" stroke:none;fill-rule:nonzero;fill:#ffffff;fill-opacity:1;" d="M 51.070312 92.1875 C 51.070312 91.328125 51.242188 90.480469 51.570312 89.691406 C 51.898438 88.902344 52.378906 88.183594 52.984375 87.582031 C 53.59375 86.976562 54.3125 86.5 55.105469 86.171875 C 55.898438 85.847656 56.746094 85.683594 57.601562 85.6875 L 68.425781 85.722656 C 70.152344 85.722656 71.808594 86.410156 73.027344 87.628906 C 74.25 88.851562 74.933594 90.503906 74.933594 92.230469 L 74.933594 133.164062 C 76.152344 132.800781 77.71875 132.417969 79.429688 132.011719 C 80.621094 131.734375 81.679688 131.0625 82.441406 130.101562 C 83.199219 129.144531 83.613281 127.957031 83.609375 126.738281 L 83.609375 75.960938 C 83.609375 74.234375 84.296875 72.578125 85.515625 71.359375 C 86.738281 70.136719 88.394531 69.453125 90.117188 69.453125 L 100.964844 69.453125 C 102.691406 69.453125 104.347656 70.136719 105.566406 71.359375 C 106.789062 72.578125 107.472656 74.234375 107.472656 75.960938 L 107.472656 123.085938 C 107.472656 123.085938 110.191406 121.988281 112.835938 120.871094 C 113.816406 120.453125 114.65625 119.757812 115.246094 118.871094 C 115.835938 117.980469 116.152344 116.9375 116.152344 115.871094 L 116.152344 59.691406 C 116.152344 57.964844 116.835938 56.3125 118.058594 55.089844 C 119.277344 53.871094 120.933594 53.183594 122.660156 53.183594 L 133.503906 53.183594 C 135.230469 53.183594 136.886719 53.871094 138.105469 55.089844 C 139.328125 56.308594 140.011719 57.964844 140.011719 59.691406 L 140.011719 105.953125 C 149.417969 99.136719 158.949219 90.941406 166.511719 81.085938 C 167.609375 79.65625 168.332031 77.976562 168.625 76.195312 C 168.914062 74.417969 168.757812 72.59375 168.171875 70.886719 C 164.671875 60.816406 159.109375 51.585938 151.835938 43.785156 C 144.5625 35.988281 135.742188 29.792969 125.9375 25.601562 C 116.132812 21.40625 105.5625 19.308594 94.898438 19.433594 C 84.238281 19.558594 73.71875 21.910156 64.015625 26.335938 C 54.316406 30.761719 45.644531 37.164062 38.558594 45.132812 C 31.472656 53.101562 26.128906 62.460938 22.867188 72.613281 C 19.609375 82.765625 18.503906 93.488281 19.625 104.089844 C 20.746094 114.695312 24.066406 124.949219 29.378906 134.195312 C 30.304688 135.789062 31.664062 137.085938 33.300781 137.9375 C 34.941406 138.785156 36.785156 139.148438 38.621094 138.984375 C 40.671875 138.804688 43.226562 138.546875 46.265625 138.191406 C 47.585938 138.039062 48.808594 137.410156 49.695312 136.417969 C 50.582031 135.425781 51.070312 134.140625 51.074219 132.8125 Z M 51.070312 92.1875 "/></g><g clip-rule="nonzero" clip-path="url(#cb6d8b25cf)"><path style=" stroke:none;fill-rule:nonzero;fill:#8b8b8b;fill-opacity:1;" d="M 50.835938 157.839844 C 62.269531 166.15625 75.78125 171.148438 89.875 172.265625 C 103.96875 173.378906 118.097656 170.574219 130.699219 164.15625 C 143.296875 157.738281 153.875 147.960938 161.261719 135.90625 C 168.648438 123.851562 172.558594 109.984375 172.554688 95.847656 C 172.554688 94.082031 172.472656 92.335938 172.355469 90.601562 C 144.351562 132.363281 92.652344 151.886719 50.835938 157.832031 "/></g></g></svg>