<svg xmlns="http://www.w3.org/2000/svg" xmlns:xlink="http://www.w3.org/1999/xlink" width="256" zoomAndPan="magnify" viewBox="0 0 192 191.999996" height="256" preserveAspectRatio="xMidYMid meet" version="1.2"><defs><clipPath id="ea8e00959d"><path d="M 45 0 L 147 0 C 158.933594 0 170.378906 4.742188 178.820312 13.179688 C 187.257812 21.621094 192 33.066406 192 45 L 192 147 C 192 171.851562 171.851562 192 147 192 L 45 192 C 20.148438 192 0 171.851562 0 147 L 0 45 C 0 20.148438 20.148438 0 45 0 Z M 45 0 "/></clipPath><clipPath id="69c907c4e3"><path d="M 29 51 L 74 51 L 74 123 L 29 123 Z M 29 51 "/></clipPath><clipPath id="d18e4af82c"><path d="M 58.113281 118.785156 C 58.058594 117.152344 58.03125 115.519531 58.027344 113.886719 C 58.046875 89.253906 63.855469 67.164062 73.425781 51.734375 C 70.210938 52.878906 67.105469 54.257812 64.101562 55.875 C 61.101562 57.492188 58.238281 59.328125 55.519531 61.386719 C 52.796875 63.441406 50.25 65.691406 47.875 68.136719 C 45.496094 70.585938 43.320312 73.195312 41.34375 75.976562 C 39.378906 78.742188 37.636719 81.644531 36.121094 84.679688 C 34.601562 87.714844 33.328125 90.851562 32.292969 94.082031 C 31.261719 97.316406 30.484375 100.609375 29.960938 103.960938 C 29.4375 107.316406 29.171875 110.6875 29.171875 114.082031 L 29.171875 122.941406 C 38.695312 120.6875 48.339844 119.304688 58.113281 118.785156 Z M 58.113281 118.785156 "/></clipPath><linearGradient x1="10.561" gradientTransform="matrix(2.926466,0,0,2.926829,20.391514,33.630784)" y1="30.514002" x2="10.561" gradientUnits="userSpaceOnUse" y2="6.186001" id="b72a89cb9d"><stop style="stop-color:#edcf00;stop-opacity:1;" offset="0"/><stop style="stop-color:#edcf00;stop-opacity:1;" offset="0.03125"/><stop style="stop-color:#edd000;stop-opacity:1;" offset="0.0625"/><stop style="stop-color:#eed000;stop-opacity:1;" offset="0.09375"/><stop style="stop-color:#eed100;stop-opacity:1;" offset="0.125"/><stop style="stop-color:#eed200;stop-opacity:1;" offset="0.15625"/><stop style="stop-color:#eed200;stop-opacity:1;" offset="0.1875"/><stop style="stop-color:#efd300;stop-opacity:1;" offset="0.21875"/><stop style="stop-color:#efd300;stop-opacity:1;" offset="0.25"/><stop style="stop-color:#efd400;stop-opacity:1;" offset="0.28125"/><stop style="stop-color:#f0d400;stop-opacity:1;" offset="0.3125"/><stop style="stop-color:#f0d500;stop-opacity:1;" offset="0.34375"/><stop style="stop-color:#f0d600;stop-opacity:1;" offset="0.359375"/><stop style="stop-color:#f1d600;stop-opacity:1;" offset="0.375"/><stop style="stop-color:#f1d700;stop-opacity:1;" offset="0.390625"/><stop style="stop-color:#f1d700;stop-opacity:1;" offset="0.40625"/><stop style="stop-color:#f2d800;stop-opacity:1;" offset="0.421875"/><stop style="stop-color:#f2d900;stop-opacity:1;" offset="0.4375"/><stop style="stop-color:#f2d900;stop-opacity:1;" offset="0.453125"/><stop style="stop-color:#f3da00;stop-opacity:1;" offset="0.46875"/><stop style="stop-color:#f3da00;stop-opacity:1;" offset="0.484375"/><stop style="stop-color:#f3db00;stop-opacity:1;" offset="0.5"/><stop style="stop-color:#f4db00;stop-opacity:1;" offset="0.515625"/><stop style="stop-color:#f4dc00;stop-opacity:1;" offset="0.53125"/><stop style="stop-color:#f4dd00;stop-opacity:1;" offset="0.546875"/><stop style="stop-color:#f5dd00;stop-opacity:1;" offset="0.5625"/><stop style="stop-color:#f5de00;stop-opacity:1;" offset="0.578125"/><stop style="stop-color:#f5de00;stop-opacity:1;" offset="0.59375"/><stop style="stop-color:#f5df00;stop-opacity:1;" offset="0.609375"/><stop style="stop-color:#f6df00;stop-opacity:1;" offset="0.625"/><stop style="stop-color:#f6e000;stop-opacity:1;" offset="0.640625"/><stop style="stop-color:#f6e100;stop-opacity:1;" offset="0.65625"/><stop style="stop-color:#f7e100;stop-opacity:1;" offset="0.671875"/><stop style="stop-color:#f7e200;stop-opacity:1;" offset="0.6875"/><stop style="stop-color:#f7e200;stop-opacity:1;" offset="0.703125"/><stop style="stop-color:#f8e300;stop-opacity:1;" offset="0.71875"/><stop style="stop-color:#f8e300;stop-opacity:1;" offset="0.734375"/><stop style="stop-color:#f8e400;stop-opacity:1;" offset="0.75"/><stop style="stop-color:#f9e500;stop-opacity:1;" offset="0.765625"/><stop style="stop-color:#f9e500;stop-opacity:1;" offset="0.78125"/><stop style="stop-color:#f9e600;stop-opacity:1;" offset="0.796875"/><stop style="stop-color:#fae700;stop-opacity:1;" offset="0.8125"/><stop style="stop-color:#fae800;stop-opacity:1;" offset="0.828125"/><stop style="stop-color:#fbe800;stop-opacity:1;" offset="0.84375"/><stop style="stop-color:#fbe900;stop-opacity:1;" offset="0.859375"/><stop style="stop-color:#fbea00;stop-opacity:1;" offset="0.875"/><stop style="stop-color:#fceb00;stop-opacity:1;" offset="0.890625"/><stop style="stop-color:#fcec00;stop-opacity:1;" offset="0.90625"/><stop style="stop-color:#fdec00;stop-opacity:1;" offset="0.921875"/><stop style="stop-color:#fded00;stop-opacity:1;" offset="0.9375"/><stop style="stop-color:#feee00;stop-opacity:1;" offset="0.953125"/><stop style="stop-color:#feef00;stop-opacity:1;" offset="0.96875"/><stop style="stop-color:#fef000;stop-opacity:1;" offset="0.984375"/><stop style="stop-color:#fff100;stop-opacity:1;" offset="1"/></linearGradient><clipPath id="21f18456be"><path d="M 147 71 L 163 71 L 163 123 L 147 123 Z M 147 71 "/></clipPath><clipPath id="b866921729"><path d="M 162.902344 114.082031 C 162.90625 110.261719 162.578125 106.46875 161.917969 102.707031 C 161.257812 98.945312 160.277344 95.265625 158.976562 91.671875 C 157.675781 88.082031 156.074219 84.628906 154.171875 81.316406 C 152.265625 78.003906 150.089844 74.882812 147.640625 71.949219 C 151.949219 85.59375 154.058594 99.566406 153.96875 113.875 C 153.96875 116.277344 153.902344 118.644531 153.792969 121.003906 C 156.824219 121.46875 159.824219 122.101562 162.789062 122.898438 L 162.898438 114.082031 Z M 162.902344 114.082031 "/></clipPath><linearGradient x1="46.089001" gradientTransform="matrix(2.926466,0,0,2.926829,20.391514,33.630784)" y1="30.500002" x2="46.089001" gradientUnits="userSpaceOnUse" y2="13.092003" id="a71098ffe6"><stop style="stop-color:#edcf00;stop-opacity:1;" offset="0"/><stop style="stop-color:#edd000;stop-opacity:1;" offset="0.03125"/><stop style="stop-color:#eed100;stop-opacity:1;" offset="0.0625"/><stop style="stop-color:#eed200;stop-opacity:1;" offset="0.09375"/><stop style="stop-color:#efd300;stop-opacity:1;" offset="0.125"/><stop style="stop-color:#efd400;stop-opacity:1;" offset="0.15625"/><stop style="stop-color:#f0d500;stop-opacity:1;" offset="0.1875"/><stop style="stop-color:#f1d500;stop-opacity:1;" offset="0.21875"/><stop style="stop-color:#f1d600;stop-opacity:1;" offset="0.25"/><stop style="stop-color:#f2d700;stop-opacity:1;" offset="0.28125"/><stop style="stop-color:#f2d800;stop-opacity:1;" offset="0.3125"/><stop style="stop-color:#f3d900;stop-opacity:1;" offset="0.34375"/><stop style="stop-color:#f3da00;stop-opacity:1;" offset="0.375"/><stop style="stop-color:#f4db00;stop-opacity:1;" offset="0.40625"/><stop style="stop-color:#f4dc00;stop-opacity:1;" offset="0.4375"/><stop style="stop-color:#f5dd00;stop-opacity:1;" offset="0.46875"/><stop style="stop-color:#f5de00;stop-opacity:1;" offset="0.5"/><stop style="stop-color:#f6df00;stop-opacity:1;" offset="0.53125"/><stop style="stop-color:#f6e000;stop-opacity:1;" offset="0.5625"/><stop style="stop-color:#f7e000;stop-opacity:1;" offset="0.578125"/><stop style="stop-color:#f7e100;stop-opacity:1;" offset="0.59375"/><stop style="stop-color:#f7e200;stop-opacity:1;" offset="0.609375"/><stop style="stop-color:#f8e200;stop-opacity:1;" offset="0.625"/><stop style="stop-color:#f8e300;stop-opacity:1;" offset="0.640625"/><stop style="stop-color:#f8e300;stop-opacity:1;" offset="0.65625"/><stop style="stop-color:#f9e400;stop-opacity:1;" offset="0.671875"/><stop style="stop-color:#f9e500;stop-opacity:1;" offset="0.6875"/><stop style="stop-color:#f9e500;stop-opacity:1;" offset="0.703125"/><stop style="stop-color:#f9e600;stop-opacity:1;" offset="0.71875"/><stop style="stop-color:#fae600;stop-opacity:1;" offset="0.734375"/><stop style="stop-color:#fae700;stop-opacity:1;" offset="0.75"/><stop style="stop-color:#fae800;stop-opacity:1;" offset="0.765625"/><stop style="stop-color:#fbe800;stop-opacity:1;" offset="0.78125"/><stop style="stop-color:#fbe900;stop-opacity:1;" offset="0.796875"/><stop style="stop-color:#fbe900;stop-opacity:1;" offset="0.8125"/><stop style="stop-color:#fcea00;stop-opacity:1;" offset="0.828125"/><stop style="stop-color:#fceb00;stop-opacity:1;" offset="0.84375"/><stop style="stop-color:#fceb00;stop-opacity:1;" offset="0.859375"/><stop style="stop-color:#fcec00;stop-opacity:1;" offset="0.875"/><stop style="stop-color:#fdec00;stop-opacity:1;" offset="0.890625"/><stop style="stop-color:#fded00;stop-opacity:1;" offset="0.90625"/><stop style="stop-color:#fdee00;stop-opacity:1;" offset="0.921875"/><stop style="stop-color:#feee00;stop-opacity:1;" offset="0.9375"/><stop style="stop-color:#feef00;stop-opacity:1;" offset="0.953125"/><stop style="stop-color:#feef00;stop-opacity:1;" offset="0.96875"/><stop style="stop-color:#fff000;stop-opacity:1;" offset="0.984375"/><stop style="stop-color:#fff100;stop-opacity:1;" offset="1"/></linearGradient><clipPath id="05356603d1"><path d="M 23 128 L 169 128 L 169 145 L 23 145 Z M 23 128 "/></clipPath><clipPath id="f9f9619825"><path d="M 162.171875 131.902344 C 156.105469 130.4375 149.941406 129.414062 143.726562 128.839844 C 141.964844 128.644531 140.242188 128.820312 138.554688 129.359375 C 136.867188 129.902344 135.367188 130.765625 134.046875 131.949219 C 132.851562 133.03125 131.570312 133.992188 130.199219 134.835938 C 128.824219 135.679688 127.386719 136.394531 125.882812 136.972656 C 124.382812 137.550781 122.835938 137.988281 121.253906 138.28125 C 119.667969 138.574219 118.074219 138.71875 116.460938 138.71875 L 75.613281 138.71875 C 74.003906 138.71875 72.40625 138.574219 70.824219 138.277344 C 69.242188 137.984375 67.699219 137.546875 66.195312 136.96875 C 64.695312 136.390625 63.257812 135.679688 61.886719 134.835938 C 60.515625 133.992188 59.230469 133.03125 58.039062 131.953125 C 56.722656 130.761719 55.21875 129.894531 53.53125 129.347656 C 51.84375 128.800781 50.121094 128.625 48.355469 128.816406 C 42.140625 129.390625 35.976562 130.414062 29.910156 131.875 C 27.511719 132.398438 25.320312 133.390625 23.339844 134.847656 C 26.441406 139.550781 57.816406 144.492188 96.050781 144.492188 C 134.285156 144.492188 165.648438 139.535156 168.753906 134.847656 C 168.644531 134.753906 168.527344 134.664062 168.4375 134.5625 C 166.542969 133.222656 164.453125 132.335938 162.171875 131.902344 Z M 162.171875 131.902344 "/></clipPath><radialGradient gradientTransform="matrix(1.003353,0,0,0.996647,31.222365,171.586866)" id="b980222667" gradientUnits="userSpaceOnUse" r="54.074782" cx="0" fx="0" cy="0" fy="0"><stop style="stop-color:#fff100;stop-opacity:1;" offset="0"/><stop style="stop-color:#fef000;stop-opacity:1;" offset="0.015625"/><stop style="stop-color:#feef00;stop-opacity:1;" offset="0.0273438"/><stop style="stop-color:#feef00;stop-opacity:1;" offset="0.0390625"/><stop style="stop-color:#fdee00;stop-opacity:1;" offset="0.0507812"/><stop style="stop-color:#fded00;stop-opacity:1;" offset="0.0625"/><stop style="stop-color:#fded00;stop-opacity:1;" offset="0.0742188"/><stop style="stop-color:#fdec00;stop-opacity:1;" offset="0.0859375"/><stop style="stop-color:#fcec00;stop-opacity:1;" offset="0.0976562"/><stop style="stop-color:#fceb00;stop-opacity:1;" offset="0.109375"/><stop style="stop-color:#fcea00;stop-opacity:1;" offset="0.121094"/><stop style="stop-color:#fbea00;stop-opacity:1;" offset="0.132812"/><stop style="stop-color:#fbe900;stop-opacity:1;" offset="0.144531"/><stop style="stop-color:#fbe900;stop-opacity:1;" offset="0.15625"/><stop style="stop-color:#fae800;stop-opacity:1;" offset="0.167969"/><stop style="stop-color:#fae700;stop-opacity:1;" offset="0.179688"/><stop style="stop-color:#fae700;stop-opacity:1;" offset="0.191406"/><stop style="stop-color:#f9e600;stop-opacity:1;" offset="0.203125"/><stop style="stop-color:#f9e500;stop-opacity:1;" offset="0.214844"/><stop style="stop-color:#f9e500;stop-opacity:1;" offset="0.226562"/><stop style="stop-color:#f8e400;stop-opacity:1;" offset="0.25"/><stop style="stop-color:#f8e300;stop-opacity:1;" offset="0.273438"/><stop style="stop-color:#f7e200;stop-opacity:1;" offset="0.292969"/><stop style="stop-color:#f7e200;stop-opacity:1;" offset="0.3125"/><stop style="stop-color:#f7e100;stop-opacity:1;" offset="0.332031"/><stop style="stop-color:#f6e000;stop-opacity:1;" offset="0.351562"/><stop style="stop-color:#f6df00;stop-opacity:1;" offset="0.371094"/><stop style="stop-color:#f5df00;stop-opacity:1;" offset="0.390625"/><stop style="stop-color:#f5de00;stop-opacity:1;" offset="0.40625"/><stop style="stop-color:#f5de00;stop-opacity:1;" offset="0.421875"/><stop style="stop-color:#f5dd00;stop-opacity:1;" offset="0.4375"/><stop style="stop-color:#f4dd00;stop-opacity:1;" offset="0.453125"/><stop style="stop-color:#f4dc00;stop-opacity:1;" offset="0.46875"/><stop style="stop-color:#f4db00;stop-opacity:1;" offset="0.484375"/><stop style="stop-color:#f3db00;stop-opacity:1;" offset="0.5"/><stop style="stop-color:#f3da00;stop-opacity:1;" offset="0.515625"/><stop style="stop-color:#f3da00;stop-opacity:1;" offset="0.527344"/><stop style="stop-color:#f2d900;stop-opacity:1;" offset="0.539062"/><stop style="stop-color:#f2d900;stop-opacity:1;" offset="0.550781"/><stop style="stop-color:#f2d900;stop-opacity:1;" offset="0.5625"/><stop style="stop-color:#f2d800;stop-opacity:1;" offset="0.574219"/><stop style="stop-color:#f1d700;stop-opacity:1;" offset="0.597656"/><stop style="stop-color:#f1d600;stop-opacity:1;" offset="0.621094"/><stop style="stop-color:#f0d500;stop-opacity:1;" offset="0.644531"/><stop style="stop-color:#f0d500;stop-opacity:1;" offset="0.664062"/><stop style="stop-color:#efd400;stop-opacity:1;" offset="0.703125"/><stop style="stop-color:#efd300;stop-opacity:1;" offset="0.738281"/><stop style="stop-color:#efd300;stop-opacity:1;" offset="0.769531"/><stop style="stop-color:#eed200;stop-opacity:1;" offset="0.824219"/><stop style="stop-color:#eed100;stop-opacity:1;" offset="0.867188"/><stop style="stop-color:#eed000;stop-opacity:1;" offset="0.898438"/><stop style="stop-color:#edd000;stop-opacity:1;" offset="0.949219"/><stop style="stop-color:#edcf00;stop-opacity:1;" offset="1"/></radialGradient></defs><g id="773a00299c"><g clip-rule="nonzero" clip-path="url(#ea8e00959d)"><rect x="0" width="192" y="0" height="191.999996" style="fill:#242938;fill-opacity:1;stroke:none;"/></g><path style=" stroke:none;fill-rule:nonzero;fill:#fff100;fill-opacity:1;" d="M 169.003906 133.695312 L 169.003906 126.609375 C 169.003906 125.292969 166.789062 124.039062 162.8125 122.90625 L 162.90625 114.085938 C 162.90625 100.5 158.695312 87.246094 150.832031 76.109375 C 148.871094 73.339844 146.710938 70.730469 144.355469 68.285156 C 141.996094 65.84375 139.464844 63.59375 136.765625 61.535156 C 134.0625 59.476562 131.222656 57.636719 128.238281 56.011719 C 125.257812 54.390625 122.167969 53 118.976562 51.847656 L 118.691406 50.078125 C 118.542969 49.113281 118.144531 48.261719 117.496094 47.527344 C 116.847656 46.789062 116.054688 46.28125 115.113281 46.003906 C 108.9375 44.207031 102.632812 43.308594 96.199219 43.308594 C 89.769531 43.308594 83.464844 44.207031 77.289062 46.003906 C 76.359375 46.273438 75.53125 46.800781 74.894531 47.523438 C 74.257812 48.246094 73.839844 49.128906 73.695312 50.078125 L 73.421875 51.722656 C 70.207031 52.867188 67.101562 54.246094 64.097656 55.863281 C 61.097656 57.480469 58.234375 59.320312 55.515625 61.375 C 52.792969 63.429688 50.246094 65.683594 47.871094 68.128906 C 45.496094 70.574219 43.316406 73.1875 41.34375 75.96875 C 39.375 78.734375 37.632812 81.636719 36.117188 84.671875 C 34.597656 87.710938 33.324219 90.84375 32.292969 94.078125 C 31.257812 97.3125 30.480469 100.605469 29.957031 103.960938 C 29.433594 107.3125 29.171875 110.6875 29.171875 114.082031 L 29.171875 122.941406 C 25.25 124.070312 23.0625 125.3125 23.0625 126.617188 L 23.0625 133.703125 C 22.996094 134.136719 23.082031 134.53125 23.316406 134.898438 C 25.296875 133.4375 27.488281 132.445312 29.894531 131.929688 C 35.957031 130.464844 42.125 129.441406 48.339844 128.867188 C 50.097656 128.671875 51.820312 128.839844 53.507812 129.378906 C 55.195312 129.917969 56.699219 130.78125 58.015625 131.960938 C 59.210938 133.042969 60.496094 134.003906 61.867188 134.847656 C 63.238281 135.691406 64.675781 136.402344 66.179688 136.980469 C 67.683594 137.558594 69.226562 137.996094 70.8125 138.289062 C 72.394531 138.582031 73.992188 138.726562 75.601562 138.726562 L 116.46875 138.726562 C 118.078125 138.726562 119.675781 138.582031 121.257812 138.289062 C 122.84375 137.992188 124.386719 137.558594 125.890625 136.976562 C 127.390625 136.398438 128.828125 135.6875 130.203125 134.84375 C 131.574219 134 132.855469 133.035156 134.050781 131.953125 C 135.367188 130.765625 136.867188 129.902344 138.554688 129.355469 C 140.242188 128.8125 141.96875 128.632812 143.730469 128.824219 C 149.941406 129.398438 156.109375 130.417969 162.171875 131.875 C 164.453125 132.308594 166.53125 133.210938 168.40625 134.582031 C 168.507812 134.683594 168.632812 134.777344 168.722656 134.871094 C 168.960938 134.515625 169.054688 134.121094 169.003906 133.695312 Z M 169.003906 133.695312 "/><g clip-rule="nonzero" clip-path="url(#69c907c4e3)"><g clip-rule="nonzero" clip-path="url(#d18e4af82c)"><path style=" stroke:none;fill-rule:nonzero;fill:url(#b72a89cb9d);" d="M 29.171875 51.734375 L 29.171875 122.941406 L 73.425781 122.941406 L 73.425781 51.734375 Z M 29.171875 51.734375 "/></g></g><g clip-rule="nonzero" clip-path="url(#21f18456be)"><g clip-rule="nonzero" clip-path="url(#b866921729)"><path style=" stroke:none;fill-rule:nonzero;fill:url(#a71098ffe6);" d="M 147.640625 71.949219 L 147.640625 122.898438 L 162.90625 122.898438 L 162.90625 71.949219 Z M 147.640625 71.949219 "/></g></g><g clip-rule="nonzero" clip-path="url(#05356603d1)"><g clip-rule="nonzero" clip-path="url(#f9f9619825)"><path style=" stroke:none;fill-rule:nonzero;fill:url(#b980222667);" d="M 23.339844 128.625 L 23.339844 144.492188 L 168.753906 144.492188 L 168.753906 128.625 Z M 23.339844 128.625 "/></g></g><path style=" stroke:none;fill-rule:nonzero;fill:#0a0a0a;fill-opacity:1;" d="M 96.027344 64.109375 L 80.382812 90.515625 L 96.027344 100.144531 Z M 96.027344 64.109375 "/><path style=" stroke:none;fill-rule:nonzero;fill:#4b4d4d;fill-opacity:1;" d="M 96.035156 64.121094 L 96.035156 100.136719 L 111.675781 90.527344 Z M 96.035156 105.367188 L 96.035156 117.925781 C 96.328125 117.511719 111.675781 95.742188 111.675781 95.730469 L 96.035156 105.371094 Z M 96.035156 105.367188 "/><path style=" stroke:none;fill-rule:nonzero;fill:#0a0a0a;fill-opacity:1;" d="M 96.035156 105.375 L 80.390625 95.75 L 96.035156 117.933594 L 96.035156 105.367188 Z M 96.035156 105.375 "/></g></svg>