<svg xmlns="http://www.w3.org/2000/svg" xmlns:xlink="http://www.w3.org/1999/xlink" width="256" zoomAndPan="magnify" viewBox="0 0 192 191.999996" height="256" preserveAspectRatio="xMidYMid meet" version="1.2"><defs><clipPath id="081a381422"><path d="M 45 0 L 147 0 C 158.933594 0 170.378906 4.742188 178.820312 13.179688 C 187.257812 21.621094 192 33.066406 192 45 L 192 147 C 192 171.851562 171.851562 192 147 192 L 45 192 C 20.148438 192 0 171.851562 0 147 L 0 45 C 0 20.148438 20.148438 0 45 0 Z M 45 0 "/></clipPath><clipPath id="4caca9f6aa"><path d="M 19.199219 21.992188 L 172.949219 21.992188 L 172.949219 169.742188 L 19.199219 169.742188 Z M 19.199219 21.992188 "/></clipPath><clipPath id="5e8e7aaf0e"><path d="M 29 21.992188 L 163 21.992188 L 163 155 L 29 155 Z M 29 21.992188 "/></clipPath><clipPath id="1f8b9e6de7"><path d="M 19.199219 102 L 172.949219 102 L 172.949219 165 L 19.199219 165 Z M 19.199219 102 "/></clipPath><clipPath id="3e7a94d4fa"><path d="M 19.199219 52 L 172.949219 52 L 172.949219 149 L 19.199219 149 Z M 19.199219 52 "/></clipPath><clipPath id="1bdcab922c"><path d="M 19.199219 21.992188 L 172.949219 21.992188 L 172.949219 157 L 19.199219 157 Z M 19.199219 21.992188 "/></clipPath><clipPath id="1a06f58b5e"><path d="M 87 156 L 105 156 L 105 169.742188 L 87 169.742188 Z M 87 156 "/></clipPath><clipPath id="b64f750e18"><path d="M 62 148 L 130 148 L 130 169.742188 L 62 169.742188 Z M 62 148 "/></clipPath></defs><g id="0b81d65cb6"><g clip-rule="nonzero" clip-path="url(#081a381422)"><rect x="0" width="192" y="0" height="191.999996" style="fill:#242938;fill-opacity:1;stroke:none;"/></g><g clip-rule="nonzero" clip-path="url(#4caca9f6aa)"><path style=" stroke:none;fill-rule:nonzero;fill:#ff5c16;fill-opacity:1;" d="M 162.839844 164.683594 L 129.734375 154.855469 L 104.773438 169.738281 L 87.355469 169.730469 L 62.378906 154.855469 L 29.289062 164.683594 L 19.226562 130.800781 L 29.289062 93.195312 L 19.226562 61.398438 L 29.289062 21.992188 L 80.992188 52.796875 L 111.136719 52.796875 L 162.839844 21.992188 L 172.902344 61.398438 L 162.839844 93.195312 L 172.902344 130.800781 Z M 162.839844 164.683594 "/></g><g clip-rule="nonzero" clip-path="url(#5e8e7aaf0e)"><path style=" stroke:none;fill-rule:nonzero;fill:#ff5c16;fill-opacity:1;" d="M 29.296875 21.992188 L 81 52.820312 L 78.945312 73.976562 Z M 62.386719 130.8125 L 85.132812 148.097656 L 62.386719 154.855469 C 62.386719 154.855469 62.386719 130.8125 62.386719 130.8125 Z M 83.316406 102.242188 L 78.945312 73.988281 L 50.957031 93.203125 L 50.941406 93.195312 L 50.941406 93.210938 L 51.03125 112.984375 L 62.378906 102.242188 Z M 162.839844 21.992188 L 111.136719 52.820312 L 113.183594 73.976562 Z M 129.75 130.8125 L 107 148.097656 L 129.75 154.855469 Z M 141.1875 93.207031 L 141.195312 93.207031 L 141.1875 93.207031 L 141.1875 93.195312 L 141.179688 93.203125 L 113.191406 73.988281 L 108.820312 102.242188 L 129.75 102.242188 L 141.105469 112.984375 C 141.105469 112.984375 141.1875 93.207031 141.1875 93.207031 Z M 141.1875 93.207031 "/></g><g clip-rule="nonzero" clip-path="url(#1f8b9e6de7)"><path style=" stroke:none;fill-rule:nonzero;fill:#e34807;fill-opacity:1;" d="M 62.378906 154.855469 L 29.289062 164.683594 L 19.226562 130.8125 L 62.378906 130.8125 C 62.378906 130.8125 62.378906 154.855469 62.378906 154.855469 Z M 83.308594 102.234375 L 89.628906 143.082031 L 80.867188 120.371094 L 51.015625 112.984375 L 62.371094 102.238281 L 83.308594 102.238281 Z M 129.75 154.855469 L 162.839844 164.683594 L 172.902344 130.8125 L 129.75 130.8125 C 129.75 130.8125 129.75 154.855469 129.75 154.855469 Z M 108.820312 102.234375 L 102.5 143.082031 L 111.261719 120.371094 L 141.113281 112.984375 L 129.753906 102.238281 L 108.820312 102.238281 Z M 108.820312 102.234375 "/></g><g clip-rule="nonzero" clip-path="url(#3e7a94d4fa)"><path style=" stroke:none;fill-rule:nonzero;fill:#ff8d5d;fill-opacity:1;" d="M 19.226562 130.800781 L 29.289062 93.195312 L 50.933594 93.195312 L 51.015625 112.976562 L 80.871094 120.363281 L 89.628906 143.074219 L 85.125 148.074219 L 62.378906 130.792969 L 19.226562 130.792969 Z M 172.902344 130.800781 L 162.839844 93.195312 L 141.191406 93.195312 L 141.113281 112.976562 L 111.261719 120.363281 L 102.5 143.074219 L 107 148.074219 L 129.75 130.792969 L 172.902344 130.792969 Z M 111.136719 52.796875 L 80.992188 52.796875 L 78.945312 73.953125 L 89.628906 143.050781 L 102.5 143.050781 L 113.191406 73.953125 Z M 111.136719 52.796875 "/></g><g clip-rule="nonzero" clip-path="url(#1bdcab922c)"><path style=" stroke:none;fill-rule:nonzero;fill:#661800;fill-opacity:1;" d="M 29.289062 21.992188 L 19.226562 61.398438 L 29.289062 93.195312 L 50.933594 93.195312 L 78.9375 73.976562 Z M 77.054688 110.4375 L 67.246094 110.4375 L 61.910156 115.65625 L 80.878906 120.347656 L 77.054688 110.429688 Z M 162.839844 21.992188 L 172.902344 61.398438 L 162.839844 93.195312 L 141.191406 93.195312 L 113.191406 73.976562 Z M 115.089844 110.4375 L 124.910156 110.4375 L 130.246094 115.664062 L 111.257812 120.363281 L 115.089844 110.429688 Z M 104.765625 156.257812 L 107.003906 148.089844 L 102.5 143.089844 L 89.621094 143.089844 L 85.117188 148.089844 L 87.355469 156.257812 "/></g><g clip-rule="nonzero" clip-path="url(#1a06f58b5e)"><path style=" stroke:none;fill-rule:nonzero;fill:#c0c4cd;fill-opacity:1;" d="M 104.765625 156.257812 L 104.765625 169.742188 L 87.355469 169.742188 L 87.355469 156.257812 Z M 104.765625 156.257812 "/></g><g clip-rule="nonzero" clip-path="url(#b64f750e18)"><path style=" stroke:none;fill-rule:nonzero;fill:#e7ebf6;fill-opacity:1;" d="M 62.386719 154.839844 L 87.371094 169.734375 L 87.371094 156.25 L 85.132812 148.082031 C 85.132812 148.082031 62.386719 154.839844 62.386719 154.839844 Z M 129.75 154.839844 L 104.765625 169.734375 L 104.765625 156.25 L 107.003906 148.082031 C 107.003906 148.082031 129.75 154.839844 129.75 154.839844 Z M 129.75 154.839844 "/></g></g></svg>