<svg xmlns="http://www.w3.org/2000/svg" xmlns:xlink="http://www.w3.org/1999/xlink" width="256" zoomAndPan="magnify" viewBox="0 0 192 191.999996" height="256" preserveAspectRatio="xMidYMid meet" version="1.2"><defs><clipPath id="f21980d885"><path d="M 45 0 L 147 0 C 158.933594 0 170.378906 4.742188 178.820312 13.179688 C 187.257812 21.621094 192 33.066406 192 45 L 192 147 C 192 171.851562 171.851562 192 147 192 L 45 192 C 20.148438 192 0 171.851562 0 147 L 0 45 C 0 20.148438 20.148438 0 45 0 Z M 45 0 "/></clipPath><clipPath id="ccb0dfb1a9"><path d="M 27.019531 19.199219 L 112 19.199219 L 112 172.949219 L 27.019531 172.949219 Z M 27.019531 19.199219 "/></clipPath><clipPath id="4878408929"><path d="M 111 19.199219 L 165 19.199219 L 165 142 L 111 142 Z M 111 19.199219 "/></clipPath></defs><g id="57193252e0"><g clip-rule="nonzero" clip-path="url(#f21980d885)"><rect x="0" width="192" y="0" height="191.999996" style="fill:#242938;fill-opacity:1;stroke:none;"/></g><g clip-rule="nonzero" clip-path="url(#ccb0dfb1a9)"><path style=" stroke:none;fill-rule:nonzero;fill:#9f4cf2;fill-opacity:1;" d="M 106.636719 146.472656 L 60.589844 100.40625 C 58.714844 98.453125 57.679688 95.8125 57.679688 92.863281 L 57.679688 27.117188 C 57.679688 23.285156 53.851562 19.457031 50.023438 19.457031 L 34.675781 19.457031 C 30.847656 19.457031 27.019531 23.285156 27.019531 27.117188 L 27.019531 103.699219 C 27.019531 107.757812 28.511719 111.664062 31.382812 114.535156 L 84.972656 168.144531 C 87.957031 171.132812 91.863281 172.625 95.804688 172.625 L 103.460938 172.625 C 107.710938 172.625 111.117188 169.179688 111.117188 164.96875 L 111.117188 157.347656 C 111.117188 153.402344 109.625 149.496094 106.636719 146.511719 Z M 106.636719 146.472656 "/></g><g clip-rule="nonzero" clip-path="url(#4878408929)"><path style=" stroke:none;fill-rule:nonzero;fill:#9f4cf2;fill-opacity:1;" d="M 164.820312 27.078125 C 164.820312 23.210938 161.03125 19.417969 157.164062 19.417969 L 141.816406 19.417969 C 137.988281 19.417969 134.160156 23.25 134.160156 27.078125 L 134.160156 92.785156 C 134.160156 95.734375 133.011719 98.378906 131.097656 100.367188 L 115.671875 115.800781 C 112.6875 118.785156 111.195312 122.691406 111.195312 126.636719 L 111.195312 134.296875 C 111.195312 138.546875 114.636719 141.953125 118.847656 141.953125 L 126.503906 141.953125 C 130.410156 141.953125 134.351562 140.460938 137.335938 137.472656 L 160.304688 114.5 C 163.175781 111.625 164.785156 107.722656 164.785156 103.660156 L 164.785156 27.078125 Z M 164.820312 27.078125 "/></g></g></svg>