<svg xmlns="http://www.w3.org/2000/svg" xmlns:xlink="http://www.w3.org/1999/xlink" width="256" zoomAndPan="magnify" viewBox="0 0 192 191.999996" height="256" preserveAspectRatio="xMidYMid meet" version="1.2"><defs><clipPath id="345da0205b"><path d="M 45 0 L 147 0 C 158.933594 0 170.378906 4.742188 178.820312 13.179688 C 187.257812 21.621094 192 33.066406 192 45 L 192 147 C 192 171.851562 171.851562 192 147 192 L 45 192 C 20.148438 192 0 171.851562 0 147 L 0 45 C 0 20.148438 20.148438 0 45 0 Z M 45 0 "/></clipPath></defs><g id="209c43797a"><g clip-rule="nonzero" clip-path="url(#345da0205b)"><rect x="0" width="192" y="0" height="191.999996" style="fill:#242938;fill-opacity:1;stroke:none;"/></g><path style=" stroke:none;fill-rule:nonzero;fill:#3396ff;fill-opacity:1;" d="M 59.796875 72.875 C 79.832031 53.34375 112.316406 53.34375 132.351562 72.875 L 134.761719 75.226562 C 135.765625 76.203125 135.765625 77.785156 134.761719 78.761719 L 126.515625 86.800781 C 126.011719 87.289062 125.203125 87.289062 124.699219 86.800781 L 121.382812 83.566406 C 107.40625 69.941406 84.746094 69.941406 70.765625 83.566406 L 67.214844 87.03125 C 66.714844 87.519531 65.902344 87.519531 65.398438 87.03125 L 57.152344 78.992188 C 56.148438 78.015625 56.148438 76.429688 57.152344 75.453125 Z M 149.410156 89.503906 L 156.75 96.660156 C 157.753906 97.636719 157.753906 99.21875 156.75 100.195312 L 123.648438 132.460938 C 122.648438 133.4375 121.023438 133.4375 120.023438 132.460938 L 96.527344 109.5625 C 96.277344 109.316406 95.871094 109.316406 95.621094 109.5625 L 72.128906 132.460938 C 71.128906 133.4375 69.503906 133.4375 68.5 132.460938 L 35.398438 100.195312 C 34.398438 99.21875 34.398438 97.632812 35.398438 96.65625 L 42.738281 89.5 C 43.742188 88.527344 45.367188 88.527344 46.367188 89.5 L 69.863281 112.402344 C 70.113281 112.648438 70.519531 112.648438 70.769531 112.402344 L 94.261719 89.5 C 95.261719 88.527344 96.886719 88.527344 97.886719 89.5 L 121.382812 112.402344 C 121.632812 112.648438 122.039062 112.648438 122.289062 112.402344 L 145.78125 89.503906 C 146.785156 88.527344 148.410156 88.527344 149.410156 89.503906 Z M 149.410156 89.503906 "/></g></svg>